<svg width="24" height="25" viewBox="0 0 24 25" fill="none" xmlns="http://www.w3.org/2000/svg">
<g clip-path="url(#clip0_434_3656)">
<path d="M1.29279 17.207C1.48031 17.3945 1.73462 17.4998 1.99979 17.4998C2.26495 17.4998 2.51926 17.3945 2.70679 17.207L11.9998 7.91398L21.2928 17.207C21.385 17.3025 21.4954 17.3787 21.6174 17.4311C21.7394 17.4835 21.8706 17.5111 22.0034 17.5122C22.1362 17.5134 22.2678 17.4881 22.3907 17.4378C22.5136 17.3875 22.6253 17.3133 22.7192 17.2194C22.8131 17.1255 22.8873 17.0138 22.9376 16.8909C22.9879 16.768 23.0132 16.6364 23.012 16.5036C23.0109 16.3708 22.9833 16.2396 22.9309 16.1176C22.8785 15.9956 22.8023 15.8852 22.7068 15.793L12.7068 5.79298C12.5193 5.60551 12.265 5.50019 11.9998 5.50019C11.7346 5.50019 11.4803 5.60551 11.2928 5.79298L1.29279 15.793C1.10532 15.9805 1 16.2348 1 16.5C1 16.7651 1.10532 17.0195 1.29279 17.207Z" fill="black"/>
</g>
<defs>
<clipPath id="clip0_434_3656">
<rect width="24" height="24" fill="white" transform="translate(0 24.5) rotate(-90)"/>
</clipPath>
</defs>
</svg>
