<svg width="7" height="13" viewBox="0 0 7 13" fill="none" xmlns="http://www.w3.org/2000/svg">
<g clip-path="url(#clip0_427_2603)">
<path d="M0.79085 10.7224C0.708564 10.8075 0.64293 10.9094 0.597778 11.022C0.552625 11.1346 0.528859 11.2558 0.527865 11.3783C0.526871 11.5009 0.548669 11.6224 0.591988 11.7359C0.635307 11.8493 0.699278 11.9524 0.780171 12.0391C0.861063 12.1257 0.957255 12.1943 1.06314 12.2407C1.16902 12.2871 1.28246 12.3105 1.39686 12.3094C1.51125 12.3083 1.6243 12.2829 1.72941 12.2345C1.83452 12.1861 1.92959 12.1158 2.00906 12.0276L6.31676 7.41223C6.47827 7.23913 6.569 7.00438 6.569 6.75962C6.569 6.51485 6.47827 6.2801 6.31676 6.107L2.00906 1.49162C1.84658 1.32347 1.62895 1.23043 1.40306 1.23253C1.17716 1.23464 0.961081 1.33172 0.801344 1.50286C0.641608 1.67401 0.551001 1.90553 0.549038 2.14755C0.547075 2.38958 0.633914 2.62275 0.79085 2.79685L4.48943 6.75962L0.79085 10.7224Z" fill="#3D5165"/>
</g>
<defs>
<clipPath id="clip0_427_2603">
<rect width="7" height="12" fill="white" transform="translate(0 0.5)"/>
</clipPath>
</defs>
</svg>
