<svg width="18" height="15" viewBox="0 0 18 15" fill="none" xmlns="http://www.w3.org/2000/svg">
<path d="M9.80606 0.799043C9.61859 0.98657 9.51328 1.24088 9.51328 1.50604C9.51328 1.77121 9.61859 2.02551 9.80606 2.21304L14.0991 6.50604H1.51306C1.24785 6.50604 0.993491 6.6114 0.805955 6.79894C0.618418 6.98647 0.513062 7.24083 0.513062 7.50604C0.513062 7.77126 0.618418 8.02561 0.805955 8.21315C0.993491 8.40069 1.24785 8.50604 1.51306 8.50604H14.0991L9.80606 12.799C9.6239 12.9876 9.52311 13.2402 9.52539 13.5024C9.52767 13.7646 9.63284 14.0155 9.81824 14.2009C10.0037 14.3863 10.2545 14.4914 10.5167 14.4937C10.7789 14.496 11.0315 14.3952 11.2201 14.213L17.2201 8.21304C17.4075 8.02551 17.5128 7.77121 17.5128 7.50604C17.5128 7.24088 17.4075 6.98657 17.2201 6.79904L11.2201 0.799043C11.0325 0.611572 10.7782 0.506256 10.5131 0.506256C10.2479 0.506256 9.99359 0.611572 9.80606 0.799043Z" fill="black"/>
</svg>
