<svg width="16" height="16" viewBox="0 0 16 16" fill="none" xmlns="http://www.w3.org/2000/svg">
<path d="M5.29308 12.293C5.19757 12.3853 5.12139 12.4956 5.06898 12.6176C5.01657 12.7396 4.98898 12.8709 4.98783 13.0036C4.98668 13.1364 5.01198 13.2681 5.06226 13.391C5.11254 13.5139 5.18679 13.6255 5.28069 13.7194C5.37458 13.8133 5.48623 13.8876 5.60913 13.9379C5.73202 13.9881 5.8637 14.0134 5.99648 14.0123C6.12926 14.0111 6.26048 13.9836 6.38249 13.9311C6.50449 13.8787 6.61483 13.8026 6.70708 13.707L11.7071 8.70704C11.8946 8.51951 11.9999 8.26521 11.9999 8.00004C11.9999 7.73488 11.8946 7.48057 11.7071 7.29304L6.70708 2.29304C6.51848 2.11088 6.26588 2.01009 6.00368 2.01237C5.74148 2.01465 5.49067 2.11981 5.30526 2.30522C5.11985 2.49063 5.01469 2.74144 5.01241 3.00364C5.01013 3.26584 5.11092 3.51844 5.29308 3.70704L9.58608 8.00004L5.29308 12.293Z" fill="black"/>
</svg>
