<svg width="25" height="24" viewBox="0 0 25 24" fill="none" xmlns="http://www.w3.org/2000/svg">
<path d="M1.79303 16.707C1.98056 16.8945 2.23487 16.9998 2.50003 16.9998C2.76519 16.9998 3.0195 16.8945 3.20703 16.707L12.5 7.41401L21.793 16.707C21.8853 16.8025 21.9956 16.8787 22.1176 16.9311C22.2396 16.9835 22.3708 17.0111 22.5036 17.0123C22.6364 17.0134 22.7681 16.9881 22.891 16.9378C23.0139 16.8876 23.1255 16.8133 23.2194 16.7194C23.3133 16.6255 23.3876 16.5139 23.4379 16.391C23.4881 16.2681 23.5134 16.1364 23.5123 16.0036C23.5111 15.8708 23.4835 15.7396 23.4311 15.6176C23.3787 15.4956 23.3025 15.3853 23.207 15.293L13.207 5.29301C13.0195 5.10554 12.7652 5.00022 12.5 5.00022C12.2349 5.00022 11.9806 5.10554 11.793 5.29301L1.79303 15.293C1.60556 15.4805 1.50024 15.7348 1.50024 16C1.50024 16.2652 1.60556 16.5195 1.79303 16.707Z" fill="black"/>
</svg>
