<svg width="24" height="25" viewBox="0 0 24 25" fill="none" xmlns="http://www.w3.org/2000/svg">
<path fill-rule="evenodd" clip-rule="evenodd" d="M12 23.25C5.92487 23.25 1 18.3251 1 12.25C1 6.17487 5.92487 1.25 12 1.25C18.0751 1.25 23 6.17487 23 12.25C23 18.3251 18.0751 23.25 12 23.25ZM19.3995 17.3746C20.4086 15.9203 21 14.1542 21 12.25C21 7.27944 16.9706 3.25 12 3.25C7.02944 3.25 3 7.27944 3 12.25C3 14.1542 3.59138 15.9203 4.6005 17.3746C5.72595 15.8881 8.3706 15.25 12 15.25C15.6294 15.25 18.274 15.8881 19.3995 17.3746ZM17.9647 18.9898C17.672 17.9374 15.5694 17.25 12 17.25C8.43062 17.25 6.328 17.9374 6.03532 18.9898C7.6233 20.3962 9.71194 21.25 12 21.25C14.2881 21.25 16.3767 20.3962 17.9647 18.9898ZM12 15.25C9.76086 15.25 8 13.6774 8 10.25C8 8.00576 9.5791 6.25 12 6.25C14.4142 6.25 16 8.17158 16 10.45C16 13.7296 14.2181 15.25 12 15.25ZM10 10.25C10 12.5193 10.8182 13.25 12 13.25C13.1777 13.25 14 12.5484 14 10.45C14 9.20042 13.2157 8.25 12 8.25C10.7337 8.25 10 9.06582 10 10.25Z" fill="#3D5165"/>
</svg>
