<svg width="24" height="25" viewBox="0 0 24 25" fill="none" xmlns="http://www.w3.org/2000/svg">
<path d="M5 6.25C5 6.51522 4.89464 6.76957 4.70711 6.95711C4.51957 7.14464 4.26522 7.25 4 7.25C3.73478 7.25 3.48043 7.14464 3.29289 6.95711C3.10536 6.76957 3 6.51522 3 6.25C3 5.98478 3.10536 5.73043 3.29289 5.54289C3.48043 5.35536 3.73478 5.25 4 5.25C4.26522 5.25 4.51957 5.35536 4.70711 5.54289C4.89464 5.73043 5 5.98478 5 6.25ZM7 6.25C7 5.98478 7.10536 5.73043 7.29289 5.54289C7.48043 5.35536 7.73478 5.25 8 5.25H20C20.2652 5.25 20.5196 5.35536 20.7071 5.54289C20.8946 5.73043 21 5.98478 21 6.25C21 6.51522 20.8946 6.76957 20.7071 6.95711C20.5196 7.14464 20.2652 7.25 20 7.25H8C7.73478 7.25 7.48043 7.14464 7.29289 6.95711C7.10536 6.76957 7 6.51522 7 6.25ZM7 12.25C7 11.9848 7.10536 11.7304 7.29289 11.5429C7.48043 11.3554 7.73478 11.25 8 11.25H20C20.2652 11.25 20.5196 11.3554 20.7071 11.5429C20.8946 11.7304 21 11.9848 21 12.25C21 12.5152 20.8946 12.7696 20.7071 12.9571C20.5196 13.1446 20.2652 13.25 20 13.25H8C7.73478 13.25 7.48043 13.1446 7.29289 12.9571C7.10536 12.7696 7 12.5152 7 12.25ZM8 17.25C7.73478 17.25 7.48043 17.3554 7.29289 17.5429C7.10536 17.7304 7 17.9848 7 18.25C7 18.5152 7.10536 18.7696 7.29289 18.9571C7.48043 19.1446 7.73478 19.25 8 19.25H14C14.2652 19.25 14.5196 19.1446 14.7071 18.9571C14.8946 18.7696 15 18.5152 15 18.25C15 17.9848 14.8946 17.7304 14.7071 17.5429C14.5196 17.3554 14.2652 17.25 14 17.25H8ZM4 13.25C4.26522 13.25 4.51957 13.1446 4.70711 12.9571C4.89464 12.7696 5 12.5152 5 12.25C5 11.9848 4.89464 11.7304 4.70711 11.5429C4.51957 11.3554 4.26522 11.25 4 11.25C3.73478 11.25 3.48043 11.3554 3.29289 11.5429C3.10536 11.7304 3 11.9848 3 12.25C3 12.5152 3.10536 12.7696 3.29289 12.9571C3.48043 13.1446 3.73478 13.25 4 13.25ZM5 18.25C5 18.5152 4.89464 18.7696 4.70711 18.9571C4.51957 19.1446 4.26522 19.25 4 19.25C3.73478 19.25 3.48043 19.1446 3.29289 18.9571C3.10536 18.7696 3 18.5152 3 18.25C3 17.9848 3.10536 17.7304 3.29289 17.5429C3.48043 17.3554 3.73478 17.25 4 17.25C4.26522 17.25 4.51957 17.3554 4.70711 17.5429C4.89464 17.7304 5 17.9848 5 18.25Z" fill="#3D5165"/>
</svg>
