<svg width="24" height="25" viewBox="0 0 24 25" fill="none" xmlns="http://www.w3.org/2000/svg">
<path fill-rule="evenodd" clip-rule="evenodd" d="M7.03355 6.25C7.32754 4.06519 9.51091 2.25 12 2.25C14.489 2.25 16.6724 4.06519 16.9664 6.25H19.8469C20.9515 6.25 21.8469 7.14543 21.8469 8.25C21.8469 8.34464 21.8402 8.43916 21.8268 8.53284L20.1126 20.5328C19.9718 21.5181 19.128 22.25 18.1327 22.25H5.86725C4.87195 22.25 4.02811 21.5181 3.88735 20.5328L2.17307 8.53284C2.01686 7.43937 2.77665 6.42631 3.87012 6.2701C3.96381 6.25672 4.05833 6.25 4.15296 6.25H7.03355ZM14.9278 6.25C14.6238 5.18808 13.398 4.25 12 4.25C10.6019 4.25 9.37606 5.18808 9.07207 6.25H14.9278ZM4.15296 8.25H6.99996V10.25H8.99995V8.25H15V10.25H17V8.25H19.8469L18.1327 20.25H5.86725L4.15296 8.25Z" fill="#3D5165"/>
</svg>
