<svg width="24" height="25" viewBox="0 0 24 25" fill="none" xmlns="http://www.w3.org/2000/svg">
<path d="M11 5.25C10.212 5.25 9.43181 5.40519 8.70386 5.70672C7.9759 6.00825 7.31447 6.45021 6.75732 7.00736C6.20017 7.56451 5.75821 8.22594 5.45668 8.9539C5.15515 9.68185 4.99996 10.4621 4.99996 11.25C4.99996 12.0379 5.15515 12.8181 5.45668 13.5461C5.75821 14.2741 6.20017 14.9355 6.75732 15.4926C7.31447 16.0498 7.9759 16.4917 8.70386 16.7933C9.43181 17.0948 10.212 17.25 11 17.25C12.619 17.25 14.169 16.611 15.24 15.594C15.448 15.3961 15.7252 15.2873 16.0123 15.2909C16.2995 15.2944 16.5738 15.41 16.777 15.613L21.707 20.543C21.8891 20.7316 21.9899 20.9842 21.9876 21.2464C21.9854 21.5086 21.8802 21.7594 21.6948 21.9448C21.5094 22.1302 21.2586 22.2354 20.9964 22.2377C20.7342 22.24 20.4816 22.1392 20.293 21.957L15.947 17.611C14.5168 18.6744 12.7822 19.2491 11 19.25C9.3572 19.2498 7.75432 18.744 6.40909 17.8011C5.06386 16.8582 4.0415 15.5241 3.48093 13.9799C2.92035 12.4358 2.84873 10.7565 3.27581 9.17022C3.70288 7.58395 4.60793 6.16761 5.868 5.11363C7.12807 4.05965 8.68206 3.41914 10.3188 3.27911C11.9556 3.13909 13.5958 3.50634 15.0166 4.33098C16.4374 5.15562 17.5699 6.39765 18.2602 7.88833C18.9505 9.37902 19.1651 11.0461 18.875 12.663C18.8215 12.9173 18.6711 13.1409 18.4556 13.2862C18.2402 13.4316 17.9766 13.4874 17.7208 13.4417C17.4649 13.3961 17.2369 13.2526 17.085 13.0418C16.933 12.8309 16.8692 12.5691 16.907 12.312C17.0624 11.4479 17.0262 10.5601 16.8011 9.71147C16.5759 8.86281 16.1673 8.07391 15.604 7.40044C15.0406 6.72696 14.3364 6.18533 13.5409 5.81376C12.7453 5.44219 11.878 5.24974 11 5.25Z" fill="#3D5165"/>
</svg>
