<svg width="25" height="25" viewBox="0 0 25 25" fill="none" xmlns="http://www.w3.org/2000/svg">
<path fill-rule="evenodd" clip-rule="evenodd" d="M7.28367 6.5C7.57766 4.31519 9.76103 2.5 12.2501 2.5C14.7391 2.5 16.9225 4.31519 17.2165 6.5H20.0971C21.2016 6.5 22.0971 7.39543 22.0971 8.5C22.0971 8.59464 22.0904 8.68916 22.077 8.78284L20.3627 20.7828C20.2219 21.7681 19.3781 22.5 18.3828 22.5H6.11737C5.12207 22.5 4.27823 21.7681 4.13747 20.7828L2.42319 8.78284C2.26698 7.68937 3.02678 6.67631 4.12024 6.5201C4.21393 6.50672 4.30845 6.5 4.40309 6.5H7.28367ZM15.178 6.5C14.874 5.43808 13.6481 4.5 12.2501 4.5C10.852 4.5 9.62619 5.43808 9.3222 6.5H15.178ZM4.40309 8.5H7.25008V10.5H9.25008V8.5H15.2501V10.5H17.2501V8.5H20.0971L18.3828 20.5H6.11737L4.40309 8.5Z" fill="white"/>
</svg>
