<svg width="24" height="25" viewBox="0 0 24 25" fill="none" xmlns="http://www.w3.org/2000/svg">
<path fill-rule="evenodd" clip-rule="evenodd" d="M22 20.25V13.25H20V20.25H4V4.25H11V2.25H4C2.89543 2.25 2 3.14543 2 4.25V20.25C2 21.3546 2.89543 22.25 4 22.25H20C21.1046 22.25 22 21.3546 22 20.25ZM19.1781 2.97342C18.7197 2.51142 18.0921 2.25 17.4374 2.25C16.7834 2.25 16.1564 2.51083 15.6954 2.97463L7.3265 11.3434C6.57867 12.0023 6.08844 12.9828 6.00325 14.0373L6 17.2523V18.2523H10.1346C11.2689 18.1745 12.259 17.6795 12.9575 16.8738L21.279 8.55584C21.7407 8.09416 22.0001 7.46799 22.0001 6.81508C22.0001 6.16217 21.7407 5.536 21.279 5.07432L19.1781 2.97342ZM10.064 16.2548C10.5982 16.217 11.0955 15.9684 11.4948 15.5116L17.5567 9.44972L14.8024 6.69527L8.6961 12.7996C8.29095 13.1579 8.04031 13.6592 8 14.1178V16.2529L10.064 16.2548ZM16.2169 5.28128L18.9709 8.03551L19.8648 7.14162C19.9514 7.05502 20.0001 6.93756 20.0001 6.81508C20.0001 6.6926 19.9514 6.57514 19.8648 6.48854L17.7611 4.38486C17.6755 4.29855 17.5589 4.25 17.4374 4.25C17.3158 4.25 17.1992 4.29855 17.1136 4.38486L16.2169 5.28128Z" fill="#3D5165"/>
</svg>
