<svg width="25" height="24" viewBox="0 0 25 24" fill="none" xmlns="http://www.w3.org/2000/svg">
<g clip-path="url(#clip0_676_4028)">
<mask id="mask0_676_4028" style="mask-type:alpha" maskUnits="userSpaceOnUse" x="0" y="0" width="25" height="24">
<path d="M24.5 0H0.5V24H24.5V0Z" fill="white"/>
</mask>
<g mask="url(#mask0_676_4028)">
<path fill-rule="evenodd" clip-rule="evenodd" d="M1.5 7C1.5 5.34315 2.84314 4 4.5 4H20.5C22.1568 4 23.5 5.34315 23.5 7V8V11H21.5H3.5V17C3.5 17.5523 3.94771 18 4.5 18H11.5C12.0522 18 12.5 18.4477 12.5 19C12.5 19.5523 12.0522 20 11.5 20H4.5C2.84314 20 1.5 18.6569 1.5 17V7ZM3.5 8H21.5V7C21.5 6.44772 21.0522 6 20.5 6H4.5C3.94771 6 3.5 6.44772 3.5 7V8ZM14.5 18C14.5 17.4477 14.9477 17 15.5 17H18.5V14C18.5 13.4477 18.9477 13 19.5 13C20.0522 13 20.5 13.4477 20.5 14V17H23.5C24.0522 17 24.5 17.4477 24.5 18C24.5 18.5523 24.0522 19 23.5 19H20.5V22C20.5 22.5523 20.0522 23 19.5 23C18.9477 23 18.5 22.5523 18.5 22V19H15.5C14.9477 19 14.5 18.5523 14.5 18Z" fill="#C64034"/>
</g>
</g>
<defs>
<clipPath id="clip0_676_4028">
<rect width="24" height="24" fill="white" transform="translate(0.5)"/>
</clipPath>
</defs>
</svg>
