<svg width="24" height="25" viewBox="0 0 24 25" fill="none" xmlns="http://www.w3.org/2000/svg">
<path fill-rule="evenodd" clip-rule="evenodd" d="M10.125 3.99854C13.533 3.99854 16.3168 6.67316 16.4913 10.0374L17.9893 9.9597C17.7737 5.80249 14.3354 2.49854 10.125 2.49854C5.77572 2.49854 2.24996 6.02429 2.24996 10.3735C2.24996 11.6484 2.55348 12.8546 3.09284 13.9216C3.09247 13.9351 3.0987 14.0099 3.06955 14.1873C3.03902 14.3731 2.98927 14.5735 2.93019 14.8115C2.91049 14.8908 2.88976 14.9743 2.86835 15.0629C2.79057 15.3846 2.70387 15.7749 2.69288 16.1431C2.68222 16.4999 2.7368 17.0007 3.11744 17.3812C3.498 17.7617 3.99878 17.8162 4.35557 17.8056C4.72377 17.7946 5.11407 17.708 5.43588 17.6302C5.52464 17.6088 5.60835 17.588 5.68785 17.5683C5.92563 17.5093 6.12585 17.4596 6.31152 17.4291C6.48868 17.3999 6.56348 17.4061 6.57703 17.4058C7.52766 17.8862 8.58888 18.1796 9.71113 18.2378L9.7888 16.7398C8.86938 16.6922 8.00264 16.45 7.22771 16.0538C6.82276 15.8468 6.35439 15.9019 6.06825 15.9489C5.81692 15.9902 5.53369 16.0607 5.28287 16.1231C5.21352 16.1403 5.14664 16.1569 5.0836 16.1722C4.76016 16.2503 4.50642 16.3004 4.3109 16.3062C4.25943 16.3078 4.22185 16.3059 4.19528 16.3031C4.19252 16.2766 4.19068 16.2391 4.19221 16.1878C4.19805 15.9924 4.24817 15.7388 4.32635 15.4153C4.34157 15.3524 4.35818 15.2856 4.3754 15.2164C4.43784 14.9655 4.50836 14.6821 4.5497 14.4305C4.59676 14.1442 4.65171 13.6758 4.44466 13.2708C4.00072 12.4023 3.74996 11.4183 3.74996 10.3735C3.74996 6.85272 6.60415 3.99854 10.125 3.99854ZM4.20573 16.3579C4.20574 16.3579 4.20559 16.3575 4.20524 16.3567L4.20573 16.3579ZM4.14172 16.2931C4.14097 16.2928 4.14058 16.2927 4.14057 16.2927L4.14172 16.2931Z" fill="white"/>
<path fill-rule="evenodd" clip-rule="evenodd" d="M15.375 10.7485C12.6826 10.7485 10.5 12.9311 10.5 15.6235C10.5 18.3159 12.6826 20.4985 15.375 20.4985C16.1743 20.4985 16.9266 20.3068 17.5904 19.9674C17.9603 19.7783 18.377 19.8322 18.6033 19.8694C18.8088 19.9031 19.0414 19.961 19.2399 20.0104C19.2935 20.0237 19.3447 20.0365 19.3921 20.0479C19.6043 20.0992 19.7686 20.1325 19.8961 20.1447C19.884 20.0172 19.8506 19.8531 19.7994 19.641C19.7879 19.5936 19.7752 19.5426 19.7619 19.4891C19.7125 19.2905 19.6545 19.0577 19.6207 18.852C19.5835 18.6255 19.5298 18.2088 19.7189 17.839C20.0582 17.1751 20.25 16.4228 20.25 15.6235C20.25 12.9311 18.0674 10.7485 15.375 10.7485ZM19.8968 20.3044C19.8967 20.3043 19.897 20.3027 19.8979 20.2997C19.8973 20.303 19.8969 20.3045 19.8968 20.3044ZM20.0512 20.1463C20.0541 20.1455 20.0557 20.1452 20.0558 20.1453C20.0559 20.1454 20.0544 20.1458 20.0512 20.1463ZM9 15.6235C9 12.1027 11.8542 9.24854 15.375 9.24854C18.8958 9.24854 21.75 12.1027 21.75 15.6235C21.75 16.6419 21.5107 17.6064 21.0846 18.462C21.0854 18.4862 21.0884 18.5329 21.1009 18.6088C21.1239 18.7487 21.161 18.8984 21.2071 19.084C21.2229 19.1476 21.2397 19.2154 21.2574 19.2885C21.3187 19.5424 21.391 19.8649 21.4003 20.1737C21.4091 20.4712 21.3654 20.9212 21.0189 21.2676C20.6724 21.6139 20.2225 21.6576 19.9251 21.6488C19.6162 21.6396 19.2937 21.5673 19.0398 21.506C18.9666 21.4883 18.8986 21.4714 18.8349 21.4556C18.6495 21.4096 18.4998 21.3725 18.36 21.3495C18.2842 21.337 18.2376 21.334 18.2133 21.3332C17.3577 21.7592 16.3933 21.9985 15.375 21.9985C11.8542 21.9985 9 19.1444 9 15.6235Z" fill="white"/>
</svg>
