<svg width="24" height="24" viewBox="0 0 24 24" fill="none" xmlns="http://www.w3.org/2000/svg">
<path d="M1 4C1 2.34315 2.34315 1 4 1H20C21.6569 1 23 2.34315 23 4V20C23 21.6569 21.6569 23 20 23H4C2.34315 23 1 21.6569 1 20V4Z" fill=""/>
<path d="M19.0606 7.93934C19.6464 8.52513 19.6464 9.47487 19.0606 10.0607L11.5607 17.5606C10.9749 18.1464 10.0251 18.1464 9.43933 17.5606L4.93934 13.0607C4.35356 12.4749 4.35356 11.5251 4.93934 10.9393C5.52513 10.3536 6.47487 10.3536 7.06066 10.9393L10.5 14.3787L16.9394 7.93934C17.5251 7.35356 18.4749 7.35356 19.0606 7.93934Z" fill="white"/>
<path d="M1 4C1 2.34315 2.34315 1 4 1H20C21.6569 1 23 2.34315 23 4V20C23 21.6569 21.6569 23 20 23H4C2.34315 23 1 21.6569 1 20V4Z" stroke="" stroke-width="2"/>
</svg>
