<svg width="25" height="24" viewBox="0 0 25 24" fill="none" xmlns="http://www.w3.org/2000/svg">
<path d="M1.6084 4C1.6084 3.73478 1.71376 3.48043 1.90129 3.29289C2.08883 3.10536 2.34318 3 2.6084 3H13.6084C13.8736 3 14.128 3.10536 14.3155 3.29289C14.503 3.48043 14.6084 3.73478 14.6084 4C14.6084 4.26522 14.503 4.51957 14.3155 4.70711C14.128 4.89464 13.8736 5 13.6084 5H3.6084V17H4.7784C4.985 16.4145 5.36814 15.9074 5.875 15.5488C6.38186 15.1901 6.98749 14.9975 7.6084 14.9975C8.22931 14.9975 8.83494 15.1901 9.3418 15.5488C9.84866 15.9074 10.2318 16.4145 10.4384 17H12.6084V8C12.6084 7.73478 12.7138 7.48043 12.9013 7.29289C13.0888 7.10536 13.3432 7 13.6084 7H16.6864C17.4362 7.00011 18.1764 7.16886 18.8522 7.49377C19.528 7.81868 20.1221 8.29142 20.5904 8.877L22.5124 11.28C23.2217 12.1664 23.6082 13.2678 23.6084 14.403V18C23.6084 18.2652 23.503 18.5196 23.3155 18.7071C23.128 18.8946 22.8736 19 22.6084 19H21.4384C21.2318 19.5855 20.8487 20.0926 20.3418 20.4512C19.8349 20.8099 19.2293 21.0025 18.6084 21.0025C17.9875 21.0025 17.3819 20.8099 16.875 20.4512C16.3681 20.0926 15.985 19.5855 15.7784 19H10.4384C10.2318 19.5855 9.84866 20.0926 9.3418 20.4512C8.83494 20.8099 8.22931 21.0025 7.6084 21.0025C6.98749 21.0025 6.38186 20.8099 5.875 20.4512C5.36814 20.0926 4.985 19.5855 4.7784 19H2.6084C2.34318 19 2.08883 18.8946 1.90129 18.7071C1.71376 18.5196 1.6084 18.2652 1.6084 18V4ZM14.6084 17H15.7784C15.985 16.4145 16.3681 15.9074 16.875 15.5488C17.3819 15.1901 17.9875 14.9975 18.6084 14.9975C19.2293 14.9975 19.8349 15.1901 20.3418 15.5488C20.8487 15.9074 21.2318 16.4145 21.4384 17H21.6084V14.403C21.6085 13.7219 21.3768 13.061 20.9514 12.529L19.0284 10.126C18.7473 9.77461 18.3908 9.49096 17.9852 9.29604C17.5796 9.10113 17.1354 8.99995 16.6854 9H14.6084V11H16.6084C16.8736 11 17.128 11.1054 17.3155 11.2929C17.503 11.4804 17.6084 11.7348 17.6084 12C17.6084 12.2652 17.503 12.5196 17.3155 12.7071C17.128 12.8946 16.8736 13 16.6084 13H14.6084V17ZM8.6084 18C8.6084 17.7348 8.50304 17.4804 8.31551 17.2929C8.12797 17.1054 7.87361 17 7.6084 17C7.34318 17 7.08883 17.1054 6.90129 17.2929C6.71376 17.4804 6.6084 17.7348 6.6084 18C6.6084 18.2652 6.71376 18.5196 6.90129 18.7071C7.08883 18.8946 7.34318 19 7.6084 19C7.87361 19 8.12797 18.8946 8.31551 18.7071C8.50304 18.5196 8.6084 18.2652 8.6084 18ZM18.6084 17C18.3432 17 18.0888 17.1054 17.9013 17.2929C17.7138 17.4804 17.6084 17.7348 17.6084 18C17.6084 18.2652 17.7138 18.5196 17.9013 18.7071C18.0888 18.8946 18.3432 19 18.6084 19C18.8736 19 19.128 18.8946 19.3155 18.7071C19.503 18.5196 19.6084 18.2652 19.6084 18C19.6084 17.7348 19.503 17.4804 19.3155 17.2929C19.128 17.1054 18.8736 17 18.6084 17Z" fill="black"/>
</svg>
