<svg width="23" height="20" viewBox="0 0 23 20" fill="none" xmlns="http://www.w3.org/2000/svg">
<g clip-path="url(#clip0_681_4575)">
<path fill-rule="evenodd" clip-rule="evenodd" d="M14.055 1.75767C14.4078 0.734784 15.379 0 16.5217 0H19.1304C19.6107 0 20 0.389318 20 0.869565V4.34783C20 4.82807 19.6107 5.21739 19.1304 5.21739H16.5217C16.2158 5.21739 15.9221 5.16471 15.6493 5.06792C15.6512 5.11918 15.6522 5.16906 15.6522 5.21739C15.6522 5.69764 15.2629 6.08696 14.7826 6.08696C14.3024 6.08696 13.913 5.69764 13.913 5.21739C13.913 4.77683 13.7737 4.09664 13.3813 3.55157C13.0208 3.05084 12.4122 2.6087 11.3043 2.6087C10.8241 2.6087 10.4348 2.21938 10.4348 1.73913C10.4348 1.25888 10.8241 0.869565 11.3043 0.869565C12.4769 0.869565 13.3828 1.22121 14.055 1.75767ZM16.5217 1.73913C16.0415 1.73913 15.6522 2.12845 15.6522 2.6087C15.6522 3.08894 16.0415 3.47826 16.5217 3.47826H18.2609V1.73913H16.5217Z" fill="black"/>
<path d="M0.869565 5.21739C0.389318 5.21739 0 5.60671 0 6.08696V8.69565H1.73913V6.95652H7.73353C8.4389 7.12126 8.76259 7.53127 8.93664 7.91418C9.03257 8.12522 9.08246 8.332 9.10756 8.48765C9.11991 8.56419 9.12568 8.62475 9.12834 8.66248C9.12966 8.68123 9.13019 8.69401 9.13038 8.69991C9.13048 8.70285 9.13048 8.70338 9.13048 8.70338L9.13045 8.70096L9.13044 8.69868L9.13044 8.69726C9.13044 8.69726 9.13043 8.69565 10 8.69565C10.8696 8.69565 10.8696 8.69478 10.8696 8.69478L10.8696 8.69385L10.8696 8.69183L10.8695 8.68718L10.8694 8.67542C10.8692 8.66651 10.869 8.65544 10.8686 8.64235C10.8677 8.6162 10.8661 8.58184 10.8632 8.54031C10.8573 8.45745 10.8461 8.34478 10.8245 8.21072C10.7817 7.94517 10.6957 7.5813 10.5199 7.19452C10.1567 6.39561 9.41078 5.51711 7.99662 5.23428C7.94047 5.22305 7.88335 5.21739 7.82609 5.21739H0.869565Z" fill="black"/>
<path d="M5.21739 14.7826C4.2569 14.7826 3.47826 15.5612 3.47826 16.5217C3.47826 17.4822 4.2569 18.2609 5.21739 18.2609C6.17789 18.2609 6.95652 17.4822 6.95652 16.5217H8.69565C8.69565 18.4427 7.13838 20 5.21739 20C3.2964 20 1.73913 18.4427 1.73913 16.5217C1.73913 14.6007 3.2964 13.0435 5.21739 13.0435V14.7826Z" fill="black"/>
<path d="M20.8696 16.5217C20.8696 15.5612 20.9605 13.913 20 13.913L19.1304 13.0435C20.7512 13.0435 22.2226 14.152 22.6087 15.6522C22.6087 15.6522 22.6087 16.2215 22.6087 16.5217C22.6087 18.4427 21.0514 20 19.1304 20C17.2094 20 15.6522 18.4427 15.6522 16.5217H17.3913C17.3913 17.4822 18.1699 18.2609 19.1304 18.2609C20.0909 18.2609 20.8696 17.4822 20.8696 16.5217Z" fill="black"/>
<path fill-rule="evenodd" clip-rule="evenodd" d="M14.7826 4.34784C14.3024 4.34784 13.9131 4.73716 13.9131 5.2174V12.1739H10.2095C10.189 12.0619 10.1713 11.9322 10.1608 11.7859C10.1171 11.1731 10.1986 10.2428 10.7778 9.08455C10.9925 8.655 10.8184 8.13268 10.3889 7.9179C9.95935 7.70313 9.43702 7.87724 9.22225 8.30678C8.49703 9.75723 8.36121 11.0008 8.42614 11.9098C8.45835 12.3608 8.53943 12.7228 8.61685 12.9809C8.65556 13.1099 8.69341 13.2132 8.72394 13.2889C8.73921 13.3267 8.75267 13.3578 8.76351 13.3817C8.76614 13.3875 8.76862 13.3929 8.77094 13.3979C8.791 13.4428 8.81477 13.4857 8.84185 13.5262C8.91269 13.6327 9.00419 13.7193 9.1082 13.7834C9.25039 13.8711 9.41597 13.9166 9.58408 13.9131H19.0382C19.7852 14.086 20.2355 14.5363 20.5164 14.9777C20.5441 15.0213 20.5701 15.0646 20.5942 15.1073C20.4395 15.1501 20.2651 15.1952 20.0726 15.2405C19.1986 15.4462 17.9623 15.6522 16.5218 15.6522H5.94312L5.58372 13.6755C5.30227 12.1275 4.50439 10.7207 3.32032 9.68461L1.44219 8.04125C1.08077 7.72501 0.531408 7.76163 0.215163 8.12305C-0.101083 8.48448 -0.0644587 9.03383 0.296964 9.35008L2.17509 10.9934C3.06314 11.7705 3.66156 12.8256 3.87265 13.9866L4.35915 16.6624C4.37191 16.7408 4.39516 16.8158 4.42742 16.8857C4.4822 17.0048 4.56249 17.1079 4.6602 17.1894C4.81718 17.3202 5.01914 17.3953 5.23255 17.3913H16.5218C18.1246 17.3913 19.497 17.1626 20.4709 16.9334C20.9586 16.8187 21.3486 16.7033 21.6202 16.6152C21.756 16.5711 21.8625 16.5338 21.937 16.5068C21.9742 16.4932 22.0035 16.4822 22.0244 16.4742L22.0496 16.4645L22.0574 16.4614L22.0602 16.4603L22.0612 16.4599L21.6202 16.6152L22.0621 16.4596C22.4513 16.3039 22.674 15.8927 22.5918 15.4817L22.5915 15.48L22.5911 15.4782L22.5902 15.4739L22.5879 15.4628C22.5861 15.4544 22.5837 15.4438 22.5808 15.4313C22.575 15.4063 22.5669 15.3732 22.5562 15.3331C22.5348 15.2531 22.5026 15.1443 22.4567 15.0149C22.3655 14.7578 22.2167 14.4104 21.9836 14.044C21.5988 13.4393 20.9714 12.7681 20 12.393V8.69567C20 6.29443 18.0534 4.34784 15.6522 4.34784H14.7826ZM18.2609 12.1739V8.69567C18.2609 7.25492 17.0929 6.08697 15.6522 6.08697V12.1739H18.2609ZM20.8866 15.824C20.8873 15.827 20.8878 15.829 20.8878 15.829L20.8874 15.8274L20.887 15.8254L20.8866 15.824Z" fill="black"/>
</g>
<defs>
<clipPath id="clip0_681_4575">
<rect width="22.6088" height="20" fill="white"/>
</clipPath>
</defs>
</svg>
