<svg width="25" height="24" viewBox="0 0 25 24" fill="none" xmlns="http://www.w3.org/2000/svg">
<path d="M12.6084 5C11.2823 5 10.0105 5.52678 9.07286 6.46447C8.13518 7.40215 7.6084 8.67392 7.6084 10C7.6084 11.3261 8.13518 12.5979 9.07286 13.5355C10.0105 14.4732 11.2823 15 12.6084 15C13.9345 15 15.2063 14.4732 16.1439 13.5355C17.0816 12.5979 17.6084 11.3261 17.6084 10C17.6084 8.67392 17.0816 7.40215 16.1439 6.46447C15.2063 5.52678 13.9345 5 12.6084 5ZM9.6084 10C9.6084 9.20435 9.92447 8.44129 10.4871 7.87868C11.0497 7.31607 11.8127 7 12.6084 7C13.404 7 14.1671 7.31607 14.7297 7.87868C15.2923 8.44129 15.6084 9.20435 15.6084 10C15.6084 10.7956 15.2923 11.5587 14.7297 12.1213C14.1671 12.6839 13.404 13 12.6084 13C11.8127 13 11.0497 12.6839 10.4871 12.1213C9.92447 11.5587 9.6084 10.7956 9.6084 10Z" fill="black"/>
<path d="M12.6084 1C10.2214 1 7.93226 1.94821 6.24444 3.63604C4.55661 5.32387 3.6084 7.61305 3.6084 10C3.6084 12.514 4.7444 14.848 6.3074 16.942C7.8724 19.041 9.9384 20.992 11.9504 22.752C12.1326 22.9112 12.3664 22.999 12.6084 22.999C12.8504 22.999 13.0842 22.9112 13.2664 22.752C15.2784 20.992 17.3444 19.041 18.9104 16.942C20.4724 14.848 21.6084 12.514 21.6084 10C21.6084 7.61305 20.6602 5.32387 18.9724 3.63604C17.2845 1.94821 14.9953 1 12.6084 1ZM5.6084 10C5.6084 8.14348 6.3459 6.36301 7.65865 5.05025C8.97141 3.7375 10.7519 3 12.6084 3C14.4649 3 16.2454 3.7375 17.5581 5.05025C18.8709 6.36301 19.6084 8.14348 19.6084 10C19.6084 11.904 18.7444 13.82 17.3064 15.746C16.0314 17.456 14.3614 19.099 12.6084 20.666C10.8554 19.099 9.1854 17.456 7.9094 15.746C6.4724 13.82 5.6084 11.904 5.6084 10Z" fill="black"/>
</svg>
