<svg width="20" height="21" viewBox="0 0 20 21" fill="none" xmlns="http://www.w3.org/2000/svg">
<path fill-rule="evenodd" clip-rule="evenodd" d="M10 2C7.74566 2 5.58365 2.89553 3.98959 4.48959C2.39553 6.08365 1.5 8.24566 1.5 10.5C1.5 12.7543 2.39553 14.9163 3.98959 16.5104C5.58365 18.1045 7.74566 19 10 19C12.2543 19 14.4163 18.1045 16.0104 16.5104C17.6045 14.9163 18.5 12.7543 18.5 10.5C18.5 8.24566 17.6045 6.08365 16.0104 4.48959C14.4163 2.89553 12.2543 2 10 2ZM0 10.5C0 4.977 4.477 0.5 10 0.5C15.523 0.5 20 4.977 20 10.5C20 16.023 15.523 20.5 10 20.5C4.477 20.5 0 16.023 0 10.5Z" fill="#C64034"/>
<path fill-rule="evenodd" clip-rule="evenodd" d="M14.625 5.87296C14.3711 5.6193 14.0269 5.47681 13.668 5.47681C13.3091 5.47681 12.9649 5.6193 12.711 5.87296L12.328 6.25596L14.243 8.17096L14.626 7.78796C14.7518 7.66223 14.8515 7.51295 14.9196 7.34867C14.9876 7.18438 15.0227 7.00829 15.0227 6.83046C15.0227 6.65263 14.9876 6.47655 14.9196 6.31226C14.8515 6.14797 14.7518 5.9987 14.626 5.87296H14.625ZM13.668 8.74596L11.753 6.82996L5.625 12.959V14.874H7.54L13.668 8.74596Z" fill="#C64034"/>
</svg>
