<svg width="24" height="25" viewBox="0 0 24 25" fill="none" xmlns="http://www.w3.org/2000/svg">
<path d="M7 5.25C5.93913 5.25 4.92172 5.67143 4.17157 6.42157C3.42143 7.17172 3 8.18913 3 9.25C3 12.802 5.218 15.546 7.621 17.47C8.968 18.5383 10.4381 19.4414 12 20.16C13.5609 19.4408 15.0303 18.5378 16.377 17.47C18.78 15.544 21 12.801 21 9.25C21 8.18913 20.5786 7.17172 19.8284 6.42157C19.0783 5.67143 18.0609 5.25 17 5.25C15.043 5.25 13.348 6.646 12.98 8.45C12.9341 8.67606 12.8115 8.87929 12.6329 9.02528C12.4542 9.17126 12.2307 9.251 12 9.251C11.7693 9.251 11.5458 9.17126 11.3671 9.02528C11.1885 8.87929 11.0659 8.67606 11.02 8.45C10.652 6.646 8.957 5.25 7 5.25ZM12 22.25C11.684 22.23 11.44 22.103 11.152 21.972C9.4467 21.1855 7.84162 20.1978 6.371 19.03C3.777 16.955 1 13.699 1 9.25C1 7.6587 1.63214 6.13258 2.75736 5.00736C3.88258 3.88214 5.4087 3.25 7 3.25C7.97704 3.25255 8.93957 3.4866 9.80868 3.93298C10.6778 4.37936 11.4288 5.02535 12 5.818C12.5712 5.02535 13.3222 4.37936 14.1913 3.93298C15.0604 3.4866 16.023 3.25255 17 3.25C18.5913 3.25 20.1174 3.88214 21.2426 5.00736C22.3679 6.13258 23 7.6587 23 9.25C23 13.698 20.22 16.955 17.625 19.03C16.1544 20.1973 14.5497 21.185 12.845 21.972C12.302 22.221 12.113 22.25 12 22.25Z" fill="#C64034"/>
</svg>
