<svg width="16" height="17" viewBox="0 0 16 17" fill="none" xmlns="http://www.w3.org/2000/svg">
<g id="24 / basic / heart">
<path id="icon" fill-rule="evenodd" clip-rule="evenodd" d="M11.0358 1.83335C10.0707 1.83334 9.44859 1.94832 8.73543 2.29739C8.47139 2.42663 8.22369 2.58227 7.99364 2.76385C7.77245 2.59245 7.53465 2.44396 7.28153 2.31877C6.55454 1.95919 5.90051 1.83334 4.97002 1.83334C2.47795 1.83334 0.666992 3.89819 0.666992 6.57993C0.666992 8.60518 1.79621 10.5615 3.89955 12.4533C5.00359 13.4462 6.41321 14.4289 7.42273 14.9517L8.00033 15.2508L8.57792 14.9517C9.58744 14.4289 10.9971 13.4462 12.1011 12.4533C14.2044 10.5615 15.3337 8.60518 15.3337 6.57993C15.3337 3.92657 13.5056 1.84358 11.0358 1.83335ZM14.0003 6.57993C14.0003 8.16661 13.0578 9.79955 11.2095 11.4619C10.2018 12.3682 8.9063 13.274 8.00033 13.7491C7.09435 13.274 5.79887 12.3682 4.79118 11.4619C2.94287 9.79955 2.00033 8.16661 2.00033 6.57993C2.00033 4.59849 3.25609 3.16668 4.97002 3.16668C5.70985 3.16668 6.16574 3.2544 6.69042 3.51391C7.00033 3.66719 7.27424 3.86959 7.51135 4.12252L8.00188 4.64581L8.48796 4.11838C8.7304 3.85531 9.00833 3.6483 9.32161 3.49496C9.83091 3.24567 10.2583 3.16668 11.033 3.16668C12.7258 3.1737 14.0003 4.62599 14.0003 6.57993Z" fill="black"/>
</g>
</svg>
