<svg width="16" height="17" viewBox="0 0 16 17" fill="none" xmlns="http://www.w3.org/2000/svg">
<path fill-rule="evenodd" clip-rule="evenodd" d="M4 2C3.83928 2 3.68835 2.07726 3.59438 2.20764C3.5004 2.33803 3.47483 2.50564 3.52566 2.65811L4.06981 4.29057C4.15647 4.55056 4.28303 4.789 4.44132 5H2.5C2.22386 5 2 5.22386 2 5.5V7.5C2 7.77614 2.22386 8 2.5 8H3V14.5C3 14.7761 3.22386 15 3.5 15H12.5C12.7761 15 13 14.7761 13 14.5V8H13.5C13.7761 8 14 7.77614 14 7.5V5.5C14 5.22386 13.7761 5 13.5 5H11.5587C11.717 4.789 11.8435 4.55057 11.9302 4.29058L12.4743 2.65812C12.5252 2.50564 12.4996 2.33803 12.4056 2.20765C12.3116 2.07726 12.1607 2 12 2H9.99999C9.18219 2 8.45611 2.39267 8 2.99975C7.54388 2.39267 6.8178 2 6 2H4ZM8.5 6H13V7H8.5V6ZM7.5 6H3V7H7.5V6ZM7.5 8H4V14H7.5V8ZM8.5 14H12V8H8.5V14ZM7.49999 4.49494C7.49727 3.66884 6.82674 3 6 3H4.69371L5.01849 3.97434C5.22266 4.58685 5.79587 5 6.44152 5H7.49999L7.49999 4.49494ZM10.9815 3.97435C10.7773 4.58686 10.2041 5 9.55848 5H8.5L8.5 4.49494C8.50272 3.66884 9.17325 3 9.99999 3H11.3063L10.9815 3.97435Z" fill="white"/>
</svg>
