<svg width="24" height="24" viewBox="0 0 24 24" fill="none" xmlns="http://www.w3.org/2000/svg">
<path fill-rule="evenodd" clip-rule="evenodd" d="M12 5.24999C9.51467 5.24999 7.49995 7.26471 7.49995 9.74999C7.49995 12.2353 9.51467 14.25 12 14.25C14.4852 14.25 16.5 12.2353 16.5 9.74999C16.5 7.26471 14.4852 5.24999 12 5.24999ZM8.99995 9.74999C8.99995 8.09314 10.3431 6.74999 12 6.74999C13.6568 6.74999 15 8.09314 15 9.74999C15 11.4068 13.6568 12.75 12 12.75C10.3431 12.75 8.99995 11.4068 8.99995 9.74999Z" fill="#C64034"/>
<path fill-rule="evenodd" clip-rule="evenodd" d="M13.0755 2.73144C12.4049 2.3665 11.595 2.3665 10.9244 2.73144L10.8404 2.77714C10.7068 2.84989 10.5541 2.88025 10.4028 2.86419L10.3077 2.85411C9.54854 2.77357 8.80029 3.0835 8.32041 3.67728L8.26031 3.75165C8.16466 3.87001 8.03526 3.95647 7.88931 3.99954L7.7976 4.02661C7.06538 4.24273 6.4927 4.81541 6.27657 5.54764L6.24951 5.63934C6.20643 5.7853 6.11997 5.91469 6.00161 6.01035L5.92725 6.07045C5.33346 6.55033 5.02353 7.29857 5.10407 8.05777L5.11416 8.15285C5.13021 8.30418 5.09985 8.45681 5.02711 8.59048L4.9814 8.67446C4.61646 9.34504 4.61646 10.1549 4.9814 10.8255L5.02711 10.9095C5.09985 11.0432 5.13021 11.1958 5.11416 11.3471L5.10407 11.4422C5.02353 12.2014 5.33346 12.9497 5.92725 13.4295L6.00161 13.4896C6.11997 13.5853 6.20643 13.7147 6.24951 13.8606L6.27657 13.9523C6.28552 13.9826 6.29507 14.0127 6.30522 14.0424L3.40187 19.0711C3.26357 19.3107 3.26834 19.6069 3.41428 19.8419C3.56022 20.0768 3.82364 20.2124 4.09966 20.1946L6.29925 20.0527L7.2762 22.0286C7.39879 22.2765 7.64791 22.4368 7.92436 22.4458C8.20081 22.4547 8.45973 22.3107 8.59803 22.0711L11.5301 16.9927C11.8402 17.0589 12.161 17.0588 12.4711 16.9924L15.4033 22.0711C15.5416 22.3107 15.8005 22.4547 16.077 22.4458C16.3534 22.4368 16.6025 22.2765 16.7251 22.0286L17.7021 20.0527L19.9017 20.1946C20.1777 20.2124 20.4411 20.0768 20.587 19.8419C20.733 19.6069 20.7378 19.3107 20.5995 19.0711L17.6952 14.0409C17.7052 14.0116 17.7145 13.9821 17.7233 13.9523L17.7504 13.8606C17.7935 13.7147 17.8799 13.5853 17.9983 13.4896L18.0727 13.4295C18.6664 12.9497 18.9764 12.2014 18.8958 11.4422L18.8858 11.3471C18.8697 11.1958 18.9001 11.0432 18.9728 10.9095L19.0185 10.8255C19.3834 10.1549 19.3834 9.34505 19.0185 8.67446L18.9728 8.59048C18.9001 8.45681 18.8697 8.30418 18.8858 8.15285L18.8958 8.05777C18.9764 7.29857 18.6664 6.55033 18.0727 6.07045L17.9983 6.01035C17.8799 5.91469 17.7935 5.7853 17.7504 5.63934L17.7233 5.54764C17.5072 4.81541 16.9345 4.24273 16.2023 4.02661L16.1106 3.99955C15.9646 3.95647 15.8353 3.87001 15.7396 3.75165L15.6795 3.67728C15.1996 3.0835 14.4514 2.77357 13.6922 2.85411L13.5971 2.86419C13.4458 2.88025 13.2931 2.84989 13.1595 2.77714L13.0755 2.73144ZM16.6746 15.273C16.5269 15.3567 16.3687 15.4242 16.2023 15.4734L16.1106 15.5004C15.9646 15.5435 15.8353 15.63 15.7396 15.7483L15.6795 15.8227C15.2668 16.3334 14.6555 16.6341 14.0095 16.657L16.0016 20.1075L16.5791 18.9397C16.7133 18.6683 16.9975 18.5042 17.2996 18.5237L18.5997 18.6075L16.6746 15.273ZM5.4016 18.6075L7.32641 15.2736C7.47374 15.357 7.63157 15.4244 7.7976 15.4734L7.88931 15.5004C8.03526 15.5435 8.16466 15.63 8.26031 15.7483L8.32041 15.8227C8.73344 16.3338 9.34527 16.6346 9.99178 16.6571L7.99968 20.1075L7.42226 18.9397C7.28806 18.6683 7.00383 18.5042 6.70168 18.5237L5.4016 18.6075ZM11.6414 4.04897C11.865 3.92732 12.1349 3.92732 12.3585 4.04897L12.4424 4.09467C12.8434 4.3129 13.3013 4.40399 13.7553 4.35582L13.8504 4.34574C14.1035 4.31889 14.3529 4.4222 14.5129 4.62013L14.573 4.69449C14.8599 5.04957 15.2481 5.30895 15.686 5.43819L15.7777 5.46525C16.0218 5.53729 16.2127 5.72819 16.2847 5.97226L16.3118 6.06397C16.441 6.50183 16.7004 6.89002 17.0555 7.17699L17.1298 7.23708C17.3277 7.39704 17.4311 7.64646 17.4042 7.89952L17.3941 7.99461C17.346 8.4486 17.437 8.9065 17.6553 9.3075L17.701 9.39148C17.8226 9.61501 17.8226 9.88497 17.701 10.1085L17.6553 10.1925C17.437 10.5935 17.346 11.0514 17.3941 11.5054L17.4042 11.6005C17.4311 11.8535 17.3277 12.1029 17.1298 12.2629L17.0555 12.323C16.7004 12.61 16.441 12.9982 16.3118 13.436L16.2847 13.5277C16.2127 13.7718 16.0218 13.9627 15.7777 14.0347L15.686 14.0618C15.2481 14.191 14.8599 14.4504 14.573 14.8055L14.5129 14.8799C14.3529 15.0778 14.1035 15.1811 13.8504 15.1542L13.7553 15.1442C13.3013 15.096 12.8434 15.1871 12.4424 15.4053L12.3585 15.451C12.1349 15.5727 11.865 15.5727 11.6414 15.451L11.5575 15.4053C11.1565 15.1871 10.6986 15.096 10.2446 15.1442L10.1495 15.1542C9.89642 15.1811 9.64701 15.0778 9.48705 14.8799L9.42695 14.8055C9.13999 14.4504 8.75179 14.191 8.31393 14.0618L8.22223 14.0347C7.97815 13.9627 7.78726 13.7718 7.71522 13.5277L7.68815 13.436C7.55891 12.9982 7.29953 12.61 6.94446 12.323L6.87009 12.2629C6.67216 12.1029 6.56885 11.8535 6.5957 11.6005L6.60579 11.5054C6.65395 11.0514 6.56287 10.5935 6.34464 10.1925L6.29893 10.1085C6.17728 9.88497 6.17728 9.61501 6.29893 9.39148L6.34464 9.3075C6.56287 8.9065 6.65395 8.4486 6.60579 7.9946L6.5957 7.89952C6.56885 7.64646 6.67216 7.39704 6.87009 7.23708L6.94446 7.17699C7.29953 6.89002 7.55891 6.50183 7.68815 6.06397L7.71522 5.97226C7.78726 5.72819 7.97815 5.53729 8.22223 5.46525L8.31393 5.43819C8.75179 5.30895 9.13999 5.04957 9.42695 4.69449L9.48705 4.62013C9.64701 4.4222 9.89642 4.31889 10.1495 4.34574L10.2446 4.35582C10.6986 4.40399 11.1565 4.3129 11.5575 4.09467L11.6414 4.04897Z" fill="#C64034"/>
</svg>
