<svg width="24" height="24" viewBox="0 0 24 24" fill="none" xmlns="http://www.w3.org/2000/svg">
<path d="M8.25 6C7.83579 6 7.5 6.33579 7.5 6.75V8.25C7.5 8.66421 7.83579 9 8.25 9H10.5C10.9142 9 11.25 8.66421 11.25 8.25V6.75C11.25 6.33579 10.9142 6 10.5 6H8.25Z" fill="#C64034"/>
<path d="M6.75 12.75C6.75 12.3358 7.08579 12 7.5 12H15C15.4142 12 15.75 12.3358 15.75 12.75C15.75 13.1642 15.4142 13.5 15 13.5H7.5C7.08579 13.5 6.75 13.1642 6.75 12.75Z" fill="#C64034"/>
<path d="M7.5 16.5C7.08579 16.5 6.75 16.8358 6.75 17.25C6.75 17.6642 7.08579 18 7.5 18H16.5C16.9142 18 17.25 17.6642 17.25 17.25C17.25 16.8358 16.9142 16.5 16.5 16.5H7.5Z" fill="#C64034"/>
<path fill-rule="evenodd" clip-rule="evenodd" d="M6.75 2.25C5.50736 2.25 4.5 3.25736 4.5 4.5V19.5C4.5 20.7426 5.50736 21.75 6.75 21.75H17.25C18.4926 21.75 19.5 20.7426 19.5 19.5V8.4C19.5 5.00345 16.7465 2.25 13.35 2.25H6.75ZM6 4.5C6 4.08579 6.33579 3.75 6.75 3.75H12.6V7.5C12.6 8.74264 13.6074 9.75 14.85 9.75H18V19.5C18 19.9142 17.6642 20.25 17.25 20.25H6.75C6.33579 20.25 6 19.9142 6 19.5V4.5ZM14.1 7.5V3.81017C16.2635 4.16099 17.9265 6.00468 17.9976 8.25H14.85C14.4358 8.25 14.1 7.91421 14.1 7.5Z" fill="#C64034"/>
</svg>
