<svg width="24" height="24" viewBox="0 0 24 24" fill="none" xmlns="http://www.w3.org/2000/svg">
<path d="M9.09394 4.27878C10.7072 3.67158 12.4702 3.58497 14.1353 4.03111C14.5354 4.13832 14.9466 3.90088 15.0538 3.50078C15.161 3.10068 14.9236 2.68943 14.5235 2.58222C12.5557 2.05496 10.4722 2.15732 8.56556 2.87492C6.65894 3.59252 5.02498 4.88932 3.89317 6.58319C2.76137 8.27706 2.18857 10.2829 2.25522 12.319C2.32188 14.3551 3.02464 16.3192 4.26481 17.9354C5.50498 19.5516 7.22025 20.7388 9.16973 21.3302C11.1192 21.9215 13.205 21.8874 15.134 21.2326C17.0631 20.5777 18.7386 19.3351 19.9253 17.6792C21.1119 16.0232 21.75 14.0372 21.75 12C21.75 11.5858 21.4142 11.25 21 11.25C20.5858 11.25 20.25 11.5858 20.25 12C20.25 13.7238 19.7101 15.4043 18.706 16.8054C17.7019 18.2066 16.2842 19.2581 14.6519 19.8122C13.0196 20.3663 11.2547 20.3951 9.60515 19.8948C7.9556 19.3944 6.50421 18.3899 5.45484 17.0223C4.40546 15.6547 3.81082 13.9928 3.75442 12.2699C3.69802 10.5471 4.1827 8.84982 5.14038 7.41655C6.09806 5.98327 7.48064 4.88598 9.09394 4.27878Z" fill="#C64034"/>
<path d="M20.0897 5.71337C20.3457 5.38766 20.2891 4.91617 19.9634 4.66026C19.6377 4.40435 19.1662 4.46093 18.9103 4.78664L11.1826 14.6219L8.03033 11.4697C7.73744 11.1768 7.26257 11.1768 6.96967 11.4697C6.67678 11.7626 6.67678 12.2374 6.96967 12.5303L10.7197 16.2803C10.8713 16.432 11.0807 16.5115 11.2948 16.4987C11.5089 16.4859 11.7072 16.382 11.8397 16.2134L20.0897 5.71337Z" fill="#C64034"/>
</svg>
