<svg width="88" height="24" viewBox="0 0 88 24" fill="none" xmlns="http://www.w3.org/2000/svg">
<g clip-path="url(#clip0_690_4693)">
<path fill-rule="evenodd" clip-rule="evenodd" d="M59.4287 24H65.6824L68.3693 16.4507L71.163 14.1367L73.3636 20.9639C74.0441 23.0741 74.7447 24 76.2727 24H81.0607L76.1213 10.603L88.0001 0H80.3287L73.1179 7.54949C72.2779 8.42834 71.4281 9.29337 70.5761 10.3266H70.5036L74.1041 0H67.8499L59.4287 24Z" fill="#1AB248"/>
<path fill-rule="evenodd" clip-rule="evenodd" d="M59.159 0.000950949C61.1201 0.00126659 63.0224 0.00157273 64.6156 0.00171107L63.3247 3.96421C62.919 5.20919 61.8893 5.8048 59.6196 5.8048C55.6789 5.8048 49.8479 5.80411 45.9067 5.80343L47.1976 1.84094C47.6031 0.59528 48.6327 0 50.9024 0C53.2501 0 56.2687 0.000485808 59.159 0.000950949ZM47.7196 9.09771C51.6602 9.09771 57.4916 9.0984 61.4327 9.09943L60.1419 13.0618C59.7361 14.3071 58.7064 14.9023 56.4367 14.9023C52.4959 14.9023 46.6649 14.9017 42.7237 14.9006L44.0146 10.9387C44.4201 9.69314 45.4499 9.09771 47.7196 9.09771ZM58.0933 18.1966C54.1524 18.1959 48.3214 18.1952 44.3807 18.1952C42.1105 18.1952 41.0812 18.7908 40.6756 20.0354L39.3848 23.9985C43.3259 23.9988 49.1569 24 53.0978 24C55.3674 24 56.3972 23.4042 56.8027 22.1589L58.0933 18.1966Z" fill="#1AB248"/>
<path fill-rule="evenodd" clip-rule="evenodd" d="M31.0728 5.78057L34.429 5.78194C37.2885 5.78263 36.6358 9.23914 35.1886 12.6079C33.9134 15.5771 31.6534 18.1974 28.9572 18.197L23.3621 18.1963C21.1305 18.1963 20.1016 18.7919 19.6676 20.0365L18.2861 23.9993L22.3889 24L26.3994 23.9677C29.956 23.9393 32.8677 23.6905 36.2727 20.7287C39.8711 17.6001 44.0666 9.47217 43.3478 4.77109C42.7848 1.08716 40.7395 0.00171099 35.7869 0.00136879L26.7618 0L21.5069 14.8853L24.8457 14.8894C26.8329 14.8915 27.8301 14.9157 28.8872 12.1627L31.0728 5.78057Z" fill="#1AB248"/>
<path fill-rule="evenodd" clip-rule="evenodd" d="M15.6434 5.80126L13.1191 5.80194C8.06234 5.80434 3.72916 18.1991 9.70823 18.197L13.5499 18.1963C15.7656 18.1963 17.4104 18.9794 16.6821 21.091L15.6785 23.9993L11.6041 24L8.28989 23.9677C4.05005 23.9266 1.31408 21.9037 0.328951 18.8321C-0.737103 15.5082 0.767977 8.57549 5.13629 4.13443C7.67091 1.55802 11.1819 0.00171099 15.6834 0.00136879L24 0L22.6999 3.63242C21.86 5.97937 20.1439 5.80434 19.1646 5.804L15.6434 5.80126Z" fill="#1AB248"/>
</g>
<defs>
<clipPath id="clip0_690_4693">
<rect width="88" height="24" fill="white"/>
</clipPath>
</defs>
</svg>
