<svg width="50" height="24" viewBox="0 0 50 24" fill="none" xmlns="http://www.w3.org/2000/svg">
<g clip-path="url(#clip0_691_4812)">
<path d="M23.956 0.0180664H0V23.9748H23.956V0.0180664Z" fill="#0155A5"/>
<path d="M49.4724 0H25.4717V24H49.4724V0Z" fill="#0155A5"/>
<path fill-rule="evenodd" clip-rule="evenodd" d="M48.0322 1.44043V22.5599H26.9111V1.44043H48.0322Z" fill="#FEFEFE"/>
<path fill-rule="evenodd" clip-rule="evenodd" d="M12.9554 16.9086C12.6921 16.5876 12.5585 16.1657 12.5585 15.6558C12.5585 15.1459 12.686 14.7111 12.9372 14.403C13.2111 14.0661 13.6141 13.8953 14.1361 13.8953H14.1763V13.0219H14.1361C13.3219 13.0219 12.6936 13.2769 12.2687 13.7792C11.8817 14.2338 11.6859 14.8674 11.6859 15.6626C11.6859 16.4579 11.8991 17.0627 12.3187 17.54C12.7604 18.0415 13.3758 18.2965 14.149 18.2965H14.1892V17.4231H14.149C13.6391 17.4231 13.2377 17.2501 12.9562 16.9086H12.9554ZM9.8541 16.9086C9.59079 16.5876 9.45723 16.1665 9.45723 15.6558C9.45723 15.1451 9.58471 14.7111 9.83588 14.403C10.1098 14.0661 10.5128 13.8953 11.0348 13.8953H11.075V13.0219H11.0348C10.2206 13.0219 9.5923 13.2769 9.16736 13.7792C8.78112 14.2338 8.58459 14.8674 8.58459 15.6626C8.58459 16.4579 8.79782 17.0627 9.21744 17.54C9.65908 18.0415 10.2745 18.2965 11.0477 18.2965H11.0879V17.4231H11.0477C10.5378 17.4231 10.1364 17.2501 9.85485 16.9086H9.8541ZM12.7042 8.40526V10.8358H13.63V5.80326H12.7042V7.55614H12.2004C11.9925 7.55614 11.8377 7.50909 11.7398 7.41576C11.6692 7.34974 11.635 7.26172 11.635 7.14562V5.80402H10.7093V7.24123C10.7093 7.57208 10.8406 7.85208 11.0986 8.07442C11.3535 8.29447 11.6662 8.40602 12.0289 8.40602H12.705L12.7042 8.40526ZM21.5627 12.9028L21.4974 12.9711C21.4974 12.9711 19.7749 14.7695 19.6474 14.903V13.1433H18.8385V18.147H19.6474V16.0914C19.6679 16.0701 20.7037 14.9729 20.8206 14.8492C20.8267 15.029 20.9382 18.147 20.9382 18.147H21.7623L21.5627 12.9036V12.9028ZM15.505 10.8358H16.4308V6.63948H17.2109V5.80326H14.7371V6.63948H15.505V10.8358ZM17.6373 12.9711C17.6373 12.9711 15.9156 14.7695 15.7873 14.903V13.1433H14.9784V18.147H15.7873V16.0914C15.8078 16.0701 16.8436 14.9729 16.9605 14.8492C16.9673 15.029 17.0773 18.147 17.0773 18.147H17.9014L17.7018 12.9036L17.6366 12.9718L17.6373 12.9711ZM19.3029 6.64024H19.6383C19.8766 6.64024 20.0413 6.71157 20.1407 6.85954C20.2204 6.98171 20.2773 7.21922 20.3137 7.544H19.2809C19.2832 7.44232 19.3007 6.73813 19.3037 6.641L19.3029 6.64024ZM19.2642 8.38022C19.3644 8.38022 20.3258 8.38022 20.4199 8.38022C20.4305 8.48266 20.6794 10.8365 20.6794 10.8365H21.612L21.1848 7.157C21.1848 6.67439 21.0361 6.31091 20.7424 6.08175C20.5087 5.89736 20.1885 5.80326 19.7909 5.80326H18.4189L18.2489 10.8358H19.1747C19.1747 10.8358 19.2604 8.48949 19.2642 8.37946V8.38022ZM3.12639 6.64024H4.27297V10.8365H5.19873V5.80326H2.20062V10.8358H3.12639V6.63948V6.64024ZM3.55967 15.8743C3.49366 16.0026 3.41626 16.0671 3.32975 16.0671C3.24324 16.0671 3.17571 16.0117 3.115 15.8971C3.0505 15.7757 3.01787 15.5981 3.01787 15.3682V13.8961H3.05202C3.24324 13.8961 3.38894 14.0016 3.49821 14.2186C3.61051 14.4424 3.66743 14.7998 3.66743 15.2825C3.66743 15.5382 3.63176 15.7378 3.56043 15.8751L3.55967 15.8743ZM3.05354 13.1502H2.19531V18.1432H3.01712V16.6923C3.17647 16.832 3.34948 16.9154 3.53994 16.9154C3.81312 16.9154 4.04152 16.7705 4.21757 16.4859C4.41411 16.1657 4.51427 15.6907 4.51427 15.0745C4.51427 14.6458 4.43459 14.2618 4.27676 13.934C4.02862 13.415 3.61734 13.1509 3.05354 13.1509V13.1502ZM8.56182 9.60496C8.44117 9.93049 8.27195 10.0891 8.04355 10.0891C7.81514 10.0891 7.65958 9.92822 7.53893 9.59813C7.41297 9.25286 7.34923 8.81502 7.34923 8.29675C7.34923 7.77847 7.41221 7.32698 7.5359 6.99537C7.65427 6.67818 7.8197 6.52414 8.04355 6.52414C8.29472 6.52414 8.47304 6.6797 8.58914 7.00144C8.69689 7.29662 8.75153 7.72763 8.75153 8.28309C8.75153 8.83855 8.68779 9.26425 8.56182 9.60496ZM9.27663 10.1741C9.55133 9.69981 9.69095 9.06392 9.69095 8.28309C9.69095 7.50226 9.54677 6.88003 9.26297 6.40501C8.9731 5.92088 8.56182 5.67578 8.04203 5.67578C7.52224 5.67578 7.15649 5.92316 6.87572 6.40956C6.60103 6.88534 6.46216 7.51744 6.46216 8.28992C6.46216 9.0624 6.59572 9.73396 6.85827 10.2075C7.12765 10.6923 7.52527 10.9382 8.04203 10.9382C8.55879 10.9382 8.98221 10.681 9.27663 10.1733V10.1741ZM6.95843 16.9405C6.84992 17.2698 6.69057 17.436 6.48493 17.436C6.27929 17.436 6.13208 17.2668 6.02357 16.9329C5.9105 16.5854 5.85359 16.1452 5.85359 15.6232C5.85359 15.1011 5.90974 14.6473 6.02129 14.3134C6.12752 13.9932 6.28384 13.8308 6.48569 13.8308C6.71485 13.8308 6.878 13.9909 6.98423 14.3195C7.08136 14.617 7.12993 15.051 7.12993 15.6088C7.12993 16.1665 7.07302 16.596 6.95919 16.939L6.95843 16.9405ZM7.57004 13.7436C7.31204 13.2648 6.94781 13.0219 6.48569 13.0219C6.04785 13.0219 5.69955 13.2663 5.45066 13.7474C5.20632 14.2209 5.08187 14.8492 5.08187 15.6156C5.08187 16.382 5.201 17.0513 5.43472 17.5217C5.67299 18.0013 6.0266 18.2441 6.48569 18.2441C6.94478 18.2441 7.32115 17.9899 7.58218 17.4876C7.82653 17.0171 7.95097 16.385 7.95097 15.6088C7.95097 14.8325 7.82273 14.2133 7.57004 13.7428V13.7436Z" fill="#FEFEFE"/>
<path fill-rule="evenodd" clip-rule="evenodd" d="M32.7518 7.76416C32.9293 8.15647 33.2207 8.55865 34.0137 9.10044C34.1913 9.22186 34.387 9.47454 34.2376 9.82967C34.0881 10.1848 33.8081 10.6894 33.9758 10.8852C34.1442 11.0817 34.7422 11.1842 35.2278 10.9884C35.2278 10.9884 35.331 11.2965 35.5086 11.493C35.5086 11.493 35.4244 11.6615 35.1443 11.5772C35.1443 11.5772 35.2475 11.8292 35.1072 12.1001C35.1072 12.1001 34.7801 12.0439 34.6397 11.7449C34.6397 11.7449 34.5092 11.9794 34.2474 12.0629C34.2474 12.0629 34.0319 11.9513 34.079 11.5211C34.079 11.5211 33.9204 11.9043 33.434 11.9695C33.434 11.9695 33.154 11.6144 33.5182 11.1379C33.5182 11.1379 33.2564 11.3724 32.7799 11.26C32.7799 11.26 32.7047 11.0172 33.135 10.6803C33.135 10.6803 32.6486 10.6621 32.4619 10.2508C32.4619 10.2508 32.6676 9.99813 33.1722 10.055C33.1722 10.055 32.7047 9.95184 32.6023 9.39107C32.6023 9.39107 32.9385 9.17633 33.4711 9.52159C33.4711 9.52159 33.3778 9.34403 33.1532 9.16646C32.9286 8.9889 32.6577 8.49339 32.751 7.76492L32.7518 7.76416Z" fill="#0155A5"/>
<path fill-rule="evenodd" clip-rule="evenodd" d="M34.7071 13.4006C34.6365 13.3065 34.5834 13.2131 34.5439 13.1221C34.6274 13.802 34.6578 14.2603 35.025 14.7012C35.025 14.7012 35.2466 14.406 35.104 13.6904C35.0425 13.6722 34.9734 13.6441 34.9067 13.5986C34.9067 13.5986 34.9901 13.8892 34.9385 14.1821C34.9385 14.1821 34.8057 14.0858 34.7079 13.4006H34.7071Z" fill="#0155A5"/>
<path fill-rule="evenodd" clip-rule="evenodd" d="M34.0715 13.3304C34.0282 13.275 33.9432 13.1582 33.8992 13.0747C33.8681 13.4693 33.7641 14.5089 34.1124 14.8337C34.1124 14.8337 34.3507 14.6591 34.4357 13.1438C34.3848 13.2287 34.2968 13.3183 34.2536 13.3676C34.2536 13.3676 34.3112 13.8487 34.139 14.1879C34.139 14.1879 33.966 14.0566 34.0722 13.3304H34.0715Z" fill="#0155A5"/>
<path fill-rule="evenodd" clip-rule="evenodd" d="M33.2421 14.1246C33.535 13.774 33.6222 12.7245 33.6222 12.7245C33.6625 12.6972 33.7034 12.6676 33.7436 12.6358C33.7611 12.6221 33.777 12.6084 33.7922 12.5933C33.7922 12.6312 33.7937 12.6707 33.7968 12.7109C33.7543 13.3422 33.7049 13.994 33.5077 14.3181C33.3142 14.6352 32.9598 14.8007 32.9598 14.8007C32.6267 14.208 33.0288 13.4128 33.3658 12.8604C33.4075 12.8444 33.4492 12.8255 33.4917 12.8035C33.3733 13.2292 33.1495 13.7345 33.2413 14.1261L33.2421 14.1246Z" fill="#0155A5"/>
<path fill-rule="evenodd" clip-rule="evenodd" d="M32.4161 12.3021C32.4138 12.3704 32.4267 12.4251 32.4358 12.4539C32.4396 12.4653 32.4442 12.4805 32.4518 12.4964C32.1725 12.7711 31.9661 13.0321 31.5526 13.6066C31.1383 14.1818 30.4834 14.2045 30.4834 14.2045C30.5464 13.7394 30.6731 13.3713 31.0229 12.9745C31.3735 12.5776 31.822 12.2156 32.152 11.9751C32.237 12.0146 32.3471 12.0388 32.4874 12.0229C32.4981 12.0214 32.5087 12.0206 32.5201 12.0184C32.4753 12.076 32.4487 12.1337 32.4343 12.1876C32.1847 12.331 31.4608 12.6983 31.1671 13.2901C31.1671 13.2901 31.6254 13.1467 32.4169 12.3014L32.4161 12.3021Z" fill="#0155A5"/>
<path fill-rule="evenodd" clip-rule="evenodd" d="M31.897 11.7223L31.9243 11.673C31.9335 11.657 31.9433 11.6419 31.9539 11.6274C31.6846 11.7322 30.7247 12.0949 30.4143 12.255C30.1039 12.4166 29.6547 12.7824 29.4111 13.5245C29.4111 13.5245 30.0584 13.5829 30.5926 13.1405C31.1268 12.6974 31.7498 12.0805 32.0154 11.8839C31.9888 11.8589 31.9684 11.8354 31.9539 11.8156C31.9539 11.8156 31.2308 12.4568 30.4659 12.733C30.4659 12.733 30.6298 12.4363 30.9318 12.2208C31.2998 11.959 31.5753 11.871 31.897 11.7223Z" fill="#0155A5"/>
<path fill-rule="evenodd" clip-rule="evenodd" d="M31.3482 11.285C31.3581 11.2592 31.3695 11.2349 31.3801 11.2114C31.0637 11.2759 30.2722 11.3708 29.9178 11.4793C29.5642 11.5878 28.9253 11.8466 28.5459 12.5697C28.5459 12.5697 29.1029 12.742 30.1538 12.2472C31.2048 11.7525 31.5341 11.6508 31.7345 11.5977C31.5744 11.5855 31.4613 11.5316 31.4021 11.4952C30.9832 11.6811 30.4225 11.9027 29.8662 11.9171C29.8662 11.9171 30.1409 11.7229 30.4293 11.6022C30.7427 11.4709 31.0864 11.3518 31.3482 11.285Z" fill="#0155A5"/>
<path fill-rule="evenodd" clip-rule="evenodd" d="M31.3742 10.7641C31.4774 10.8126 31.5563 10.8369 31.6907 10.8513C31.6178 10.8984 31.5472 10.9591 31.4858 11.0395C31.1155 11.1465 30.4841 11.2634 29.443 11.3385C28.4012 11.4136 27.8457 11.2217 27.8457 11.2217C28.2092 11.0001 28.7874 10.7747 29.179 10.6988C29.5697 10.6229 30.5972 10.6313 31.0479 10.5698C31.0532 10.5744 31.1079 10.6191 31.1959 10.673C30.8172 10.7072 30.0099 10.7451 29.5933 10.9561C29.5933 10.9561 30.3627 11.0593 31.375 10.7641H31.3742Z" fill="#0155A5"/>
<path fill-rule="evenodd" clip-rule="evenodd" d="M31.2968 10.1661C31.3492 10.135 31.4129 10.1046 31.4895 10.075C30.9629 9.91491 30.2382 9.6607 29.1493 9.58937C28.3495 9.53701 27.7728 9.58254 27.4746 9.65994C27.4746 9.65994 28.2016 10.1729 29.034 10.3535C29.8657 10.5349 30.5418 10.4195 31.035 10.4233C31.0676 10.3748 31.1041 10.3201 31.1625 10.2655C30.585 10.2693 29.6243 10.1198 29.2798 10.0052C29.2798 10.0052 30.1176 9.82992 31.296 10.1653L31.2968 10.1661Z" fill="#0155A5"/>
<path fill-rule="evenodd" clip-rule="evenodd" d="M31.2935 9.54539C31.2966 9.5598 31.3573 9.85726 31.7018 10.0219C30.9619 9.69715 29.5027 9.51048 28.7196 9.18495C27.6595 8.74483 27.4668 8.19468 27.4668 8.19468C28.3835 8.1704 29.1248 8.39501 29.6962 8.56954C30.3655 8.77518 31.3838 9.15459 31.7412 9.31395C31.6077 9.31926 31.4612 9.35796 31.3375 9.43991C30.839 9.24869 30.6076 9.16825 30.1553 9.04153C29.7987 8.94212 29.5346 8.92164 29.3123 8.90039C29.3123 8.90039 29.6256 9.10831 30.1432 9.27373C30.6554 9.43763 30.8777 9.46495 31.2935 9.54387V9.54539Z" fill="#0155A5"/>
<path fill-rule="evenodd" clip-rule="evenodd" d="M31.2374 8.73725C31.2678 8.78961 31.3551 8.91558 31.3892 8.96566C30.2184 8.76912 28.9306 7.88358 28.533 7.33571C28.1346 6.78708 28.2484 5.9668 28.2484 5.9668C28.6339 6.04496 29.4732 6.76887 29.6902 6.98589C29.9072 7.20292 30.5644 7.84184 31.0181 8.19849L31.1608 8.61053C30.7715 8.2979 30.3087 7.94808 30.0211 7.73106C29.7995 7.56336 29.4679 7.32812 29.1385 7.21506C29.1385 7.21506 29.4421 7.61116 29.6872 7.80314C29.9695 8.027 30.2586 8.22126 30.4946 8.35101C30.7048 8.46635 30.8125 8.53161 31.2374 8.73801V8.73725Z" fill="#0155A5"/>
<path fill-rule="evenodd" clip-rule="evenodd" d="M34.5403 12.0136C34.576 11.9833 34.6064 11.9522 34.6322 11.9233C34.6868 11.9916 34.8666 12.2178 34.9554 12.4424C35.023 12.6351 35.095 12.8961 35.1307 13.0464C35.1664 13.1959 35.2734 13.5062 35.3379 13.6132C35.3379 13.6132 35.0526 13.6489 34.8416 13.403C34.6337 13.1602 34.5631 12.9174 34.5312 12.667C34.5054 12.4712 34.5138 12.2003 34.5403 12.0129V12.0136Z" fill="#0155A5"/>
<path fill-rule="evenodd" clip-rule="evenodd" d="M34.0896 12.0511C34.1427 12.1216 34.1936 12.1512 34.1989 12.1535L34.2368 12.1732L34.2778 12.1603C34.3127 12.1489 34.3453 12.1353 34.3764 12.1201C34.4174 12.2354 34.4341 12.2916 34.4447 12.3895C34.4584 12.52 34.4842 12.7249 34.4349 12.8926C34.3757 13.0967 34.2527 13.2212 34.1852 13.3001C34.1852 13.3001 33.9993 13.0944 33.9454 12.9252C33.8893 12.7476 33.8695 12.542 33.9386 12.3303C33.9758 12.2165 34.0365 12.1102 34.0896 12.0503V12.0511Z" fill="#0155A5"/>
<path fill-rule="evenodd" clip-rule="evenodd" d="M33.4474 12.0705C33.6379 12.0447 33.7828 11.9757 33.8914 11.896C33.9156 11.9635 33.9528 12.0538 33.9255 12.1821C33.8974 12.3103 33.8086 12.4522 33.6812 12.5554C33.4892 12.7087 33.2312 12.8536 32.9466 12.8089C32.9466 12.8089 32.8814 12.5956 33.4474 12.0705Z" fill="#0155A5"/>
<path fill-rule="evenodd" clip-rule="evenodd" d="M33.2319 11.7148C33.2546 11.9045 33.3457 12.0237 33.3533 12.0328C33.2865 12.1125 33.0467 12.5253 32.5459 12.4555C32.5459 12.4555 32.4101 12.1747 32.7439 11.9516C32.9701 11.8006 33.0771 11.7695 33.2326 11.7148H33.2319Z" fill="#0155A5"/>
<path fill-rule="evenodd" clip-rule="evenodd" d="M33.2756 11.3619C33.142 11.3953 32.9683 11.409 32.7558 11.3581L32.6981 11.3452L32.6814 11.2891C32.4242 11.4993 32.1184 11.5334 32.0137 11.7223C32.0137 11.7223 32.1419 11.9606 32.4758 11.9204C32.8089 11.8809 33.0601 11.7246 33.2384 11.5008C33.2452 11.4666 33.2597 11.4044 33.2756 11.3612V11.3619Z" fill="#0155A5"/>
<path fill-rule="evenodd" clip-rule="evenodd" d="M32.698 11.0672C32.7458 10.9974 32.7784 10.8881 32.8778 10.7781C32.6578 10.7402 32.4582 10.7371 32.1994 10.7864C31.8921 10.8449 31.578 10.917 31.4209 11.3851C31.4209 11.3851 31.619 11.5536 31.9771 11.48C32.2814 11.4178 32.5462 11.2865 32.698 11.0672Z" fill="#0155A5"/>
<path fill-rule="evenodd" clip-rule="evenodd" d="M32.5679 10.5598C32.4905 10.493 32.42 10.4057 32.3684 10.2927L32.3418 10.2342C32.0755 10.125 31.7977 10.0696 31.5261 10.1713C31.2544 10.2729 31.1823 10.3906 31.1133 10.4915C31.1133 10.4915 31.4145 10.7434 31.7613 10.7533C32.1081 10.7631 32.4283 10.6637 32.5679 10.5598Z" fill="#0155A5"/>
<path fill-rule="evenodd" clip-rule="evenodd" d="M32.6483 10.0117C32.6939 9.99421 32.7462 9.97827 32.8046 9.96613C32.6863 9.86217 32.5702 9.70434 32.514 9.46683C32.3903 9.49566 32.0997 9.49566 31.9715 9.4471C31.844 9.39853 31.592 9.39474 31.3955 9.52525C31.3955 9.52525 31.4608 9.869 31.9054 9.98662C32.3235 10.0974 32.4791 10.0686 32.6483 10.0109V10.0117Z" fill="#0155A5"/>
<path fill-rule="evenodd" clip-rule="evenodd" d="M32.4878 9.34131L32.5462 9.30413C32.5538 9.29882 32.654 9.23811 32.8239 9.22521C32.6805 9.11822 32.3406 8.8329 32.0985 8.69631C31.8352 8.54834 31.3981 8.35257 31.1758 8.32373C31.1758 8.32373 31.3845 8.8716 31.6273 9.09242C31.8792 9.32158 32.056 9.40657 32.4878 9.34207V9.34131Z" fill="#0155A5"/>
<path fill-rule="evenodd" clip-rule="evenodd" d="M32.9378 9.08921C32.8316 8.95034 32.7473 8.75988 32.6859 8.53527C32.635 8.35163 32.5212 7.8971 32.4522 7.77948C32.3839 7.6611 32.138 7.24906 31.6577 7.12158C31.6577 7.12158 31.5302 7.65807 31.7715 8.08377C31.9802 8.44952 32.4066 8.83576 32.9378 9.08996V9.08921Z" fill="#0155A5"/>
<path fill-rule="evenodd" clip-rule="evenodd" d="M35.6021 11.5862C35.662 11.6454 35.7075 11.6796 35.8145 11.7327C35.8145 11.7327 35.9678 12.0256 35.7827 12.3785C35.5968 12.7321 35.4397 13.0925 35.3653 13.2928C35.3653 13.2928 35.2652 13.2784 35.1544 12.7252C35.0792 12.3504 34.9844 12.257 34.8857 12.1288C34.9927 12.1834 35.0808 12.2001 35.0876 12.2009L35.162 12.2138L35.1961 12.1478C35.2621 12.0203 35.2818 11.8974 35.2818 11.7957C35.2818 11.7623 35.2796 11.7304 35.2765 11.7023C35.4488 11.7061 35.5406 11.6196 35.5755 11.5749C35.5785 11.5703 35.5816 11.5673 35.5839 11.5635L35.6013 11.587L35.6021 11.5862Z" fill="#0155A5"/>
<path fill-rule="evenodd" clip-rule="evenodd" d="M31.5222 7.346C31.5207 7.39684 31.5199 7.45451 31.5222 7.51521L31.5321 7.64725C31.249 7.28529 30.9091 6.84897 30.5851 6.44679C30.3627 6.17134 30.1761 6.0044 29.9666 5.87009C30.1427 6.38078 30.4568 6.78826 30.6799 6.99087C30.9022 7.19423 31.2247 7.53722 31.5389 7.74665L31.5692 7.84985C31.5935 7.94471 31.6307 8.04184 31.6831 8.13365C31.7567 8.26265 31.853 8.39013 31.9669 8.5123C31.8751 8.46753 31.7703 8.41897 31.6649 8.3742L31.5677 8.33398C30.7034 7.87565 29.8452 6.92637 29.4984 6.26468C29.1516 5.60374 29.2958 4.83657 29.3876 4.42529C29.7799 4.75842 30.3453 5.41328 30.5911 5.76992C30.8939 6.20701 31.2817 6.82696 31.5222 7.33082V7.346Z" fill="#0155A5"/>
<path fill-rule="evenodd" clip-rule="evenodd" d="M43.6486 10.1661C43.5962 10.135 43.5332 10.1046 43.4551 10.075C43.9825 9.91491 44.7064 9.6607 45.7953 9.58937C46.5943 9.53701 47.171 9.58254 47.4692 9.65994C47.4692 9.65994 46.7423 10.1729 45.9099 10.3535C45.0782 10.5349 44.4028 10.4195 43.9089 10.4233C43.8762 10.3748 43.8398 10.3201 43.7821 10.2655C44.3596 10.2693 45.3203 10.1198 45.664 10.0052C45.664 10.0052 44.8263 9.82992 43.6486 10.1653V10.1661Z" fill="#0155A5"/>
<path fill-rule="evenodd" clip-rule="evenodd" d="M43.6508 9.54539C43.6486 9.5598 43.5871 9.85726 43.2426 10.0219C43.9824 9.69715 45.4409 9.51048 46.2247 9.18495C47.2848 8.74483 47.4776 8.19468 47.4776 8.19468C46.5617 8.1704 45.8188 8.39501 45.2481 8.56954C44.5789 8.77518 43.5598 9.15459 43.2031 9.31395C43.3367 9.31926 43.4831 9.35796 43.6061 9.43991C44.1054 9.24869 44.3368 9.16825 44.7883 9.04153C45.1449 8.94212 45.409 8.92164 45.6314 8.90039C45.6314 8.90039 45.3172 9.10831 44.8004 9.27373C44.2875 9.43763 44.0667 9.46495 43.6501 9.54387L43.6508 9.54539Z" fill="#0155A5"/>
<path fill-rule="evenodd" clip-rule="evenodd" d="M43.7065 8.73725C43.6761 8.78961 43.5888 8.91558 43.5547 8.96566C44.7255 8.76912 46.0133 7.88358 46.4109 7.33571C46.8085 6.78708 46.6954 5.9668 46.6954 5.9668C46.3092 6.04496 45.4707 6.76887 45.2537 6.98589C45.0367 7.20292 44.3795 7.84184 43.9258 8.19849L43.7831 8.61053C44.1724 8.2979 44.6345 7.94808 44.9228 7.73106C45.1444 7.56336 45.476 7.32812 45.8061 7.21506C45.8061 7.21506 45.5018 7.61116 45.2575 7.80314C44.9744 8.027 44.6876 8.22126 44.4501 8.35101C44.2407 8.46635 44.1322 8.53161 43.7065 8.73801V8.73725Z" fill="#0155A5"/>
<path fill-rule="evenodd" clip-rule="evenodd" d="M43.4224 7.346C43.4239 7.39684 43.4255 7.45451 43.4232 7.51521L43.4133 7.64725C43.6964 7.28529 44.0363 6.84897 44.3603 6.44679C44.5827 6.17134 44.7693 6.0044 44.978 5.87009C44.8027 6.38078 44.4886 6.78826 44.2655 6.99087C44.0431 7.19423 43.7206 7.53722 43.4065 7.74665L43.3761 7.84985C43.3519 7.94471 43.3147 8.04184 43.2623 8.13365C43.1887 8.26265 43.0923 8.39013 42.9785 8.5123C43.0696 8.46753 43.175 8.41897 43.2805 8.3742L43.3777 8.33398C44.242 7.87565 45.1002 6.92637 45.447 6.26468C45.7937 5.60374 45.6503 4.83657 45.5577 4.42529C45.1654 4.75842 44.6001 5.41328 44.3535 5.76992C44.0507 6.20701 43.663 6.82696 43.4224 7.33082V7.346Z" fill="#0155A5"/>
<path fill-rule="evenodd" clip-rule="evenodd" d="M32.6269 12.5668C32.2703 12.9234 31.519 13.7225 31.5896 14.5906C31.5896 14.5906 32.2877 14.372 32.5746 13.8606C32.8614 13.3491 33.0397 13.0282 33.1604 12.9128C33.0822 12.9234 33.0048 12.9234 32.9297 12.9113L32.8667 12.9007C32.6899 13.2224 32.3386 13.7513 32.0229 13.9357C32.0229 13.9357 31.9425 13.5077 32.8705 12.6412C32.8842 12.6063 32.9024 12.5653 32.9282 12.5205C32.8432 12.5509 32.7461 12.5691 32.6375 12.566L32.6262 12.5676L32.6269 12.5668Z" fill="#0155A5"/>
<path fill-rule="evenodd" clip-rule="evenodd" d="M42.1933 7.76416C42.0158 8.15647 41.7244 8.55865 40.9314 9.10044C40.7538 9.22186 40.5581 9.47454 40.7075 9.82967C40.857 10.1848 41.137 10.6894 40.9686 10.8852C40.8001 11.0817 40.2022 11.1842 39.7165 10.9884C39.7165 10.9884 39.6141 11.2965 39.4365 11.493C39.4365 11.493 39.5208 11.6615 39.8008 11.5772C39.8008 11.5772 39.6976 11.8292 39.8379 12.1001C39.8379 12.1001 40.165 12.0439 40.3054 11.7449C40.3054 11.7449 40.4359 11.9794 40.6977 12.0629C40.6977 12.0629 40.9124 11.9513 40.8661 11.5211C40.8661 11.5211 41.0247 11.9043 41.5104 11.9695C41.5104 11.9695 41.7911 11.6144 41.4269 11.1379C41.4269 11.1379 41.6887 11.3724 42.1652 11.26C42.1652 11.26 42.2396 11.0172 41.8101 10.6803C41.8101 10.6803 42.2958 10.6621 42.4832 10.2508C42.4832 10.2508 42.2775 9.99813 41.7729 10.055C41.7729 10.055 42.2396 9.95184 42.3428 9.39107C42.3428 9.39107 42.0066 9.17633 41.474 9.52159C41.474 9.52159 41.5673 9.34403 41.7911 9.16646C42.0158 8.9889 42.2867 8.49339 42.1933 7.76492V7.76416Z" fill="#0155A5"/>
<path fill-rule="evenodd" clip-rule="evenodd" d="M40.2372 13.4006C40.3077 13.3065 40.3609 13.2131 40.3996 13.1221C40.3168 13.802 40.2857 14.2603 39.9185 14.7012C39.9185 14.7012 39.6969 14.406 39.8403 13.6904C39.9018 13.6722 39.9708 13.6441 40.0376 13.5986C40.0376 13.5986 39.9534 13.8892 40.0057 14.1821C40.0057 14.1821 40.1385 14.0858 40.2364 13.4006H40.2372Z" fill="#0155A5"/>
<path fill-rule="evenodd" clip-rule="evenodd" d="M40.8725 13.3304C40.9165 13.275 41.0007 13.1582 41.0455 13.0747C41.0758 13.4693 41.1798 14.5089 40.8323 14.8337C40.8323 14.8337 40.5932 14.6591 40.5098 13.1438C40.5598 13.2287 40.6486 13.3183 40.6911 13.3676C40.6911 13.3676 40.6335 13.8487 40.8057 14.1879C40.8057 14.1879 40.9787 14.0566 40.8725 13.3304Z" fill="#0155A5"/>
<path fill-rule="evenodd" clip-rule="evenodd" d="M41.7027 14.1246C41.4098 13.774 41.3218 12.7245 41.3218 12.7245C41.2816 12.6972 41.2406 12.6676 41.2004 12.6358C41.1837 12.6221 41.167 12.6084 41.1518 12.5933C41.1518 12.6312 41.151 12.6707 41.1465 12.7109C41.189 13.3422 41.2391 13.994 41.4364 14.3181C41.6291 14.6352 41.9842 14.8007 41.9842 14.8007C42.3173 14.208 41.9152 13.4128 41.5783 12.8604C41.5358 12.8444 41.494 12.8255 41.4515 12.8035C41.5699 13.2292 41.7938 13.7345 41.7019 14.1261L41.7027 14.1246Z" fill="#0155A5"/>
<path fill-rule="evenodd" clip-rule="evenodd" d="M42.5278 12.3021C42.5301 12.3704 42.5172 12.4251 42.5081 12.4539C42.5043 12.4653 42.5005 12.4805 42.4929 12.4964C42.7714 12.7711 42.9785 13.0321 43.3921 13.6066C43.8056 14.1818 44.4613 14.2045 44.4613 14.2045C44.3975 13.7394 44.2716 13.3713 43.921 12.9745C43.5704 12.5776 43.1212 12.2156 42.7919 11.9751C42.7069 12.0146 42.5968 12.0388 42.4565 12.0229C42.4458 12.0214 42.4345 12.0206 42.4238 12.0184C42.4678 12.076 42.4944 12.1337 42.5096 12.1876C42.7592 12.331 43.4839 12.6983 43.7768 13.2901C43.7768 13.2901 43.3185 13.1467 42.527 12.3014L42.5278 12.3021Z" fill="#0155A5"/>
<path fill-rule="evenodd" clip-rule="evenodd" d="M43.0478 11.7223L43.0205 11.673C43.0114 11.657 43.0016 11.6419 42.9917 11.6274C43.2603 11.7322 44.221 12.0949 44.5306 12.255C44.8409 12.4166 45.2902 12.7824 45.5345 13.5245C45.5345 13.5245 44.8872 13.5829 44.3523 13.1405C43.8173 12.6974 43.1951 12.0805 42.9287 11.8839C42.956 11.8589 42.9765 11.8354 42.9909 11.8156C42.9909 11.8156 43.7141 12.4568 44.4782 12.733C44.4782 12.733 44.3143 12.4363 44.0123 12.2208C43.6443 11.959 43.3696 11.871 43.0471 11.7223H43.0478Z" fill="#0155A5"/>
<path fill-rule="evenodd" clip-rule="evenodd" d="M43.597 11.285C43.5863 11.2592 43.5757 11.2349 43.5643 11.2114C43.8815 11.2759 44.673 11.3708 45.0266 11.4793C45.3802 11.5878 46.0199 11.8466 46.3993 12.5697C46.3993 12.5697 45.8423 12.742 44.7906 12.2472C43.7396 11.7525 43.4118 11.6508 43.21 11.5977C43.3701 11.5855 43.4831 11.5316 43.5423 11.4952C43.9612 11.6811 44.522 11.9027 45.0782 11.9171C45.0782 11.9171 44.8035 11.7229 44.5151 11.6022C44.2025 11.4709 43.858 11.3518 43.5962 11.285H43.597Z" fill="#0155A5"/>
<path fill-rule="evenodd" clip-rule="evenodd" d="M43.5703 10.7641C43.4671 10.8126 43.3882 10.8369 43.2539 10.8513C43.3275 10.8984 43.3973 10.9591 43.4595 11.0395C43.8298 11.1465 44.4604 11.2634 45.5023 11.3385C46.5442 11.4136 47.0996 11.2217 47.0996 11.2217C46.7369 11.0001 46.1579 10.7747 45.7671 10.6988C45.3756 10.6229 44.3474 10.6313 43.8974 10.5698C43.8921 10.5744 43.8374 10.6191 43.7494 10.673C44.1281 10.7072 44.9355 10.7451 45.352 10.9561C45.352 10.9561 44.5834 11.0593 43.5711 10.7641H43.5703Z" fill="#0155A5"/>
<path fill-rule="evenodd" clip-rule="evenodd" d="M40.4052 12.0136C40.3695 11.9833 40.3391 11.9522 40.3133 11.9233C40.2587 11.9916 40.0789 12.2178 39.9908 12.4424C39.9226 12.6351 39.8512 12.8961 39.8156 13.0464C39.7799 13.1959 39.6729 13.5062 39.6084 13.6132C39.6084 13.6132 39.8945 13.6489 40.1047 13.403C40.3118 13.1602 40.3832 12.9174 40.415 12.667C40.4401 12.4712 40.4325 12.2003 40.4059 12.0129L40.4052 12.0136Z" fill="#0155A5"/>
<path fill-rule="evenodd" clip-rule="evenodd" d="M40.8534 12.0511C40.801 12.1216 40.7494 12.1512 40.7448 12.1535L40.7069 12.1732L40.6659 12.1603C40.6303 12.1489 40.5984 12.1353 40.5673 12.1201C40.5271 12.2354 40.5096 12.2916 40.499 12.3895C40.4853 12.52 40.4588 12.7249 40.5081 12.8926C40.568 13.0967 40.6894 13.2212 40.757 13.3001C40.757 13.3001 40.9437 13.0944 40.9975 12.9252C41.0537 12.7476 41.0734 12.542 41.0044 12.3303C40.9672 12.2165 40.9065 12.1102 40.8526 12.0503L40.8534 12.0511Z" fill="#0155A5"/>
<path fill-rule="evenodd" clip-rule="evenodd" d="M41.4979 12.0705C41.3074 12.0447 41.1617 11.9757 41.0532 11.896C41.0289 11.9635 40.9917 12.0538 41.0198 12.1821C41.0471 12.3103 41.1359 12.4522 41.2641 12.5554C41.4554 12.7087 41.7141 12.8536 41.9979 12.8089C41.9979 12.8089 42.0632 12.5956 41.4971 12.0705H41.4979Z" fill="#0155A5"/>
<path fill-rule="evenodd" clip-rule="evenodd" d="M41.7125 11.7148C41.6897 11.9045 41.5986 12.0237 41.5918 12.0328C41.6586 12.1125 41.8984 12.5253 42.3992 12.4555C42.3992 12.4555 42.5343 12.1747 42.2011 11.9516C41.9742 11.8006 41.868 11.7695 41.7132 11.7148H41.7125Z" fill="#0155A5"/>
<path fill-rule="evenodd" clip-rule="evenodd" d="M41.6687 11.3619C41.8023 11.3953 41.976 11.409 42.1885 11.3581L42.2454 11.3452L42.2629 11.2891C42.5194 11.4993 42.8252 11.5334 42.9299 11.7223C42.9299 11.7223 42.8016 11.9606 42.4685 11.9204C42.1354 11.8809 41.8842 11.7246 41.7059 11.5008C41.6991 11.4666 41.6847 11.4044 41.668 11.3612L41.6687 11.3619Z" fill="#0155A5"/>
<path fill-rule="evenodd" clip-rule="evenodd" d="M42.247 11.0672C42.1984 10.9974 42.1666 10.8881 42.0664 10.7781C42.2872 10.7402 42.4868 10.7371 42.7448 10.7864C43.0529 10.8449 43.3663 10.917 43.5233 11.3851C43.5233 11.3851 43.3253 11.5536 42.9671 11.48C42.6628 11.4178 42.398 11.2865 42.247 11.0672Z" fill="#0155A5"/>
<path fill-rule="evenodd" clip-rule="evenodd" d="M42.376 10.5598C42.4534 10.493 42.5239 10.4057 42.5755 10.2927L42.6021 10.2342C42.8692 10.125 43.1469 10.0696 43.4178 10.1713C43.6903 10.2729 43.7616 10.3906 43.8306 10.4915C43.8306 10.4915 43.5294 10.7434 43.1826 10.7533C42.8358 10.7631 42.5156 10.6637 42.3767 10.5598H42.376Z" fill="#0155A5"/>
<path fill-rule="evenodd" clip-rule="evenodd" d="M42.2964 10.0117C42.2509 9.99421 42.1993 9.97827 42.1416 9.96613C42.26 9.86217 42.3753 9.70434 42.4322 9.46683C42.5559 9.49566 42.8473 9.49566 42.9748 9.4471C43.1023 9.39853 43.3542 9.39474 43.55 9.52525C43.55 9.52525 43.4855 9.869 43.0393 9.98662C42.6212 10.0974 42.4664 10.0686 42.2956 10.0109L42.2964 10.0117Z" fill="#0155A5"/>
<path fill-rule="evenodd" clip-rule="evenodd" d="M42.4563 9.34131L42.3978 9.30413C42.3903 9.29882 42.2901 9.23811 42.1201 9.22521C42.2635 9.11822 42.6035 8.8329 42.8463 8.69631C43.1089 8.54834 43.5467 8.35257 43.769 8.32373C43.769 8.32373 43.5604 8.8716 43.3175 9.09242C43.0656 9.32158 42.8888 9.40657 42.4563 9.34207V9.34131Z" fill="#0155A5"/>
<path fill-rule="evenodd" clip-rule="evenodd" d="M42.0068 9.08921C42.1131 8.95034 42.1981 8.75988 42.2595 8.53527C42.3096 8.35163 42.4249 7.8971 42.4932 7.77948C42.5615 7.6611 42.8074 7.24906 43.2877 7.12158C43.2877 7.12158 43.4152 7.65807 43.1739 8.08377C42.9645 8.44952 42.5388 8.83576 42.0068 9.08996V9.08921Z" fill="#0155A5"/>
<path fill-rule="evenodd" clip-rule="evenodd" d="M39.3414 11.5862C39.2799 11.6454 39.2359 11.6796 39.1289 11.7327C39.1289 11.7327 38.9756 12.0256 39.1608 12.3785C39.3459 12.7321 39.5038 13.0925 39.5781 13.2928C39.5781 13.2928 39.6775 13.2784 39.7883 12.7252C39.8635 12.3504 39.9583 12.257 40.057 12.1288C39.95 12.1834 39.8619 12.2001 39.8543 12.2009L39.78 12.2138L39.7458 12.1478C39.6798 12.0203 39.6601 11.8974 39.6601 11.7957C39.6601 11.7623 39.6624 11.7304 39.6654 11.7023C39.4924 11.7061 39.4013 11.6196 39.3657 11.5749C39.3626 11.5703 39.3604 11.5673 39.3573 11.5635L39.3399 11.587L39.3414 11.5862Z" fill="#0155A5"/>
<path fill-rule="evenodd" clip-rule="evenodd" d="M42.3184 12.5668C42.6743 12.9234 43.4255 13.7225 43.3549 14.5906C43.3549 14.5906 42.6568 14.372 42.37 13.8606C42.0832 13.3491 41.9056 13.0282 41.7842 12.9128C41.8616 12.9234 41.939 12.9234 42.0149 12.9113L42.0778 12.9007C42.2546 13.2224 42.6052 13.7513 42.9217 13.9357C42.9217 13.9357 43.0021 13.5077 42.074 12.6412C42.0604 12.6063 42.0414 12.5653 42.0164 12.5205C42.1006 12.5509 42.1977 12.5691 42.307 12.566L42.3184 12.5676V12.5668Z" fill="#0155A5"/>
<path fill-rule="evenodd" clip-rule="evenodd" d="M36.9277 5.64881C36.9277 5.58507 37.1721 5.53271 37.4726 5.53271C37.7731 5.53271 38.0174 5.58507 38.0174 5.64881C38.0174 5.71256 37.7738 5.76491 37.4726 5.76491C37.1713 5.76491 36.9277 5.71331 36.9277 5.64881Z" fill="#0155A5"/>
<path fill-rule="evenodd" clip-rule="evenodd" d="M35.0771 6.27614C35.0771 6.24124 35.2342 6.2124 35.4285 6.2124C35.6227 6.2124 35.7791 6.24048 35.7791 6.27614C35.7791 6.31181 35.622 6.33988 35.4285 6.33988C35.235 6.33988 35.0771 6.31181 35.0771 6.27614Z" fill="#0155A5"/>
<path fill-rule="evenodd" clip-rule="evenodd" d="M37.579 5.90436C37.579 5.96354 37.5312 6.01135 37.472 6.01135C37.4128 6.01135 37.3643 5.96354 37.3643 5.90436C37.3643 5.84517 37.4121 5.79736 37.472 5.79736C37.532 5.79736 37.579 5.84517 37.579 5.90436Z" fill="#0155A5"/>
<path fill-rule="evenodd" clip-rule="evenodd" d="M36.8875 5.53552C36.7061 5.10299 36.5847 4.78429 36.59 4.67729C36.593 4.61204 36.6704 4.56423 36.7425 4.54222C36.8146 4.51946 36.8791 4.51567 36.9269 4.55209C37.021 4.62418 37.109 5.20847 37.1417 5.45053C37.0499 5.46875 36.9945 5.48013 36.8875 5.53552Z" fill="#0155A5"/>
<path fill-rule="evenodd" clip-rule="evenodd" d="M37.2194 5.44147C37.2649 5.43691 37.3127 5.43388 37.3605 5.43236C37.3317 5.20092 37.2513 4.81468 37.2042 4.66216C37.1572 4.51039 37.0965 4.40036 36.9971 4.37305C36.9971 4.37305 37.0745 4.58476 37.117 4.80482C37.1595 5.02412 37.1921 5.23431 37.2194 5.44223V5.44147Z" fill="#0155A5"/>
<path fill-rule="evenodd" clip-rule="evenodd" d="M36.6447 6.21651C36.8443 6.1687 37.0491 5.95547 37.0491 5.95547C36.7266 6.00252 36.6447 6.21651 36.6447 6.21651ZM36.9437 6.19678C36.6652 6.35992 36.3525 6.33412 36.3525 6.33412C36.4125 6.22409 36.4694 6.12241 36.6439 5.99721C36.8185 5.87276 37.103 5.84089 37.2146 5.85682C37.1895 5.9403 37.0749 6.11938 36.9429 6.19678H36.9437Z" fill="#0155A5"/>
<path fill-rule="evenodd" clip-rule="evenodd" d="M35.904 6.65471V6.63194C35.6293 6.66685 35.3053 6.65167 35.3053 6.65167C35.3227 6.75411 35.3652 6.83151 35.4373 6.87856C35.4547 6.65623 35.904 6.65395 35.904 6.65395V6.65471ZM34.9941 6.36029C34.9941 6.36029 35.3402 6.49004 35.6877 6.47259C36.0345 6.45514 36.6727 6.44755 36.8798 6.34814C36.8798 6.34814 36.8457 6.4779 36.681 6.55303C36.681 6.55303 36.7683 6.55303 36.8533 6.62739C36.8533 6.62739 36.8032 6.73438 36.6567 6.79205C36.6567 6.79205 36.9208 7.06675 37.2031 7.04626C37.2031 7.04626 37.0733 7.20789 36.7842 7.14567C36.4951 7.08344 36.4025 6.92181 36.3524 6.85883C36.3524 6.85883 36.3904 7.01363 36.3722 7.07585C36.3722 7.07585 36.2447 7.06827 36.1453 6.94306C36.1453 6.94306 36.2181 7.06751 36.2325 7.17298C36.2325 7.17298 36.1536 7.18285 36.0102 7.09862C36.0102 7.09862 36.0406 7.17602 36.0451 7.26556C36.0451 7.26556 35.7105 7.15857 35.5488 7.00604C35.5488 7.00604 35.5466 7.11076 35.5541 7.17071C35.5541 7.17071 35.0351 7.11835 34.9957 6.35953L34.9941 6.36029Z" fill="#0155A5"/>
<path fill-rule="evenodd" clip-rule="evenodd" d="M34.9141 6.4136C34.9263 6.57826 34.9688 6.73989 35.0264 6.85523C35.0264 6.85523 34.8216 6.70119 34.7722 6.57143C34.7221 6.44091 34.71 6.35213 34.9141 6.41435V6.4136Z" fill="#0155A5"/>
<path fill-rule="evenodd" clip-rule="evenodd" d="M34.5052 7.03676C34.5522 7.03676 34.5902 6.99882 34.5902 6.95253C34.5902 6.90624 34.5522 6.86754 34.5052 6.86754C34.4581 6.86754 34.4202 6.90548 34.4202 6.95253C34.4202 6.99957 34.4581 7.03676 34.5052 7.03676ZM35.0045 6.93735C35.1411 6.99957 35.2632 7.14679 35.2632 7.14679C35.0561 7.19459 34.9643 7.25378 34.9643 7.25378C34.5674 6.97453 34.2411 7.25606 34.2411 7.25606C34.0271 7.13389 33.9846 6.83719 34.0916 6.68011C34.1986 6.52303 34.4407 6.55035 34.5553 6.57767C34.6273 6.80759 34.8816 6.88196 35.0045 6.93735Z" fill="#0155A5"/>
<path fill-rule="evenodd" clip-rule="evenodd" d="M35.308 7.19873C35.308 7.19873 35.4529 7.39071 35.5576 7.4757C35.5576 7.4757 35.0242 7.47115 34.8891 7.93251C34.8891 7.93251 34.7047 7.65023 34.839 7.46584C34.9847 7.26627 35.1183 7.24122 35.308 7.19873Z" fill="#0155A5"/>
<path fill-rule="evenodd" clip-rule="evenodd" d="M35.8945 7.31367C35.8945 7.31367 36.0668 7.36375 36.1237 7.37817C36.1237 7.37817 36.1267 7.27876 36.1214 7.23096C36.1738 7.2431 36.2383 7.26131 36.2937 7.26586C36.2937 7.26586 36.4659 7.64983 36.6002 7.80463C36.6002 7.80463 36.6078 7.88961 36.5327 8.01937C36.5327 8.01937 36.4356 7.79248 36.261 7.61037C36.1624 7.50717 36.0987 7.45557 35.8945 7.31367Z" fill="#0155A5"/>
<path fill-rule="evenodd" clip-rule="evenodd" d="M35.4404 7.23145C35.4958 7.24662 35.7705 7.33237 35.9041 7.42874C36.071 7.54787 36.1856 7.68522 36.1681 7.92197C36.1681 7.92197 36.0338 7.7353 35.8843 7.65031C35.766 7.58354 35.5527 7.39611 35.4404 7.23145Z" fill="#0155A5"/>
<path fill-rule="evenodd" clip-rule="evenodd" d="M35.4442 5.49463C35.495 5.49463 35.5937 5.51891 35.5937 5.60011C35.5937 5.6813 35.4662 5.88011 35.432 5.96813H35.429C35.3941 5.88011 35.2666 5.68206 35.2666 5.60011C35.2666 5.51815 35.366 5.49463 35.4161 5.49463H35.4442Z" fill="#0155A5"/>
<path fill-rule="evenodd" clip-rule="evenodd" d="M35.3326 6.13291C35.3083 6.01757 35.2628 5.71859 35.1914 5.65257C35.1239 5.58959 35.0245 5.58352 34.9752 5.58656C34.9251 5.58959 34.8727 5.64119 34.8932 5.70797C34.9137 5.7755 35.1345 6.10711 35.1634 6.14884C35.215 6.14049 35.2043 6.14277 35.3318 6.13291H35.3326Z" fill="#0155A5"/>
<path fill-rule="evenodd" clip-rule="evenodd" d="M35.5283 6.13291C35.5534 6.01757 35.5981 5.71859 35.6695 5.65257C35.7362 5.58959 35.8364 5.58352 35.8857 5.58656C35.9358 5.58959 35.9889 5.64119 35.9677 5.70797C35.9472 5.7755 35.7264 6.10711 35.6975 6.14884C35.6459 6.14049 35.6566 6.14277 35.5291 6.13291H35.5283Z" fill="#0155A5"/>
<path fill-rule="evenodd" clip-rule="evenodd" d="M35.6704 5.09232H35.4982V4.90186H35.3586V5.09232H35.1855V5.21221H35.3586V5.43682H35.4982V5.21221H35.6704V5.09232Z" fill="#0155A5"/>
<path fill-rule="evenodd" clip-rule="evenodd" d="M33.5821 6.3209C33.5821 6.28448 33.5851 6.24806 33.5897 6.21163C33.6034 6.11906 33.6041 6.03938 33.5935 5.97412C33.4698 6.02117 33.3856 6.05152 33.2148 6.32697C33.2148 6.32697 33.4873 6.15927 33.5814 6.3209H33.5821Z" fill="#0155A5"/>
<path fill-rule="evenodd" clip-rule="evenodd" d="M33.8204 6.75819C33.8235 6.68989 33.8682 6.47363 33.9252 6.32111C33.995 6.13444 33.9555 5.86278 33.8713 5.69811C33.7901 5.53952 33.7461 5.39003 33.7605 5.22461C33.7605 5.22461 33.5989 5.27849 33.5063 5.3354C33.4911 5.52662 33.6027 5.71708 33.6558 5.82635C33.7188 5.95535 33.7059 6.12229 33.6914 6.22474C33.6679 6.39851 33.7036 6.58366 33.8204 6.75743V6.75819Z" fill="#0155A5"/>
<path fill-rule="evenodd" clip-rule="evenodd" d="M33.839 5.2973C33.8329 5.27605 33.8329 5.21611 33.8443 5.19182C33.8443 5.19182 34.0978 4.94445 34.3118 4.90195C34.4468 4.87464 34.5303 4.93458 34.569 4.96797C34.569 4.96797 34.4939 4.95887 34.38 5.05144C34.2662 5.14402 34.1251 5.25557 34.0173 5.28364C33.9119 5.31172 33.8891 5.30261 33.8382 5.29654L33.839 5.2973Z" fill="#0155A5"/>
<path fill-rule="evenodd" clip-rule="evenodd" d="M34.5906 4.98611C34.687 5.08172 34.7666 5.18265 34.7651 5.26991C34.7636 5.36097 34.6581 5.58786 34.6027 5.67512C34.5473 5.76238 34.4661 5.87545 34.476 6.01355C34.4806 6.08261 34.5284 6.15318 34.5853 6.21161C34.5853 6.21161 34.2749 6.138 34.237 5.94602C34.2036 5.77453 34.2764 5.65387 34.3265 5.55826C34.3728 5.46948 34.5162 5.2608 34.5526 5.17354C34.5853 5.09462 34.6027 5.02936 34.5906 4.98535V4.98611Z" fill="#0155A5"/>
<path fill-rule="evenodd" clip-rule="evenodd" d="M36.4062 7.15039C36.4685 7.36969 36.5739 7.57609 36.6779 7.73848C36.7712 7.88569 36.8312 8.12623 36.8221 8.20819C36.8221 8.20819 36.9625 7.89783 36.8904 7.67929C36.835 7.51007 36.684 7.25738 36.4062 7.15039Z" fill="#0155A5"/>
<path fill-rule="evenodd" clip-rule="evenodd" d="M36.7568 7.22266C36.7568 7.22266 36.9693 7.22569 37.0695 7.29171C37.1977 7.3767 37.3199 7.56109 37.3662 7.78267C37.3662 7.78267 37.1507 7.74548 37.0444 7.63925C36.9382 7.53301 36.8069 7.37366 36.7568 7.22266Z" fill="#0155A5"/>
<path fill-rule="evenodd" clip-rule="evenodd" d="M35.6533 7.60742C35.6124 7.61122 35.5031 7.6355 35.4492 7.65143C35.4492 7.65143 35.6313 7.70455 35.7216 7.77967C35.799 7.84342 35.8658 7.94206 35.8969 8.10824C35.9409 8.33968 36.0775 8.5901 36.1185 8.66522L36.1352 8.66142C36.1094 8.50207 36.2096 8.17047 36.2346 8.12342C36.2346 8.12342 36.0912 8.03236 36.0252 7.93903C35.9766 7.86997 35.8909 7.75463 35.6533 7.60742Z" fill="#0155A5"/>
<path fill-rule="evenodd" clip-rule="evenodd" d="M36.5978 8.10498C36.6509 8.22715 36.7913 8.44266 36.7253 8.66803C36.6592 8.8934 36.5128 8.99053 36.4217 9.18099C36.4217 9.18099 36.3496 8.83648 36.3656 8.5709C36.3808 8.30531 36.4779 8.20211 36.597 8.10498H36.5978Z" fill="#0155A5"/>
<path fill-rule="evenodd" clip-rule="evenodd" d="M37.0067 8.11426C37.0067 8.11426 37.2184 8.52554 37.2571 8.68717C37.2943 8.84652 37.2602 8.95276 37.1881 9.04988C37.116 9.14701 36.9946 9.25021 36.8823 9.45358C36.8823 9.45358 36.751 9.28133 36.7351 9.19103C36.7199 9.09997 36.7449 8.88446 36.773 8.7934C36.8011 8.7031 36.9134 8.41172 37.0075 8.11502L37.0067 8.11426Z" fill="#0155A5"/>
<path fill-rule="evenodd" clip-rule="evenodd" d="M37.116 9.42676C37.0689 9.47684 36.8216 9.7743 36.7882 9.86156C36.7548 9.94883 36.6979 10.1127 36.7745 10.2266C36.8519 10.3404 37.028 10.5225 37.1828 10.5999C37.1828 10.5999 37.0158 10.3389 37.0325 10.1241C37.0431 9.98753 37.1494 9.86536 37.1691 9.78113C37.1896 9.69766 37.1759 9.55728 37.116 9.42676Z" fill="#0155A5"/>
<path fill-rule="evenodd" clip-rule="evenodd" d="M36.6316 9.26221C36.6696 9.31532 36.7364 9.44281 36.7447 9.56801C36.7538 9.69018 36.7341 9.78959 36.6666 9.97019C36.5816 10.1971 36.4503 10.4505 36.3896 10.5643C36.3896 10.5643 36.2727 10.3982 36.209 10.2494C36.209 10.2494 36.3911 10.0005 36.4685 9.82449C36.5588 9.61734 36.5967 9.42535 36.6316 9.26221Z" fill="#0155A5"/>
<path fill-rule="evenodd" clip-rule="evenodd" d="M36.5468 9.16602C36.5468 9.16602 36.4687 9.75107 36.1242 10.1859C35.8912 10.4803 35.7015 10.582 35.5763 10.582C35.3873 10.582 35.1976 10.4241 35.1331 10.2443C35.0694 10.0637 35.0891 9.7837 35.2121 9.68505C35.2121 9.68505 35.3259 10.0364 35.5679 10.0493C35.8419 10.0645 36.1947 9.7579 36.5468 9.16677V9.16602Z" fill="#0155A5"/>
<path fill-rule="evenodd" clip-rule="evenodd" d="M36.2644 8.92139C36.2932 9.0261 36.3023 9.18697 36.2644 9.33798C36.2355 9.45256 36.1657 9.60357 36.0307 9.6878C35.9146 9.76064 35.6399 9.7781 35.5352 9.51858C35.5352 9.51858 36.036 9.55652 36.2636 8.92139H36.2644Z" fill="#0155A5"/>
<path fill-rule="evenodd" clip-rule="evenodd" d="M37.0846 11.2812C37.1529 11.4573 37.3987 11.6796 37.3972 11.817C37.3927 12.1812 37.2341 12.4043 37.1961 12.5242C37.1961 12.5242 36.9047 12.2928 36.8524 12.0272C36.8266 11.8913 36.8569 11.4831 37.0846 11.2812Z" fill="#0155A5"/>
<path fill-rule="evenodd" clip-rule="evenodd" d="M36.7581 11.5387C36.7923 11.4446 36.8993 11.1873 37.0237 11.097C37.0237 11.097 37.1831 10.6296 36.6724 10.3428C36.6724 10.3428 36.4629 10.6213 36.4068 10.8823C36.3506 11.1441 36.6291 11.3019 36.7581 11.5379V11.5387Z" fill="#0155A5"/>
<path fill-rule="evenodd" clip-rule="evenodd" d="M36.1204 10.3604C36.0384 10.4582 35.9223 10.5956 35.8328 10.6388C35.8328 10.6388 35.8024 10.8475 35.8199 10.9856C35.8457 11.1913 35.9785 11.4015 36.0346 11.5563C36.0346 11.5563 36.2577 11.2649 36.2835 11.0934C36.3093 10.9219 36.3048 10.7807 36.3131 10.6988C36.3131 10.6988 36.1887 10.4969 36.1204 10.3604Z" fill="#0155A5"/>
<path fill-rule="evenodd" clip-rule="evenodd" d="M35.5316 11.3598C35.4687 11.2642 35.2638 10.9106 35.2607 10.6533C35.2607 10.6533 35.5127 10.7869 35.7229 10.689C35.7229 10.689 35.7509 11.0229 35.71 11.1359C35.6773 11.2277 35.6333 11.2824 35.5309 11.3598H35.5316Z" fill="#0155A5"/>
<path fill-rule="evenodd" clip-rule="evenodd" d="M35.5906 11.4307C35.6316 11.395 35.7317 11.3025 35.7727 11.2539C35.7727 11.2539 35.9397 11.5597 35.9677 11.6493C35.9677 11.6493 35.8843 11.6705 35.7924 11.6037C35.7006 11.5369 35.6801 11.5203 35.5898 11.4307H35.5906Z" fill="#0155A5"/>
<path fill-rule="evenodd" clip-rule="evenodd" d="M36.3633 11.252C36.3428 11.3294 36.0727 11.7042 36.0264 11.7505C36.0264 11.7505 36.0476 11.8863 36.147 12.0821C36.2472 12.2771 36.3861 12.4137 36.4597 12.4828C36.4597 12.4828 36.6258 12.1921 36.6759 12.0639C36.7321 11.9174 36.726 11.7733 36.701 11.7201C36.6448 11.5942 36.449 11.4121 36.3625 11.2527L36.3633 11.252Z" fill="#0155A5"/>
<path fill-rule="evenodd" clip-rule="evenodd" d="M36.7686 12.2332C36.8277 12.3538 37.0083 12.5519 37.0357 12.7082C37.0577 12.8311 37.0379 12.9321 37.0045 13.0163C36.9712 13.1013 36.8634 13.2652 36.7913 13.3911C36.7913 13.3911 36.5455 13.1589 36.4908 12.9928C36.4499 12.8676 36.465 12.6892 36.5242 12.5792C36.5834 12.4692 36.7116 12.3478 36.7678 12.2324L36.7686 12.2332Z" fill="#0155A5"/>
<path fill-rule="evenodd" clip-rule="evenodd" d="M36.071 12.1997C36.1355 12.3386 36.2873 12.4782 36.323 12.6004C36.3639 12.7445 36.3768 12.8364 36.3078 13.0041C36.2456 13.152 36.1712 13.2378 36.1454 13.3273C36.1454 13.3273 35.9451 13.0686 35.9124 12.96C35.8791 12.8523 35.8684 12.6747 35.9094 12.5617C35.9511 12.4486 36.0225 12.3014 36.071 12.1997Z" fill="#0155A5"/>
<path fill-rule="evenodd" clip-rule="evenodd" d="M37.056 13.186C37.056 13.186 36.7115 13.6019 36.7199 13.8227C36.7297 14.0974 36.9126 14.2803 36.9384 14.4495C36.9384 14.4495 37.119 14.2453 37.1873 14.108C37.2647 13.954 37.3231 13.8227 37.3034 13.6482C37.2822 13.4736 37.2359 13.3606 37.056 13.186Z" fill="#0155A5"/>
<path fill-rule="evenodd" clip-rule="evenodd" d="M36.422 13.1445C36.4759 13.2242 36.6307 13.4959 36.5866 13.6583C36.5434 13.8199 36.3734 14.0483 36.3173 14.1462C36.3173 14.1462 36.1807 13.8662 36.1503 13.7379C36.12 13.6097 36.148 13.4018 36.4227 13.1445H36.422Z" fill="#0155A5"/>
<path fill-rule="evenodd" clip-rule="evenodd" d="M39.8662 6.27614C39.8662 6.24124 39.7091 6.2124 39.5156 6.2124C39.3221 6.2124 39.165 6.24048 39.165 6.27614C39.165 6.31181 39.3221 6.33988 39.5156 6.33988C39.7091 6.33988 39.8662 6.31181 39.8662 6.27614Z" fill="#0155A5"/>
<path fill-rule="evenodd" clip-rule="evenodd" d="M37.4754 5.1989C37.4981 5.04182 37.6803 4.70718 37.6803 4.56073C37.6803 4.44539 37.5869 4.35205 37.4723 4.35205C37.3578 4.35205 37.2637 4.44539 37.2637 4.56073C37.2637 4.70718 37.4458 5.04182 37.4686 5.1989H37.4754Z" fill="#0155A5"/>
<path fill-rule="evenodd" clip-rule="evenodd" d="M38.056 5.53552C38.2381 5.10299 38.3587 4.78429 38.3534 4.67729C38.3496 4.61204 38.2737 4.56423 38.2009 4.54222C38.128 4.51946 38.0643 4.51567 38.0165 4.55209C37.9217 4.62418 37.8344 5.20847 37.8018 5.45053C37.8943 5.46875 37.9497 5.48013 38.056 5.53552Z" fill="#0155A5"/>
<path fill-rule="evenodd" clip-rule="evenodd" d="M37.7253 5.44147C37.6791 5.43691 37.632 5.43388 37.585 5.43236C37.6138 5.20092 37.6927 4.81468 37.7405 4.66216C37.7876 4.51039 37.8475 4.40036 37.9477 4.37305C37.9477 4.37305 37.8703 4.58476 37.8278 4.80482C37.786 5.02412 37.7534 5.23431 37.7253 5.44223V5.44147Z" fill="#0155A5"/>
<path fill-rule="evenodd" clip-rule="evenodd" d="M37.8955 5.9545C37.8955 5.9545 38.0996 6.16848 38.2999 6.21553C38.2999 6.21553 38.2172 6.00078 37.8955 5.9545ZM37.7285 5.85585C37.8401 5.83991 38.1246 5.87178 38.2999 5.99623C38.4744 6.12144 38.5313 6.22312 38.5913 6.33315C38.5913 6.33315 38.2787 6.35895 38.0002 6.1958C37.8689 6.1184 37.7543 5.93932 37.7285 5.85585Z" fill="#0155A5"/>
<path fill-rule="evenodd" clip-rule="evenodd" d="M39.5064 6.87954C39.5785 6.83249 39.621 6.75433 39.6377 6.65265C39.6377 6.65265 39.3137 6.66783 39.0398 6.63292V6.65568C39.0398 6.65568 39.4882 6.65796 39.5057 6.8803L39.5064 6.87954ZM39.3911 7.17168C39.3995 7.11174 39.3964 7.00702 39.3964 7.00702C39.234 7.15878 38.9001 7.26654 38.9001 7.26654C38.9055 7.177 38.9351 7.0996 38.9351 7.0996C38.7932 7.18458 38.7127 7.17396 38.7127 7.17396C38.7279 7.06924 38.8 6.94404 38.8 6.94404C38.7006 7.06848 38.5731 7.07683 38.5731 7.07683C38.5556 7.01461 38.5928 6.85981 38.5928 6.85981C38.5427 6.92203 38.4502 7.08442 38.1611 7.14664C37.8712 7.20887 37.7422 7.04724 37.7422 7.04724C38.0245 7.06697 38.2885 6.79303 38.2885 6.79303C38.1413 6.73536 38.0912 6.62837 38.0912 6.62837C38.1762 6.554 38.2635 6.554 38.2635 6.554C38.0988 6.47888 38.0639 6.34912 38.0639 6.34912C38.2711 6.44853 38.9093 6.45611 39.256 6.47357C39.6028 6.49102 39.9496 6.36126 39.9496 6.36126C39.9094 7.11932 39.3911 7.17244 39.3911 7.17244V7.17168Z" fill="#0155A5"/>
<path fill-rule="evenodd" clip-rule="evenodd" d="M40.0303 6.4136C40.0181 6.57826 39.9756 6.73989 39.918 6.85523C39.918 6.85523 40.1221 6.70119 40.1722 6.57143C40.2223 6.44091 40.2352 6.35213 40.0303 6.41435V6.4136Z" fill="#0155A5"/>
<path fill-rule="evenodd" clip-rule="evenodd" d="M40.5237 6.95253C40.5237 6.90548 40.4858 6.86754 40.4387 6.86754C40.3917 6.86754 40.3545 6.90548 40.3545 6.95253C40.3545 6.99957 40.3932 7.03676 40.4387 7.03676C40.4843 7.03676 40.5237 6.99882 40.5237 6.95253ZM40.3886 6.57767C40.504 6.55035 40.7453 6.52303 40.8523 6.68011C40.96 6.83719 40.9175 7.13389 40.7036 7.25606C40.7036 7.25606 40.3765 6.97453 39.9804 7.25378C39.9804 7.25378 39.8878 7.19383 39.6807 7.14679C39.6807 7.14679 39.8028 6.99957 39.9402 6.93735C40.0623 6.88196 40.3166 6.80759 40.3886 6.57767Z" fill="#0155A5"/>
<path fill-rule="evenodd" clip-rule="evenodd" d="M39.6366 7.19873C39.6366 7.19873 39.4917 7.39071 39.3877 7.4757C39.3877 7.4757 39.9211 7.47115 40.0562 7.93251C40.0562 7.93251 40.2406 7.65023 40.1055 7.46584C39.9606 7.26627 39.8263 7.24122 39.6366 7.19873Z" fill="#0155A5"/>
<path fill-rule="evenodd" clip-rule="evenodd" d="M39.0497 7.31367C39.0497 7.31367 38.8774 7.36375 38.8205 7.37817C38.8205 7.37817 38.8175 7.27876 38.8228 7.23096C38.7704 7.2431 38.7052 7.26131 38.6505 7.26586C38.6505 7.26586 38.4783 7.64983 38.344 7.80463C38.344 7.80463 38.3364 7.88961 38.4115 8.01937C38.4115 8.01937 38.5086 7.79248 38.6832 7.61037C38.7818 7.50717 38.8455 7.45557 39.0497 7.31367Z" fill="#0155A5"/>
<path fill-rule="evenodd" clip-rule="evenodd" d="M39.5046 7.23145C39.4492 7.24662 39.1738 7.33237 39.041 7.42874C38.874 7.54787 38.7587 7.68522 38.7762 7.92197C38.7762 7.92197 38.9112 7.7353 39.0607 7.65031C39.1791 7.58354 39.3923 7.39611 39.5054 7.23145H39.5046Z" fill="#0155A5"/>
<path fill-rule="evenodd" clip-rule="evenodd" d="M39.5008 5.49463C39.45 5.49463 39.3506 5.51891 39.3506 5.60011C39.3506 5.6813 39.4788 5.88011 39.513 5.96813H39.516C39.5502 5.88011 39.6784 5.68206 39.6784 5.60011C39.6784 5.51815 39.5797 5.49463 39.5281 5.49463H39.5008Z" fill="#0155A5"/>
<path fill-rule="evenodd" clip-rule="evenodd" d="M39.6123 6.13291C39.6366 6.01757 39.6814 5.71859 39.7534 5.65257C39.821 5.58959 39.9196 5.58352 39.9697 5.58656C40.0198 5.58959 40.0721 5.64119 40.0517 5.70797C40.0312 5.7755 39.8096 6.10711 39.7808 6.14884C39.7292 6.14049 39.7398 6.14277 39.6123 6.13291Z" fill="#0155A5"/>
<path fill-rule="evenodd" clip-rule="evenodd" d="M39.4161 6.13291C39.3925 6.01757 39.347 5.71859 39.2757 5.65257C39.2082 5.58959 39.1087 5.58352 39.0587 5.58656C39.0093 5.58959 38.9562 5.64119 38.9775 5.70797C38.998 5.7755 39.2188 6.10711 39.2484 6.14884C39.3 6.14049 39.2893 6.14277 39.4161 6.13291Z" fill="#0155A5"/>
<path fill-rule="evenodd" clip-rule="evenodd" d="M39.2744 5.09232H39.4459V4.90186H39.5855V5.09232H39.7578V5.21221H39.5855V5.43682H39.4459V5.21221H39.2744V5.09232Z" fill="#0155A5"/>
<path fill-rule="evenodd" clip-rule="evenodd" d="M37.2051 3.96466H37.3766V3.77344H37.5162V3.96466H37.6892V4.08455H37.5162V4.30917H37.3766V4.08455H37.2051V3.96466Z" fill="#0155A5"/>
<path fill-rule="evenodd" clip-rule="evenodd" d="M41.3622 6.3209C41.3622 6.28448 41.3591 6.24806 41.3546 6.21163C41.3417 6.11906 41.3402 6.03938 41.3508 5.97412C41.4745 6.02117 41.5587 6.05152 41.7287 6.32697C41.7287 6.32697 41.457 6.15927 41.3622 6.3209Z" fill="#0155A5"/>
<path fill-rule="evenodd" clip-rule="evenodd" d="M41.1231 6.75819C41.1201 6.68989 41.0753 6.47363 41.0184 6.32111C40.9486 6.13444 40.988 5.86278 41.0715 5.69811C41.1527 5.53952 41.1975 5.39003 41.1823 5.22461C41.1823 5.22461 41.3439 5.27849 41.4365 5.3354C41.4517 5.52662 41.3401 5.71708 41.287 5.82635C41.224 5.95535 41.2369 6.12229 41.2513 6.22474C41.2749 6.39851 41.2392 6.58366 41.1223 6.75743L41.1231 6.75819Z" fill="#0155A5"/>
<path fill-rule="evenodd" clip-rule="evenodd" d="M41.1057 5.2973C41.1118 5.27605 41.1118 5.21611 41.0997 5.19182C41.0997 5.19182 40.8462 4.94445 40.633 4.90195C40.4979 4.87464 40.4145 4.93458 40.375 4.96797C40.375 4.96797 40.4501 4.95887 40.5632 5.05144C40.677 5.14402 40.8182 5.25557 40.9259 5.28364C41.0314 5.31172 41.0549 5.30261 41.1057 5.29654V5.2973Z" fill="#0155A5"/>
<path fill-rule="evenodd" clip-rule="evenodd" d="M40.3542 4.98611C40.2586 5.08172 40.1782 5.18265 40.1797 5.26991C40.182 5.36097 40.2859 5.58786 40.3421 5.67512C40.3975 5.76238 40.4787 5.87545 40.4688 6.01355C40.4635 6.08261 40.4165 6.15318 40.3595 6.21161C40.3595 6.21161 40.6707 6.138 40.7086 5.94602C40.742 5.77453 40.6691 5.65387 40.6191 5.55826C40.572 5.46948 40.4294 5.2608 40.3929 5.17354C40.3603 5.09462 40.3429 5.02936 40.3542 4.98535V4.98611Z" fill="#0155A5"/>
<path fill-rule="evenodd" clip-rule="evenodd" d="M38.5384 7.15039C38.4762 7.36969 38.3699 7.57609 38.266 7.73848C38.1719 7.88569 38.1127 8.12623 38.1218 8.20819C38.1218 8.20819 37.9806 7.89783 38.0527 7.67929C38.1081 7.51007 38.2584 7.25738 38.5376 7.15039H38.5384Z" fill="#0155A5"/>
<path fill-rule="evenodd" clip-rule="evenodd" d="M38.1865 7.22266C38.1865 7.22266 37.974 7.22569 37.8738 7.29171C37.7464 7.3767 37.6234 7.56109 37.5771 7.78267C37.5771 7.78267 37.7934 7.74548 37.8989 7.63925C38.0051 7.53301 38.1372 7.37366 38.1865 7.22266Z" fill="#0155A5"/>
<path fill-rule="evenodd" clip-rule="evenodd" d="M39.2915 7.60742C39.3318 7.61122 39.441 7.6355 39.4941 7.65143C39.4941 7.65143 39.3128 7.70455 39.2225 7.77967C39.1451 7.84342 39.0783 7.94206 39.0472 8.10824C39.0032 8.33968 38.8658 8.5901 38.8249 8.66522L38.8082 8.66142C38.8332 8.50207 38.733 8.17047 38.708 8.12342C38.708 8.12342 38.8522 8.03236 38.9182 7.93903C38.966 7.86997 39.0525 7.75463 39.29 7.60742H39.2915Z" fill="#0155A5"/>
<path fill-rule="evenodd" clip-rule="evenodd" d="M38.3474 8.10498C38.2942 8.22715 38.1539 8.44266 38.2191 8.66803C38.2851 8.8934 38.4323 8.99053 38.5226 9.18099C38.5226 9.18099 38.5947 8.83648 38.5788 8.5709C38.5629 8.30531 38.4665 8.20211 38.3474 8.10498Z" fill="#0155A5"/>
<path fill-rule="evenodd" clip-rule="evenodd" d="M37.4756 8.73559C37.4847 8.60431 37.7905 8.28637 37.7753 8.11411C37.7594 7.94186 37.531 7.81969 37.4741 7.79541H37.471C37.4149 7.82045 37.1857 7.94262 37.1705 8.11411C37.1546 8.28637 37.4604 8.60431 37.4695 8.73559H37.4756Z" fill="#0155A5"/>
<path fill-rule="evenodd" clip-rule="evenodd" d="M37.9375 8.11426C37.9375 8.11426 37.7258 8.52554 37.6871 8.68717C37.6499 8.84652 37.684 8.95276 37.7561 9.04988C37.8274 9.14701 37.9496 9.25021 38.0627 9.45358C38.0627 9.45358 38.194 9.28133 38.2099 9.19103C38.2251 9.09997 38.2008 8.88446 38.172 8.7934C38.1439 8.7031 38.0316 8.41172 37.9375 8.11502V8.11426Z" fill="#0155A5"/>
<path fill-rule="evenodd" clip-rule="evenodd" d="M37.4741 9.70465C37.5713 9.62118 37.657 9.49673 37.6843 9.42313C37.7109 9.34952 37.7185 9.24177 37.654 9.15906C37.5773 9.06041 37.4802 8.95114 37.4734 8.86084H37.4688C37.462 8.95038 37.3656 9.06041 37.289 9.15906C37.2245 9.24101 37.2321 9.34952 37.2594 9.42313C37.286 9.49673 37.3732 9.62042 37.4704 9.70465H37.4741Z" fill="#0155A5"/>
<path fill-rule="evenodd" clip-rule="evenodd" d="M37.8287 9.42676C37.875 9.47684 38.1224 9.7743 38.1565 9.86156C38.1899 9.94883 38.2468 10.1127 38.1694 10.2266C38.0928 10.3404 37.9167 10.5225 37.7627 10.5999C37.7627 10.5999 37.9296 10.3389 37.9129 10.1241C37.9023 9.98753 37.7961 9.86536 37.7756 9.78113C37.7551 9.69766 37.7695 9.55728 37.8287 9.42676Z" fill="#0155A5"/>
<path fill-rule="evenodd" clip-rule="evenodd" d="M38.3141 9.26221C38.2762 9.31532 38.2094 9.44281 38.2003 9.56801C38.1912 9.69018 38.2117 9.78959 38.2792 9.97019C38.3634 10.1971 38.4947 10.4505 38.5562 10.5643C38.5562 10.5643 38.6723 10.3982 38.736 10.2494C38.736 10.2494 38.5539 10.0005 38.4765 9.82449C38.3862 9.61734 38.3483 9.42535 38.3133 9.26221H38.3141Z" fill="#0155A5"/>
<path fill-rule="evenodd" clip-rule="evenodd" d="M38.3975 9.16602C38.3975 9.16602 38.4756 9.75107 38.8201 10.1859C39.0531 10.4803 39.2428 10.582 39.368 10.582C39.5577 10.582 39.7466 10.4241 39.8111 10.2443C39.8749 10.0637 39.8552 9.7837 39.7322 9.68505C39.7322 9.68505 39.6184 10.0364 39.3763 10.0493C39.1024 10.0645 38.7496 9.7579 38.3975 9.16677V9.16602Z" fill="#0155A5"/>
<path fill-rule="evenodd" clip-rule="evenodd" d="M38.6804 8.92139C38.6516 9.0261 38.6425 9.18697 38.6804 9.33798C38.7093 9.45256 38.7791 9.60357 38.9134 9.6878C39.0302 9.76064 39.3034 9.7781 39.4089 9.51858C39.4089 9.51858 38.9081 9.55652 38.6804 8.92139Z" fill="#0155A5"/>
<path fill-rule="evenodd" clip-rule="evenodd" d="M37.4723 10.6592C37.5436 10.6258 37.6035 10.6 37.6847 10.4755C37.7485 10.3777 37.8092 10.1971 37.775 10.0688C37.7325 9.90946 37.646 9.84572 37.5944 9.74707C37.5519 9.78653 37.5261 9.81688 37.4738 9.84724H37.4707C37.4191 9.81688 37.3918 9.78653 37.3486 9.74707C37.297 9.84648 37.2112 9.91022 37.1687 10.0688C37.1353 10.1971 37.1953 10.3777 37.259 10.4755C37.3402 10.6 37.4002 10.625 37.4715 10.6592H37.4723Z" fill="#0155A5"/>
<path fill-rule="evenodd" clip-rule="evenodd" d="M37.4723 11.6456C37.5065 11.4908 37.8305 11.191 37.8009 11.0279C37.7561 10.7835 37.599 10.8351 37.4746 10.7319H37.4723C37.3479 10.8351 37.1885 10.7835 37.1445 11.0279C37.1149 11.191 37.4366 11.4908 37.4716 11.6456H37.4731H37.4723Z" fill="#0155A5"/>
<path fill-rule="evenodd" clip-rule="evenodd" d="M37.8603 11.2812C37.7912 11.4573 37.5454 11.6796 37.5469 11.817C37.5507 12.1812 37.71 12.4043 37.748 12.5242C37.748 12.5242 38.0394 12.2928 38.091 12.0272C38.1168 11.8913 38.0872 11.4831 37.8603 11.2812Z" fill="#0155A5"/>
<path fill-rule="evenodd" clip-rule="evenodd" d="M38.1864 11.5387C38.1522 11.4446 38.0452 11.1873 37.9208 11.097C37.9208 11.097 37.7622 10.6296 38.2721 10.3428C38.2721 10.3428 38.4823 10.6213 38.5385 10.8823C38.5939 11.1441 38.3161 11.3019 38.1864 11.5379V11.5387Z" fill="#0155A5"/>
<path fill-rule="evenodd" clip-rule="evenodd" d="M38.8248 10.3604C38.906 10.4582 39.0221 10.5956 39.1124 10.6388C39.1124 10.6388 39.142 10.8475 39.1253 10.9856C39.0995 11.1913 38.9667 11.4015 38.9113 11.5563C38.9113 11.5563 38.6882 11.2649 38.6624 11.0934C38.6366 10.9219 38.6412 10.7807 38.6328 10.6988C38.6328 10.6988 38.7573 10.4969 38.8256 10.3604H38.8248Z" fill="#0155A5"/>
<path fill-rule="evenodd" clip-rule="evenodd" d="M39.4122 11.3598C39.4751 11.2642 39.6808 10.9106 39.6831 10.6533C39.6831 10.6533 39.4311 10.7869 39.2202 10.689C39.2202 10.689 39.1921 11.0229 39.2338 11.1359C39.2665 11.2277 39.3097 11.2824 39.4122 11.3598Z" fill="#0155A5"/>
<path fill-rule="evenodd" clip-rule="evenodd" d="M39.3545 11.4307C39.3127 11.395 39.2126 11.3025 39.1716 11.2539C39.1716 11.2539 39.0046 11.5597 38.9766 11.6493C38.9766 11.6493 39.06 11.6705 39.1519 11.6037C39.2429 11.5369 39.2642 11.5203 39.3545 11.4307Z" fill="#0155A5"/>
<path fill-rule="evenodd" clip-rule="evenodd" d="M38.582 11.252C38.6025 11.3294 38.8726 11.7042 38.9181 11.7505C38.9181 11.7505 38.8976 11.8863 38.7975 12.0821C38.6973 12.2771 38.5592 12.4137 38.4841 12.4828C38.4841 12.4828 38.3179 12.1921 38.2678 12.0639C38.2117 11.9174 38.2185 11.7733 38.242 11.7201C38.2982 11.5942 38.494 11.4121 38.5812 11.2527L38.582 11.252Z" fill="#0155A5"/>
<path fill-rule="evenodd" clip-rule="evenodd" d="M37.4742 13.4705C37.5 13.3673 37.6555 13.2459 37.7208 13.0676C37.7595 12.9621 37.758 12.8384 37.7155 12.7535C37.6669 12.6556 37.4924 12.415 37.4719 12.3452C37.4506 12.415 37.2776 12.6556 37.2291 12.7535C37.1873 12.8377 37.1851 12.9614 37.2245 13.0676C37.289 13.2459 37.4446 13.3673 37.4704 13.4705H37.4749H37.4742Z" fill="#0155A5"/>
<path fill-rule="evenodd" clip-rule="evenodd" d="M38.1758 12.2332C38.1167 12.3538 37.9368 12.5519 37.9087 12.7082C37.8867 12.8311 37.9065 12.9321 37.9391 13.0163C37.9725 13.1013 38.081 13.2652 38.1523 13.3911C38.1523 13.3911 38.3982 13.1589 38.4521 12.9928C38.4938 12.8676 38.4786 12.6892 38.4194 12.5792C38.3595 12.4692 38.232 12.3478 38.1751 12.2324L38.1758 12.2332Z" fill="#0155A5"/>
<path fill-rule="evenodd" clip-rule="evenodd" d="M38.8745 12.1997C38.81 12.3386 38.6575 12.4782 38.6225 12.6004C38.5816 12.7445 38.5687 12.8364 38.6377 13.0041C38.6992 13.152 38.7735 13.2378 38.7993 13.3273C38.7993 13.3273 38.9997 13.0686 39.0331 12.96C39.0672 12.8523 39.0771 12.6747 39.0361 12.5617C38.9944 12.4486 38.923 12.3014 38.8737 12.1997H38.8745Z" fill="#0155A5"/>
<path fill-rule="evenodd" clip-rule="evenodd" d="M37.4723 15.4587C37.4852 15.332 37.747 14.9397 37.7599 14.5238C37.7667 14.3159 37.5801 13.9896 37.4746 13.8667H37.4693C37.3638 13.9904 37.1786 14.3159 37.1847 14.5238C37.1976 14.9404 37.4587 15.332 37.4716 15.4587H37.4723Z" fill="#0155A5"/>
<path fill-rule="evenodd" clip-rule="evenodd" d="M37.8881 13.186C37.8881 13.186 38.2326 13.6019 38.2251 13.8227C38.2152 14.0974 38.0323 14.2803 38.0065 14.4495C38.0065 14.4495 37.8259 14.2453 37.7576 14.108C37.681 13.954 37.6218 13.8227 37.643 13.6482C37.6635 13.4736 37.7098 13.3606 37.8889 13.186H37.8881Z" fill="#0155A5"/>
<path fill-rule="evenodd" clip-rule="evenodd" d="M38.5219 13.1445C38.4672 13.2242 38.3139 13.4959 38.3572 13.6583C38.4012 13.8199 38.5704 14.0483 38.6273 14.1462C38.6273 14.1462 38.7632 13.8662 38.7943 13.7379C38.8246 13.6097 38.7966 13.4018 38.5219 13.1445Z" fill="#0155A5"/>
<path fill-rule="evenodd" clip-rule="evenodd" d="M37.7083 16.1266C37.7288 15.8034 37.9124 15.6091 37.9443 15.4414C37.98 15.257 37.9678 15.0794 37.8244 14.8662C37.7083 15.2638 37.5801 15.5545 37.4799 15.7548C37.4776 15.7601 37.4754 15.7654 37.4723 15.7715C37.47 15.7654 37.4678 15.7601 37.4655 15.7548C37.3653 15.5545 37.2363 15.2638 37.121 14.8662C36.9776 15.0794 36.9647 15.2562 37.0003 15.4414C37.033 15.6099 37.2166 15.8034 37.2363 16.1266C37.2568 16.4506 36.8926 16.5743 36.8926 16.5743C37.0155 16.6183 37.1551 16.6381 37.3775 16.4271C37.4184 16.3884 37.4496 16.3467 37.4723 16.3027C37.4958 16.3467 37.5262 16.3892 37.5672 16.4271C37.7895 16.6373 37.9291 16.6176 38.0521 16.5743C38.0521 16.5743 37.6878 16.4506 37.7083 16.1266Z" fill="#0155A5"/>
<path fill-rule="evenodd" clip-rule="evenodd" d="M36.5604 13.9751C36.5991 14.0958 36.7121 14.3188 36.7265 14.3879C36.7539 14.5161 36.7174 14.6717 36.483 14.8364C36.483 14.8364 36.3312 14.7309 36.2713 14.5913C36.2151 14.4607 36.2477 14.3689 36.3062 14.3014C36.3638 14.2331 36.5012 14.0768 36.5596 13.9751H36.5604Z" fill="#0155A5"/>
<path fill-rule="evenodd" clip-rule="evenodd" d="M37.0523 14.4531C37.0523 14.5184 37.0038 14.8841 36.8998 15.0663C36.7541 15.3212 36.5386 15.5117 36.3512 15.5117C36.1766 15.5117 36.1402 15.4085 36.0537 15.3652C36.0537 15.3652 36.0977 15.1437 36.2935 15.0852C36.534 15.0139 36.9028 14.7248 37.0523 14.4531Z" fill="#0155A5"/>
<path fill-rule="evenodd" clip-rule="evenodd" d="M36.4252 14.92C36.385 14.8889 36.3493 14.8677 36.3007 14.8115C36.3007 14.8115 36.1148 14.8806 35.9623 14.983C35.8098 15.0855 35.6595 15.26 35.5791 15.3518C35.5791 15.3518 35.8083 15.411 35.9532 15.345C35.9532 15.345 36.0063 15.1264 36.1687 15.0285C36.2051 15.0073 36.319 14.9739 36.4252 14.9193V14.92Z" fill="#0155A5"/>
<path fill-rule="evenodd" clip-rule="evenodd" d="M36.234 14.7327C36.1991 14.678 36.1262 14.5763 36.1422 14.417C36.1422 14.417 35.8212 14.6196 35.7241 14.6978C35.6277 14.7759 35.4274 14.9831 35.3818 15.0514C35.3818 15.0514 35.6247 14.999 35.8113 14.936C36.0162 14.8677 36.1581 14.7759 36.2332 14.7319L36.234 14.7327Z" fill="#0155A5"/>
<path fill-rule="evenodd" clip-rule="evenodd" d="M35.6908 15.0808C35.5178 15.1423 35.1278 15.206 34.9654 15.2538C34.8015 15.3024 34.6839 15.3866 34.5283 15.5566C34.5283 15.5566 34.7673 15.6234 34.8956 15.6636C34.8956 15.6636 35.099 15.5247 35.322 15.439C35.467 15.3836 35.5376 15.2311 35.6916 15.0801L35.6908 15.0808Z" fill="#0155A5"/>
<path fill-rule="evenodd" clip-rule="evenodd" d="M35.3279 16.2295C35.3651 16.1885 35.4122 16.1407 35.3757 16.0443C35.3499 15.9738 35.2088 15.8956 35.1238 15.8546C34.9842 15.7886 34.5972 15.6846 34.4705 15.6475C34.4705 15.6475 34.4075 15.7211 34.3741 15.7992C34.3589 15.8296 34.3786 15.8607 34.4333 15.8698C34.541 15.888 34.8005 15.8402 34.8635 15.8804C34.9318 15.9252 34.9083 15.9851 34.9083 16.0436C34.9083 16.0436 35.0267 15.9715 35.101 15.9882C35.205 16.0109 35.268 16.0587 35.3272 16.2295H35.3279Z" fill="#0155A5"/>
<path fill-rule="evenodd" clip-rule="evenodd" d="M34.9834 15.6909C35.0115 15.7 35.1625 15.7463 35.3097 15.8396C35.3097 15.8396 35.375 15.8138 35.4068 15.7539C35.4379 15.6962 35.5707 15.5004 35.6921 15.4746C35.6921 15.4746 35.5889 15.4648 35.5298 15.4458C35.5298 15.4458 35.4038 15.4784 35.3142 15.5141C35.2247 15.5505 35.1132 15.6052 34.9834 15.6901V15.6909Z" fill="#0155A5"/>
<path fill-rule="evenodd" clip-rule="evenodd" d="M35.9823 15.4443C35.9587 15.4557 35.9193 15.4739 35.829 15.4777C35.829 15.4777 35.4875 15.7145 35.448 15.9497C35.4139 16.1516 35.5201 16.2479 35.571 16.2737C35.6233 16.2995 35.8608 16.3974 36.0156 16.0787C36.0156 16.0787 35.7516 16.1652 35.6802 16.0385C35.6082 15.9118 35.7243 15.7266 35.7963 15.6735C35.8904 15.6029 36.0597 15.5551 36.1629 15.5741C36.1629 15.5741 36.0801 15.4952 35.9823 15.4451V15.4443Z" fill="#0155A5"/>
<path fill-rule="evenodd" clip-rule="evenodd" d="M33.7506 18.1485C33.7923 17.9755 33.8378 17.7926 33.9175 17.6249C34.0715 17.2994 34.4494 16.4306 35.2371 16.2773C35.3115 16.2629 35.1521 16.08 35.0815 16.0891C35.011 16.0974 34.8706 16.1885 34.8084 16.2295C34.8084 16.2295 34.8084 16.0443 34.8068 16.0109C34.8046 15.9775 34.7757 15.9654 34.7446 15.9669C34.715 15.9669 34.5238 15.9654 34.4639 16.0352C34.2848 16.2424 33.9812 16.8024 33.8097 17.2182C33.6375 17.6341 33.5199 17.7608 33.3393 17.697C33.1579 17.6341 33.0502 17.4261 32.7337 17.4891C32.6252 17.5104 32.5031 17.584 32.4082 17.6925C32.4348 17.7433 32.4682 17.8048 32.6161 17.8048C32.7641 17.8048 33.0449 17.867 33.2027 17.9763C33.3598 18.0856 33.5252 18.1227 33.7521 18.147L33.7506 18.1485Z" fill="#0155A5"/>
<path fill-rule="evenodd" clip-rule="evenodd" d="M36.8946 15.457C36.912 15.5906 36.9765 15.7173 37.0486 15.8478C37.0486 15.8478 36.8088 16.9542 35.9415 17.0399C35.9415 17.0399 35.959 16.8108 36.2162 16.6355C36.4734 16.461 36.8574 16.1901 36.8293 15.7788C36.8293 15.7788 36.761 15.7932 36.6381 15.9472C36.5144 16.1013 36.2443 16.5467 35.8262 16.5505C35.8262 16.5505 35.8876 16.3418 36.0728 16.2212C36.2587 16.1013 36.4947 15.9472 36.6009 15.7621C36.7064 15.5769 36.8202 15.4919 36.8946 15.4578V15.457Z" fill="#0155A5"/>
<path fill-rule="evenodd" clip-rule="evenodd" d="M36.4854 19.4874L37.0127 20.2265L37.4126 19.5147L37.2707 19.2612C37.1668 19.4487 37.0545 19.6505 36.9907 19.7605C36.9422 19.6922 36.8086 19.5056 36.6348 19.2612L36.4854 19.4881V19.4874Z" fill="#0155A5"/>
<path fill-rule="evenodd" clip-rule="evenodd" d="M36.3506 18.8621C35.8369 18.142 35.201 17.2504 35.1373 17.1608L35.3369 17.0174L34.707 16.7769L34.7192 17.4613L34.9316 17.3088L36.2019 19.0897L36.3506 18.8629V18.8621Z" fill="#0155A5"/>
<path fill-rule="evenodd" clip-rule="evenodd" d="M32.0119 14.8177C32.1675 14.6485 32.4308 14.7942 32.6964 15.0393C32.9627 15.2836 33.1304 15.534 32.9749 15.7033C32.8314 15.8596 32.556 15.7268 32.2896 15.4824C32.0241 15.2381 31.8564 14.9869 32.0119 14.8185V14.8177Z" fill="#0155A5"/>
<path fill-rule="evenodd" clip-rule="evenodd" d="M32.4408 17.8247C32.4325 17.8179 32.4241 17.8103 32.4158 17.8035C32.2746 17.6798 32.1942 17.4894 32.1942 17.2814C32.1942 16.8815 32.5197 16.556 32.9196 16.556C33.3195 16.556 33.6443 16.8815 33.6443 17.2814C33.6443 17.3353 33.6337 17.4241 33.6337 17.4241C33.6671 17.3619 33.7862 17.0857 33.8105 17.0356C33.7027 16.6448 33.3438 16.3579 32.9196 16.3579C32.5546 16.3579 32.2382 16.5704 32.0887 16.8777C32.1456 16.512 32.3277 16.1827 32.4567 16.0612C32.6108 15.9156 32.8733 15.8693 32.8733 15.8693C32.7018 15.8966 32.4742 15.7911 32.2207 15.5581C31.9802 15.3366 31.855 15.1431 31.8482 14.9814C31.8641 15.2099 31.8565 15.3373 31.792 15.5225C31.704 15.7759 31.4642 16.2418 31.5492 16.7677C31.597 17.0568 31.8057 17.4871 32.1562 17.8384C32.2306 17.9173 32.2594 18.0342 32.2678 18.0949C32.2678 18.0949 32.7853 18.0949 32.9075 18.1055C32.9075 18.1055 33.0304 18.0949 33.0281 18.0182C33.0259 17.9416 32.9583 17.9219 32.8969 17.9219C32.8354 17.9219 32.5789 17.9279 32.4408 17.8255V17.8247Z" fill="#0155A5"/>
<path fill-rule="evenodd" clip-rule="evenodd" d="M35.2985 18C34.9661 18.1207 34.6353 18.1836 34.3204 18.2322C34.1155 18.2633 33.9159 18.2747 33.7239 18.2648C33.727 18.2967 33.727 18.3392 33.708 18.3703C33.708 18.3703 33.7467 18.4151 33.7467 18.4652C33.9417 18.4727 34.1443 18.4614 34.3515 18.4295C34.6952 18.3771 35.0564 18.3066 35.4199 18.17L35.2985 18.0008V18Z" fill="#0155A5"/>
<path fill-rule="evenodd" clip-rule="evenodd" d="M35.8432 17.9752C36.2841 17.7339 36.7143 17.3628 37.1021 16.7694L37.1719 16.6533C37.0664 16.7004 36.9298 16.6677 36.9298 16.6677C36.9238 16.6776 36.9063 16.7042 36.898 16.7186C36.536 17.2535 36.1353 17.5897 35.7256 17.8098L35.844 17.9752H35.8432Z" fill="#0155A5"/>
<path fill-rule="evenodd" clip-rule="evenodd" d="M32.9362 18.1638C32.8754 18.1539 32.6819 18.1585 32.5658 18.1767C32.4391 18.1964 32.2942 18.223 32.279 18.2928C32.2646 18.3596 32.3109 18.4301 32.3746 18.5311C32.4148 18.5933 32.5082 18.5576 32.5613 18.5379C32.6144 18.5182 32.9119 18.3588 32.9597 18.3057C33.0075 18.2533 33.028 18.179 32.9362 18.1638Z" fill="#0155A5"/>
<path fill-rule="evenodd" clip-rule="evenodd" d="M33.2398 18.3613C33.208 18.3409 33.1298 18.3113 33.0494 18.3416C32.9689 18.372 32.6753 18.545 32.6555 18.6262C32.6358 18.7066 32.676 18.7483 32.7216 18.7666C32.7671 18.7848 32.8225 18.8015 32.8627 18.8053C32.9363 18.8113 33.0084 18.7681 33.0456 18.7225C33.0835 18.6763 33.2209 18.5101 33.2406 18.4729C33.2603 18.4357 33.2717 18.3811 33.2406 18.3613H33.2398Z" fill="#0155A5"/>
<path fill-rule="evenodd" clip-rule="evenodd" d="M33.2762 18.5434C33.2345 18.5912 33.1146 18.7354 33.1009 18.7589C33.0873 18.7824 33.1078 18.8196 33.1457 18.8158C33.1821 18.812 33.384 18.7908 33.5008 18.7111C33.6169 18.6322 33.6943 18.4789 33.6146 18.4235C33.535 18.3673 33.4113 18.3924 33.2762 18.5434Z" fill="#0155A5"/>
<path fill-rule="evenodd" clip-rule="evenodd" d="M33.3409 18.1033C33.3029 18.0942 33.1504 18.0547 33.117 18.1055C33.0761 18.1685 33.1056 18.2361 33.224 18.293C33.3424 18.3499 33.5663 18.3954 33.6103 18.3339C33.6543 18.2717 33.5936 18.1678 33.3416 18.1033H33.3409Z" fill="#0155A5"/>
<path fill-rule="evenodd" clip-rule="evenodd" d="M38.3829 13.9751C38.3442 14.0958 38.2311 14.3188 38.2167 14.3879C38.1894 14.5161 38.2266 14.6717 38.4603 14.8364C38.4603 14.8364 38.612 14.7309 38.672 14.5913C38.7281 14.4607 38.6948 14.3689 38.6363 14.3014C38.5779 14.2331 38.4413 14.0768 38.3829 13.9751Z" fill="#0155A5"/>
<path fill-rule="evenodd" clip-rule="evenodd" d="M37.8906 14.4531C37.8906 14.5184 37.9392 14.8841 38.0439 15.0663C38.1896 15.3212 38.4043 15.5117 38.5925 15.5117C38.7671 15.5117 38.8035 15.4085 38.89 15.3652C38.89 15.3652 38.846 15.1437 38.6502 15.0852C38.4104 15.0139 38.0416 14.7248 37.8914 14.4531H37.8906Z" fill="#0155A5"/>
<path fill-rule="evenodd" clip-rule="evenodd" d="M38.5181 14.92C38.5591 14.8889 38.5932 14.8677 38.6418 14.8115C38.6418 14.8115 38.8277 14.8806 38.9795 14.983C39.132 15.0855 39.2823 15.26 39.3627 15.3518C39.3627 15.3518 39.1343 15.411 38.9886 15.345C38.9886 15.345 38.9355 15.1264 38.7723 15.0285C38.7367 15.0073 38.6228 14.9739 38.5166 14.9193L38.5181 14.92Z" fill="#0155A5"/>
<path fill-rule="evenodd" clip-rule="evenodd" d="M38.709 14.7327C38.7439 14.678 38.8167 14.5763 38.8008 14.417C38.8008 14.417 39.1225 14.6196 39.2189 14.6978C39.3153 14.7759 39.5164 14.9831 39.5611 15.0514C39.5611 15.0514 39.3176 14.999 39.1309 14.936C38.9252 14.8677 38.7849 14.7759 38.709 14.7319V14.7327Z" fill="#0155A5"/>
<path fill-rule="evenodd" clip-rule="evenodd" d="M39.2539 15.0808C39.4269 15.1423 39.8162 15.206 39.9793 15.2538C40.1425 15.3024 40.2609 15.3866 40.4172 15.5566C40.4172 15.5566 40.1781 15.6234 40.0499 15.6636C40.0499 15.6636 39.8465 15.5247 39.6235 15.439C39.4785 15.3836 39.4087 15.2311 39.2539 15.0801V15.0808Z" fill="#0155A5"/>
<path fill-rule="evenodd" clip-rule="evenodd" d="M39.6162 16.2295C39.5797 16.1885 39.5327 16.1407 39.5684 16.0443C39.5942 15.9738 39.7353 15.8956 39.8211 15.8546C39.9607 15.7886 40.3484 15.6846 40.4736 15.6475C40.4736 15.6475 40.5366 15.7211 40.57 15.7992C40.5852 15.8296 40.5655 15.8607 40.5108 15.8698C40.4031 15.888 40.1428 15.8402 40.0806 15.8804C40.0123 15.9252 40.0358 15.9851 40.0358 16.0436C40.0358 16.0436 39.9174 15.9715 39.8423 15.9882C39.7383 16.0109 39.6754 16.0587 39.6162 16.2295Z" fill="#0155A5"/>
<path fill-rule="evenodd" clip-rule="evenodd" d="M39.9614 15.6909C39.9334 15.7 39.7824 15.7463 39.6344 15.8396C39.6344 15.8396 39.5691 15.8138 39.5373 15.7539C39.5062 15.6962 39.3734 15.5004 39.252 15.4746C39.252 15.4746 39.3544 15.4648 39.4143 15.4458C39.4143 15.4458 39.5403 15.4784 39.6298 15.5141C39.7194 15.5505 39.8309 15.6052 39.9607 15.6901L39.9614 15.6909Z" fill="#0155A5"/>
<path fill-rule="evenodd" clip-rule="evenodd" d="M38.9618 15.4443C38.9854 15.4557 39.0241 15.4739 39.1144 15.4777C39.1144 15.4777 39.4558 15.7145 39.4961 15.9497C39.5302 16.1516 39.4247 16.2479 39.3731 16.2737C39.3208 16.2995 39.0833 16.3974 38.9292 16.0787C38.9292 16.0787 39.1925 16.1652 39.2646 16.0385C39.3367 15.9118 39.2206 15.7266 39.1485 15.6735C39.0544 15.6029 38.8852 15.5551 38.7812 15.5741C38.7812 15.5741 38.864 15.4952 38.9626 15.4451L38.9618 15.4443Z" fill="#0155A5"/>
<path fill-rule="evenodd" clip-rule="evenodd" d="M41.1936 18.1485C41.1518 17.9755 41.1063 17.7926 41.0266 17.6249C40.8733 17.2994 40.4955 16.4306 39.7078 16.2773C39.6334 16.2629 39.7928 16.08 39.8626 16.0891C39.9339 16.0974 40.0743 16.1885 40.1365 16.2295C40.1365 16.2295 40.1365 16.0443 40.1381 16.0109C40.1396 15.9775 40.1692 15.9654 40.2003 15.9669C40.2306 15.9669 40.4211 15.9654 40.481 16.0352C40.6609 16.2424 40.9637 16.8024 41.1351 17.2182C41.3074 17.6341 41.425 17.7608 41.6056 17.697C41.787 17.6341 41.8955 17.4261 42.2112 17.4891C42.3204 17.5104 42.4411 17.584 42.5367 17.6925C42.5101 17.7433 42.4767 17.8048 42.3295 17.8048C42.1823 17.8048 41.9 17.867 41.743 17.9763C41.5859 18.0856 41.4205 18.1227 41.1936 18.147V18.1485Z" fill="#0155A5"/>
<path fill-rule="evenodd" clip-rule="evenodd" d="M38.0486 15.457C38.0319 15.5906 37.9666 15.7173 37.8945 15.8478C37.8945 15.8478 38.1343 16.9542 39.0009 17.0399C39.0009 17.0399 38.9834 16.8108 38.727 16.6355C38.4697 16.461 38.0865 16.1901 38.1131 15.7788C38.1131 15.7788 38.1814 15.7932 38.3051 15.9472C38.4287 16.1013 38.6989 16.5467 39.117 16.5505C39.117 16.5505 39.0555 16.3418 38.8704 16.2212C38.6852 16.1013 38.4485 15.9472 38.343 15.7621C38.236 15.5769 38.1237 15.4919 38.0478 15.4578L38.0486 15.457Z" fill="#0155A5"/>
<path fill-rule="evenodd" clip-rule="evenodd" d="M37.4733 16.5303C37.5234 16.6782 37.852 17.1404 37.9954 17.2724C38.1388 17.4044 38.4894 17.7543 38.6753 17.9295C38.6753 17.9295 38.1434 17.7975 37.8444 17.5258C37.8444 17.5258 37.6312 17.6503 37.4756 17.6503H37.4673C37.3117 17.6503 37.0992 17.5258 37.0992 17.5258C36.8003 17.7975 36.2676 17.9295 36.2676 17.9295C36.4542 17.7543 36.8041 17.4044 36.9475 17.2724C37.0909 17.1404 37.4195 16.6782 37.4703 16.5303H37.4733Z" fill="#0155A5"/>
<path fill-rule="evenodd" clip-rule="evenodd" d="M37.475 17.7582C37.5926 17.7582 37.7049 17.7111 37.7664 17.6846C37.7049 17.8166 37.585 18.0222 37.4727 18.108H37.4704C37.3574 18.0222 37.239 17.8166 37.1768 17.6846C37.239 17.7119 37.3498 17.7582 37.4674 17.7582H37.475Z" fill="#0155A5"/>
<path fill-rule="evenodd" clip-rule="evenodd" d="M37.9308 20.2255L40.013 17.3078L40.2255 17.4603L40.2377 16.7759L39.6078 17.0164L39.8074 17.1598C39.7057 17.3033 38.1486 19.4849 37.9528 19.7596L37.0096 18.0515L36.8935 18.2283L36.0543 19.4963L35.8448 19.3559L35.8418 20.0305L36.4784 19.7778L36.2652 19.6366C36.3806 19.4621 36.8359 18.7746 36.9884 18.5447L37.9316 20.2255H37.9308Z" fill="#0155A5"/>
<path fill-rule="evenodd" clip-rule="evenodd" d="M38.3109 19.08C38.1705 18.8682 38.0286 18.655 37.9573 18.545C37.9042 18.6429 37.7972 18.8349 37.678 19.0473L37.5293 18.781L37.9345 18.0518L38.0514 18.2286L38.4687 18.8591L38.3109 19.08Z" fill="#0155A5"/>
<path fill-rule="evenodd" clip-rule="evenodd" d="M38.739 19.2693L38.8892 19.4962L39.0994 19.3558L39.1032 20.0304L38.4658 19.7777L38.6783 19.6366C38.657 19.604 38.6229 19.5516 38.5812 19.4894L38.739 19.2686V19.2693Z" fill="#0155A5"/>
<path fill-rule="evenodd" clip-rule="evenodd" d="M42.9323 14.8177C42.776 14.6485 42.5134 14.7942 42.2471 15.0393C41.9807 15.2836 41.8138 15.534 41.9686 15.7033C42.112 15.8596 42.3875 15.7268 42.6538 15.4824C42.9194 15.2381 43.0871 14.9869 42.9323 14.8185V14.8177Z" fill="#0155A5"/>
<path fill-rule="evenodd" clip-rule="evenodd" d="M42.5027 17.8247C42.5118 17.8179 42.5194 17.8103 42.527 17.8035C42.6681 17.6798 42.7493 17.4894 42.7493 17.2814C42.7493 16.8815 42.4238 16.556 42.0239 16.556C41.624 16.556 41.2992 16.8815 41.2992 17.2814C41.2992 17.3353 41.3098 17.4241 41.3098 17.4241C41.278 17.3619 41.1581 17.0857 41.1338 17.0356C41.2415 16.6448 41.5997 16.3579 42.0239 16.3579C42.3896 16.3579 42.7053 16.5704 42.8556 16.8777C42.7986 16.512 42.6158 16.1827 42.4875 16.0612C42.3335 15.9156 42.0702 15.8693 42.0702 15.8693C42.2424 15.8966 42.4693 15.7911 42.7235 15.5581C42.9648 15.3366 43.0893 15.1431 43.0961 14.9814C43.0809 15.2099 43.0878 15.3373 43.1523 15.5225C43.2403 15.7759 43.4793 16.2418 43.3943 16.7677C43.3473 17.0568 43.1378 17.4871 42.788 17.8384C42.7129 17.9173 42.6848 18.0342 42.6765 18.0949C42.6765 18.0949 42.1597 18.0949 42.0368 18.1055C42.0368 18.1055 41.9139 18.0949 41.9161 18.0182C41.9184 17.9416 41.9867 17.9219 42.0474 17.9219C42.1081 17.9219 42.3654 17.9279 42.5035 17.8255L42.5027 17.8247Z" fill="#0155A5"/>
<path fill-rule="evenodd" clip-rule="evenodd" d="M39.0996 17.9744C38.6595 17.7331 38.23 17.3621 37.8415 16.7694L37.7725 16.6533C37.8779 16.7004 38.0145 16.6677 38.0145 16.6677C38.0206 16.6776 38.0373 16.7042 38.0464 16.7186C38.4076 17.2528 38.8083 17.5897 39.218 17.8098L39.0996 17.9744Z" fill="#0155A5"/>
<path fill-rule="evenodd" clip-rule="evenodd" d="M39.6435 18C39.9767 18.1214 40.3083 18.1844 40.6232 18.233C40.8273 18.2641 41.0284 18.2755 41.2204 18.2656C41.2173 18.2975 41.2181 18.34 41.2363 18.3711C41.2363 18.3711 41.1976 18.4158 41.1976 18.4659C41.0018 18.4735 40.8 18.4621 40.5928 18.4303C40.2498 18.3779 39.8871 18.3073 39.5244 18.17L39.6435 18.0008V18Z" fill="#0155A5"/>
<path fill-rule="evenodd" clip-rule="evenodd" d="M42.0079 18.1638C42.0686 18.1539 42.2621 18.1585 42.3782 18.1767C42.5049 18.1964 42.6498 18.223 42.665 18.2928C42.6802 18.3596 42.6339 18.4301 42.5686 18.5311C42.5284 18.5933 42.4343 18.5576 42.382 18.5379C42.3296 18.5182 42.0322 18.3588 41.9836 18.3057C41.9358 18.2533 41.9161 18.179 42.0079 18.1638Z" fill="#0155A5"/>
<path fill-rule="evenodd" clip-rule="evenodd" d="M41.7032 18.3613C41.7359 18.3409 41.8133 18.3113 41.8945 18.3416C41.9749 18.372 42.2686 18.545 42.2883 18.6262C42.308 18.7066 42.2678 18.7483 42.2223 18.7666C42.1767 18.7848 42.1206 18.8015 42.0811 18.8053C42.0083 18.8113 41.9354 18.7681 41.8983 18.7225C41.8611 18.6763 41.7237 18.5101 41.7032 18.4729C41.6835 18.4357 41.6737 18.3811 41.7032 18.3613Z" fill="#0155A5"/>
<path fill-rule="evenodd" clip-rule="evenodd" d="M41.6675 18.5434C41.71 18.5912 41.8283 18.7354 41.8428 18.7589C41.8564 18.7824 41.8359 18.8196 41.7988 18.8158C41.7616 18.812 41.5597 18.7908 41.4436 18.7111C41.3275 18.6322 41.2494 18.4789 41.3298 18.4235C41.4095 18.3673 41.5332 18.3924 41.6675 18.5434Z" fill="#0155A5"/>
<path fill-rule="evenodd" clip-rule="evenodd" d="M41.602 18.1033C41.64 18.0942 41.7932 18.0547 41.8266 18.1055C41.8684 18.1685 41.8388 18.2361 41.7204 18.293C41.602 18.3499 41.3782 18.3954 41.3334 18.3339C41.2894 18.2717 41.3509 18.1678 41.602 18.1033Z" fill="#0155A5"/>
</g>
<defs>
<clipPath id="clip0_691_4812">
<rect width="49.4729" height="24" fill="white"/>
</clipPath>
</defs>
</svg>
