<svg width="148" height="24" viewBox="0 0 148 24" fill="none" xmlns="http://www.w3.org/2000/svg">
<path fill-rule="evenodd" clip-rule="evenodd" d="M9.60079 19.0249C10.6284 17.9924 12.2895 17.9924 13.3155 19.0249C14.3464 20.059 14.3464 21.7364 13.3155 22.7705C12.2895 23.8063 10.6268 23.8063 9.60079 22.7705C8.57969 21.7364 8.57969 20.059 9.60079 19.0249Z" fill="#E51A4B"/>
<path fill-rule="evenodd" clip-rule="evenodd" d="M14.0153 14.5771C12.991 15.6096 12.991 17.2854 14.0153 18.3228C15.043 19.3537 16.7073 19.3537 17.7333 18.3228C18.7577 17.287 18.7577 15.6096 17.7333 14.5771C16.7073 13.5446 15.043 13.5446 14.0153 14.5771Z" fill="#E51A4B"/>
<path fill-rule="evenodd" clip-rule="evenodd" d="M18.4336 10.1279C17.4076 11.1604 17.4076 12.8378 18.4336 13.8687C19.4595 14.9077 21.1239 14.9077 22.1499 13.8687C23.1726 12.8378 23.1726 11.1604 22.1499 10.1279C21.1223 9.09213 19.4595 9.09213 18.4336 10.1279Z" fill="#E51A4B"/>
<path fill-rule="evenodd" clip-rule="evenodd" d="M5.18697 14.5771C4.15773 15.6096 4.15773 17.287 5.18697 18.3228C6.21296 19.3537 7.87734 19.3537 8.90333 18.3228C9.92769 17.287 9.92769 15.6096 8.90333 14.5771C7.87572 13.5446 6.21296 13.5446 5.18697 14.5771Z" fill="#E51A4B"/>
<path fill-rule="evenodd" clip-rule="evenodd" d="M0.770713 10.1279C-0.256904 11.162 -0.256904 12.8378 0.770713 13.8687C1.7967 14.9077 3.45946 14.9077 4.48545 13.8687C5.51306 12.8378 5.51306 11.162 4.48545 10.1279C3.45946 9.09213 1.79507 9.09213 0.770713 10.1279Z" fill="#E51A4B"/>
<path fill-rule="evenodd" clip-rule="evenodd" d="M9.60079 10.1279C8.57969 11.1604 8.57969 12.8378 9.60079 13.8687C10.6284 14.9077 12.2895 14.9077 13.3204 13.8687C14.3464 12.8378 14.3464 11.1604 13.3204 10.1279C12.2895 9.09213 10.6284 9.09213 9.60079 10.1279Z" fill="#E51A4B"/>
<path fill-rule="evenodd" clip-rule="evenodd" d="M5.18697 5.67868C4.15773 6.71281 4.15773 8.38859 5.18697 9.42435C6.21296 10.4585 7.87734 10.4585 8.90333 9.42435C9.92769 8.38859 9.92769 6.71281 8.90333 5.67868C7.87572 4.64292 6.21296 4.64292 5.18697 5.67868Z" fill="#E51A4B"/>
<path fill-rule="evenodd" clip-rule="evenodd" d="M14.0153 5.67868C12.991 6.71281 12.991 8.38859 14.0153 9.42435C15.043 10.4585 16.7073 10.4585 17.7333 9.42435C18.7577 8.38859 18.7577 6.71281 17.7333 5.67868C16.7073 4.64292 15.043 4.64292 14.0153 5.67868Z" fill="#E51A4B"/>
<path fill-rule="evenodd" clip-rule="evenodd" d="M9.60079 1.22946C10.6284 0.193697 12.2895 0.193697 13.3204 1.22946C14.3464 2.26522 14.3464 3.93937 13.3204 4.9735C12.2895 6.00764 10.6284 6.00764 9.60079 4.9735C8.57969 3.93937 8.57969 2.26522 9.60079 1.22946Z" fill="#B0CB1F"/>
<path fill-rule="evenodd" clip-rule="evenodd" d="M147.16 4.82468L146.914 5.46088C146.673 6.09709 146.502 6.47062 146.271 6.98392C146.124 7.30202 145.955 7.67555 145.721 8.21537L140.772 20.5467C139.906 22.7421 138.181 24 136.051 24C135.313 24 134.443 23.7759 133.954 23.5735L133.511 23.3855L133.711 22.9373C134.4 21.46 134.843 20.9829 136.28 20.8648C136.824 20.8214 137.417 20.178 137.834 19.1803L138.044 18.6694L133.561 8.21055C133.323 7.65146 133.144 7.21768 132.964 6.78149C132.79 6.37422 132.621 5.97418 132.407 5.47775L132.125 4.82227H134.332C135.61 4.82227 136.174 5.21748 136.663 6.46821C136.663 6.46821 139.128 12.6182 139.314 13.0664C139.492 13.5195 139.709 14.6015 139.709 14.6015L139.822 14.5943C139.822 14.5943 139.981 13.6279 140.172 13.064C140.367 12.5049 142.562 6.48508 142.562 6.48508C143.022 5.25122 143.649 4.82227 144.948 4.82227H147.16V4.82468Z" fill="#E51A4B"/>
<path fill-rule="evenodd" clip-rule="evenodd" d="M119.571 4.66009C118.072 4.66009 116.221 5.9566 115.814 7.6146V6.62173C115.814 5.74454 115.291 4.82156 113.643 4.82156H112.411V19.1916H115.901V13.2272C115.901 12.3404 115.992 11.5957 116.195 10.9426C116.718 9.22921 118.009 8.12308 119.487 8.12308C119.846 8.12308 120.144 8.18815 120.144 8.18815L120.72 8.3231V4.77577L120.323 4.71552C120.308 4.71552 119.94 4.65527 119.568 4.65527L119.571 4.66009Z" fill="#E51A4B"/>
<path fill-rule="evenodd" clip-rule="evenodd" d="M129.691 4.66009C128.196 4.66009 126.353 5.9566 125.941 7.6146V6.62173C125.941 5.74454 125.425 4.82156 123.772 4.82156H122.538V19.1916H126.028V13.2272C126.028 12.3404 126.124 11.5957 126.322 10.9426C126.845 9.22921 128.139 8.12308 129.616 8.12308C129.977 8.12308 130.274 8.18815 130.274 8.18815L130.847 8.3231V4.77577L130.455 4.71552C130.438 4.71552 130.071 4.65527 129.693 4.65527L129.691 4.66009Z" fill="#E51A4B"/>
<path fill-rule="evenodd" clip-rule="evenodd" d="M56.3357 4.99072C51.9859 4.99072 48.7061 8.20549 48.7061 12.4686C48.7061 16.7316 51.9835 20.0018 56.3357 20.0018C60.6879 20.0018 63.9943 16.6907 63.9943 12.4686C63.9943 8.24646 60.7048 4.99072 56.3357 4.99072ZM56.3357 16.8304C54.0054 16.8304 52.2437 14.9555 52.2437 12.471C52.2437 9.98639 54.003 8.16212 56.3357 8.16212C58.6685 8.16212 60.4542 10.0153 60.4542 12.471C60.4542 14.9266 58.6853 16.8304 56.3357 16.8304Z" fill="#E51A4B"/>
<path fill-rule="evenodd" clip-rule="evenodd" d="M40.5201 4.99085C38.5489 4.99085 37.1969 5.79333 36.4089 6.47774H36.3077C36.3077 6.47774 36.4089 5.68971 36.4089 4.88963V2.1713C36.4089 0.708503 35.7004 0 34.2521 0H32.917V12.5916C33.0905 17.1631 35.9221 20.0044 40.3153 20.0044C44.3615 20.0044 47.4148 16.7775 47.4148 12.4976C47.4148 8.21767 44.4506 4.99085 40.5177 4.99085H40.5201ZM39.9442 16.8546C37.7006 16.8546 36.2691 14.6641 36.2691 12.5458C36.2691 9.33103 38.3175 8.18634 39.9948 8.18634C41.9155 8.18634 43.8988 9.81059 43.8988 12.5217C43.8988 15.2328 41.8865 16.8571 39.9442 16.8571V16.8546Z" fill="#E51A4B"/>
<path fill-rule="evenodd" clip-rule="evenodd" d="M87.6822 4.99085C85.7086 4.99085 84.359 5.79333 83.5662 6.47774H83.4674C83.4674 6.47774 83.5662 5.68971 83.5662 4.88963V2.1713C83.5662 0.708503 82.8625 0 81.4142 0H80.0791V12.5916C80.2502 17.1631 83.0866 20.0044 87.4678 20.0044C91.5188 20.0044 94.5721 16.7775 94.5721 12.4976C94.5721 8.21767 91.6079 4.99085 87.6798 4.99085H87.6822ZM87.1015 16.8546C84.8603 16.8546 83.4288 14.6641 83.4288 12.5458C83.4288 9.33103 85.4772 8.18634 87.1545 8.18634C89.0776 8.18634 91.0609 9.81059 91.0609 12.5217C91.0609 15.2328 89.0486 16.8571 87.1015 16.8571V16.8546Z" fill="#E51A4B"/>
<path fill-rule="evenodd" clip-rule="evenodd" d="M76.267 16.534L73.4305 12.0058L75.8452 8.37415C76.2838 7.71143 76.6284 7.23669 76.9923 6.73785C77.2574 6.37637 77.5273 6.01006 77.8261 5.57147L78.3346 4.83887H75.7031C74.2234 4.83887 73.6715 5.16179 72.8811 6.47999C72.8811 6.47999 71.8183 8.24643 71.6689 8.49464C71.5292 8.73804 71.1629 9.55981 71.1556 9.5815H71.0592C71.0592 9.5815 70.7315 8.81998 70.5315 8.49464C70.3387 8.16449 69.3072 6.47276 69.3072 6.47276C68.4734 5.16179 67.9143 4.83887 66.4925 4.83887H63.8682L64.4008 5.5787C65.0345 6.47999 65.4008 7.01016 65.9479 7.80542L68.7602 12.0106L66.372 15.9749C65.931 16.6304 65.5888 17.1123 65.2201 17.6112C64.9526 17.9751 64.6875 18.3366 64.3839 18.7703L63.8802 19.5102H66.5118C67.989 19.5102 68.5433 19.1921 69.3362 17.8739C69.3362 17.8739 70.3941 16.1123 70.5435 15.8592C70.6833 15.6158 71.052 14.7916 71.064 14.7724H71.1604C71.1604 14.7724 71.4858 15.5291 71.6834 15.8592C71.881 16.1845 72.91 17.8811 72.91 17.8811C73.7462 19.1921 74.3005 19.5102 75.7247 19.5102H78.3467L77.8117 18.7703C77.1827 17.8739 76.814 17.3437 76.2718 16.5388L76.267 16.534Z" fill="#E51A4B"/>
<path fill-rule="evenodd" clip-rule="evenodd" d="M107.873 15.5866C107.476 15.5866 107.112 15.7553 106.755 15.9168L106.702 15.9385C105.962 16.2807 105.061 16.6976 103.993 16.6976C102.176 16.6976 99.8244 15.5746 99.6172 13.1069H109.664C109.727 12.637 109.763 11.9477 109.763 11.579C109.763 7.53526 107.097 4.81934 103.155 4.81934C98.9424 4.81934 95.9951 7.90879 95.9951 12.3261C95.9951 16.7434 99.487 19.8304 103.863 19.8304C107.416 19.8304 109.401 17.6519 109.486 17.5676L109.724 17.329L109.582 17.0229C109.257 16.3578 108.784 15.5866 107.871 15.5866H107.873ZM103.401 7.56418C104.888 7.56418 106.452 8.48234 106.452 10.4295H99.6485C99.8798 8.9354 101.393 7.56418 103.398 7.56418H103.401Z" fill="#E51A4B"/>
</svg>
