<svg width="57" height="24" viewBox="0 0 57 24" fill="none" xmlns="http://www.w3.org/2000/svg">
<g clip-path="url(#clip0_691_4807)">
<path d="M10.2807 23.7732C5.96723 23.7732 2.07534 21.3408 0.161822 17.5786C-0.227367 16.8326 0.12939 15.9245 0.940201 15.6651C1.58885 15.4381 2.30236 15.7299 2.59425 16.3462C4.05371 19.2002 7.00507 21.0813 10.2807 21.0813C13.0699 21.0813 15.5997 19.7516 17.1888 17.611C17.7078 16.9299 18.4213 15.8272 18.4213 14.0435L20.8861 16.6056C20.8861 16.6056 20.7564 16.9624 20.497 17.4489C20.2375 17.9029 20.1402 18.0975 19.978 18.357C17.9672 21.6326 14.3024 23.7732 10.2807 23.7732Z" fill="#60BB52"/>
<path d="M13.9136 8.59459C13.038 8.01081 11.838 7.71892 10.3785 7.71892H8.78932V5.48108H13.3947C14.0758 5.48108 14.6596 4.96216 14.6596 4.28108C14.6596 3.6 14.0758 3.04865 13.3947 3.04865H7.55688C6.8758 3.04865 6.29202 3.6 6.29202 4.31351V8.88649C6.29202 9.56757 6.84337 10.1514 7.55688 10.1514H10.4434C12.3893 10.1514 13.0055 11.027 13.0055 11.9676C13.0055 12.8757 12.519 14.3027 10.4758 14.3027C8.78932 14.3027 7.78391 13.1676 7.58932 12.973C6.9731 12.4216 6.35688 12.4541 5.93526 12.8108C5.41634 13.2649 5.48121 13.9459 5.80553 14.4324C6.19472 15.0162 7.68661 16.8 10.5082 16.8C12.1299 16.8 13.5245 16.2162 14.4974 15.1784C15.3731 14.2378 15.7947 13.0054 15.6974 11.773C15.6001 10.4108 14.9839 9.30811 13.9136 8.59459ZM46.0217 7.62162C45.4055 7.39459 44.8542 7.23243 44.4001 7.1027C43.8812 6.94054 43.492 6.77838 43.4596 6.77838C42.8434 6.55135 42.3569 6.03243 42.6163 5.48108C42.8758 4.96216 43.8488 4.73513 45.8272 5.61081C46.4109 5.87027 46.9623 5.64324 47.1569 5.41622C47.5785 4.8973 47.4163 4.02162 46.6055 3.6C46.0542 3.24324 45.0812 2.78919 43.1028 2.95135C41.5461 3.08108 40.3461 4.15135 40.119 5.51351C39.892 6.81081 40.5731 7.75135 41.5461 8.33514C42.2272 8.72432 43.6542 9.14595 44.2055 9.30811C44.919 9.5027 45.4704 9.66486 45.5677 10.1514C45.6001 10.4108 45.4704 10.7351 45.1461 10.9946C44.5947 11.4486 43.3947 11.5135 41.9028 10.573C41.6109 10.4108 40.9299 9.85946 40.2812 10.4432C39.7623 10.8973 39.892 11.6757 40.5407 12.2595C41.1245 12.7784 42.4217 13.3622 43.7839 13.427C45.1785 13.4919 46.1839 13.0378 46.7028 12.6486C47.4163 12.1297 47.8704 11.2541 47.9677 10.4432C48.1299 8.95135 47.1569 8.04324 46.0217 7.62162ZM55.4596 10.9297C55.1677 10.8324 54.8109 10.8973 54.5515 10.9297C54.2271 10.9946 53.7407 11.027 53.2866 10.8973C52.5407 10.6703 52.2163 10.3459 52.2163 9.66486V5.31892H54.0001C54.6812 5.31892 55.2326 4.8 55.2326 4.15135C55.2326 3.5027 54.6812 2.98378 54.0001 2.98378H52.2163V1.26486C52.2163 0.551351 51.6326 0 50.9515 0C50.238 0 49.6866 0.583784 49.6866 1.26486V2.95135H49.1028C48.4217 2.95135 47.8704 3.47027 47.8704 4.11892C47.8704 4.76757 48.4217 5.28649 49.1028 5.28649H49.6866V9.6973C49.6866 11.773 51.3407 13.4595 53.4488 13.4595C55.5569 13.4595 56.1082 12.7135 56.1082 12C56.0758 11.4811 55.8812 11.0919 55.4596 10.9297ZM34.4758 11.0595C33.0163 11.0595 31.8488 10.0216 31.8488 8.17297C31.8488 6.32432 33.0488 5.28649 34.4758 5.28649C35.9353 5.28649 37.1028 6.32432 37.1028 8.17297C37.1353 10.0216 35.9353 11.0595 34.4758 11.0595ZM34.4758 2.95135C31.6542 2.95135 29.3515 5.28649 29.3515 8.17297C29.3515 11.0595 31.6542 13.3946 34.4758 13.3946C37.2974 13.3946 39.6001 11.0595 39.6001 8.17297C39.6001 5.31892 37.2974 2.95135 34.4758 2.95135ZM23.6109 11.0595C21.9569 11.0595 20.8217 9.92432 20.8217 8.17297C20.8217 6.29189 22.2163 5.28649 23.6109 5.28649C25.0704 5.28649 26.238 6.64865 26.238 8.17297C26.238 9.72973 25.0704 11.0595 23.6109 11.0595ZM23.7731 2.95135C22.7677 2.95135 21.5353 3.53514 20.8866 4.44324C20.8542 3.56757 20.4001 2.98378 19.719 2.98378C19.0055 2.98378 18.4542 3.56757 18.4542 4.24865V16.0216C18.4542 16.7351 19.038 17.2865 19.719 17.2865C20.4001 17.2865 20.9839 16.7027 20.9839 16.0216V12.1946C21.4704 12.8432 22.6704 13.4595 23.8704 13.4595C26.692 13.4595 28.7028 11.0919 28.7028 8.20541C28.7353 5.31892 26.692 2.95135 23.7731 2.95135Z" fill="#58595B"/>
</g>
<defs>
<clipPath id="clip0_691_4807">
<rect width="56.1081" height="24" fill="white"/>
</clipPath>
</defs>
</svg>
