<svg width="20" height="21" viewBox="0 0 20 21" fill="none" xmlns="http://www.w3.org/2000/svg">
<path fill-rule="evenodd" clip-rule="evenodd" d="M8 16.7578C3.58172 16.7578 0 13.1761 0 8.75781C0 4.33953 3.58172 0.757812 8 0.757812C12.4183 0.757812 16 4.33953 16 8.75781C16 10.6065 15.3729 12.3088 14.3199 13.6635L19.7071 19.0507L18.2929 20.4649L12.9056 15.0777C11.551 16.1307 9.84871 16.7578 8 16.7578ZM14 8.75781C14 12.0715 11.3137 14.7578 8 14.7578C4.68629 14.7578 2 12.0715 2 8.75781C2 5.4441 4.68629 2.75781 8 2.75781C11.3137 2.75781 14 5.4441 14 8.75781Z" fill="#3D5165"/>
</svg>
