<svg width="24" height="24" viewBox="0 0 24 24" fill="none" xmlns="http://www.w3.org/2000/svg">
<path d="M8.14335 13.412C8.0735 12.9929 7.67717 12.7099 7.25812 12.7797C6.83907 12.8495 6.55598 13.2459 6.62582 13.6649L7.3951 18.2803C7.46495 18.6994 7.86128 18.9825 8.28033 18.9126C8.69939 18.8428 8.98247 18.4464 8.91263 18.0274L8.14335 13.412Z" fill="#3D5165"/>
<path d="M16.7418 12.7797C16.3228 12.7099 15.9264 12.993 15.8566 13.412L15.0874 18.0274C15.0176 18.4464 15.3007 18.8428 15.7197 18.9126C16.1388 18.9825 16.5351 18.6994 16.6049 18.2803L17.3741 13.6649C17.444 13.2459 17.1609 12.8495 16.7418 12.7797Z" fill="#3D5165"/>
<path d="M11.2308 13.5385C11.2308 13.1136 11.5752 12.7692 12 12.7692C12.4249 12.7692 12.7693 13.1136 12.7693 13.5385V18.1538C12.7693 18.5787 12.4249 18.9231 12 18.9231C11.5752 18.9231 11.2308 18.5787 11.2308 18.1538V13.5385Z" fill="#3D5165"/>
<path fill-rule="evenodd" clip-rule="evenodd" d="M12 2C10.7255 2 9.69233 3.03319 9.69233 4.30769C9.69233 4.69531 9.78789 5.06061 9.95675 5.38131L6.26161 9.69231H4.54311C3.13877 9.69231 2.06001 10.9361 2.25861 12.3264L3.35751 20.0187C3.51993 21.1555 4.49359 22 5.64201 22H18.358C19.5065 22 20.4801 21.1556 20.6425 20.0187L21.7414 12.3264C21.94 10.9361 20.8613 9.69231 19.4569 9.69231H17.7384L14.0433 5.38131C14.2121 5.06061 14.3077 4.69531 14.3077 4.30769C14.3077 3.03319 13.2745 2 12 2ZM11.2308 4.30769C11.2308 3.88286 11.5752 3.53846 12 3.53846C12.4249 3.53846 12.7693 3.88286 12.7693 4.30769C12.7693 4.73253 12.4249 5.07692 12 5.07692C11.5752 5.07692 11.2308 4.73253 11.2308 4.30769ZM12.9137 6.42744C12.6335 6.54838 12.3246 6.61538 12 6.61538C11.6754 6.61538 11.3665 6.54838 11.0863 6.42744L8.28788 9.69231H15.7122L12.9137 6.42744ZM4.54311 11.2308C4.075 11.2308 3.71541 11.6454 3.78161 12.1088L4.88051 19.8011C4.93465 20.1801 5.2592 20.4615 5.64201 20.4615H18.358C18.7408 20.4615 19.0654 20.1801 19.1195 19.8011L20.2184 12.1088C20.2846 11.6454 19.925 11.2308 19.4569 11.2308H4.54311Z" fill="#3D5165"/>
</svg>
