<svg width="24" height="24" viewBox="0 0 24 24" fill="none" xmlns="http://www.w3.org/2000/svg">
<path fill-rule="evenodd" clip-rule="evenodd" d="M17.5297 3.03363C17.4037 3.05076 17.1819 3.09225 17.0369 3.12581C16.8919 3.15937 16.6391 3.23331 16.4752 3.29009C16.3113 3.34687 16.0368 3.4573 15.8652 3.53547C15.6935 3.61362 15.4181 3.75816 15.253 3.85666C15.0879 3.95515 14.8415 4.11873 14.7054 4.22022C14.5693 4.32171 14.3229 4.53949 14.1579 4.70417C13.9401 4.92159 13.8138 5.0708 13.6969 5.24879C13.6083 5.38361 13.5126 5.55125 13.4841 5.62131C13.4557 5.69136 13.4249 5.74867 13.4157 5.74867C13.4065 5.74867 13.3128 5.69102 13.2075 5.62055C13.1023 5.5501 12.9279 5.44825 12.82 5.39422C12.7122 5.34019 12.5466 5.26818 12.452 5.23416C12.3575 5.20016 12.2141 5.157 12.1334 5.13827C12.0527 5.11954 11.4389 5.04293 10.7694 4.96803C10.0999 4.89312 9.33545 4.79991 9.07068 4.76089C8.69346 4.7053 8.53966 4.69228 8.36002 4.70067C8.20118 4.70812 8.07604 4.72919 7.95248 4.76933C7.85441 4.80117 7.69967 4.87081 7.60861 4.92406C7.46543 5.00781 7.08894 5.37441 4.82248 7.63709C3.38116 9.076 2.15503 10.3151 2.09772 10.3907C2.04044 10.4663 1.96419 10.5863 1.92829 10.6574C1.89239 10.7285 1.84191 10.8672 1.81614 10.9656C1.78384 11.0889 1.76929 11.2165 1.76929 11.3761C1.76929 11.5103 1.78414 11.6651 1.80461 11.7443C1.82405 11.8194 1.90016 12.0202 1.97377 12.1904C2.04738 12.3606 2.29043 12.9125 2.51387 13.4169C2.73731 13.9212 2.98097 14.4616 3.05529 14.6178C3.12964 14.774 3.23339 14.97 3.28589 15.0534C3.33839 15.1367 3.44253 15.2855 3.51731 15.384C3.59209 15.4825 3.71682 15.6313 3.79447 15.7146C3.87211 15.7978 4.19573 16.0916 4.51365 16.3673C4.83154 16.643 5.09819 16.8792 5.10619 16.8922C5.11417 16.9051 5.05973 16.9795 4.98518 17.0575C4.91063 17.1355 4.80788 17.2613 4.75683 17.3369C4.7058 17.4126 4.63288 17.5364 4.5948 17.612C4.55675 17.6877 4.4995 17.8323 4.46759 17.9335C4.4357 18.0347 4.39694 18.2041 4.38144 18.31C4.36452 18.4258 4.35875 18.5948 4.36698 18.7336C4.3745 18.8606 4.40274 19.0522 4.42974 19.1594C4.45673 19.2666 4.52323 19.4489 4.57751 19.5646C4.6318 19.6804 4.70949 19.8234 4.75018 19.8826C4.79087 19.9417 4.89238 20.0624 4.97573 20.1508C5.05909 20.2391 5.18593 20.3565 5.25761 20.4117C5.32929 20.4669 5.46349 20.5524 5.55583 20.6018C5.64817 20.6513 5.79078 20.7135 5.87274 20.7403C5.95469 20.767 6.06817 20.7996 6.12491 20.8128C6.18164 20.826 6.31334 20.8448 6.41758 20.8546C6.52182 20.8644 6.70067 20.8637 6.81504 20.8532C6.92941 20.8426 7.09084 20.817 7.17376 20.7962C7.2567 20.7754 7.39734 20.7284 7.48631 20.6917C7.57528 20.655 7.72573 20.5769 7.82066 20.518C7.92352 20.4543 8.10602 20.301 8.2725 20.1383C8.42609 19.9882 8.56174 19.8716 8.57391 19.8791C8.5861 19.8866 8.80829 20.0762 9.06765 20.3003C9.32704 20.5244 9.59638 20.7424 9.66621 20.7847C9.73606 20.827 9.86058 20.8861 9.94295 20.916C10.0253 20.9459 10.1754 20.9796 10.2765 20.9909C10.3881 21.0034 10.5288 21.003 10.6345 20.9899C10.7302 20.978 10.8892 20.9371 10.9879 20.8991C11.0865 20.8611 11.2267 20.7858 11.2995 20.7319C11.3723 20.678 11.4796 20.5824 11.538 20.5195C11.5963 20.4567 11.6727 20.36 11.7076 20.3046C11.7425 20.2493 11.8016 20.1212 11.8388 20.0199C11.8911 19.8775 11.9093 19.7824 11.9189 19.6007C11.9257 19.4714 11.9376 19.3661 11.9452 19.3665C11.9529 19.367 12.021 19.3823 12.0967 19.4006C12.1723 19.4188 12.3324 19.4339 12.4525 19.4341C12.6036 19.4344 12.7233 19.4199 12.8418 19.3871C12.9359 19.361 13.0853 19.3023 13.1738 19.2565C13.284 19.1996 13.3934 19.1146 13.5215 18.9863C13.6705 18.8371 13.727 18.76 13.8003 18.6067C13.8508 18.5009 13.9085 18.3401 13.9286 18.2494C13.9486 18.1586 13.965 18.038 13.965 17.9813V17.8782L14.0854 17.9332C14.1516 17.9635 14.2728 18.006 14.3547 18.0277C14.4431 18.0511 14.5923 18.0676 14.7215 18.0683C14.8413 18.069 14.996 18.0558 15.0654 18.0391C15.1347 18.0224 15.2889 17.9621 15.4079 17.9051C15.5872 17.8194 15.6549 17.7707 15.8016 17.6222C15.9358 17.4863 16.0013 17.3968 16.0721 17.2524C16.1235 17.1476 16.1823 16.9948 16.2028 16.9128C16.2233 16.8309 16.2404 16.6761 16.2407 16.5689C16.2411 16.4618 16.2341 16.3418 16.2252 16.3023L16.2091 16.2305L16.4599 16.2424C16.654 16.2516 16.7488 16.245 16.8795 16.2134C16.9723 16.1909 17.1022 16.1489 17.168 16.1201C17.2339 16.0913 17.337 16.034 17.3973 15.9927C17.4575 15.9515 17.5622 15.8657 17.6299 15.8021C17.6977 15.7384 17.7983 15.6231 17.8535 15.5459C17.9087 15.4686 17.9784 15.3499 18.0082 15.2822C18.038 15.2145 18.0793 15.0849 18.0999 14.9941C18.1204 14.9034 18.1372 14.7589 18.1371 14.6732C18.137 14.5874 18.1162 14.4307 18.0908 14.325C18.0655 14.2192 18.0089 14.0644 17.965 13.9811C17.9204 13.8962 17.7668 13.6927 17.6159 13.5183C17.4676 13.3471 17.1297 12.9567 16.8649 12.6507C16.6002 12.3447 16.3807 12.0824 16.3773 12.0679C16.3738 12.0533 16.4784 11.9344 16.6097 11.8037L16.8483 11.566L17.0286 11.6252C17.1277 11.6577 17.3378 11.7202 17.4954 11.7639C17.653 11.8076 17.8696 11.8601 17.9768 11.8805C18.0839 11.9009 18.2851 11.9271 18.4238 11.9387C18.5885 11.9525 18.7505 11.9516 18.8909 11.936C19.0091 11.9229 19.1943 11.8865 19.3024 11.8552C19.4105 11.8239 19.582 11.7564 19.6835 11.7052C19.785 11.654 19.9451 11.5591 20.0394 11.4944C20.1336 11.4296 20.3211 11.2703 20.456 11.1403C20.5909 11.0104 20.7781 10.8092 20.872 10.6933C20.9658 10.5774 21.1149 10.3742 21.2033 10.2418C21.2916 10.1095 21.4195 9.89797 21.4874 9.77189C21.5552 9.64581 21.6604 9.43529 21.721 9.30407C21.7817 9.17288 21.8865 8.89951 21.954 8.69658C22.0216 8.49368 22.1034 8.19355 22.1358 8.02964C22.1683 7.86573 22.2044 7.64394 22.216 7.53677C22.2278 7.4296 22.2336 7.19233 22.229 7.00951C22.2244 6.82669 22.2093 6.61006 22.1953 6.5281C22.1814 6.44615 22.1486 6.29867 22.1224 6.2004C22.0887 6.07443 22.0549 6.00199 22.0078 5.95483C21.971 5.91806 21.9052 5.88127 21.8615 5.87309C21.8179 5.8649 21.7442 5.86531 21.6978 5.87402C21.6247 5.88773 21.4705 6.0325 20.5471 6.95436C19.6541 7.84586 19.4663 8.02272 19.3918 8.04278C19.3152 8.06341 19.2613 8.05539 19.003 7.98492C18.8381 7.93992 18.6094 7.85847 18.4947 7.80393C18.3801 7.74939 18.2017 7.64085 18.0984 7.56272C17.9951 7.48459 17.855 7.35654 17.787 7.27814C17.719 7.19974 17.6321 7.08917 17.5938 7.03244C17.5556 6.9757 17.4865 6.85395 17.4402 6.76186C17.3939 6.6698 17.3153 6.45316 17.2655 6.28045C17.2157 6.10776 17.1748 5.94273 17.1747 5.91373C17.1745 5.88475 17.191 5.82802 17.2112 5.78765C17.2314 5.7473 17.7152 5.24491 18.2862 4.67123C18.8572 4.09755 19.3358 3.60564 19.3498 3.57811C19.3637 3.55055 19.3751 3.48866 19.3751 3.44056C19.375 3.39245 19.3548 3.32005 19.3302 3.2797C19.3056 3.23933 19.2554 3.19073 19.2186 3.17171C19.1818 3.15268 19.0704 3.11639 18.9711 3.09108C18.8718 3.06575 18.7032 3.03439 18.5963 3.02139C18.4895 3.00839 18.2574 2.99881 18.0805 3.00012C17.9037 3.00143 17.6558 3.01651 17.5297 3.03363ZM18.389 3.65683C18.3888 3.66628 18.0133 4.04911 17.5545 4.50753C17.0111 5.05063 16.7 5.3787 16.6617 5.44915C16.6293 5.50861 16.587 5.61796 16.5677 5.69217C16.5484 5.76637 16.5326 5.87391 16.5326 5.93115C16.5327 5.98839 16.5686 6.17128 16.6125 6.3376C16.6564 6.50389 16.718 6.70806 16.7493 6.79127C16.7807 6.87451 16.8501 7.02691 16.9038 7.12996C16.9574 7.233 17.0592 7.39505 17.13 7.4901C17.2009 7.58512 17.3395 7.74277 17.4379 7.84043C17.5364 7.93808 17.7087 8.08081 17.8209 8.15761C17.933 8.2344 18.1094 8.33676 18.2128 8.38506C18.3162 8.43336 18.4662 8.49478 18.5461 8.52153C18.626 8.54828 18.8098 8.60071 18.9546 8.63805C19.0993 8.67538 19.2613 8.70591 19.3146 8.70591C19.3678 8.70591 19.4729 8.68991 19.548 8.67033C19.6231 8.65075 19.7311 8.60821 19.7878 8.57577C19.8465 8.54221 20.2531 8.15602 20.7309 7.68007L21.5709 6.84338L21.5859 6.93233C21.5942 6.98122 21.5901 7.15529 21.5769 7.31913C21.5636 7.48297 21.5418 7.6789 21.5284 7.75455C21.515 7.8302 21.4789 7.99209 21.4482 8.1143C21.4175 8.23649 21.3498 8.45828 21.2977 8.60718C21.2457 8.75605 21.1441 9.00244 21.072 9.15472C21 9.30701 20.877 9.53937 20.7987 9.67105C20.7204 9.80275 20.574 10.0209 20.4735 10.1558C20.3729 10.2908 20.19 10.5025 20.067 10.6263C19.9423 10.7517 19.7515 10.9128 19.6359 10.9901C19.5144 11.0714 19.3468 11.1584 19.2308 11.2004C19.122 11.2397 18.9446 11.2829 18.8364 11.2964C18.6998 11.3133 18.5718 11.3136 18.4172 11.2973C18.2947 11.2844 18.0842 11.2487 17.9493 11.2178C17.8144 11.187 17.5006 11.0992 17.252 11.0227C17.0033 10.9463 16.7741 10.8837 16.7427 10.8837C16.7113 10.8837 16.6434 10.9085 16.5919 10.9388C16.5403 10.9691 16.3751 11.1241 16.2248 11.2833C16.0744 11.4424 15.9442 11.5698 15.9355 11.5663C15.9267 11.5628 15.4532 11.0236 14.8833 10.3679C14.3134 9.71229 13.8422 9.16472 13.8363 9.15112C13.8304 9.13751 13.9341 9.0164 14.0667 8.88199C14.1994 8.74756 14.3143 8.61194 14.3222 8.58058C14.3301 8.54925 14.3321 8.47951 14.3268 8.42561C14.3214 8.37174 14.2695 8.17737 14.2113 7.99368C14.1531 7.81001 14.0793 7.55726 14.0473 7.43203C14.0153 7.30682 13.9733 7.11276 13.9541 7.00078C13.9349 6.88879 13.9192 6.71042 13.9192 6.60437C13.9192 6.49832 13.9351 6.33203 13.9546 6.23485C13.9765 6.12576 14.0336 5.9696 14.1038 5.82669C14.181 5.66982 14.2758 5.52571 14.3982 5.37966C14.4976 5.2611 14.6684 5.08674 14.7779 4.99217C14.8873 4.89761 15.0664 4.75624 15.1759 4.67802C15.2853 4.5998 15.4522 4.48983 15.5468 4.43367C15.6414 4.37748 15.8229 4.27955 15.9502 4.21602C16.0776 4.1525 16.284 4.0598 16.4089 4.01C16.5339 3.96023 16.7392 3.88784 16.8651 3.84914C16.9911 3.81045 17.1677 3.76242 17.2576 3.74241C17.3475 3.72237 17.5229 3.69214 17.6473 3.67517C17.7718 3.65823 17.9897 3.64331 18.1315 3.642C18.2734 3.64069 18.3892 3.64739 18.389 3.65683ZM9.10626 5.41499C9.41452 5.45841 10.0071 5.53085 10.4232 5.57594C10.8393 5.62105 11.3499 5.67821 11.558 5.70296C11.766 5.72772 12.0126 5.76926 12.1061 5.79526C12.1995 5.82128 12.3594 5.88251 12.4614 5.93136C12.5634 5.98019 12.7346 6.07883 12.8417 6.15054C12.9489 6.22227 13.0892 6.32366 13.1536 6.37586L13.2705 6.47079L13.2842 6.73442C13.2918 6.87942 13.3193 7.10822 13.3454 7.2429C13.3716 7.37756 13.4399 7.65093 13.4973 7.8504C13.5547 8.04984 13.6127 8.25251 13.6261 8.30075C13.6503 8.38756 13.6493 8.38972 13.5276 8.51298C13.4599 8.58148 13.3982 8.63487 13.3905 8.63161C13.3827 8.62833 13.1939 8.4142 12.971 8.15573C12.748 7.89726 12.5333 7.66258 12.4939 7.6342C12.4453 7.59917 12.3896 7.58262 12.3203 7.58262C12.2643 7.58262 12.1894 7.59974 12.154 7.62067C12.1185 7.6416 12.0679 7.69717 12.0415 7.74414C12.0151 7.79114 11.9935 7.85927 11.9935 7.89558C11.9935 7.93187 12.0116 7.9942 12.0336 8.03404C12.0557 8.07391 12.7959 8.93939 13.6785 9.95735C14.561 10.9753 15.7449 12.3404 16.3093 12.9908C17.0878 13.8879 17.3534 14.2092 17.4097 14.3219C17.4771 14.4568 17.4839 14.4894 17.4834 14.6772C17.4829 14.8623 17.4752 14.8998 17.4099 15.0341C17.3608 15.1351 17.2883 15.2309 17.1882 15.3271C17.101 15.4108 16.9845 15.4951 16.9068 15.5307C16.8125 15.5738 16.7235 15.5943 16.5989 15.6015C16.4702 15.609 16.3908 15.6009 16.3004 15.571C16.2326 15.5486 16.1399 15.5068 16.0943 15.4781C16.0487 15.4494 15.7497 15.2222 15.43 14.9731C15.1103 14.7241 14.8135 14.4964 14.7705 14.4672C14.7259 14.437 14.658 14.4141 14.6129 14.4141C14.5693 14.4141 14.4973 14.4313 14.4529 14.4523C14.4086 14.4734 14.3529 14.5224 14.3292 14.5612C14.3047 14.6014 14.2861 14.6745 14.2861 14.7308C14.286 14.7852 14.2974 14.8522 14.3115 14.8798C14.3255 14.9073 14.592 15.1878 14.9038 15.503C15.3719 15.9762 15.4802 16.098 15.5259 16.2022C15.5722 16.3078 15.5812 16.3653 15.5812 16.5575C15.5812 16.7621 15.574 16.8022 15.5147 16.9307C15.4692 17.0292 15.406 17.1138 15.3149 17.1982C15.2335 17.2735 15.1344 17.3391 15.0605 17.3666C14.9938 17.3914 14.8877 17.4185 14.8247 17.4268C14.7616 17.4351 14.6541 17.4311 14.5856 17.4179C14.5172 17.4047 14.4089 17.3693 14.3449 17.3394C14.281 17.3094 13.9376 17.0573 13.5818 16.7792C13.188 16.4714 12.9032 16.2647 12.8539 16.2511C12.8028 16.237 12.7443 16.2367 12.6954 16.2502C12.6527 16.262 12.5911 16.2926 12.5584 16.3184C12.5257 16.3441 12.4871 16.4048 12.4725 16.4533C12.4574 16.5036 12.453 16.5785 12.4622 16.6274C12.4755 16.6984 12.5412 16.7776 12.8397 17.0827C13.1489 17.3987 13.209 17.4719 13.2556 17.5893C13.2985 17.6977 13.3101 17.7701 13.3103 17.9329C13.3106 18.1088 13.3016 18.1587 13.2493 18.2711C13.2156 18.3437 13.1356 18.4584 13.0716 18.5262C12.9969 18.6052 12.9039 18.673 12.8124 18.7153C12.6854 18.7739 12.6447 18.7811 12.4406 18.7811C12.2403 18.7811 12.1954 18.7735 12.0852 18.7209C12.0159 18.6877 11.6651 18.4312 11.3058 18.1509C10.9465 17.8705 10.6286 17.632 10.5994 17.6208C10.5702 17.6097 10.52 17.6005 10.4879 17.6005C10.4557 17.6005 10.391 17.6221 10.344 17.6485C10.2971 17.675 10.2415 17.7255 10.2206 17.761C10.1996 17.7964 10.1825 17.8683 10.1825 17.9208C10.1825 17.9733 10.194 18.0387 10.2081 18.0663C10.2221 18.0938 10.4382 18.3227 10.6881 18.5748C11.0595 18.9495 11.1545 19.0585 11.207 19.1709C11.2637 19.2919 11.2713 19.3345 11.2706 19.5262C11.2699 19.7164 11.2617 19.7606 11.2062 19.875C11.1713 19.9471 11.099 20.051 11.0456 20.106C10.9922 20.1609 10.8871 20.2361 10.8119 20.2729C10.7022 20.3268 10.6383 20.3416 10.4869 20.3481C10.3554 20.3537 10.2617 20.3446 10.1774 20.318C10.1109 20.2971 10.01 20.2458 9.95326 20.2042C9.89653 20.1625 8.95778 19.3575 7.86715 18.4152C6.77653 17.473 5.75525 16.5907 5.59765 16.4546C5.44004 16.3184 5.14088 16.0607 4.93284 15.8818C4.7248 15.7028 4.47321 15.4774 4.37372 15.3807C4.27425 15.284 4.13239 15.1295 4.05851 15.0372C3.98462 14.945 3.87468 14.7851 3.81418 14.6819C3.75371 14.5787 3.67776 14.4376 3.64541 14.3682C3.61309 14.2989 3.32472 13.6541 3.00463 12.9354L2.42263 11.6288V11.3754C2.42263 11.1292 2.42504 11.1172 2.50754 10.9513C2.58911 10.7873 2.69625 10.6769 5.23553 8.14078C7.13518 6.2435 7.90764 5.4864 7.98177 5.44912C8.03851 5.4206 8.1262 5.38418 8.17663 5.36818C8.22706 5.3522 8.33077 5.33842 8.40707 5.33757C8.48338 5.33672 8.79802 5.37157 9.10626 5.41499ZM15.1437 7.37559C15.1175 7.3862 15.0698 7.42607 15.0377 7.46419C15.0056 7.50232 14.9724 7.57102 14.9638 7.61687C14.9522 7.67833 14.9604 7.72546 14.9948 7.79616C15.0264 7.86103 15.4182 8.26824 16.2054 9.05411C16.8455 9.69321 17.3983 10.2271 17.4338 10.2404C17.4693 10.2538 17.5293 10.2648 17.5671 10.2648C17.605 10.2648 17.6584 10.2532 17.686 10.239C17.7135 10.2248 17.759 10.1923 17.787 10.1668C17.815 10.1413 17.8495 10.0852 17.8638 10.0421C17.878 9.999 17.8827 9.92576 17.8743 9.87929C17.861 9.80563 17.7073 9.64274 16.6743 8.60692C16.0226 7.95356 15.4616 7.40425 15.4276 7.3862C15.3935 7.36814 15.3265 7.35404 15.2786 7.35482C15.2307 7.35562 15.17 7.36498 15.1437 7.37559ZM13.1338 12.1549C13.0864 12.1716 13.0316 12.1985 13.0119 12.2148C12.9923 12.231 12.9615 12.273 12.9434 12.308C12.9253 12.3429 12.9105 12.4086 12.9105 12.454C12.9105 12.4994 12.9253 12.5644 12.9433 12.5985C12.9613 12.6325 13.0928 12.7753 13.2356 12.9158C13.3783 13.0562 13.5176 13.1826 13.5451 13.1966C13.5727 13.2106 13.6381 13.222 13.6906 13.222C13.7431 13.222 13.815 13.2049 13.8504 13.1839C13.8859 13.163 13.9365 13.1074 13.9629 13.0605C13.9893 13.0135 14.0109 12.9488 14.0109 12.9166C14.0109 12.8845 14 12.8296 13.9867 12.7946C13.9734 12.7596 13.847 12.6137 13.7059 12.4702C13.5647 12.3268 13.4234 12.1963 13.3919 12.1802C13.3604 12.1641 13.3088 12.1451 13.2773 12.1379C13.2458 12.1306 13.1812 12.1383 13.1338 12.1549ZM11.9572 13.3004C11.9183 13.3174 11.8644 13.3593 11.8374 13.3936C11.8105 13.4278 11.7818 13.4909 11.7738 13.5337C11.7658 13.5764 11.7663 13.6397 11.7751 13.6744C11.7843 13.7113 11.9064 13.8545 12.0699 14.0203C12.2233 14.1759 12.3789 14.319 12.4157 14.3383C12.4596 14.3613 12.5176 14.3694 12.5847 14.3618C12.6615 14.3532 12.7064 14.3308 12.765 14.2722C12.8139 14.2234 12.8482 14.1628 12.8567 14.1105C12.8641 14.0645 12.863 13.998 12.8542 13.9628C12.8446 13.9246 12.7252 13.7839 12.5591 13.6149C12.4056 13.4589 12.2469 13.317 12.2063 13.2996C12.1657 13.2821 12.109 13.2683 12.0802 13.2687C12.0515 13.2692 11.9961 13.2835 11.9572 13.3004ZM10.7767 14.4662C10.7293 14.4982 10.6823 14.5596 10.6551 14.6252C10.6128 14.7273 10.6125 14.7368 10.6495 14.8336C10.678 14.9083 10.7625 15.0078 10.9702 15.2115C11.193 15.4299 11.2696 15.4912 11.3348 15.5035C11.3811 15.5122 11.4529 15.5073 11.498 15.4924C11.5423 15.4778 11.6101 15.43 11.6485 15.3861C11.7044 15.3225 11.7184 15.2857 11.7184 15.203C11.7184 15.1461 11.7037 15.0717 11.6857 15.0376C11.6676 15.0036 11.5361 14.8608 11.3934 14.7203C11.2506 14.5798 11.1113 14.4535 11.0838 14.4395C11.0562 14.4255 10.9933 14.4141 10.9439 14.4141C10.8884 14.4141 10.8245 14.434 10.7767 14.4662ZM9.63918 15.6052C9.59881 15.6298 9.5498 15.6808 9.53029 15.7186C9.51076 15.7563 9.49478 15.8244 9.49478 15.8698C9.49478 15.9151 9.50954 15.9801 9.52756 16.0142C9.5456 16.0482 9.68248 16.1973 9.83174 16.3455C10.0167 16.5292 10.1281 16.6221 10.1817 16.6375C10.2327 16.6521 10.2892 16.6522 10.3428 16.6378C10.3882 16.6255 10.4526 16.587 10.4859 16.5521C10.5192 16.5173 10.5576 16.4591 10.5713 16.4229C10.585 16.3866 10.5895 16.3215 10.5814 16.2781C10.5732 16.2347 10.5241 16.1498 10.472 16.0891C10.4199 16.0286 10.277 15.8848 10.1544 15.7696C9.93761 15.5661 9.92841 15.5603 9.822 15.5604C9.75394 15.5604 9.68482 15.5774 9.63918 15.6052ZM8.56962 16.7071C8.53359 16.7179 8.48352 16.7454 8.45837 16.7682C8.43322 16.7909 8.39822 16.8374 8.38061 16.8715C8.36298 16.9056 8.34856 16.9643 8.34856 17.0019C8.34856 17.0395 8.35936 17.0987 8.37256 17.1334C8.38575 17.1681 8.49665 17.299 8.619 17.4244C8.74132 17.5497 8.88167 17.6819 8.93084 17.7181C9.00012 17.7691 9.04509 17.7839 9.13063 17.7839C9.22099 17.7839 9.25545 17.7713 9.32064 17.714C9.36445 17.6756 9.41225 17.6078 9.42688 17.5635C9.44203 17.5176 9.44668 17.4466 9.43767 17.3985C9.42493 17.3303 9.36617 17.2576 9.13253 17.0214C8.92291 16.8095 8.82083 16.7227 8.76207 16.7064C8.71746 16.694 8.67065 16.6846 8.65804 16.6857C8.64543 16.6867 8.60564 16.6963 8.56962 16.7071ZM6.82742 18.3641C7.48122 18.9291 8.02515 19.4042 8.03615 19.4199C8.05 19.4397 7.99014 19.5127 7.84129 19.6575C7.72312 19.7724 7.60066 19.8865 7.56914 19.9109C7.53762 19.9354 7.45509 19.987 7.38574 20.0255C7.3164 20.0641 7.1926 20.1181 7.11065 20.1455C7.00671 20.1802 6.88024 20.1991 6.69244 20.2077C6.48193 20.2175 6.38698 20.2115 6.25688 20.1802C6.16539 20.1582 6.01831 20.1068 5.93005 20.0659C5.84179 20.025 5.70633 19.9437 5.62903 19.8851C5.55173 19.8265 5.43562 19.714 5.37104 19.6352C5.30644 19.5563 5.21795 19.4196 5.17437 19.3313C5.13082 19.2431 5.07692 19.1038 5.05464 19.0218C5.02644 18.9182 5.01443 18.7927 5.01516 18.6092C5.01585 18.4315 5.0294 18.297 5.05672 18.1966C5.07903 18.1146 5.13854 17.9681 5.18897 17.871C5.23941 17.7739 5.35298 17.6109 5.44137 17.5088C5.52977 17.4066 5.61032 17.3262 5.62039 17.33C5.63043 17.3338 6.1736 17.7992 6.82742 18.3641Z" fill="#3D5165" stroke="#3D5165" stroke-width="0.6"/>
</svg>
