<svg width="24" height="24" viewBox="0 0 24 24" fill="none" xmlns="http://www.w3.org/2000/svg">
<path fill-rule="evenodd" clip-rule="evenodd" d="M8.53846 6.46154V5.76923C8.53846 4.62218 9.46833 3.69231 10.6154 3.69231H13.3846C14.5317 3.69231 15.4615 4.62218 15.4615 5.76923V6.46154H18.9231C20.0701 6.46154 21 7.39141 21 8.53846V11.1058C21 11.7086 20.7395 12.2681 20.3067 12.6548C20.3074 12.6672 20.3077 12.6797 20.3077 12.6923V18.2308C20.3077 19.3778 19.3778 20.3077 18.2308 20.3077H5.76923C4.62218 20.3077 3.69231 19.3778 3.69231 18.2308V12.6923C3.69231 12.6797 3.69264 12.6672 3.6933 12.6548C3.26049 12.2681 3 11.7086 3 11.1058V8.53846C3 7.39141 3.92987 6.46154 5.07692 6.46154H8.53846ZM9.92308 5.76923C9.92308 5.38688 10.233 5.07692 10.6154 5.07692H13.3846C13.767 5.07692 14.0769 5.38688 14.0769 5.76923V6.46154H9.92308V5.76923ZM14.0175 15.2644L18.9231 13.3372V18.2308C18.9231 18.6131 18.6131 18.9231 18.2308 18.9231H5.76923C5.38688 18.9231 5.07692 18.6131 5.07692 18.2308V13.3372L9.98247 15.2644C10.2046 16.1724 11.0236 16.8462 12 16.8462C12.9764 16.8462 13.7954 16.1724 14.0175 15.2644ZM12.6923 14.7534C12.6921 14.7625 12.6921 14.7716 12.6922 14.7807C12.6861 15.1578 12.3785 15.4615 12 15.4615C11.6215 15.4615 11.3139 15.1578 11.3078 14.7807C11.3079 14.7716 11.3079 14.7625 11.3077 14.7534V14.0769H12.6923V14.7534ZM14.0769 13.7534L19.1762 11.7501C19.4412 11.6461 19.6154 11.3904 19.6154 11.1058V8.53846C19.6154 8.15611 19.3054 7.84615 18.9231 7.84615H5.07692C4.69457 7.84615 4.38462 8.15611 4.38462 8.53846V11.1058C4.38462 11.3904 4.55884 11.6461 4.82378 11.7501L9.92308 13.7534V13.3846C9.92308 13.0023 10.233 12.6923 10.6154 12.6923H13.3846C13.767 12.6923 14.0769 13.0023 14.0769 13.3846V13.7534Z" fill="#3D5165"/>
</svg>
