<svg width="24" height="24" viewBox="0 0 24 24" fill="none" xmlns="http://www.w3.org/2000/svg">
<path fill-rule="evenodd" clip-rule="evenodd" d="M14.056 3.03895C13.8277 3.12247 13.7429 3.22061 13.3444 3.86283C12.9859 4.44051 12.8143 4.67051 12.6976 4.72984C12.5716 4.79391 12.1494 4.83222 11.4953 4.83898C10.9047 4.84504 10.7647 4.81884 10.6205 4.67514C10.5661 4.62089 10.3631 4.35476 10.1694 4.08374C9.97573 3.81271 9.75205 3.51915 9.67235 3.43138C9.39329 3.12409 9.21956 3.13864 8.30472 3.54599C7.79704 3.77206 7.37386 3.98596 7.2363 4.08605C7.17431 4.13117 7.09768 4.21865 7.06602 4.28045C7.01657 4.37706 7.01046 4.4229 7.02252 4.60674C7.0308 4.73298 7.09191 5.03862 7.17164 5.35272C7.24594 5.64538 7.31942 5.9652 7.33493 6.06343C7.36673 6.26499 7.34134 6.4306 7.2641 6.52558C7.2374 6.55841 7.01329 6.80685 6.76608 7.07769C6.14703 7.75594 6.07153 7.80351 5.65366 7.77871C5.51416 7.77041 5.17174 7.72042 4.89274 7.66761C4.61373 7.61477 4.31337 7.57023 4.22526 7.56864C4.0392 7.56526 3.90087 7.62475 3.76369 7.76711C3.65377 7.8812 3.47529 8.31191 3.20421 9.11735C2.98226 9.77679 2.95911 9.92559 3.0496 10.1116C3.11239 10.2407 3.30337 10.3909 3.70095 10.6238C4.17512 10.9016 4.53708 11.1496 4.65619 11.2784L4.76378 11.3947L4.78154 11.9231C4.81902 13.0383 4.80338 13.1749 4.61622 13.3671C4.51783 13.4681 4.30104 13.6274 3.71798 14.0273C3.57114 14.128 3.39567 14.2653 3.32807 14.3325C3.23433 14.4257 3.19722 14.4877 3.17164 14.5939C3.14547 14.7026 3.14505 14.7604 3.16966 14.8578C3.24068 15.1389 3.81866 16.4668 3.97985 16.7192C4.06574 16.8537 4.21789 16.9382 4.40973 16.958C4.5193 16.9692 4.67341 16.9414 5.16667 16.8211C6.04953 16.6058 6.27028 16.5908 6.4698 16.7322C6.62164 16.8399 7.38109 17.5519 7.52783 17.7241C7.60261 17.8119 7.68111 17.9247 7.70225 17.9747C7.75125 18.0907 7.73419 18.2761 7.61268 18.948C7.49048 19.6237 7.47702 19.7955 7.53309 19.9637C7.58254 20.112 7.6987 20.245 7.84157 20.3169C8.00692 20.4001 8.82687 20.7049 9.30895 20.8624C9.6751 20.982 9.79405 21.0105 9.86963 20.9969C10.1027 20.9548 10.2841 20.7458 10.7134 20.0255C11.0207 19.5099 11.1595 19.3567 11.3769 19.2938C11.5488 19.244 12.1231 19.2084 12.7022 19.2117C13.0417 19.2136 13.1313 19.2223 13.2008 19.2602C13.2951 19.3116 13.5178 19.5755 13.757 19.919C14.0221 20.3 14.2953 20.6519 14.3832 20.7255C14.4292 20.7641 14.5153 20.8101 14.5746 20.8278C14.7758 20.8879 15.0769 20.7907 15.9862 20.3722C16.5466 20.1143 16.7131 20.0181 16.8257 19.8869C16.9408 19.753 16.983 19.6136 16.9593 19.4454C16.9497 19.3766 16.8709 19.0424 16.7844 18.7025C16.6585 18.2084 16.627 18.043 16.627 17.8764C16.627 17.6889 16.6353 17.6548 16.7103 17.5364C16.8151 17.3711 17.8098 16.3774 17.9338 16.3142C18.0084 16.2762 18.0639 16.2705 18.2275 16.2842C18.3384 16.2934 18.7055 16.3488 19.0432 16.4072C19.381 16.4656 19.7114 16.5132 19.7775 16.5129C19.8435 16.5126 19.9466 16.4902 20.0066 16.4631C20.21 16.3711 20.2844 16.2625 20.4766 15.7775C20.6917 15.2349 20.9746 14.3975 20.9964 14.2388C21.0191 14.0738 20.9341 13.9118 20.7472 13.7641C20.6662 13.7001 20.3836 13.5173 20.1193 13.3579C19.5256 13.0001 19.3489 12.8628 19.3029 12.7239C19.255 12.5793 19.2162 12.0513 19.2104 11.4654C19.2057 10.9981 19.2093 10.958 19.2659 10.8334C19.2991 10.7602 19.3647 10.6602 19.4117 10.6111C19.4587 10.562 19.6961 10.3806 19.9392 10.208C20.5545 9.77133 20.7161 9.63833 20.7854 9.51159C20.8184 9.45111 20.8454 9.36092 20.8454 9.3112C20.8454 9.10596 20.7188 8.75693 20.3801 8.02811C20.0586 7.33632 19.9802 7.2149 19.7679 7.08057C19.6404 6.99987 19.4248 7.02307 18.7629 7.18882C18.0869 7.35806 17.7392 7.39951 17.6 7.32744C17.5042 7.27782 17.0092 6.83601 16.6247 6.45684C16.2754 6.11243 16.2388 6.03544 16.2605 5.69178C16.2686 5.56383 16.3139 5.26759 16.3611 5.03346C16.424 4.72205 16.4478 4.52868 16.4502 4.31313C16.4533 4.0288 16.4507 4.01454 16.3758 3.90663C16.2839 3.77408 16.1586 3.71025 15.4122 3.41568C14.8295 3.18571 14.284 2.99732 14.2089 3.00003C14.1805 3.00107 14.1117 3.01857 14.056 3.03895ZM12.5153 6.53798C13.1133 6.59207 13.4837 6.67518 13.9999 6.87118C14.1337 6.92195 14.3475 7.01661 14.4752 7.08152C14.7471 7.21982 15.1533 7.48148 15.3988 7.6766C15.6827 7.90219 16.2178 8.44695 16.4285 8.72484C16.9942 9.47085 17.3368 10.3009 17.4666 11.24C17.5144 11.5864 17.5219 12.362 17.4803 12.6739C17.3967 13.3018 17.2307 13.8754 16.9852 14.3852C16.8361 14.6949 16.4738 15.2589 16.2864 15.4732L16.1841 15.5902L15.8782 15.5044C15.3564 15.358 14.3115 15.0031 14.069 14.8898C13.9419 14.8305 13.809 14.7555 13.7737 14.7232C13.6803 14.6378 13.6103 14.4637 13.5924 14.2718C13.5772 14.1098 13.5818 14.0925 13.7243 13.7855C13.8055 13.6105 13.9092 13.3536 13.9548 13.2145C14.0004 13.0755 14.0486 12.9448 14.0619 12.924C14.0752 12.9032 14.1256 12.8732 14.1739 12.8574C14.2797 12.8229 14.3805 12.6842 14.475 12.443C14.5878 12.155 14.6292 11.9645 14.644 11.6661C14.6565 11.4114 14.652 11.37 14.6012 11.2728C14.5384 11.1526 14.5306 11.0322 14.572 10.817C14.6093 10.623 14.6092 9.78663 14.5718 9.55711C14.536 9.3374 14.4256 9.09495 14.2894 8.9366C14.2354 8.87375 14.1235 8.78817 14.0407 8.74637C13.9501 8.70058 13.8001 8.58134 13.6634 8.44629C13.3249 8.11205 12.9331 7.90618 12.5072 7.83887C12.2317 7.79531 11.7608 7.82067 11.5053 7.89282C11.1009 8.00701 10.72 8.2496 10.3554 8.62526C9.98064 9.01122 9.74246 9.41006 9.64445 9.81558C9.58913 10.0444 9.5651 10.5589 9.60122 10.7403C9.61727 10.8207 9.63791 10.9127 9.64709 10.9446C9.66082 10.9923 9.63895 11.0204 9.52393 11.1028L9.38408 11.2029L9.40007 11.4837C9.40982 11.6548 9.4425 11.8611 9.48364 12.0116C9.55338 12.2667 9.67905 12.5493 9.76412 12.6425C9.84023 12.7259 9.91868 12.898 10.0173 13.1981C10.0673 13.3502 10.1766 13.622 10.2602 13.802C10.4385 14.1857 10.4512 14.2954 10.3447 14.5273C10.2967 14.6319 10.2467 14.6935 10.1715 14.7408C9.9194 14.8993 8.20847 15.5138 7.92626 15.5471C7.81143 15.5606 7.79493 15.5548 7.71333 15.4723C7.55749 15.3147 7.31071 14.9195 7.08457 14.4654C6.83656 13.9674 6.66035 13.5019 6.58583 13.148C6.54231 12.9413 6.53543 12.7886 6.53529 12.0306C6.53521 11.5477 6.54763 11.0748 6.56287 10.9797C6.62252 10.6081 6.85715 9.94341 7.08425 9.50278C7.24106 9.19855 7.4983 8.80639 7.69611 8.56998C8.07772 8.11399 8.57024 7.67277 9.04444 7.36216C9.34278 7.16674 9.84242 6.9204 10.1753 6.80462C10.4759 6.70006 10.8873 6.59601 11.1795 6.55059C11.4603 6.50696 12.1049 6.50087 12.5153 6.53798Z" stroke="#3D5165" stroke-width="1.2"/>
</svg>
