<svg width="24" height="24" viewBox="0 0 24 24" fill="none" xmlns="http://www.w3.org/2000/svg">
<path fill-rule="evenodd" clip-rule="evenodd" d="M16.8657 3.00028C17.0394 3.00509 17.1971 3.07391 17.3161 3.18399C17.3322 3.19882 17.3474 3.21435 17.3619 3.2305C17.4746 3.3564 17.5384 3.52049 17.5384 3.69231V12.6923C17.5384 12.7314 17.5352 12.7698 17.529 12.8072C18.3406 13.0896 18.9231 13.8614 18.9231 14.7692V18.9231C18.9231 20.0701 17.9932 21 16.8461 21C15.6991 21 14.7692 20.0701 14.7692 18.9231V14.7692C14.7692 13.8614 15.3517 13.0896 16.1633 12.8072C16.1571 12.7698 16.1538 12.7314 16.1538 12.6923V10.4636L15.4822 10.2957C14.2494 9.98752 13.3846 8.87987 13.3846 7.60916V6.00623C13.3846 4.73552 14.2494 3.62788 15.4822 3.31969L16.6632 3.02444C16.7146 3.01038 16.7685 3.0021 16.8239 3.00036C16.8379 2.99991 16.8518 2.99988 16.8657 3.00028ZM16.1538 4.579L15.818 4.66296C15.2016 4.81706 14.7692 5.37088 14.7692 6.00623V7.60916C14.7692 8.24452 15.2016 8.79834 15.818 8.95243L16.1538 9.03639V4.579ZM16.8461 14.0769C16.4638 14.0769 16.1538 14.3869 16.1538 14.7692V18.9231C16.1538 19.3054 16.4638 19.6154 16.8461 19.6154C17.2285 19.6154 17.5384 19.3054 17.5384 18.9231V14.7692C17.5384 14.3869 17.2285 14.0769 16.8461 14.0769Z" fill="#3D5165"/>
<path fill-rule="evenodd" clip-rule="evenodd" d="M6.46152 3.69231C6.46152 3.30996 6.15156 3.00001 5.76921 3.00001C5.38686 3.00001 5.0769 3.30996 5.0769 3.69231V6.46154C5.0769 7.6086 6.00677 8.53847 7.15383 8.53847V12.6923C7.15383 12.7314 7.15707 12.7698 7.16331 12.8072C6.35169 13.0896 5.76921 13.8614 5.76921 14.7692V18.9231C5.76921 20.0701 6.69908 21 7.84613 21C8.99319 21 9.92306 20.0701 9.92306 18.9231V14.7692C9.92306 13.8614 9.34058 13.0896 8.52896 12.8072C8.5352 12.7698 8.53844 12.7314 8.53844 12.6923V8.53847C9.68549 8.53847 10.6154 7.6086 10.6154 6.46154V3.69231C10.6154 3.30996 10.3054 3.00001 9.92306 3.00001C9.54071 3.00001 9.23075 3.30996 9.23075 3.69231V6.46154C9.23075 6.84389 8.92079 7.15385 8.53844 7.15385V3.69231C8.53844 3.30996 8.22848 3.00001 7.84613 3.00001C7.46378 3.00001 7.15383 3.30996 7.15383 3.69231V7.15385C6.77148 7.15385 6.46152 6.84389 6.46152 6.46154V3.69231ZM7.15383 14.7692C7.15383 14.3869 7.46378 14.0769 7.84613 14.0769C8.22848 14.0769 8.53844 14.3869 8.53844 14.7692V18.9231C8.53844 19.3054 8.22848 19.6154 7.84613 19.6154C7.46378 19.6154 7.15383 19.3054 7.15383 18.9231V14.7692Z" fill="#3D5165"/>
</svg>
