<svg width="73" height="16" viewBox="0 0 73 16" fill="none" xmlns="http://www.w3.org/2000/svg">
<mask id="mask0_676_4035" style="mask-type:alpha" maskUnits="userSpaceOnUse" x="0" y="0" width="73" height="16">
<path d="M72.5 0H0.5V16H72.5V0Z" fill="white"/>
</mask>
<g mask="url(#mask0_676_4035)">
<path d="M63.7558 8.04609C63.7558 6.08359 62.2708 4.49609 60.1733 4.49609C58.1173 4.49609 56.6533 6.02259 56.6533 8.12009C56.6533 10.2281 58.1588 11.7651 60.3188 11.7651C61.6893 11.7651 62.8418 11.1521 63.5583 9.9061L62.1048 9.23109C61.7623 9.85409 61.0143 10.2591 60.3188 10.2591C59.4363 10.2591 58.4188 9.5946 58.3563 8.6706H63.7038C63.7379 8.4642 63.7553 8.25529 63.7558 8.04609ZM58.3873 7.44609C58.5123 6.51159 59.1558 5.89909 60.1838 5.89909C61.2013 5.89909 61.8243 6.49909 61.9073 7.44609H58.3873Z" fill="black"/>
<path d="M43.7397 4.4946C41.6317 4.4946 40.1367 6.0111 40.1367 8.1501C40.1367 10.2681 41.6317 11.7636 43.7607 11.7636C45.8997 11.7636 47.3947 10.2681 47.3947 8.1811C47.3947 6.0316 45.8582 4.4946 43.7397 4.4946ZM43.7607 10.1746C42.7012 10.1746 42.0472 9.3856 42.0472 8.1601C42.0472 6.9141 42.7117 6.0626 43.7607 6.0626C44.8197 6.0626 45.4842 6.9036 45.4842 8.1601C45.4842 9.3961 44.8302 10.1746 43.7607 10.1746Z" fill="black"/>
<path d="M36.2334 4.4967C35.3699 4.4967 34.7194 4.7917 34.0689 5.5232H33.8554C33.4184 4.8627 32.7054 4.4967 31.9054 4.4967C31.5059 4.4928 31.1113 4.5838 30.7539 4.7623C30.3966 4.9408 30.0867 5.2015 29.8499 5.5232H29.6364L29.6259 5.5132V4.6392H27.8389V11.6112H29.7699V8.0232C29.7699 6.8647 30.2579 6.1837 31.1014 6.1837C31.8839 6.1837 32.3919 6.7632 32.3919 7.6472V11.6112H34.3329V8.0232C34.3329 6.8732 34.8209 6.1837 35.6749 6.1837C36.4469 6.1837 36.9449 6.7632 36.9449 7.6577V11.6112H38.8864V7.4237C38.8864 5.6047 37.9104 4.4967 36.2334 4.4967Z" fill="black"/>
<path d="M68.05 9.1932H67.912C67.912 9.0692 67.07 6.8612 66.518 5.4932L66.173 4.6377H64.2275L66.9875 11.6342L65.9 14.3002H67.832L71.8065 4.6402H69.86L69.5425 5.3717L68.466 8.0352C68.1625 8.7792 68.038 9.1242 68.05 9.1932Z" fill="black"/>
<path d="M52.7503 4.49661C51.8863 4.49661 51.1443 4.87261 50.6463 5.54361H50.4428L50.4228 5.53361V4.63911H48.6348V11.6111H50.5658V8.04361C50.5658 6.90561 51.1158 6.19361 52.0193 6.19361C52.8628 6.19361 53.4828 6.82361 53.4828 7.81961V11.6106H55.4138V7.40361C55.4138 5.69611 54.2958 4.49661 52.7503 4.49661Z" fill="black"/>
<path d="M14.7247 0.5C10.5527 0.5 7.2002 3.875 7.2002 8C7.2002 12.159 10.5857 15.5 14.7237 15.5C18.8617 15.5 22.2502 12.125 22.2502 8C22.2502 3.875 18.8627 0.5 14.7247 0.5ZM14.7247 10.7955C13.1857 10.7955 11.9207 9.534 11.9207 8C11.9207 6.466 13.1857 5.2045 14.7247 5.2045C16.2637 5.2045 17.5292 6.466 17.5292 8C17.4947 9.534 16.2637 10.7955 14.7247 10.7955Z" fill="#8B3FFD"/>
<path d="M7.20026 2.6792V13.5882H4.53426L1.11426 2.6792H7.20026Z" fill="#8B3FFD"/>
</g>
</svg>
