<svg width="16" height="17" viewBox="0 0 16 17" fill="none" xmlns="http://www.w3.org/2000/svg">
<path fill-rule="evenodd" clip-rule="evenodd" d="M2.66683 1.83334H13.3335C14.0699 1.83334 14.6668 2.4303 14.6668 3.16668V13.8333C14.6668 14.5697 14.0699 15.1667 13.3335 15.1667H2.66683C1.93045 15.1667 1.3335 14.5697 1.3335 13.8333V3.16668C1.3335 2.4303 1.93045 1.83334 2.66683 1.83334ZM2.66683 3.16668V10.8905L5.3335 8.22387L7.66683 10.5572L12.0002 6.22387L13.3335 7.5572V3.16668H2.66683ZM2.66683 13.8333V12.7762L5.3335 10.1095L9.05735 13.8333H2.66683ZM13.3335 13.8333H10.943L8.60964 11.5L12.0002 8.10949L13.3335 9.44282V13.8333ZM9.3335 5.83334C9.3335 4.72877 8.43807 3.83334 7.3335 3.83334C6.22893 3.83334 5.3335 4.72877 5.3335 5.83334C5.3335 6.93791 6.22893 7.83334 7.3335 7.83334C8.43807 7.83334 9.3335 6.93791 9.3335 5.83334ZM6.66683 5.83334C6.66683 5.46515 6.96531 5.16668 7.3335 5.16668C7.70169 5.16668 8.00016 5.46515 8.00016 5.83334C8.00016 6.20153 7.70169 6.50001 7.3335 6.50001C6.96531 6.50001 6.66683 6.20153 6.66683 5.83334Z" fill="black"/>
</svg>
