<svg width="30" height="30" viewBox="0 0 30 30" fill="none" xmlns="http://www.w3.org/2000/svg">
<g opacity="0.9">
<path d="M6.58537 11.9927C10.2062 11.9927 13.1415 14.928 13.1415 18.5488C13.1415 22.1696 10.2062 25.1049 6.58537 25.1049C2.96453 25.1049 0.0292683 22.1696 0.0292683 18.5488L0 17.6122C0 10.3705 5.87052 4.5 13.1122 4.5V8.24634C10.6105 8.24634 8.25852 9.22057 6.48954 10.9895C6.14903 11.3301 5.83826 11.6924 5.55793 12.0731C5.8927 12.0204 6.23579 11.9927 6.58537 11.9927ZM23.4439 11.9927C27.0647 11.9927 30 14.928 30 18.5488C30 22.1696 27.0647 25.1049 23.4439 25.1049C19.8231 25.1049 16.8878 22.1696 16.8878 18.5488L16.8585 17.6122C16.8585 10.3705 22.729 4.5 29.9707 4.5V8.24634C27.4691 8.24634 25.117 9.22057 23.3481 10.9895C23.0075 11.3301 22.6967 11.6924 22.4164 12.0731C22.7512 12.0204 23.0943 11.9927 23.4439 11.9927Z" fill="#C64034"/>
</g>
</svg>
