<svg width="26" height="24" viewBox="0 0 26 24" fill="none" xmlns="http://www.w3.org/2000/svg">
<path d="M17.3543 6.97922L17.471 7.17293L17.6935 7.21323L24.2144 8.39422C24.2144 8.39422 24.2144 8.39423 24.2144 8.39423C24.6217 8.46801 24.9336 8.73933 25.0498 9.07675L25.0499 9.07688C25.1648 9.41032 25.0808 9.78142 24.8123 10.0488L24.8123 10.0488L20.0787 14.7639L19.8958 14.9461L19.9384 15.2007L21.1347 22.35C21.1933 22.7005 21.0426 23.0663 20.7148 23.2944C20.3834 23.5248 19.9352 23.5661 19.5574 23.3952C19.5574 23.3952 19.5574 23.3952 19.5574 23.3952L13.0063 20.429L12.8 20.3356L12.5938 20.429L6.04262 23.3952C5.665 23.5662 5.21669 23.5248 4.88517 23.2943C4.55745 23.0663 4.40681 22.7006 4.46545 22.35L5.66169 15.2007L5.70429 14.9461L5.52141 14.7639L0.787776 10.0488L0.78777 10.0488C0.51937 9.78145 0.43532 9.41031 0.550221 9.07681C0.66651 8.7393 0.978354 8.468 1.38566 8.39423C1.38566 8.39423 1.38567 8.39422 1.38567 8.39422L7.90663 7.21323L8.12914 7.17293L8.24583 6.97922L11.8351 1.02041L11.4068 0.762421L11.8351 1.02041C12.0231 0.708317 12.3878 0.5 12.8 0.5C13.2123 0.5 13.5769 0.708309 13.765 1.02041C13.765 1.02041 13.765 1.02042 13.765 1.02042L17.3543 6.97922Z" stroke="#FFB800" fill="#FFB800"/>
</svg>
