<svg width="13" height="13" viewBox="0 0 13 13" fill="none" xmlns="http://www.w3.org/2000/svg">
<path d="M6.60022 0.5C6.88876 0.5 7.15494 0.645666 7.29682 0.881211L9.09148 3.86062L12.352 4.45111C12.6383 4.50298 12.8719 4.6968 12.9615 4.95697C13.0512 5.21715 12.9827 5.50244 12.7828 5.70152L10.416 8.05909L11.0141 11.6338C11.0602 11.9094 10.9393 12.1862 10.7004 12.3524C10.4614 12.5186 10.1438 12.5466 9.8758 12.4254L6.60022 10.9422L3.3246 12.4254C3.05666 12.5466 2.73904 12.5186 2.50006 12.3524C2.26108 12.1862 2.14024 11.9094 2.18635 11.6338L2.78447 8.05909L0.417653 5.70152C0.217778 5.50244 0.149301 5.21715 0.238941 4.95697C0.328581 4.6968 0.562134 4.50298 0.848473 4.45111L4.10896 3.86062L5.90361 0.881211C6.0455 0.645666 6.31168 0.5 6.60022 0.5Z" fill="#FFB800"/>
</svg>
