<svg width="16" height="17" viewBox="0 0 16 17" fill="none" xmlns="http://www.w3.org/2000/svg">
<g id="24 / basic / share">
<path id="icon" fill-rule="evenodd" clip-rule="evenodd" d="M9.3335 4.50001C9.3335 4.69163 9.35371 4.87852 9.39211 5.05868L6.01146 6.74901C5.52258 6.18793 4.80278 5.83334 4.00016 5.83334C2.5274 5.83334 1.3335 7.02725 1.3335 8.50001C1.3335 9.97277 2.5274 11.1667 4.00016 11.1667C4.80278 11.1667 5.52258 10.8121 6.01146 10.251L9.39211 11.9413C9.35371 12.1215 9.3335 12.3084 9.3335 12.5C9.3335 13.9728 10.5274 15.1667 12.0002 15.1667C13.4729 15.1667 14.6668 13.9728 14.6668 12.5C14.6668 11.0273 13.4729 9.83334 12.0002 9.83334C11.1975 9.83334 10.4777 10.1879 9.98887 10.749L6.60821 9.05868C6.64662 8.87852 6.66683 8.69163 6.66683 8.50001C6.66683 8.30839 6.64662 8.1215 6.60821 7.94134L9.98887 6.25101C10.4777 6.81209 11.1975 7.16668 12.0002 7.16668C13.4729 7.16668 14.6668 5.97277 14.6668 4.50001C14.6668 3.02725 13.4729 1.83334 12.0002 1.83334C10.5274 1.83334 9.3335 3.02725 9.3335 4.50001ZM5.3335 8.50001C5.3335 9.23639 4.73654 9.83334 4.00016 9.83334C3.26378 9.83334 2.66683 9.23639 2.66683 8.50001C2.66683 7.76363 3.26378 7.16668 4.00016 7.16668C4.73654 7.16668 5.3335 7.76363 5.3335 8.50001ZM12.0002 5.83334C12.7365 5.83334 13.3335 5.23639 13.3335 4.50001C13.3335 3.76363 12.7365 3.16668 12.0002 3.16668C11.2638 3.16668 10.6668 3.76363 10.6668 4.50001C10.6668 5.23639 11.2638 5.83334 12.0002 5.83334ZM13.3335 12.5C13.3335 13.2364 12.7365 13.8333 12.0002 13.8333C11.2638 13.8333 10.6668 13.2364 10.6668 12.5C10.6668 11.7636 11.2638 11.1667 12.0002 11.1667C12.7365 11.1667 13.3335 11.7636 13.3335 12.5Z" fill="black"/>
</g>
</svg>
