<svg width="23" height="16" viewBox="0 0 23 16" fill="none" xmlns="http://www.w3.org/2000/svg">
<path fill-rule="evenodd" clip-rule="evenodd" d="M10.915 0.0177476L10.7964 0.0315319L10.6602 0.0591353L10.524 0.0867214L10.3877 0.131082L10.2514 0.175424L10.095 0.249665L9.93854 0.323888L9.84099 0.386622L9.74342 0.449338L9.61444 0.551843L9.48547 0.65433L9.35077 0.800534L9.21607 0.946739L9.10408 1.10318L8.99208 1.25962L8.88049 1.47691L8.76887 1.69419L8.70581 1.86396L8.64275 2.03375L8.58665 2.25507L8.53056 2.4764L8.53169 2.81536L8.53282 3.15432L8.56308 3.31945L8.59336 3.48459L8.66051 3.68643L8.72766 3.8883L8.80046 4.03408L8.87325 4.17989L8.96749 4.32237L9.06172 4.46486L9.19497 4.60652L9.32822 4.74817L9.55517 4.91744L9.7821 5.0867L9.94723 5.19758L10.1124 5.30846L10.253 5.44817L10.3937 5.58787L10.4225 5.67353L10.4513 5.75919L10.4507 6.0994L10.45 6.43961L5.95504 9.09045L1.46008 11.7413L1.17116 11.9133L0.88225 12.0854L0.777955 12.1678L0.67366 12.2502L0.585878 12.3434L0.498096 12.4366L0.42276 12.5389L0.347442 12.6413L0.273045 12.7823L0.19863 12.9233L0.145092 13.0765L0.0915711 13.2296L0.0553459 13.4067L0.0191382 13.5838L0.00956038 13.8011L0 14.0184L0.0287855 14.2133L0.0575709 14.4081L0.101392 14.5423L0.145196 14.6765L0.230909 14.8429L0.316623 15.0092L0.429157 15.1587L0.541691 15.3082L0.648855 15.4074L0.756035 15.5066L0.87999 15.5941L1.00393 15.6816L1.15795 15.7594L1.31198 15.8371L1.46215 15.886L1.61232 15.9348L1.78614 15.9674L1.95997 16H11.0858H20.2116L20.3594 15.9773L20.5071 15.9546L20.6809 15.9093L20.8546 15.8642L20.9764 15.8139L21.0981 15.7637L21.2111 15.7019L21.3241 15.64L21.4389 15.5551L21.5537 15.4703L21.6825 15.3353L21.8113 15.2004L21.8942 15.0754L21.9772 14.9505L22.0449 14.8059L22.1127 14.6614L22.1553 14.5137L22.198 14.366L22.226 14.2022L22.2541 14.0383V13.7743V13.5102L22.2283 13.3624L22.2025 13.2146L22.1486 13.0603L22.0947 12.9059L22.0252 12.7755L21.9557 12.6452L21.8841 12.5496L21.8125 12.454L21.7247 12.3605L21.637 12.267L21.4979 12.1583L21.3589 12.0496L21.027 11.852L20.6951 11.6544L16.3053 9.04717L11.9154 6.43994L11.9067 5.86617L11.898 5.29237L11.8616 5.14908L11.8251 5.0058L11.7632 4.87536L11.7013 4.74492L11.5974 4.60694L11.4934 4.46898L11.3791 4.36425L11.2648 4.25952L11.1145 4.15703L10.9641 4.05454L10.7712 3.95631L10.5783 3.85807L10.4835 3.77562L10.3886 3.69318L10.3234 3.61496L10.2581 3.53673L10.1819 3.38029L10.1058 3.22385L10.0786 3.08986L10.0515 2.95588V2.80024V2.64459L10.076 2.51704L10.1005 2.38949L10.1371 2.29708L10.1736 2.20469L10.2334 2.11121L10.2932 2.01775L10.3592 1.9446L10.4253 1.87145L10.5132 1.80641L10.6013 1.74136L10.7255 1.6788L10.8497 1.61626L10.9847 1.57922L11.1197 1.54216L11.3461 1.55097L11.5725 1.55979L11.6942 1.59857L11.8159 1.63735L11.9115 1.68562L12.0071 1.73389L12.1133 1.81218L12.2195 1.89047L12.2977 1.99223L12.3759 2.09398L12.4152 2.17137L12.4546 2.24876L12.4882 2.3452L12.5218 2.44164L12.5555 2.67225L12.5893 2.90288L12.6233 2.99961L12.6573 3.09635L12.7001 3.16939L12.7429 3.24243L12.8318 3.32562L12.9208 3.40882L13.0028 3.44542L13.0848 3.48203L13.2238 3.48945L13.3629 3.49689L13.4759 3.45896L13.5889 3.42104L13.6715 3.3684L13.7541 3.31577L13.8288 3.2327L13.9035 3.14963L13.9581 3.04707L14.0128 2.94453L14.0429 2.79141L14.073 2.6383L14.0526 2.44436L14.0322 2.25043L13.9881 2.08529L13.9439 1.92016L13.8699 1.73763L13.7959 1.55507L13.697 1.38707L13.5981 1.21905L13.4951 1.08231L13.392 0.945539L13.2022 0.762171L13.0124 0.578803L12.8387 0.463175L12.665 0.347529L12.5012 0.271115L12.3373 0.194719L12.1722 0.142259L12.0071 0.0898155L11.868 0.0620208L11.7289 0.0342088L11.5638 0.0171044L11.3987 0L11.2162 0.00198161L11.0336 0.00396321L10.915 0.0177476ZM15.7198 10.5657L20.2985 13.2577L20.3948 13.3453L20.4912 13.4329L20.5426 13.5345L20.594 13.636L20.5937 13.8098L20.5933 13.9836L20.5509 14.0705L20.5085 14.1575L20.4209 14.245L20.3333 14.3326L20.249 14.372L20.1646 14.4113L20.0751 14.4279L19.9856 14.4444L11.0336 14.44L2.08164 14.4356L1.98194 14.3888L1.88223 14.3421L1.79838 14.2583L1.71451 14.1744L1.66342 14.0703L1.61232 13.9662L1.6063 13.8157L1.60029 13.6652L1.64675 13.5616L1.69321 13.4581L1.76575 13.3879L1.83829 13.3177L2.36846 13.0059L2.89862 12.694L4.79332 11.5805L6.68801 10.4671L8.89498 9.17037L11.102 7.87367H11.1215H11.1411L15.7198 10.5657Z" fill="black"/>
</svg>
