<svg width="24" height="24" viewBox="0 0 24 24" fill="none" xmlns="http://www.w3.org/2000/svg">
<g id="Viber" clip-path="url(#clip0_427_2709)">
<g id="Viber_2">
<rect id="Rectangle" width="24" height="24" rx="12" fill="#675DA9"/>
<g id="Group">
<path id="Vector" d="M17.8767 6.09227C17.4798 5.72734 15.8728 4.55891 12.2907 4.54291C12.2907 4.54291 8.06836 4.28681 6.01001 6.1755C4.86399 7.32152 4.46064 8.99573 4.41903 11.0765C4.37741 13.1541 4.32299 17.0499 8.07797 18.1063H8.08117L8.07797 19.7165C8.07797 19.7165 8.05556 20.3695 8.48452 20.5007C9.00311 20.6608 9.31042 20.1646 9.8066 19.63C10.0787 19.3355 10.4532 18.9066 10.7381 18.5768C13.3055 18.7913 15.2806 18.2983 15.5047 18.2247C16.0233 18.055 18.9587 17.6805 19.4357 13.7847C19.9287 9.77682 19.1956 7.23829 17.8767 6.09227ZM18.3121 13.503C17.9088 16.7554 15.5303 16.9602 15.0917 17.1011C14.9061 17.1619 13.171 17.5941 10.9878 17.45C10.9878 17.45 9.36164 19.4123 8.85585 19.9213C8.77582 20.0014 8.68299 20.0334 8.62217 20.0174C8.53573 19.995 8.51012 19.8925 8.51333 19.7421C8.51333 19.5244 8.52613 17.0627 8.52613 17.0627C8.52293 17.0627 8.52293 17.0627 8.52613 17.0627C5.34737 16.1824 5.53304 12.8659 5.56825 11.1309C5.60346 9.39588 5.92998 7.97136 6.89994 7.01421C8.63817 5.43923 12.2267 5.67292 12.2267 5.67292C15.255 5.68572 16.7051 6.59806 17.0412 6.90217C18.1585 7.86252 18.7283 10.1514 18.3121 13.503Z" fill="white"/>
<path id="Vector_2" d="M13.7665 11.1917C13.6609 11.1917 13.5713 11.1085 13.5649 10.9997C13.5297 10.3114 13.2063 9.9753 12.5469 9.94009C12.4349 9.93368 12.3484 9.83765 12.3548 9.72561C12.3612 9.61357 12.4573 9.52713 12.5693 9.53354C13.44 9.58155 13.9266 10.0809 13.9714 10.9773C13.9778 11.0893 13.8914 11.1853 13.7793 11.1885C13.7729 11.1917 13.7697 11.1917 13.7665 11.1917Z" fill="white"/>
<path id="Vector_3" d="M14.8036 11.5375H14.8004C14.6884 11.5343 14.5987 11.4415 14.6019 11.3294C14.6179 10.638 14.4195 10.0778 13.9969 9.61681C13.5775 9.15584 12.9981 8.90615 12.2331 8.85173C12.121 8.84213 12.0378 8.7461 12.0474 8.63405C12.057 8.52201 12.153 8.43878 12.2651 8.44839C13.1294 8.51241 13.8112 8.81332 14.2978 9.34471C14.7876 9.87931 15.0245 10.5484 15.0085 11.339C15.0053 11.4511 14.9124 11.5375 14.8036 11.5375Z" fill="white"/>
<path id="Vector_4" d="M15.8665 11.9536C15.7545 11.9536 15.6648 11.864 15.6648 11.752C15.6552 10.5131 15.2999 9.56876 14.5764 8.86131C13.8626 8.16345 12.9566 7.80812 11.8906 7.79852C11.7786 7.79852 11.689 7.70568 11.689 7.59364C11.689 7.4816 11.7818 7.39197 11.8906 7.39197C13.0655 7.40157 14.0642 7.79532 14.8549 8.57C15.6488 9.34468 16.0554 10.4139 16.0682 11.7456C16.0714 11.8608 15.9817 11.9536 15.8665 11.9536C15.8697 11.9536 15.8697 11.9536 15.8665 11.9536Z" fill="white"/>
<path id="Vector_5" d="M12.5948 13.6982C12.5948 13.6982 12.8797 13.7238 13.0334 13.535L13.3311 13.1604C13.4752 12.9748 13.8241 12.8563 14.1634 13.0452C14.3523 13.1508 14.6948 13.3621 14.9061 13.519C15.1334 13.6854 15.5943 14.0696 15.5975 14.0728C15.8184 14.2584 15.8696 14.5305 15.7192 14.8218C15.7192 14.8218 15.7192 14.825 15.7192 14.8282C15.5655 15.1003 15.3574 15.3564 15.0982 15.5933C15.095 15.5933 15.095 15.5965 15.0918 15.5965C14.8773 15.7758 14.666 15.8782 14.4611 15.9006C14.4355 15.907 14.4067 15.907 14.3683 15.907C14.2787 15.907 14.189 15.8942 14.0994 15.8654L14.093 15.8558C13.7729 15.7662 13.2415 15.5421 12.358 15.0523C11.7817 14.7354 11.3048 14.4121 10.8982 14.0888C10.6837 13.9191 10.4661 13.7302 10.242 13.5062C10.2356 13.4998 10.226 13.4901 10.2196 13.4837C10.2132 13.4773 10.2036 13.4677 10.1972 13.4613C10.1908 13.4549 10.1812 13.4453 10.1748 13.4389C10.1683 13.4325 10.1587 13.4229 10.1523 13.4165C9.93146 13.1924 9.73939 12.9748 9.56973 12.7603C9.24641 12.3569 8.92309 11.8768 8.60618 11.3005C8.1164 10.4138 7.89232 9.88243 7.80268 9.56551L7.79308 9.55911C7.76427 9.46948 7.75146 9.37984 7.75146 9.29021C7.75146 9.2518 7.75146 9.22299 7.75787 9.19738C7.78348 8.9893 7.88591 8.78122 8.06198 8.56675C8.06198 8.56354 8.06518 8.56354 8.06518 8.56034C8.30207 8.29785 8.55816 8.09297 8.83026 7.93932C8.83026 7.93932 8.83346 7.93932 8.83666 7.93932C9.12477 7.78886 9.39687 7.84008 9.58574 8.06096C9.58574 8.06096 9.97308 8.52513 10.1395 8.75241C10.2964 8.96689 10.5077 9.30622 10.6133 9.49509C10.8022 9.83441 10.6837 10.1833 10.4981 10.3274L10.1235 10.6251C9.93466 10.7788 9.96027 11.0637 9.96027 11.0637C9.96027 11.0637 10.5141 13.17 12.5948 13.6982Z" fill="white"/>
</g>
</g>
</g>
<defs>
<clipPath id="clip0_427_2709">
<rect width="24" height="24" fill="white"/>
</clipPath>
</defs>
</svg>
