<svg width="24" height="24" viewBox="0 0 24 24" fill="none" xmlns="http://www.w3.org/2000/svg">
<g clip-path="url(#clip0_401_1568)">
<path d="M11.945 12.394C10.3083 12.388 8.73981 11.7377 7.57895 10.584C6.42119 9.434 5.76669 7.87183 5.75895 6.24C5.76397 4.59922 6.41494 3.02641 7.57095 1.862C8.73004 0.694228 10.2998 0.0259803 11.945 3.58557e-06C12.7638 -0.000876804 13.5747 0.160377 14.3309 0.474465C15.0871 0.788552 15.7737 1.24926 16.351 1.83C16.9257 2.40996 17.379 3.09868 17.6845 3.85588C17.9899 4.61309 18.1414 5.42359 18.13 6.24C18.1406 7.05198 17.9877 7.85778 17.6803 8.60941C17.373 9.36104 16.9175 10.0431 16.341 10.615C15.7639 11.1898 15.0777 11.6433 14.3227 11.949C13.5678 12.2547 12.7594 12.4063 11.945 12.395V12.394ZM11.945 3.676C11.5995 3.6757 11.2575 3.74456 10.9391 3.87852C10.6207 4.01248 10.3323 4.20883 10.091 4.456C9.85096 4.70312 9.66324 4.99608 9.53902 5.31738C9.41479 5.63867 9.35661 5.98172 9.36795 6.326C9.36283 6.66045 9.4267 6.99236 9.55557 7.30103C9.68443 7.60969 9.87554 7.88849 10.117 8.12C10.3588 8.35275 10.6458 8.5335 10.9602 8.65114C11.2746 8.76877 11.6097 8.8208 11.945 8.804C12.2781 8.8119 12.6095 8.75386 12.9201 8.63321C13.2308 8.51257 13.5145 8.33169 13.755 8.101C13.9941 7.8706 14.1851 7.59493 14.3168 7.29003C14.4485 6.98514 14.5182 6.6571 14.522 6.325C14.5335 5.9809 14.4753 5.63802 14.3509 5.31699C14.2265 4.99596 14.0384 4.70343 13.798 4.457C13.5572 4.20932 13.2691 4.01255 12.9507 3.87839C12.6324 3.74422 12.2904 3.6754 11.945 3.676ZM14.435 17.523L17.958 20.942C18.1212 21.1045 18.2507 21.2977 18.3391 21.5104C18.4275 21.7231 18.473 21.9512 18.473 22.1815C18.473 22.4118 18.4275 22.6399 18.3391 22.8526C18.2507 23.0653 18.1212 23.2585 17.958 23.421C17.8053 23.6029 17.6146 23.749 17.3993 23.849C17.184 23.9491 16.9494 24.0006 16.712 24C16.4747 23.9997 16.2404 23.9477 16.0254 23.8475C15.8103 23.7474 15.6198 23.6015 15.467 23.42L11.945 20.002L8.50895 23.421C8.34141 23.5911 8.14027 23.7245 7.91835 23.8127C7.69643 23.9008 7.45858 23.9418 7.21995 23.933C6.74449 23.9157 6.28957 23.7348 5.93195 23.421C5.68631 23.1762 5.51887 22.8641 5.45086 22.524C5.38285 22.184 5.41734 21.8314 5.54995 21.511C5.63795 21.298 5.76795 21.105 5.93195 20.941L9.53995 17.523C8.25138 17.1225 7.01219 16.5777 5.84595 15.899C5.44775 15.641 5.16353 15.2403 5.05174 14.7792C4.93995 14.3181 5.0091 13.8317 5.24495 13.42C5.37612 13.2127 5.54812 13.0342 5.75046 12.8955C5.95281 12.7567 6.18128 12.6606 6.42195 12.613C6.66308 12.565 6.91141 12.5663 7.15201 12.6169C7.39262 12.6674 7.6205 12.7661 7.82195 12.907C9.08035 13.6622 10.5203 14.0611 11.988 14.0611C13.4556 14.0611 14.8956 13.6622 16.154 12.907C16.3552 12.7664 16.5827 12.6679 16.823 12.6175C17.0632 12.5671 17.3111 12.5659 17.5519 12.6138C17.7926 12.6617 18.0212 12.7579 18.2238 12.8964C18.4264 13.035 18.5989 13.2131 18.731 13.42C18.975 13.8217 19.0575 14.3011 18.9617 14.7612C18.8659 15.2214 18.599 15.6281 18.215 15.899C17.0187 16.5781 15.751 17.1228 14.435 17.523Z" fill="black"/>
</g>
<defs>
<clipPath id="clip0_401_1568">
<rect width="24" height="24" fill="white"/>
</clipPath>
</defs>
</svg>
