<svg width="24" height="24" viewBox="0 0 24 24" fill="none" xmlns="http://www.w3.org/2000/svg">
<path d="M20.874 4.00181C20.8467 3.99753 20.8188 4.00172 20.794 4.01381L3.08999 11.6458C2.92299 11.7228 2.99699 11.8748 3.20699 11.9528L6.33399 13.0568C6.45783 13.1005 6.57184 13.1682 6.66951 13.256C6.76719 13.3438 6.84661 13.45 6.90326 13.5685C6.9599 13.687 6.99265 13.8154 6.99964 13.9466C7.00663 14.0777 6.98772 14.209 6.94399 14.3328C6.90026 14.4566 6.83257 14.5707 6.74477 14.6683C6.65698 14.766 6.55081 14.8454 6.43232 14.9021C6.19303 15.0165 5.91809 15.0311 5.66799 14.9428L2.58099 13.8528C0.62999 13.3248 0.42499 10.6168 2.29699 9.80981L20.003 2.17781C21.623 1.47781 23.345 2.92581 22.942 4.64081L19.25 20.3428C19.1715 20.6775 19.0138 20.9884 18.7901 21.2495C18.5664 21.5105 18.2833 21.714 17.9646 21.8427C17.6459 21.9715 17.3009 22.0219 16.9586 21.9895C16.6164 21.9571 16.2869 21.843 15.998 21.6568L9.99599 17.8418C9.74345 17.6781 9.52812 17.4632 9.36396 17.211C9.19979 16.9588 9.09045 16.6749 9.04303 16.3777C8.99561 16.0806 9.01115 15.7767 9.08867 15.486C9.16618 15.1952 9.30393 14.9239 9.49299 14.6898L13.243 10.3468C13.3277 10.2439 13.4321 10.1589 13.5501 10.0969C13.668 10.0349 13.7972 9.99716 13.93 9.98581C14.0628 9.97446 14.1966 9.98977 14.3234 10.0308C14.4501 10.0719 14.5675 10.1379 14.6684 10.225C14.7693 10.312 14.8518 10.4184 14.911 10.5378C14.9703 10.6572 15.005 10.7872 15.0133 10.9202C15.0215 11.0533 15.0031 11.1866 14.9591 11.3124C14.9151 11.4382 14.8464 11.5539 14.757 11.6528L11.037 15.9628C11.0174 15.9953 11.0111 16.0341 11.0193 16.0711C11.0275 16.1081 11.0496 16.1406 11.081 16.1618L17.081 19.9758C17.165 20.0298 17.279 19.9858 17.303 19.8858L20.995 4.18381C21.0027 4.1569 21.002 4.1283 20.993 4.10181C20.9834 4.07607 20.9672 4.05331 20.946 4.03581C20.9254 4.0184 20.9005 4.00668 20.874 4.00181Z" fill="black"/>
</svg>
