<svg width="24" height="24" viewBox="0 0 24 24" fill="none" xmlns="http://www.w3.org/2000/svg">
<path d="M12.982 19C5.466 19 1.18 13.745 1 5H4.765C4.889 11.418 7.665 14.137 9.863 14.698V5H13.409V10.536C15.579 10.297 17.861 7.775 18.63 5H22.176C21.8874 6.43539 21.3097 7.79702 20.478 9.002C19.6521 10.199 18.5879 11.2125 17.352 11.979C18.7316 12.6794 19.9462 13.6656 20.915 14.872C21.8908 16.0872 22.6011 17.4934 23 19H19.097C18.7403 17.6931 18.0089 16.5192 16.993 15.623C15.9872 14.7358 14.7391 14.1695 13.409 13.997V19H12.982Z" fill="black"/>
</svg>
