<svg width="24" height="24" viewBox="0 0 24 24" fill="none" xmlns="http://www.w3.org/2000/svg">
<g id="Telegram" clip-path="url(#clip0_427_2718)">
<g id="Telegram_2">
<rect id="Rectangle" width="24" height="24" rx="12" fill="#419FD9"/>
<path id="Exclude" fill-rule="evenodd" clip-rule="evenodd" d="M14.6678 17.9422C15.5065 18.3091 15.8211 17.5403 15.8211 17.5403L18.0403 6.3918C18.0228 5.64041 17.0093 6.09474 17.0093 6.09474L4.58525 10.97C4.58525 10.97 3.99114 11.1797 4.04356 11.5466C4.09598 11.9136 4.56778 12.0883 4.56778 12.0883L7.69564 13.1368C7.69564 13.1368 8.63924 16.2297 8.83145 16.8238C9.00619 17.4005 9.16346 17.4179 9.16346 17.4179C9.3382 17.4878 9.49547 17.3655 9.49547 17.3655L11.5225 15.5307L14.6678 17.9422ZM15.2095 8.36634C15.2095 8.36634 15.6464 8.10423 15.6289 8.36634C15.6289 8.36634 15.6988 8.40129 15.4716 8.64593C15.2619 8.85561 10.3168 13.294 9.65275 13.8881C9.60033 13.9231 9.56538 13.9755 9.56538 14.0454L9.37316 15.688C9.33821 15.8627 9.11105 15.8802 9.05863 15.7229L8.23735 13.0319C8.2024 12.9271 8.23735 12.8048 8.34219 12.7349L15.2095 8.36634Z" fill="white"/>
</g>
</g>
<defs>
<clipPath id="clip0_427_2718">
<rect width="24" height="24" fill="white"/>
</clipPath>
</defs>
</svg>
