<svg width="32" height="32" viewBox="0 0 32 32" fill="none" xmlns="http://www.w3.org/2000/svg">
<path d="M10.9865 17.8356C10.8957 17.2908 10.3805 16.9228 9.83574 17.0136C9.29097 17.1044 8.92295 17.6196 9.01375 18.1644L10.0138 24.1644C10.1046 24.7092 10.6198 25.0772 11.1646 24.9864C11.7094 24.8956 12.0774 24.3804 11.9866 23.8356L10.9865 17.8356Z" fill="white"/>
<path d="M22.1645 17.0136C21.6198 16.9228 21.1045 17.2908 21.0138 17.8356L20.0138 23.8356C19.923 24.3804 20.291 24.8956 20.8358 24.9864C21.3806 25.0772 21.8958 24.7092 21.9866 24.1644L22.9865 18.1644C23.0773 17.6196 22.7093 17.1044 22.1645 17.0136Z" fill="white"/>
<path d="M15.0002 18C15.0002 17.4477 15.4479 17 16.0002 17C16.5525 17 17.0002 17.4477 17.0002 18V24C17.0002 24.5523 16.5525 25 16.0002 25C15.4479 25 15.0002 24.5523 15.0002 24V18Z" fill="white"/>
<path fill-rule="evenodd" clip-rule="evenodd" d="M16.0002 3C14.3434 3 13.0002 4.34315 13.0002 6C13.0002 6.5039 13.1244 6.97879 13.344 7.3957L8.54027 13H6.30623C4.48058 13 3.07819 14.617 3.33638 16.4243L4.76495 26.4243C4.97609 27.9022 6.24185 29 7.7348 29H24.2656C25.7586 29 27.0243 27.9022 27.2355 26.4243L28.664 16.4243C28.9222 14.617 27.5198 13 25.6942 13H23.4601L18.6565 7.3957C18.876 6.97879 19.0002 6.5039 19.0002 6C19.0002 4.34315 17.6571 3 16.0002 3ZM15.0002 6C15.0002 5.44772 15.4479 5 16.0002 5C16.5525 5 17.0002 5.44772 17.0002 6C17.0002 6.55228 16.5525 7 16.0002 7C15.4479 7 15.0002 6.55228 15.0002 6ZM17.188 8.75568C16.8237 8.91289 16.4222 9 16.0002 9C15.5783 9 15.1767 8.91289 14.8124 8.75568L11.1744 13H20.826L17.188 8.75568ZM6.30623 15C5.69768 15 5.23022 15.539 5.31628 16.1414L6.74485 26.1414C6.81523 26.6341 7.23715 27 7.7348 27H24.2656C24.7633 27 25.1852 26.6341 25.2556 26.1414L26.6841 16.1414C26.7702 15.539 26.3027 15 25.6942 15H6.30623Z" fill="white"/>
</svg>
