<svg width="32" height="32" viewBox="0 0 32 32" fill="none" xmlns="http://www.w3.org/2000/svg">
<path d="M6.53681 7.60533C8.55418 5.46489 11.7991 5.46489 13.8164 7.60533L15.2723 9.14999C15.4612 9.35046 15.7245 9.46411 16 9.46411C16.2755 9.46411 16.5388 9.35046 16.7277 9.14999L18.1836 7.60533C20.2009 5.46489 23.4458 5.46489 25.4632 7.60533C27.5123 9.77941 27.5123 13.3274 25.4632 15.5015C25.0844 15.9034 25.1031 16.5363 25.505 16.9151C25.9069 17.2939 26.5398 17.2752 26.9186 16.8733C29.6938 13.9288 29.6938 9.17804 26.9186 6.23358C24.1118 3.25547 19.535 3.25547 16.7281 6.23358L16 7.00612L15.2719 6.23358C12.465 3.25547 7.88824 3.25547 5.08137 6.23358C2.30621 9.17804 2.30621 13.9288 5.08137 16.8733L15.2723 27.6859C15.4612 27.8864 15.7245 28 16 28C16.2755 28 16.5388 27.8864 16.7277 27.6859L18.7277 25.5639C19.1065 25.162 19.0878 24.5291 18.6859 24.1503C18.284 23.7715 17.6511 23.7902 17.2723 24.1921L16 25.542L6.53681 15.5015C4.48773 13.3274 4.48773 9.77941 6.53681 7.60533Z" fill="white"/>
<path d="M18.9231 13.6154C18.7627 13.2304 18.3802 12.9854 17.9635 13.0007C17.5467 13.0159 17.1832 13.2882 17.0513 13.6838L15.2793 19H14C13.4477 19 13 19.4477 13 20C13 20.5523 13.4477 21 14 21H16.0001C16.4305 21 16.8126 20.7246 16.9488 20.3162L18.1041 16.8499L22.0769 26.3846C22.2274 26.7457 22.5746 26.9859 22.9656 26.9994C23.3565 27.0129 23.7195 26.7971 23.8944 26.4472L26.6181 21H28C28.5523 21 29 20.5523 29 20C29 19.4477 28.5523 19 28 19H26.0001C25.6213 19 25.275 19.214 25.1056 19.5528L23.0827 23.5985L18.9231 13.6154Z" fill="white"/>
</svg>
