<svg width="32" height="32" viewBox="0 0 32 32" fill="none" xmlns="http://www.w3.org/2000/svg">
<path fill-rule="evenodd" clip-rule="evenodd" d="M4.15988 11.8489C3.97615 13.0097 4.53768 13.9789 5.38737 14.524C5.14062 14.9598 4.99977 15.4635 4.99977 16V19C4.99977 19.6098 5.18172 20.1771 5.4943 20.6506C4.67712 21.3018 4.2137 22.3663 4.40151 23.4932L4.73484 25.4932C4.97594 26.9398 6.22751 28 7.69402 28H24.3055C25.772 28 27.0236 26.9398 27.2647 25.4932L27.598 23.4932C27.7858 22.3663 27.3224 21.3018 26.5052 20.6506C26.8178 20.1771 26.9998 19.6098 26.9998 19V16C26.9998 15.4635 26.8589 14.9598 26.6122 14.524C27.4619 13.9789 28.0234 13.0097 27.8397 11.8489C27.3616 8.82816 25.8333 6.80894 23.6362 5.58595C21.4966 4.39496 18.7997 4 15.9998 4C13.1998 4 10.5029 4.39496 8.36334 5.58595C6.16626 6.80894 4.63797 8.82816 4.15988 11.8489ZM9.33608 7.33346C7.68749 8.25113 6.51941 9.7345 6.13529 12.1615C6.0761 12.5355 6.39124 13 6.99787 13H25.0017C25.6083 13 25.9234 12.5355 25.8642 12.1615C25.4801 9.7345 24.3121 8.25113 22.6635 7.33346C20.9574 6.38378 18.6593 6 15.9998 6C13.3403 6 11.0422 6.38378 9.33608 7.33346ZM24.9998 17H15.9998C15.4475 17 14.9998 17.4477 14.9998 18C14.9998 18.5523 15.4475 19 15.9998 19H24.9998C24.9998 19.5523 24.5521 20 23.9998 20H7.99977C7.44749 20 6.99977 19.5523 6.99977 19H10.9998C11.5521 19 11.9998 18.5523 11.9998 18C11.9998 17.4477 11.5521 17 10.9998 17H6.99977V16C6.99977 15.4477 7.44749 15 7.99977 15H23.9998C24.5521 15 24.9998 15.4477 24.9998 16V17ZM7.36069 22C6.74275 22 6.27271 22.5549 6.3743 23.1644L6.70763 25.1644C6.78799 25.6466 7.20518 26 7.69402 26H24.3055C24.7944 26 25.2115 25.6466 25.2919 25.1644L25.6252 23.1644C25.7268 22.5549 25.2568 22 24.6388 22H7.36069Z" fill="white"/>
</svg>
