<svg width="32" height="32" viewBox="0 0 32 32" fill="none" xmlns="http://www.w3.org/2000/svg">
<path d="M15.6467 8.36823C16.3638 7.65118 17.5362 6.94397 18.706 6.62516C19.347 6.45043 19.8998 6.41158 20.3529 6.49054L17.061 9.78245C16.6704 10.173 16.6704 10.8061 17.061 11.1967L21.3029 15.4386C21.6934 15.8291 22.3273 15.8298 22.7178 15.4393L22.722 15.4351L22.7229 15.4342L22.7285 15.4286L22.7298 15.4273L26.0097 12.1474C26.0887 12.6005 26.0498 13.1532 25.8751 13.7943C25.5563 14.964 24.8491 16.1365 24.132 16.8535C22.4959 18.4896 20.7505 19.3608 19.0716 18.5926C18.996 18.558 18.9475 18.5228 18.802 18.4173L18.7985 18.4147C18.6582 18.313 18.4407 18.1574 18.131 18.0427C18.0804 18.023 18.0285 18.0076 17.9759 17.9964C17.6845 17.9341 17.388 18.0069 17.1614 18.1795C17.1201 18.2109 17.0812 18.2455 17.045 18.2833L9.2826 26.0457C8.89208 26.4363 8.89208 27.0694 9.2826 27.46C9.67313 27.8505 10.3063 27.8505 10.6968 27.46L17.9191 20.2377C18.0113 20.2954 18.1186 20.3559 18.2395 20.4112C21.1637 21.7493 23.8184 19.9955 25.5462 18.2677C26.5112 17.3028 27.395 15.8235 27.8047 14.3202C28.2061 12.8473 28.2214 11.0434 26.9605 9.78245C26.5699 9.39193 25.9368 9.39193 25.5462 9.78245L22.0107 13.318L19.1823 10.4896L22.7178 6.95402C23.1083 6.5635 23.1083 5.93033 22.7178 5.53981C21.4569 4.2789 19.6529 4.29412 18.1801 4.69554C16.6767 5.10527 15.1975 5.98905 14.2325 6.95402C12.5047 8.68187 10.7512 11.3365 12.089 14.2607C12.1442 14.3814 12.2047 14.4886 12.2623 14.5808L5.03996 21.8031C4.64944 22.1936 4.64944 22.8268 5.03996 23.2173C5.43049 23.6078 6.06365 23.6078 6.45418 23.2173L14.2166 15.4549C14.359 15.3185 14.4576 15.1429 14.5008 14.9523C14.5321 14.8145 14.5344 14.6688 14.5036 14.5244C14.4924 14.4716 14.477 14.4196 14.4572 14.3689C14.3426 14.0593 14.1871 13.8419 14.0855 13.7017L14.0828 13.698C13.9774 13.5526 13.9423 13.5042 13.9077 13.4287C13.1396 11.7497 14.0107 10.0043 15.6467 8.36823Z" fill="white"/>
</svg>
