<svg width="32" height="32" viewBox="0 0 32 32" fill="none" xmlns="http://www.w3.org/2000/svg">
<path fill-rule="evenodd" clip-rule="evenodd" d="M26.6068 9.63604C26.9319 9.311 26.9935 8.80622 26.7561 8.41257C26.5188 8.01895 26.0437 7.83781 25.6045 7.9735L25.6 7.9749L25.5826 7.9802L25.5116 8.00154C25.4489 8.02019 25.3571 8.04715 25.2427 8.0796C25.0134 8.14467 24.6963 8.23108 24.3444 8.31672C23.6051 8.4967 22.8343 8.64205 22.3773 8.63604C22.0635 8.63191 21.6766 8.51523 21.3199 8.36024C21.1518 8.28717 21.0096 8.21416 20.9109 8.16018C20.8619 8.13337 20.8245 8.11177 20.8011 8.09788L20.7768 8.08331L20.7748 8.0821L20.7735 8.08132C20.3787 7.83432 19.8652 7.89236 19.5358 8.22182L16.0002 11.7574C15.6097 11.3668 14.9765 11.3668 14.586 11.7574L12.4647 13.8787C12.0742 13.4882 11.441 13.4882 11.0505 13.8787L3.97942 20.9498C3.58889 21.3403 3.58889 21.9734 3.97942 22.364L9.63627 28.0208C10.0268 28.4113 10.66 28.4113 11.0505 28.0208L18.1216 20.9498C18.5121 20.5592 18.5121 19.9261 18.1216 19.5355L20.2429 17.4142C20.6334 17.0237 20.6334 16.3905 20.2429 16L26.6068 9.63604ZM18.1216 16.7071L15.2931 13.8787L13.8789 15.2929L16.7073 18.1213L18.1216 16.7071ZM18.8287 14.5858L22.7947 10.6197C22.64 10.6318 22.4909 10.6377 22.3509 10.6359C21.6459 10.6266 20.9721 10.3897 20.5229 10.1946C20.4919 10.1811 20.4615 10.1676 20.4318 10.1542L17.4145 13.1716L18.8287 14.5858ZM8.22208 19.5355L11.7576 16L16.0002 20.2426L12.4647 23.7782L8.22208 19.5355ZM6.80787 20.9497L6.10074 21.6569L10.3434 25.8995L11.0505 25.1924L6.80787 20.9497Z" fill="white"/>
</svg>
