<svg width="32" height="32" viewBox="0 0 32 32" fill="none" xmlns="http://www.w3.org/2000/svg">
<path fill-rule="evenodd" clip-rule="evenodd" d="M28 5.00001C28 4.70252 27.8676 4.42048 27.6386 4.2305C27.4097 4.04051 27.1081 3.96231 26.8157 4.01714L10.8157 7.01714C10.3427 7.10582 10 7.51879 10 8.00001V20.5351C9.41165 20.1948 8.72857 20 8 20C5.79086 20 4 21.7909 4 24C4 26.2091 5.79086 28 8 28C10.2091 28 12 26.2091 12 24V13.8299L26 11.2049V17.5351C25.4117 17.1948 24.7286 17 24 17C21.7909 17 20 18.7909 20 21C20 23.2091 21.7909 25 24 25C26.2091 25 28 23.2091 28 21V5.00001ZM26 21C26 19.8954 25.1046 19 24 19C22.8954 19 22 19.8954 22 21C22 22.1046 22.8954 23 24 23C25.1046 23 26 22.1046 26 21ZM10 24C10 22.8954 9.10457 22 8 22C6.89543 22 6 22.8954 6 24C6 25.1046 6.89543 26 8 26C9.10457 26 10 25.1046 10 24ZM26 9.17008L12 11.7951V8.82993L26 6.20493V9.17008Z" fill="white"/>
</svg>
