<svg width="32" height="32" viewBox="0 0 32 32" fill="none" xmlns="http://www.w3.org/2000/svg">
<path fill-rule="evenodd" clip-rule="evenodd" d="M16.0001 11C13.2387 11 11.0001 13.2386 11.0001 16C11.0001 18.7614 13.2387 21 16.0001 21C18.7615 21 21.0001 18.7614 21.0001 16C21.0001 13.2386 18.7615 11 16.0001 11ZM13.0001 16C13.0001 14.3431 14.3433 13 16.0001 13C17.657 13 19.0001 14.3431 19.0001 16C19.0001 17.6569 17.657 19 16.0001 19C14.3433 19 13.0001 17.6569 13.0001 16Z" fill="white"/>
<path fill-rule="evenodd" clip-rule="evenodd" d="M15.0001 3C13.3432 3 12.0001 4.34315 12.0001 6V7.4678C12.0001 7.70787 11.8416 8.00645 11.4956 8.20685C11.1553 8.4039 10.8238 8.39264 10.6117 8.27017L9.33986 7.53589C7.90498 6.70746 6.07021 7.19909 5.24178 8.63397L4.24178 10.366C3.41335 11.8009 3.90498 13.6357 5.33986 14.4641L6.61172 15.1984C6.82262 15.3202 7.00008 15.6046 7.00008 16C7.00008 16.3954 6.82263 16.6798 6.61173 16.8016L5.33986 17.5359C3.90498 18.3643 3.41335 20.1991 4.24178 21.634L5.24178 23.366C6.07021 24.8009 7.90498 25.2925 9.33986 24.4641L10.6116 23.7298C10.8238 23.6074 11.1553 23.5961 11.4956 23.7931C11.8416 23.9935 12.0001 24.2921 12.0001 24.5322V26C12.0001 27.6569 13.3432 29 15.0001 29H17.0001C18.6569 29 20.0001 27.6569 20.0001 26V24.5322C20.0001 24.2921 20.1586 23.9935 20.5046 23.7931C20.8449 23.5961 21.1764 23.6073 21.3886 23.7298L22.6604 24.4641C24.0952 25.2925 25.93 24.8009 26.7584 23.366L27.7584 21.634C28.5869 20.1991 28.0952 18.3643 26.6604 17.5359L25.3884 16.8015C25.1775 16.6798 25.0001 16.3954 25.0001 16C25.0001 15.6046 25.1775 15.3202 25.3884 15.1985L26.6604 14.4641C28.0952 13.6357 28.5869 11.8009 27.7584 10.366L26.7584 8.63397C25.93 7.19909 24.0952 6.70746 22.6604 7.53589L21.3885 8.27018C21.1764 8.39265 20.8449 8.40392 20.5046 8.20686C20.1586 8.00646 20.0001 7.70786 20.0001 7.46778V6C20.0001 4.34315 18.6569 3 17.0001 3H15.0001ZM14.0001 6C14.0001 5.44772 14.4478 5 15.0001 5H17.0001C17.5524 5 18.0001 5.44772 18.0001 6V7.46778C18.0001 8.57405 18.6833 9.46326 19.5023 9.93758C20.3281 10.4158 21.4337 10.5535 22.3885 10.0022L23.6604 9.26794C24.1387 8.9918 24.7502 9.15567 25.0264 9.63397L26.0264 11.366C26.3025 11.8443 26.1387 12.4559 25.6604 12.732L24.3884 13.4664C23.4328 14.0181 23.0001 15.0484 23.0001 16C23.0001 16.9515 23.4328 17.9819 24.3884 18.5336L25.6604 19.2679C26.1387 19.5441 26.3025 20.1557 26.0264 20.634L25.0264 22.366C24.7502 22.8443 24.1387 23.0082 23.6604 22.732L22.3886 21.9978C21.4337 21.4465 20.3281 21.5842 19.5023 22.0624C18.6833 22.5367 18.0001 23.426 18.0001 24.5322V26C18.0001 26.5523 17.5524 27 17.0001 27H15.0001C14.4478 27 14.0001 26.5523 14.0001 26V24.5322C14.0001 23.426 13.3169 22.5367 12.4979 22.0624C11.6721 21.5842 10.5665 21.4465 9.61165 21.9978L8.33986 22.732C7.86156 23.0082 7.24997 22.8443 6.97383 22.366L5.97383 20.634C5.69769 20.1557 5.86156 19.5441 6.33986 19.2679L7.61173 18.5336C8.56736 17.9819 9.00008 16.9516 9.00008 16C9.00008 15.0484 8.56736 14.0181 7.61172 13.4664L6.33986 12.732C5.86156 12.4559 5.69769 11.8443 5.97383 11.366L6.97383 9.63397C7.24997 9.15567 7.86157 8.9918 8.33986 9.26794L9.61167 10.0022C10.5665 10.5535 11.6721 10.4158 12.4979 9.93757C13.3169 9.46326 14.0001 8.57405 14.0001 7.4678V6Z" fill="white"/>
</svg>
