<svg width="32" height="32" viewBox="0 0 32 32" fill="none" xmlns="http://www.w3.org/2000/svg">
<path fill-rule="evenodd" clip-rule="evenodd" d="M3 22C3 21.4477 3.44772 21 4 21H28C28.5523 21 29 21.4477 29 22V25C29 25.5523 28.5523 26 28 26H4C3.44772 26 3 25.5523 3 25V22ZM5 23V24H27V23H5Z" fill="white"/>
<path fill-rule="evenodd" clip-rule="evenodd" d="M20 17C20 16.4477 20.4477 16 21 16H23.2919C25.3364 16 27.1749 17.2448 27.9343 19.143L28.9285 21.6286C29.0517 21.9367 29.0141 22.2859 28.8281 22.5606C28.642 22.8354 28.3318 23 28 23H21C20.4477 23 20 22.5523 20 22V17ZM22 18V21H26.523L26.0773 19.8858C25.6217 18.7469 24.5186 18 23.2919 18H22Z" fill="white"/>
<path fill-rule="evenodd" clip-rule="evenodd" d="M4 7C4 6.44772 4.44772 6 5 6H14C14.4888 6 14.906 6.35341 14.9864 6.8356L15.9152 12.4083L21.5547 16.1679C21.8329 16.3534 22 16.6656 22 17V22C22 22.5523 21.5523 23 21 23H4C3.71748 23 3.44813 22.8805 3.25855 22.671C3.06897 22.4615 2.97685 22.1816 3.00497 21.9005L4 11.9501V7ZM6 8V12C6 12.0332 5.99835 12.0664 5.99504 12.0995L5.10499 21H20V17.5352L14.4453 13.8321C14.2153 13.6787 14.0591 13.437 14.0136 13.1644L13.1529 8H6Z" fill="white"/>
<path fill-rule="evenodd" clip-rule="evenodd" d="M9 16C8.44772 16 8 16.4477 8 17C8 17.5523 8.44772 18 9 18C9.55228 18 10 17.5523 10 17C10 16.4477 9.55228 16 9 16ZM6 17C6 15.3431 7.34315 14 9 14C10.6569 14 12 15.3431 12 17C12 18.6569 10.6569 20 9 20C7.34315 20 6 18.6569 6 17Z" fill="white"/>
<path fill-rule="evenodd" clip-rule="evenodd" d="M18.0001 15C18.5524 15 19.0001 15.4477 19.0001 16H18.0001C19.0001 16 19.0001 16.0005 19.0001 16.001L19.0001 16.002L19.0001 16.0042L19.0001 16.009L18.9999 16.0203L18.9992 16.0497C18.9985 16.0722 18.9972 16.1006 18.9949 16.1344C18.9903 16.2019 18.9817 16.2913 18.9656 16.3983C18.9336 16.6116 18.8713 16.8999 18.7489 17.2261C18.5018 17.8852 18.0097 18.6954 17.0548 19.3321C16.5953 19.6384 15.9744 19.5142 15.6681 19.0547C15.3617 18.5952 15.4859 17.9743 15.9454 17.6679C16.4905 17.3046 16.7484 16.8648 16.8763 16.5239C16.9414 16.3501 16.9728 16.2009 16.9877 16.1017C16.9951 16.0524 16.9982 16.0168 16.9995 15.9984C16.9999 15.9925 17.0001 15.9884 17.0002 15.9863C17.0075 15.4403 17.4524 15 18.0001 15Z" fill="white"/>
<path fill-rule="evenodd" clip-rule="evenodd" d="M16.316 13.0513C16.84 13.226 17.1231 13.7923 16.9485 14.3163L15.9998 14C16.9485 14.3163 16.9483 14.3166 16.9482 14.317L16.9479 14.3178L16.9474 14.3195L16.9461 14.3233L16.9429 14.3327L16.9339 14.3579C16.9268 14.3776 16.9173 14.4029 16.9053 14.4331C16.8814 14.4935 16.8474 14.5744 16.802 14.6703C16.7116 14.861 16.5733 15.1175 16.376 15.3938C15.9841 15.9424 15.3274 16.6116 14.316 16.9487C13.7921 17.1234 13.2257 16.8402 13.0511 16.3163C12.8765 15.7923 13.1596 15.226 13.6836 15.0513C14.1722 14.8885 14.5154 14.5577 14.7485 14.2313C14.8637 14.07 14.9442 13.9203 14.9945 13.8141C15.0194 13.7616 15.0361 13.7214 15.0454 13.6978C15.05 13.6861 15.0528 13.6786 15.0537 13.6761L15.0527 13.6789L15.052 13.6811L15.0516 13.6824L15.0513 13.6831C15.2263 13.1596 15.7923 12.8768 16.316 13.0513ZM15.0537 13.6761L15.0537 13.676C15.0539 13.6755 15.054 13.6752 15.0541 13.6751C15.0541 13.675 15.054 13.6754 15.0537 13.6761Z" fill="white"/>
<path fill-rule="evenodd" clip-rule="evenodd" d="M4 11C4 10.4477 4.44772 10 5 10H11C11.5523 10 12 10.4477 12 11C12 11.5523 11.5523 12 11 12H5C4.44772 12 4 11.5523 4 11Z" fill="white"/>
</svg>
