<svg width="66" height="66" viewBox="0 0 66 66" fill="none" xmlns="http://www.w3.org/2000/svg">
<path d="M40.1094 48.7735V41.1005L36.3221 40.1356C36.0255 39.1738 35.6416 38.2445 35.1765 37.363L37.1702 34.0053L31.7437 28.5788L28.386 30.5725C27.5045 30.1073 26.5752 29.7234 25.6134 29.4269L24.6485 25.6406H16.9755L16.0106 29.4279C15.0488 29.7245 14.1195 30.1084 13.238 30.5735L9.88031 28.5798L4.45383 34.0063L6.4475 37.364C5.98234 38.2455 5.59844 39.1748 5.30188 40.1366L1.51562 41.1015V48.7745L5.30289 49.7394C5.59945 50.7012 5.98336 51.6305 6.44852 52.512L4.45484 55.8697L9.88133 61.2962L13.239 59.3025C14.1205 59.7677 15.0498 60.1516 16.0116 60.4481L16.9765 64.2344H24.6495L25.6144 60.4471C26.5762 60.1505 27.5055 59.7666 28.387 59.3015L31.7447 61.2952L37.1712 55.8687L35.1775 52.511C35.6427 51.6295 36.0266 50.7002 36.3231 49.7384L40.1094 48.7735ZM20.8125 56.1094C14.6426 56.1094 9.64062 51.1074 9.64062 44.9375C9.64062 38.7676 14.6426 33.7656 20.8125 33.7656C26.9824 33.7656 31.9844 38.7676 31.9844 44.9375C31.9844 51.1074 26.9824 56.1094 20.8125 56.1094Z" fill="white"/>
<path d="M20.8125 57.125C14.0921 57.125 8.625 51.6579 8.625 44.9375C8.625 38.2171 14.0921 32.75 20.8125 32.75C27.5329 32.75 33 38.2171 33 44.9375C33 51.6579 27.5329 57.125 20.8125 57.125ZM20.8125 34.7812C15.2123 34.7812 10.6562 39.3373 10.6562 44.9375C10.6562 50.5377 15.2123 55.0938 20.8125 55.0938C26.4127 55.0938 30.9688 50.5377 30.9688 44.9375C30.9688 39.3373 26.4127 34.7812 20.8125 34.7812Z" fill="#C64034"/>
<path d="M20.8125 51.0312C17.4518 51.0312 14.7188 48.2982 14.7188 44.9375C14.7188 41.5768 17.4518 38.8438 20.8125 38.8438C24.1732 38.8438 26.9062 41.5768 26.9062 44.9375C26.9062 48.2982 24.1732 51.0312 20.8125 51.0312ZM20.8125 40.875C18.572 40.875 16.75 42.697 16.75 44.9375C16.75 47.178 18.572 49 20.8125 49C23.053 49 24.875 47.178 24.875 44.9375C24.875 42.697 23.053 40.875 20.8125 40.875Z" fill="#C64034"/>
<path d="M20.8125 23.3727L14.4374 19.5469H4.5625C2.88266 19.5469 1.51562 18.1798 1.51562 16.5V4.3125C1.51562 2.63266 2.88266 1.26562 4.5625 1.26562H28.9375C30.6173 1.26562 31.9844 2.63266 31.9844 4.3125V16.5C31.9844 18.1798 30.6173 19.5469 28.9375 19.5469H20.8125V23.3727ZM4.5625 3.29688C4.00188 3.29688 3.54688 3.75187 3.54688 4.3125V16.5C3.54688 17.0606 4.00188 17.5156 4.5625 17.5156H15.0001L18.7812 19.7835V17.5156H28.9375C29.4981 17.5156 29.9531 17.0606 29.9531 16.5V4.3125C29.9531 3.75187 29.4981 3.29688 28.9375 3.29688H4.5625Z" fill="#C64034"/>
<path d="M61.4375 9.39062H37.0625C35.3827 9.39062 34.0156 10.7577 34.0156 12.4375V26.6562C34.0156 28.3361 35.3827 29.7031 37.0625 29.7031H39.0938V34.3933L48.4741 29.7031H61.4375C63.1173 29.7031 64.4844 28.3361 64.4844 26.6562V12.4375C64.4844 10.7577 63.1173 9.39062 61.4375 9.39062ZM62.4531 26.6562C62.4531 27.2169 61.9981 27.6719 61.4375 27.6719H47.9947L41.125 31.1067V27.6719H37.0625C36.5019 27.6719 36.0469 27.2169 36.0469 26.6562V12.4375C36.0469 11.8769 36.5019 11.4219 37.0625 11.4219H61.4375C61.9981 11.4219 62.4531 11.8769 62.4531 12.4375V26.6562Z" fill="#C64034"/>
<path d="M58.3906 23.6094H56.3594V15.4844H54.3281V23.6094H52.2969V13.4531H50.2656V23.6094H48.2344V17.5156H46.2031V23.6094H44.1719V19.5469H42.1406V23.6094H40.1094V25.6406H60.4219V13.4531H58.3906V23.6094Z" fill="#C64034"/>
<path d="M8.625 13.4531C6.94516 13.4531 5.57812 12.0861 5.57812 10.4062C5.57812 8.72641 6.94516 7.35938 8.625 7.35938C10.3048 7.35938 11.6719 8.72641 11.6719 10.4062C11.6719 12.0861 10.3048 13.4531 8.625 13.4531Z" fill="white"/>
<path d="M16.75 13.4531C15.0702 13.4531 13.7031 12.0861 13.7031 10.4062C13.7031 8.72641 15.0702 7.35938 16.75 7.35938C18.4298 7.35938 19.7969 8.72641 19.7969 10.4062C19.7969 12.0861 18.4298 13.4531 16.75 13.4531Z" fill="white"/>
<path d="M24.875 13.4531C23.1952 13.4531 21.8281 12.0861 21.8281 10.4062C21.8281 8.72641 23.1952 7.35938 24.875 7.35938C26.5548 7.35938 27.9219 8.72641 27.9219 10.4062C27.9219 12.0861 26.5548 13.4531 24.875 13.4531Z" fill="white"/>
<path d="M51.2812 55.0938V54.3026C50.6617 53.7451 50.2656 52.9458 50.2656 52.0469V50.1883C50.2656 48.539 51.5006 47.0592 53.149 46.9729C54.906 46.8815 56.3594 48.279 56.3594 50.0157V52.0469C56.3594 52.9458 55.9633 53.7451 55.3438 54.3026V55.0938L57.5893 56.2171C58.7024 56.7737 59.4062 57.9112 59.4062 59.1563H47.2188C47.2188 57.9112 47.9226 56.7737 49.0357 56.2171L51.2812 55.0938Z" fill="white"/>
<path d="M53.3122 41.8906C51.3257 41.8906 49.3807 42.4228 47.6623 43.4344L41.5381 42.7072L43.5978 47.5619C42.6421 49.2437 42.1404 51.1338 42.1404 53.0625C42.1404 59.2223 47.1525 64.2344 53.3122 64.2344C59.472 64.2344 64.4841 59.2223 64.4841 53.0625C64.4841 46.9027 59.472 41.8906 53.3122 41.8906ZM47.579 60.1719H59.0444C57.4753 61.4394 55.4816 62.2031 53.3112 62.2031C51.1408 62.2031 49.1492 61.4394 47.579 60.1719ZM51.9614 53.549C51.5227 53.1539 51.281 52.6197 51.281 52.0469V50.1883C51.281 49.0295 52.1432 48.0433 53.2015 47.9874C53.7581 47.9549 54.3025 48.154 54.7107 48.543C55.118 48.9309 55.3435 49.453 55.3435 50.0156V52.0469C55.3435 52.6197 55.1018 53.1539 54.663 53.549L54.3279 53.8516V55.7214L57.135 57.125C57.587 57.3505 57.9384 57.709 58.1537 58.1406H48.4718C48.6871 57.709 49.0395 57.3505 49.4904 57.125L52.2966 55.7214V53.8516L51.9614 53.549ZM60.3982 58.8262C60.2845 57.321 59.41 55.9916 58.043 55.308L56.5064 54.5402C57.0639 53.8293 57.3747 52.9508 57.3747 52.0469V50.0156C57.3747 48.9066 56.9136 47.833 56.1093 47.0693C55.2927 46.2954 54.2364 45.9176 53.0949 45.9582C50.9387 46.0709 49.2497 47.9295 49.2497 50.1883V52.0469C49.2497 52.9508 49.5605 53.8293 50.1171 54.5402L48.5804 55.308C47.2134 55.9916 46.3389 57.321 46.2252 58.8262C44.9435 57.252 44.1716 55.2461 44.1716 53.0625C44.1716 51.34 44.6621 49.653 45.5914 48.1845L45.8758 47.7345L44.7739 45.1366L48.1285 45.5357L48.4342 45.3427C49.9028 44.4124 51.5897 43.9219 53.3122 43.9219C58.3528 43.9219 62.4529 48.022 62.4529 53.0625C62.4529 55.2461 61.681 57.252 60.3982 58.8262Z" fill="#C64034"/>
</svg>
