<svg width="66" height="66" viewBox="0 0 66 66" fill="none" xmlns="http://www.w3.org/2000/svg">
<path d="M59.4062 63.2188H24.875C22.6315 63.2188 20.8125 61.3998 20.8125 59.1562V55.0938H63.4688V59.1562C63.4688 61.3998 61.6498 63.2188 59.4062 63.2188Z" fill="#C64034"/>
<path d="M24.875 2.28125H59.4062C61.6498 2.28125 63.4688 4.10023 63.4688 6.34375V10.4062H20.8125V6.34375C20.8125 4.10023 22.6315 2.28125 24.875 2.28125Z" fill="#C64034"/>
<path d="M59.4062 1.26562H24.875C22.0749 1.26562 19.7969 3.54367 19.7969 6.34375V22.7989H21.8281V6.34375C21.8281 4.66391 23.1952 3.29688 24.875 3.29688H59.4062C61.0861 3.29688 62.4531 4.66391 62.4531 6.34375V59.1562C62.4531 60.8361 61.0861 62.2031 59.4062 62.2031H24.875C23.1952 62.2031 21.8281 60.8361 21.8281 59.1562V49.4205L22.2486 49L21.8281 48.5795V46.3736L23.2835 44.9182L21.8474 43.4821L19.2891 46.0405L17.6783 44.4297L20.2366 41.8713L18.8005 40.4352L16.2422 42.9936L14.7188 41.4702L3.07563 53.1133C2.06914 54.1187 1.51562 55.4553 1.51562 56.8792C1.51562 59.8144 3.90438 62.2031 6.84055 62.2031C8.26141 62.2031 9.59898 61.6496 10.6055 60.6441L19.7969 51.4517V59.1562C19.7969 61.9563 22.0749 64.2344 24.875 64.2344H59.4062C62.2063 64.2344 64.4844 61.9563 64.4844 59.1562V6.34375C64.4844 3.54367 62.2063 1.26562 59.4062 1.26562ZM9.16938 59.207C8.5468 59.8296 7.71906 60.1719 6.84055 60.1719C5.02461 60.1719 3.54688 58.6952 3.54688 56.8792C3.54688 55.9987 3.88914 55.172 4.51172 54.5504L14.7188 44.3423L19.3764 49L9.16938 59.207Z" fill="white"/>
<path d="M36.0469 5.32812H44.1719V7.35938H36.0469V5.32812Z" fill="white"/>
<path d="M58.3906 52.0469H25.8906C24.7704 52.0469 23.8594 51.1359 23.8594 50.0156V45.5987H25.8906V50.0156H58.3906V15.4844H25.8906V19.9013H23.8594V15.4844C23.8594 14.3641 24.7704 13.4531 25.8906 13.4531H58.3906C59.5109 13.4531 60.4219 14.3641 60.4219 15.4844V50.0156C60.4219 51.1359 59.5109 52.0469 58.3906 52.0469Z" fill="white"/>
<path d="M46.2031 5.32812H48.2344V7.35938H46.2031V5.32812Z" fill="white"/>
<path d="M38.0781 58.1406H46.2031V60.1719H38.0781V58.1406Z" fill="white"/>
<path d="M46.2031 18.5312H56.3594V23.6094H46.2031V18.5312Z" fill="#C64034"/>
<path d="M42.1406 17.5156H56.3594V19.5469H42.1406V17.5156Z" fill="white"/>
<path d="M46.2031 21.5781H56.3594V23.6094H46.2031V21.5781Z" fill="white"/>
<path d="M43.1217 23.9852L42.621 25.9535C46.7912 27.0138 49.7903 30.5665 50.2108 34.7813H44.8594V36.8126H50.2148C50.0117 38.852 49.2012 40.7146 47.9693 42.2198L44.3171 38.5676L42.881 40.0037L46.5332 43.6559C44.7812 45.0899 42.5448 45.9532 40.1094 45.9532C38.7606 45.9532 37.4505 45.6932 36.2165 45.1803L35.4375 47.0572C36.9203 47.6717 38.4925 47.9845 40.1094 47.9845C46.8298 47.9845 52.2969 42.5174 52.2969 35.797C52.2969 30.2151 48.5238 25.3584 43.1217 23.9852Z" fill="white"/>
<path d="M30.9688 47.9844C22.5685 47.9844 15.7344 41.1502 15.7344 32.75C15.7344 24.3498 22.5685 17.5156 30.9688 17.5156C39.369 17.5156 46.2031 24.3498 46.2031 32.75C46.2031 41.1502 39.369 47.9844 30.9688 47.9844ZM30.9688 22.5938C25.3686 22.5938 20.8125 27.1498 20.8125 32.75C20.8125 38.3502 25.3686 42.9062 30.9688 42.9062C36.5689 42.9062 41.125 38.3502 41.125 32.75C41.125 27.1498 36.5689 22.5938 30.9688 22.5938Z" fill="#C64034"/>
<path d="M30.9688 21.5781C24.809 21.5781 19.7969 26.5902 19.7969 32.75C19.7969 38.9098 24.809 43.9219 30.9688 43.9219C37.1285 43.9219 42.1406 38.9098 42.1406 32.75C42.1406 26.5902 37.1285 21.5781 30.9688 21.5781ZM21.8281 32.75C21.8281 30.5796 22.5919 28.587 23.8594 27.0178V38.47C22.5929 36.9039 21.8281 34.9173 21.8281 32.75ZM25.8906 40.3316V25.1552C27.344 24.1802 29.0909 23.6094 30.9688 23.6094C32.4881 23.6094 33.9202 23.9872 35.1816 24.6463C30.8195 26.5628 27.9219 30.8823 27.9219 35.7969C27.9219 37.8931 28.4683 39.9487 29.4829 41.7586C28.1697 41.5423 26.953 41.0436 25.8906 40.3316ZM31.9549 41.8348C30.6651 40.095 29.9531 37.9744 29.9531 35.7969C29.9531 33.3746 30.8012 31.1291 32.2413 29.3659L39.3212 36.4459C38.0263 39.3617 35.2527 41.4793 31.9549 41.8348ZM33.6795 27.9309C34.6951 27.1021 35.8803 26.4653 37.1925 26.0743C38.982 27.744 40.1094 30.1155 40.1094 32.75C40.1094 33.2548 40.0576 33.7473 39.9784 34.2298L33.6795 27.9309Z" fill="white"/>
<path d="M6.59375 58.1406C7.15466 58.1406 7.60938 57.6859 7.60938 57.125C7.60938 56.5641 7.15466 56.1094 6.59375 56.1094C6.03284 56.1094 5.57812 56.5641 5.57812 57.125C5.57812 57.6859 6.03284 58.1406 6.59375 58.1406Z" fill="white"/>
</svg>
