<svg width="24" height="24" viewBox="0 0 24 24" fill="none" xmlns="http://www.w3.org/2000/svg">
<path fill-rule="evenodd" clip-rule="evenodd" d="M20.2625 12C20.2625 16.5633 16.5633 20.2625 12 20.2625C7.43675 20.2625 3.7375 16.5633 3.7375 12C3.7375 7.43675 7.43675 3.7375 12 3.7375C16.5633 3.7375 20.2625 7.43675 20.2625 12ZM21.5625 12C21.5625 17.2812 17.2812 21.5625 12 21.5625C6.71878 21.5625 2.4375 17.2812 2.4375 12C2.4375 6.71878 6.71878 2.4375 12 2.4375C17.2812 2.4375 21.5625 6.71878 21.5625 12ZM8.70711 10.7071C8.89464 10.5196 9 10.2652 9 10C9 9.73478 8.89464 9.48043 8.70711 9.29289C8.51957 9.10536 8.26522 9 8 9C7.73478 9 7.48043 9.10536 7.29289 9.29289C7.10536 9.48043 7 9.73478 7 10C7 10.2652 7.10536 10.5196 7.29289 10.7071C7.48043 10.8946 7.73478 11 8 11C8.26522 11 8.51957 10.8946 8.70711 10.7071ZM16.7071 10.7071C16.8946 10.5196 17 10.2652 17 10C17 9.73478 16.8946 9.48043 16.7071 9.29289C16.5196 9.10536 16.2652 9 16 9C15.7348 9 15.4804 9.10536 15.2929 9.29289C15.1054 9.48043 15 9.73478 15 10C15 10.2652 15.1054 10.5196 15.2929 10.7071C15.4804 10.8946 15.7348 11 16 11C16.2652 11 16.5196 10.8946 16.7071 10.7071ZM10.2 14.609C9.885 14.451 9.716 14.301 9.7 14.286C9.51054 14.1046 9.25737 14.0048 8.99506 14.0083C8.73275 14.0118 8.48231 14.1182 8.29774 14.3046C8.11316 14.491 8.00923 14.7425 8.00834 15.0048C8.00746 15.2672 8.10969 15.5193 8.293 15.707C8.413 15.827 9.642 17 12 17C14.357 17 15.587 15.827 15.707 15.707C15.8903 15.5193 15.9925 15.2672 15.9917 15.0048C15.9908 14.7425 15.8868 14.491 15.7023 14.3046C15.5177 14.1182 15.2673 14.0118 15.0049 14.0083C14.7426 14.0048 14.4895 14.1046 14.3 14.286C14.155 14.419 13.975 14.521 13.8 14.609C13.425 14.796 12.829 15 12 15C11.171 15 10.576 14.796 10.2 14.609Z" fill="black"/>
</svg>
