<svg width="24" height="24" viewBox="0 0 24 24" fill="none" xmlns="http://www.w3.org/2000/svg">
<path d="M8.00005 5C7.35588 4.99987 6.7294 5.21082 6.2165 5.60055C5.7036 5.99028 5.33252 6.53734 5.16005 7.158L5.15805 7.168L4.25005 10.315C4.80982 10.1061 5.40256 9.99936 6.00005 10C7.49405 10 8.83405 10.655 9.75005 11.693C10.4131 11.2406 11.1974 10.999 12.0001 11C12.8351 11 13.6101 11.256 14.2501 11.693C14.7187 11.1603 15.2957 10.7338 15.9424 10.4418C16.589 10.1499 17.2905 9.99925 18.0001 10C18.4631 10 18.9121 10.063 19.3381 10.181L18.0601 6.914V6.913C17.841 6.34955 17.4569 5.86542 16.9579 5.52406C16.459 5.18269 15.8686 5.00003 15.2641 5H15.0001C14.7348 5 14.4805 4.89464 14.2929 4.70711C14.1054 4.51957 14.0001 4.26522 14.0001 4C14.0001 3.73478 14.1054 3.48043 14.2929 3.29289C14.4805 3.10536 14.7348 3 15.0001 3H15.2641C16.2714 2.99994 17.2554 3.30419 18.0869 3.87288C18.9184 4.44156 19.5588 5.24816 19.9241 6.187L22.6311 13.111C22.9345 13.8566 23.0534 14.6644 22.9777 15.4658C22.9021 16.2671 22.634 17.0384 22.1964 17.714C21.7588 18.3896 21.1646 18.9496 20.4642 19.3463C19.7638 19.743 18.978 19.9648 18.1735 19.9927C17.3691 20.0207 16.5697 19.854 15.8435 19.5068C15.1173 19.1597 14.4856 18.6423 14.0021 17.9987C13.5187 17.3551 13.1978 16.6043 13.0666 15.8101C12.9355 15.0159 12.9981 14.2018 13.2491 13.437C12.8948 13.1531 12.454 12.9989 12.0001 13C11.5456 12.999 11.1045 13.1536 10.7501 13.438C11.0002 14.2002 11.0633 15.0114 10.934 15.8031C10.8047 16.5949 10.4868 17.3439 10.0071 17.9869C9.52748 18.6299 8.90013 19.148 8.17808 19.4976C7.45603 19.8472 6.66047 20.0178 5.85858 19.9953C5.05668 19.9727 4.272 19.7575 3.57077 19.3678C2.86955 18.9781 2.27238 18.4255 1.82967 17.7565C1.38697 17.0875 1.11174 16.3218 1.02722 15.524C0.942699 14.7263 1.05137 13.9199 1.34405 13.173L3.23405 6.618C3.52433 5.5772 4.14739 4.66006 5.00803 4.00673C5.86866 3.3534 6.91953 2.99981 8.00005 3C8.26527 3 8.51962 3.10536 8.70716 3.29289C8.8947 3.48043 9.00005 3.73478 9.00005 4C9.00005 4.26522 8.8947 4.51957 8.70716 4.70711C8.51962 4.89464 8.26527 5 8.00005 5ZM6.00005 12C5.2044 12 4.44134 12.3161 3.87873 12.8787C3.31612 13.4413 3.00005 14.2044 3.00005 15C3.00005 15.7956 3.31612 16.5587 3.87873 17.1213C4.44134 17.6839 5.2044 18 6.00005 18C6.7957 18 7.55876 17.6839 8.12137 17.1213C8.68398 16.5587 9.00005 15.7956 9.00005 15C9.00005 14.2044 8.68398 13.4413 8.12137 12.8787C7.55876 12.3161 6.7957 12 6.00005 12ZM18.0001 12C17.6061 11.9999 17.216 12.0773 16.8519 12.228C16.4879 12.3786 16.1571 12.5995 15.8784 12.878C15.5998 13.1565 15.3787 13.4871 15.2278 13.851C15.0769 14.215 14.9992 14.605 14.9991 14.999C14.9989 15.393 15.0764 15.7831 15.227 16.1471C15.3777 16.5112 15.5985 16.8419 15.877 17.1206C16.1555 17.3993 16.4862 17.6204 16.8501 17.7713C17.214 17.9221 17.6041 17.9999 17.9981 18C18.7937 18.0003 19.5569 17.6845 20.1197 17.122C20.6825 16.5596 20.9988 15.7966 20.9991 15.001C20.9993 14.2054 20.6835 13.4422 20.1211 12.8794C19.5587 12.3166 18.7957 12.0003 18.0001 12Z" fill="white"/>
</svg>
