<svg width="25" height="25" viewBox="0 0 25 25" fill="none" xmlns="http://www.w3.org/2000/svg">
<g id="24 / finance / wallet">
<path id="icon" fill-rule="evenodd" clip-rule="evenodd" d="M15.9506 1.90269C17.0126 1.59924 18.1196 2.21423 18.423 3.2763C18.4741 3.45498 18.5 3.63991 18.5 3.82574V5.50001H20.5C21.6046 5.50001 22.5 6.39544 22.5 7.50001V19.5C22.5 20.6046 21.6046 21.5 20.5 21.5H4.5C3.39543 21.5 2.5 20.6046 2.5 19.5H2.5267C2.50895 19.3925 2.5 19.2835 2.5 19.1743V7.25431C2.5 6.36135 3.09195 5.57658 3.95056 5.33126L15.9506 1.90269ZM10.6401 19.5H20.5V11.5H18.5V15.7457C18.5 16.6387 17.908 17.4234 17.0494 17.6688L10.6401 19.5ZM20.5 7.50001V9.50001H18.5V7.50001H20.5ZM4.5 7.25431V19.1743L16.5 15.7457V3.82574L4.5 7.25431ZM14.5 9.50001C14.5 10.0523 14.0523 10.5 13.5 10.5C12.9477 10.5 12.5 10.0523 12.5 9.50001C12.5 8.94773 12.9477 8.50001 13.5 8.50001C14.0523 8.50001 14.5 8.94773 14.5 9.50001Z" fill="#C64034"/>
</g>
</svg>
