<svg width="1410" height="106" viewBox="0 0 1410 106" fill="none" xmlns="http://www.w3.org/2000/svg">
<g clip-path="url(#clip0_419_1479)">
<rect width="1410" height="105" transform="translate(0 0.5)" fill="url(#paint0_linear_419_1479)"/>
<g style="mix-blend-mode:color-burn">
<g filter="url(#filter0_d_419_1479)">
<path d="M97.3374 107.935C91.4146 107.935 85.5032 106.412 80.2235 103.366L-27.8749 40.9572C-38.4342 34.8652 -44.9887 23.5048 -44.9887 11.3209V-113.496C-44.9887 -125.68 -38.4342 -137.041 -27.8749 -143.133L80.2235 -205.541C90.7829 -211.633 103.892 -211.633 114.451 -205.541L222.55 -143.133C233.109 -137.041 239.664 -125.68 239.664 -113.496V11.3209C239.664 23.5048 233.109 34.8652 222.55 40.9572L114.451 103.366C109.172 106.412 103.26 107.935 97.3374 107.935ZM97.3374 -192.207C94.517 -192.207 91.6967 -191.485 89.1922 -190.029L-18.9061 -127.621C-23.9264 -124.721 -27.0513 -119.306 -27.0513 -113.508V11.3097C-27.0513 17.1083 -23.9264 22.5233 -18.9061 25.4227L89.1922 87.8314C94.2124 90.7307 100.462 90.7307 105.494 87.8314L213.592 25.4227C218.624 22.5233 221.737 17.1083 221.737 11.3097V-113.508C221.737 -119.306 218.612 -124.721 213.592 -127.621L105.494 -190.029C102.978 -191.485 100.158 -192.207 97.3487 -192.207H97.3374Z" fill="#F9F9F9"/>
<g style="mix-blend-mode:screen" opacity="0.3">
<path d="M214.145 -128.591L106.047 -191C103.407 -192.523 100.395 -193.324 97.3374 -193.324C94.2802 -193.324 91.268 -192.523 88.6282 -191L-19.4702 -128.591C-24.8401 -125.489 -28.1794 -119.701 -28.1794 -113.496V11.3209C-28.1794 17.5257 -24.8401 23.3018 -19.4702 26.4154L88.6282 88.8241C91.268 90.3471 94.2802 91.1481 97.3374 91.1481C100.395 91.1481 103.407 90.3471 106.047 88.8241L214.145 26.4154C219.515 23.313 222.854 17.537 222.854 11.3209V-113.496C222.854 -119.701 219.515 -125.489 214.145 -128.591ZM221.726 11.3209C221.726 17.1196 218.601 22.5346 213.581 25.434L105.483 87.8427C100.451 90.742 94.2125 90.742 89.181 87.8427L-18.9174 25.434C-23.9489 22.5346 -27.0626 17.1196 -27.0626 11.3209V-113.496C-27.0626 -119.295 -23.9376 -124.71 -18.9174 -127.609L89.181 -190.018C91.6967 -191.473 94.5058 -192.195 97.3261 -192.195C100.146 -192.195 102.956 -191.473 105.471 -190.018L213.57 -127.609C218.601 -124.71 221.715 -119.295 221.715 -113.496V11.3209H221.726ZM222.538 -143.133L114.44 -205.541C103.881 -211.633 90.7716 -211.633 80.2122 -205.541L-27.8861 -143.133C-38.4455 -137.041 -45 -125.68 -45 -113.496V11.3209C-45 23.5048 -38.4455 34.8652 -27.8861 40.9572L80.2122 103.366C85.4919 106.412 91.4034 107.935 97.3261 107.935C103.249 107.935 109.16 106.412 114.44 103.366L222.538 40.9572C233.098 34.8652 239.652 23.5048 239.652 11.3209V-113.496C239.652 -125.68 233.098 -137.041 222.538 -143.133ZM238.524 11.3209C238.524 23.11 232.184 34.0981 221.974 39.987L113.876 102.396C108.867 105.284 103.147 106.818 97.3261 106.818C91.5049 106.818 85.7853 105.295 80.7763 102.396L-27.3221 39.987C-37.5317 34.0981 -43.8719 23.11 -43.8719 11.3209V-113.496C-43.8719 -125.285 -37.5317 -136.262 -27.3221 -142.162L80.7763 -204.571C85.7853 -207.459 91.5049 -208.993 97.3261 -208.993C103.147 -208.993 108.867 -207.47 113.876 -204.571L221.974 -142.162C232.184 -136.274 238.524 -125.285 238.524 -113.496V11.3209Z" fill="white"/>
</g>
</g>
<g filter="url(#filter1_d_419_1479)">
<path d="M575.477 144.757V217.184C575.477 222.418 578.275 227.258 582.81 229.875L645.534 266.089C650.069 268.706 655.654 268.706 660.189 266.089L722.913 229.875C727.449 227.258 730.246 222.418 730.246 217.184V144.757C730.246 139.523 727.449 134.683 722.913 132.066L660.189 95.8524C655.654 93.2351 650.069 93.2351 645.534 95.8524L582.81 132.066C578.275 134.683 575.477 139.523 575.477 144.757Z" fill="white"/>
<path d="M722.913 132.066L660.189 95.8524C655.654 93.2351 650.069 93.2351 645.534 95.8524L582.81 132.066C578.275 134.683 575.477 139.523 575.477 144.757V217.184C575.477 222.418 578.275 227.258 582.81 229.875L645.534 266.089C650.069 268.706 655.654 268.706 660.189 266.089L722.913 229.875C727.449 227.258 730.246 222.418 730.246 217.184V144.757C730.246 139.523 727.449 134.683 722.913 132.066ZM729.118 217.195C729.118 222.012 726.523 226.502 722.349 228.916L659.625 265.13C657.572 266.314 655.236 266.946 652.856 266.946C650.476 266.946 648.14 266.314 646.087 265.13L583.363 228.916C579.188 226.502 576.594 222.012 576.594 217.195V144.768C576.594 139.951 579.188 135.461 583.363 133.047L646.087 96.8338C648.14 95.6493 650.476 95.0175 652.856 95.0175C655.236 95.0175 657.572 95.6493 659.625 96.8338L722.349 133.047C726.523 135.461 729.118 139.951 729.118 144.768V217.195Z" fill="white"/>
</g>
<g filter="url(#filter2_d_419_1479)">
<path d="M108.529 79.596V243.966C108.529 255.857 114.869 266.833 125.157 272.779L267.506 354.964C277.795 360.909 290.475 360.909 300.775 354.964L443.124 272.779C453.412 266.833 459.752 255.857 459.752 243.966V79.596C459.752 67.7054 453.412 56.7286 443.124 50.7833L300.775 -31.4017C290.486 -37.347 277.806 -37.347 267.506 -31.4017L125.157 50.7833C114.869 56.7286 108.529 67.7054 108.529 79.596Z" fill="#F3F3F3"/>
<path d="M443.135 50.7833L300.786 -31.4017C290.498 -37.347 277.817 -37.347 267.517 -31.4017L125.169 50.7833C114.88 56.7286 108.54 67.7054 108.54 79.596V243.966C108.54 255.857 114.88 266.833 125.169 272.779L267.517 354.964C277.806 360.909 290.486 360.909 300.786 354.964L443.135 272.779C453.424 266.833 459.764 255.857 459.764 243.966V79.596C459.764 67.7054 453.424 56.7286 443.135 50.7833ZM458.117 243.966C458.117 255.225 452.059 265.717 442.311 271.346L299.963 353.531C295.168 356.306 289.697 357.773 284.157 357.773C278.618 357.773 273.147 356.306 268.352 353.531L126.004 271.346C116.256 265.717 110.198 255.225 110.198 243.966V79.596C110.198 68.3371 116.256 57.8454 126.004 52.216L268.352 -29.969C273.147 -32.7442 278.618 -34.2108 284.157 -34.2108C289.697 -34.2108 295.168 -32.7442 299.963 -29.969L442.311 52.216C452.059 57.8454 458.117 68.3371 458.117 79.596V243.966Z" fill="white"/>
</g>
<g filter="url(#filter3_d_419_1479)">
<path d="M140.15 133.487V245.895C140.15 254.018 144.482 261.531 151.522 265.593L248.881 321.797C255.92 325.858 264.596 325.858 271.635 321.797L368.994 265.593C376.033 261.531 380.365 254.018 380.365 245.895V133.487C380.365 125.365 376.033 117.851 368.994 113.79L271.635 57.5861C264.596 53.5248 255.92 53.5248 248.881 57.5861L151.522 113.79C144.482 117.851 140.15 125.365 140.15 133.487Z" fill="#F9F9F9"/>
<path d="M368.982 113.79L271.624 57.5861C264.584 53.5248 255.909 53.5248 248.869 57.5861L151.511 113.79C144.471 117.851 140.139 125.365 140.139 133.487V245.907C140.139 254.029 144.471 261.543 151.511 265.604L248.869 321.808C255.909 325.869 264.584 325.869 271.624 321.808L368.982 265.604C376.022 261.543 380.354 254.029 380.354 245.907V133.487C380.354 125.365 376.022 117.851 368.982 113.79ZM379.226 245.907C379.226 253.612 375.086 260.787 368.418 264.634L271.071 320.838C267.788 322.733 264.054 323.737 260.263 323.737C256.473 323.737 252.739 322.733 249.456 320.838L152.097 264.634C145.43 260.787 141.29 253.612 141.29 245.907V133.499C141.29 125.794 145.43 118.619 152.097 114.772L249.456 58.5676C252.739 56.6723 256.473 55.6683 260.263 55.6683C264.054 55.6683 267.788 56.6723 271.071 58.5676L368.418 114.772C375.086 118.619 379.226 125.794 379.226 133.499V245.907Z" fill="white"/>
</g>
<g filter="url(#filter4_d_419_1479)">
<path d="M155.459 405.222C149.536 405.222 143.625 403.699 138.345 400.653L30.247 338.245C19.6876 332.153 13.1331 320.792 13.1331 308.608V183.791C13.1331 171.607 19.6876 160.247 30.247 154.155L138.345 91.7461C148.905 85.6541 162.014 85.6541 172.573 91.7461L280.671 154.155C291.231 160.247 297.785 171.607 297.785 183.791V308.608C297.785 320.792 291.231 332.153 280.671 338.245L172.573 400.653C167.293 403.699 161.382 405.222 155.459 405.222ZM155.459 105.081C152.639 105.081 149.819 105.803 147.314 107.258L39.2157 169.667C34.1955 172.566 31.0705 177.981 31.0705 183.78V308.597C31.0705 314.396 34.1955 319.811 39.2157 322.71L147.314 385.119C152.334 388.018 158.584 388.018 163.616 385.119L271.714 322.71C276.746 319.811 279.859 314.396 279.859 308.597V183.78C279.859 177.981 276.734 172.566 271.714 169.667L163.616 107.258C161.1 105.803 158.28 105.081 155.47 105.081H155.459Z" fill="#F9F9F9"/>
<g style="mix-blend-mode:screen" opacity="0.3">
<path d="M272.267 168.696L164.169 106.288C161.529 104.765 158.517 103.964 155.459 103.964C152.402 103.964 149.39 104.765 146.75 106.288L38.6517 168.696C33.2817 171.799 29.9424 177.586 29.9424 183.791V308.608C29.9424 314.813 33.2817 320.589 38.6517 323.703L146.75 386.111C149.39 387.634 152.402 388.435 155.459 388.435C158.517 388.435 161.529 387.634 164.169 386.111L272.267 323.703C277.637 320.6 280.976 314.824 280.976 308.608V183.791C280.976 177.586 277.637 171.799 272.267 168.696ZM279.848 308.608C279.848 314.407 276.723 319.822 271.703 322.721L163.604 385.13C158.573 388.029 152.334 388.029 147.303 385.13L39.2045 322.721C34.1729 319.822 31.0593 314.407 31.0593 308.608V183.791C31.0593 177.992 34.1842 172.577 39.2045 169.678L147.303 107.269C149.819 105.814 152.628 105.092 155.448 105.092C158.268 105.092 161.077 105.814 163.593 107.269L271.691 169.678C276.723 172.577 279.837 177.992 279.837 183.791V308.608H279.848ZM280.66 154.155L172.562 91.746C162.002 85.654 148.893 85.654 138.334 91.746L30.2357 154.155C19.6763 160.247 13.1219 171.607 13.1219 183.791V308.608C13.1219 320.792 19.6763 332.153 30.2357 338.245L138.334 400.653C143.614 403.699 149.525 405.222 155.448 405.222C161.371 405.222 167.282 403.699 172.562 400.653L280.66 338.245C291.22 332.153 297.774 320.792 297.774 308.608V183.791C297.774 171.607 291.22 160.247 280.66 154.155ZM296.646 308.608C296.646 320.397 290.306 331.385 280.096 337.274L171.998 399.683C166.989 402.571 161.269 404.105 155.448 404.105C149.627 404.105 143.907 402.582 138.898 399.683L30.7998 337.274C20.5901 331.385 14.25 320.397 14.25 308.608V183.791C14.25 172.002 20.5901 161.025 30.7998 155.125L138.898 92.7162C143.907 89.8281 149.627 88.2939 155.448 88.2939C161.269 88.2939 166.989 89.8168 171.998 92.7162L280.096 155.125C290.306 161.014 296.646 172.002 296.646 183.791V308.608Z" fill="white"/>
</g>
</g>
<g filter="url(#filter5_d_419_1479)">
<path d="M42.8482 38.4751V110.902C42.8482 116.136 45.646 120.976 50.1811 123.593L112.906 159.807C117.441 162.424 123.025 162.424 127.56 159.807L190.285 123.593C194.82 120.976 197.618 116.136 197.618 110.902V38.4751C197.618 33.2405 194.82 28.4008 190.285 25.7835L127.56 -10.4297C123.025 -13.047 117.441 -13.047 112.906 -10.4297L50.1811 25.7835C45.646 28.4008 42.8482 33.2405 42.8482 38.4751Z" fill="#F9F9F9"/>
<path d="M190.285 25.7723L127.56 -10.441C123.025 -13.0583 117.441 -13.0583 112.906 -10.441L50.181 25.7723C45.6459 28.3896 42.8481 33.2293 42.8481 38.4639V110.89C42.8481 116.125 45.6459 120.965 50.181 123.582L112.906 159.795C117.441 162.413 123.025 162.413 127.56 159.795L190.285 123.582C194.82 120.965 197.618 116.125 197.618 110.89V38.4639C197.618 33.2293 194.82 28.3896 190.285 25.7723ZM196.489 110.902C196.489 115.719 193.895 120.209 189.721 122.623L126.996 158.836C124.943 160.021 122.608 160.653 120.227 160.653C117.847 160.653 115.512 160.021 113.458 158.836L50.7338 122.623C46.5597 120.209 43.965 115.719 43.965 110.902V38.4752C43.965 33.658 46.5597 29.1681 50.7338 26.7538L113.458 -9.45949C115.512 -10.644 117.847 -11.2758 120.227 -11.2758C122.608 -11.2758 124.943 -10.644 126.996 -9.45949L189.721 26.7538C193.895 29.1681 196.489 33.658 196.489 38.4752V110.902Z" fill="white"/>
</g>
<g filter="url(#filter6_d_419_1479)">
<path d="M322.909 94.8821V142.738C322.909 146.201 324.759 149.394 327.748 151.12L369.185 175.048C372.186 176.774 375.875 176.774 378.864 175.048L420.301 151.12C423.302 149.394 425.141 146.19 425.141 142.738V94.8821C425.141 91.4187 423.291 88.2261 420.301 86.5001L378.864 62.5723C375.864 60.8462 372.175 60.8462 369.185 62.5723L327.748 86.5001C324.748 88.2261 322.909 91.43 322.909 94.8821Z" fill="#F9F9F9"/>
<path d="M420.312 86.4887L378.876 62.5609C375.875 60.8348 372.186 60.8348 369.196 62.5609L327.76 86.4887C324.759 88.2148 322.92 91.4187 322.92 94.8708V142.727C322.92 146.19 324.77 149.383 327.76 151.109L369.196 175.036C372.197 176.762 375.886 176.762 378.876 175.036L420.312 151.109C423.313 149.383 425.152 146.179 425.152 142.727V94.8708C425.152 91.4074 423.302 88.2148 420.312 86.4887ZM424.024 142.727C424.024 145.772 422.388 148.615 419.748 150.138L378.312 174.066C377.014 174.822 375.536 175.217 374.036 175.217C372.536 175.217 371.058 174.822 369.76 174.066L328.324 150.138C325.684 148.615 324.048 145.772 324.048 142.727V94.8708C324.048 91.8248 325.684 88.9819 328.324 87.459L369.76 63.5311C371.058 62.7865 372.536 62.3804 374.036 62.3804C375.536 62.3804 377.014 62.7752 378.312 63.5311L419.748 87.459C422.388 88.9819 424.024 91.8248 424.024 94.8708V142.727Z" fill="white"/>
</g>
<g filter="url(#filter7_d_419_1479)">
<path d="M352.726 8.7827V33.5905C352.726 35.3843 353.685 37.0426 355.242 37.9339L376.721 50.3321C378.278 51.2233 380.185 51.2233 381.742 50.3321L403.221 37.9339C404.778 37.0313 405.737 35.3843 405.737 33.5905V8.7827C405.737 6.98896 404.778 5.33062 403.221 4.43939L381.742 -7.95886C380.185 -8.86137 378.278 -8.86137 376.721 -7.95886L355.242 4.43939C353.685 5.33062 352.726 6.98896 352.726 8.7827Z" fill="#F9F9F9"/>
<path d="M403.221 4.43933L381.742 -7.97021C380.185 -8.87272 378.278 -8.87272 376.721 -7.97021L355.242 4.43933C353.685 5.33056 352.726 6.9889 352.726 8.78264V33.5905C352.726 35.3842 353.685 37.0426 355.242 37.9338L376.721 50.3321C378.278 51.2346 380.185 51.2346 381.742 50.3321L403.221 37.9338C404.778 37.0313 405.737 35.3842 405.737 33.5905V8.78264C405.737 6.9889 404.778 5.33056 403.221 4.43933ZM404.609 33.5905C404.609 34.9781 403.864 36.2642 402.657 36.9636L381.177 49.3732C380.591 49.7116 379.914 49.8921 379.226 49.8921C378.538 49.8921 377.872 49.7116 377.274 49.3732L355.794 36.9636C354.599 36.2755 353.843 34.9781 353.843 33.5905V8.78264C353.843 7.39503 354.587 6.10896 355.794 5.40951L377.274 -7.00003C377.861 -7.33847 378.538 -7.51893 379.226 -7.51893C379.914 -7.51893 380.58 -7.33847 381.177 -7.00003L402.657 5.40951C403.853 6.09768 404.609 7.39503 404.609 8.78264V33.5905Z" fill="white"/>
</g>
<g filter="url(#filter8_d_419_1479)">
<path d="M1312.67 326.653C1306.75 326.653 1300.84 325.13 1295.56 322.084L1187.46 259.675C1176.9 253.583 1170.35 242.223 1170.35 230.039V105.222C1170.35 93.0377 1176.9 81.6773 1187.46 75.5853L1295.56 13.1766C1306.12 7.08468 1319.23 7.08468 1329.79 13.1766L1437.89 75.5853C1448.45 81.6773 1455 93.0377 1455 105.222V230.039C1455 242.223 1448.45 253.583 1437.89 259.675L1329.79 322.084C1324.51 325.13 1318.6 326.653 1312.67 326.653ZM1312.67 26.5113C1309.85 26.5113 1307.03 27.2333 1304.53 28.6886L1196.43 91.0973C1191.41 93.9966 1188.29 99.4116 1188.29 105.21V230.028C1188.29 235.826 1191.41 241.241 1196.43 244.141L1304.53 306.549C1309.55 309.449 1315.8 309.449 1320.83 306.549L1428.93 244.141C1433.96 241.241 1437.07 235.826 1437.07 230.028V105.21C1437.07 99.4116 1433.95 93.9966 1428.93 91.0973L1320.83 28.6886C1318.31 27.2333 1315.49 26.5113 1312.69 26.5113H1312.67Z" fill="#F9F9F9"/>
<g style="mix-blend-mode:screen" opacity="0.3">
<path d="M1429.48 90.1269L1321.38 27.7182C1318.74 26.1953 1315.73 25.3943 1312.67 25.3943C1309.62 25.3943 1306.6 26.1953 1303.96 27.7182L1195.87 90.1269C1190.5 93.2293 1187.16 99.0167 1187.16 105.221V230.039C1187.16 236.244 1190.5 242.02 1195.87 245.133L1303.96 307.542C1306.6 309.065 1309.62 309.866 1312.67 309.866C1315.73 309.866 1318.74 309.065 1321.38 307.542L1429.48 245.133C1434.85 242.031 1438.19 236.255 1438.19 230.039V105.221C1438.19 99.0167 1434.85 93.2293 1429.48 90.1269ZM1437.06 230.039C1437.06 235.837 1433.94 241.253 1428.92 244.152L1320.82 306.561C1315.79 309.46 1309.55 309.46 1304.52 306.561L1196.42 244.152C1191.39 241.253 1188.27 235.837 1188.27 230.039V105.221C1188.27 99.4228 1191.4 94.0077 1196.42 91.1084L1304.52 28.6997C1307.03 27.2444 1309.84 26.5224 1312.66 26.5224C1315.48 26.5224 1318.29 27.2444 1320.81 28.6997L1428.91 91.1084C1433.94 94.0077 1437.05 99.4228 1437.05 105.221V230.039H1437.06ZM1437.88 75.5852L1329.78 13.1765C1319.22 7.08456 1306.11 7.08456 1295.55 13.1765L1187.45 75.5852C1176.89 81.6772 1170.34 93.0375 1170.34 105.221V230.039C1170.34 242.223 1176.89 253.583 1187.45 259.675L1295.55 322.084C1300.83 325.13 1306.74 326.653 1312.66 326.653C1318.59 326.653 1324.5 325.13 1329.78 322.084L1437.88 259.675C1448.43 253.583 1454.99 242.223 1454.99 230.039V105.221C1454.99 93.0375 1448.43 81.6772 1437.88 75.5852ZM1453.86 230.039C1453.86 241.828 1447.52 252.816 1437.31 258.705L1329.21 321.114C1324.2 324.002 1318.48 325.536 1312.66 325.536C1306.84 325.536 1301.12 324.013 1296.11 321.114L1188.01 258.705C1177.81 252.816 1171.46 241.828 1171.46 230.039V105.221C1171.46 93.4324 1177.81 82.4556 1188.01 76.5554L1296.11 14.1467C1301.12 11.2587 1306.84 9.72441 1312.66 9.72441C1318.48 9.72441 1324.2 11.2474 1329.21 14.1467L1437.31 76.5554C1447.52 82.4443 1453.86 93.4324 1453.86 105.221V230.039Z" fill="white"/>
</g>
</g>
<g filter="url(#filter9_d_419_1479)">
<path d="M1041.38 79.8384C1035.46 79.8384 1029.54 78.3154 1024.27 75.2694L916.167 12.8607C905.607 6.76878 899.053 -4.59157 899.053 -16.7755V-141.593C899.053 -153.777 905.607 -165.137 916.167 -171.229L1024.27 -233.638C1034.82 -239.73 1047.93 -239.73 1058.49 -233.638L1166.59 -171.229C1177.15 -165.137 1183.7 -153.777 1183.7 -141.593V-16.7755C1183.7 -4.59157 1177.15 6.76878 1166.59 12.8607L1058.49 75.2694C1053.21 78.3154 1047.3 79.8384 1041.38 79.8384ZM1041.38 -220.303C1038.56 -220.303 1035.74 -219.581 1033.23 -218.126L925.135 -155.717C920.115 -152.818 916.99 -147.403 916.99 -141.604V-16.7868C916.99 -10.9881 920.115 -5.57306 925.135 -2.67374L1033.23 59.7349C1038.25 62.6342 1044.5 62.6342 1049.54 59.7349L1157.63 -2.67374C1162.67 -5.57306 1165.78 -10.9881 1165.78 -16.7868V-141.604C1165.78 -147.403 1162.65 -152.818 1157.63 -155.717L1049.54 -218.126C1047.02 -219.581 1044.2 -220.303 1041.39 -220.303H1041.38Z" fill="#F9F9F9"/>
<g style="mix-blend-mode:screen" opacity="0.3">
<path d="M1158.19 -156.687L1050.09 -219.096C1047.45 -220.619 1044.44 -221.42 1041.38 -221.42C1038.32 -221.42 1035.31 -220.619 1032.67 -219.096L924.572 -156.687C919.202 -153.585 915.862 -147.798 915.862 -141.593V-16.7755C915.862 -10.5707 919.202 -4.79466 924.572 -1.681L1032.67 60.7277C1035.31 62.2507 1038.32 63.0517 1041.38 63.0517C1044.44 63.0517 1047.45 62.2507 1050.09 60.7277L1158.19 -1.681C1163.56 -4.78339 1166.9 -10.5594 1166.9 -16.7755V-141.593C1166.9 -147.798 1163.56 -153.585 1158.19 -156.687ZM1165.77 -16.7755C1165.77 -10.9768 1162.64 -5.5618 1157.62 -2.66248L1049.52 59.7462C1044.49 62.6455 1038.25 62.6455 1033.22 59.7462L925.124 -2.66248C920.093 -5.5618 916.979 -10.9768 916.979 -16.7755V-141.593C916.979 -147.392 920.104 -152.807 925.124 -155.706L1033.22 -218.115C1035.74 -219.57 1038.55 -220.292 1041.37 -220.292C1044.19 -220.292 1047 -219.57 1049.51 -218.115L1157.61 -155.706C1162.64 -152.807 1165.76 -147.392 1165.76 -141.593V-16.7755H1165.77ZM1166.58 -171.229L1058.48 -233.638C1047.92 -239.73 1034.81 -239.73 1024.25 -233.638L916.156 -171.229C905.596 -165.137 899.042 -153.777 899.042 -141.593V-16.7755C899.042 -4.59157 905.596 6.76878 916.156 12.8607L1024.25 75.2694C1029.53 78.3154 1035.45 79.8384 1041.37 79.8384C1047.29 79.8384 1053.2 78.3154 1058.48 75.2694L1166.58 12.8607C1177.14 6.76878 1183.69 -4.59157 1183.69 -16.7755V-141.593C1183.69 -153.777 1177.14 -165.137 1166.58 -171.229ZM1182.57 -16.7755C1182.57 -4.98642 1176.23 6.00163 1166.02 11.8905L1057.92 74.2992C1052.91 77.1873 1047.19 78.7215 1041.37 78.7215C1035.55 78.7215 1029.83 77.1985 1024.82 74.2992L916.72 11.8905C906.51 6.00163 900.17 -4.98642 900.17 -16.7755V-141.593C900.17 -153.382 906.51 -164.359 916.72 -170.259L1024.82 -232.668C1029.83 -235.556 1035.55 -237.09 1041.37 -237.09C1047.19 -237.09 1052.91 -235.567 1057.92 -232.668L1166.02 -170.259C1176.23 -164.37 1182.57 -153.382 1182.57 -141.593V-16.7755Z" fill="white"/>
</g>
</g>
<g filter="url(#filter10_d_419_1479)">
<path d="M983.348 -61.0326V-13.1769C983.348 -9.71352 985.198 -6.5209 988.187 -4.79485L1029.62 19.133C1032.62 20.859 1036.31 20.859 1039.3 19.133L1080.74 -4.79485C1083.74 -6.5209 1085.58 -9.72481 1085.58 -13.1769V-61.0326C1085.58 -64.496 1083.73 -67.6886 1080.74 -69.4147L1039.3 -93.3425C1036.3 -95.0686 1032.61 -95.0686 1029.62 -93.3425L988.187 -69.4147C985.186 -67.6886 983.348 -64.4847 983.348 -61.0326Z" fill="#F9F9F9"/>
<path d="M1080.75 -69.4147L1039.31 -93.3425C1036.31 -95.0686 1032.62 -95.0686 1029.64 -93.3425L988.199 -69.4147C985.198 -67.6886 983.359 -64.4847 983.359 -61.0326V-13.1769C983.359 -9.71352 985.209 -6.5209 988.199 -4.79485L1029.64 19.133C1032.64 20.859 1036.33 20.859 1039.31 19.133L1080.75 -4.79485C1083.75 -6.5209 1085.59 -9.72481 1085.59 -13.1769V-61.0326C1085.59 -64.496 1083.74 -67.6886 1080.75 -69.4147ZM1084.46 -13.1769C1084.46 -10.1309 1082.83 -7.28805 1080.19 -5.76506L1038.75 18.1628C1037.45 18.9074 1035.98 19.3135 1034.47 19.3135C1032.97 19.3135 1031.5 18.9187 1030.2 18.1628L988.763 -5.76506C986.123 -7.28805 984.487 -10.1309 984.487 -13.1769V-61.0326C984.487 -64.0786 986.123 -66.9215 988.763 -68.4445L1030.2 -92.3723C1031.5 -93.1282 1032.97 -93.5231 1034.47 -93.5231C1035.98 -93.5231 1037.45 -93.1282 1038.75 -92.3723L1080.19 -68.4445C1082.83 -66.9215 1084.46 -64.0786 1084.46 -61.0326V-13.1769Z" fill="white"/>
</g>
<g filter="url(#filter11_d_419_1479)">
<path d="M827.664 5.68557V30.4934C827.664 32.2871 828.623 33.9455 830.18 34.8367L851.66 47.235C853.217 48.1262 855.123 48.1262 856.68 47.235L878.16 34.8367C879.717 33.9342 880.675 32.2871 880.675 30.4934V5.68557C880.675 3.89182 879.717 2.23349 878.16 1.34225L856.68 -11.056C855.123 -11.9585 853.217 -11.9585 851.66 -11.056L830.18 1.34225C828.623 2.23349 827.664 3.89182 827.664 5.68557Z" fill="#F9F9F9"/>
<path d="M878.16 1.33099L856.68 -11.0673C855.123 -11.9698 853.217 -11.9698 851.66 -11.0673L830.18 1.33099C828.623 2.22222 827.664 3.88059 827.664 5.67434V30.4821C827.664 32.2759 828.623 33.9342 830.18 34.8255L851.66 47.2237C853.217 48.1262 855.123 48.1262 856.68 47.2237L878.16 34.8255C879.717 33.923 880.675 32.2759 880.675 30.4821V5.67434C880.675 3.88059 879.717 2.22222 878.16 1.33099ZM879.547 30.4821C879.547 31.8697 878.803 33.1558 877.596 33.8552L856.116 46.2648C855.529 46.6032 854.852 46.7838 854.164 46.7838C853.476 46.7838 852.81 46.6032 852.213 46.2648L830.733 33.8552C829.537 33.1671 828.781 31.8697 828.781 30.4821V5.67434C828.781 4.28672 829.526 3.00062 830.733 2.30117L852.213 -10.1084C852.799 -10.4468 853.476 -10.6273 854.164 -10.6273C854.852 -10.6273 855.518 -10.4468 856.116 -10.1084L877.596 2.30117C878.791 2.98934 879.547 4.28672 879.547 5.67434V30.4821Z" fill="white"/>
</g>
<g filter="url(#filter12_d_419_1479)">
<path d="M1064.88 37.9731V110.4C1064.88 115.634 1067.68 120.474 1072.21 123.091L1134.94 159.304C1139.47 161.922 1145.06 161.922 1149.59 159.304L1212.31 123.091C1216.85 120.474 1219.65 115.634 1219.65 110.4V37.9731C1219.65 32.7385 1216.85 27.8988 1212.31 25.2815L1149.59 -10.9318C1145.06 -13.5491 1139.47 -13.5491 1134.94 -10.9318L1072.21 25.2815C1067.68 27.8988 1064.88 32.7385 1064.88 37.9731Z" fill="#E6E6E6"/>
<path d="M1212.33 25.2815L1149.6 -10.9318C1145.07 -13.5491 1139.48 -13.5491 1134.95 -10.9318L1072.22 25.2815C1067.69 27.8988 1064.89 32.7385 1064.89 37.9731V110.4C1064.89 115.634 1067.69 120.474 1072.22 123.091L1134.95 159.304C1139.48 161.922 1145.07 161.922 1149.6 159.304L1212.33 123.091C1216.86 120.474 1219.66 115.634 1219.66 110.4V37.9731C1219.66 32.7385 1216.86 27.8988 1212.33 25.2815ZM1218.53 110.411C1218.53 115.228 1215.94 119.718 1211.76 122.132L1149.04 158.346C1146.98 159.53 1144.65 160.162 1142.27 160.162C1139.89 160.162 1137.55 159.53 1135.5 158.346L1072.78 122.132C1068.6 119.718 1066.01 115.228 1066.01 110.411V37.9843C1066.01 33.1672 1068.6 28.6772 1072.78 26.263L1135.5 -9.95034C1137.55 -11.1349 1139.89 -11.7666 1142.27 -11.7666C1144.65 -11.7666 1146.98 -11.1349 1149.04 -9.95034L1211.76 26.263C1215.94 28.6772 1218.53 33.1672 1218.53 37.9843V110.411Z" fill="white"/>
</g>
<g filter="url(#filter13_d_419_1479)">
<path d="M1156.71 -39.0903V8.76534C1156.71 12.2287 1158.56 15.4214 1161.55 17.1474L1202.99 41.0753C1205.99 42.8013 1209.67 42.8013 1212.66 41.0753L1254.1 17.1474C1257.1 15.4214 1258.94 12.2174 1258.94 8.76534V-39.0903C1258.94 -42.5537 1257.09 -45.7464 1254.1 -47.4724L1212.66 -71.4003C1209.66 -73.1263 1205.97 -73.1263 1202.99 -71.4003L1161.55 -47.4724C1158.55 -45.7464 1156.71 -42.5424 1156.71 -39.0903Z" fill="#F9F9F9"/>
<path d="M1254.11 -47.4836L1212.68 -71.4115C1209.67 -73.1376 1205.99 -73.1376 1203 -71.4115L1161.56 -47.4836C1158.56 -45.7576 1156.72 -42.5537 1156.72 -39.1016V8.75411C1156.72 12.2175 1158.57 15.4102 1161.56 17.1362L1203 41.0641C1206 42.7901 1209.69 42.7901 1212.68 41.0641L1254.11 17.1362C1257.11 15.4102 1258.95 12.2062 1258.95 8.75411V-39.1016C1258.95 -42.565 1257.1 -45.7576 1254.11 -47.4836ZM1257.82 8.75411C1257.82 11.8001 1256.19 14.643 1253.55 16.166L1212.11 40.0938C1210.81 40.8497 1209.34 41.2446 1207.84 41.2446C1206.34 41.2446 1204.86 40.8497 1203.56 40.0938L1162.12 16.166C1159.48 14.643 1157.85 11.8001 1157.85 8.75411V-39.1016C1157.85 -42.1475 1159.48 -44.9905 1162.12 -46.5135L1203.56 -70.4413C1204.86 -71.1971 1206.34 -71.592 1207.84 -71.592C1209.34 -71.592 1210.81 -71.1971 1212.11 -70.4413L1253.55 -46.5135C1256.19 -44.9905 1257.82 -42.1475 1257.82 -39.1016V8.75411Z" fill="white"/>
</g>
<g filter="url(#filter14_d_419_1479)">
<path d="M895.838 27.7633V75.619C895.838 79.0824 897.688 82.275 900.677 84.001L942.114 107.929C945.115 109.655 948.804 109.655 951.793 107.929L993.23 84.001C996.231 82.275 998.07 79.0711 998.07 75.619V27.7633C998.07 24.2999 996.22 21.1072 993.23 19.3812L951.793 -4.54665C948.793 -6.2727 945.104 -6.2727 942.114 -4.54665L900.677 19.3812C897.677 21.1072 895.838 24.3112 895.838 27.7633Z" fill="#F9F9F9"/>
<path d="M993.241 19.3812L951.805 -4.54665C948.804 -6.2727 945.115 -6.2727 942.125 -4.54665L900.689 19.3812C897.688 21.1072 895.849 24.3112 895.849 27.7633V75.619C895.849 79.0824 897.699 82.275 900.689 84.001L942.125 107.929C945.126 109.655 948.815 109.655 951.805 107.929L993.241 84.001C996.242 82.275 998.081 79.0711 998.081 75.619V27.7633C998.081 24.2999 996.231 21.1072 993.241 19.3812ZM996.953 75.619C996.953 78.6649 995.317 81.5079 992.677 83.0309L951.241 106.959C949.943 107.703 948.465 108.109 946.965 108.109C945.465 108.109 943.987 107.715 942.689 106.959L901.253 83.0309C898.613 81.5079 896.977 78.6649 896.977 75.619V27.7633C896.977 24.7173 898.613 21.8744 901.253 20.3514L942.689 -3.57646C943.987 -4.32103 945.465 -4.72715 946.965 -4.72715C948.465 -4.72715 949.943 -4.33232 951.241 -3.57646L992.677 20.3514C995.317 21.8744 996.953 24.7173 996.953 27.7633V75.619Z" fill="white"/>
</g>
</g>
</g>
<defs>
<filter id="filter0_d_419_1479" x="-59.56" y="-214.11" width="304.664" height="338.045" filterUnits="userSpaceOnUse" color-interpolation-filters="sRGB">
<feFlood flood-opacity="0" result="BackgroundImageFix"/>
<feColorMatrix in="SourceAlpha" type="matrix" values="0 0 0 0 0 0 0 0 0 0 0 0 0 0 0 0 0 0 127 0" result="hardAlpha"/>
<feOffset dx="-4.56" dy="6"/>
<feGaussianBlur stdDeviation="5"/>
<feColorMatrix type="matrix" values="0 0 0 0 0.12549 0 0 0 0 0.117647 0 0 0 0 0.313726 0 0 0 0.2 0"/>
<feBlend mode="normal" in2="BackgroundImageFix" result="effect1_dropShadow_419_1479"/>
<feBlend mode="normal" in="SourceGraphic" in2="effect1_dropShadow_419_1479" result="shape"/>
</filter>
<filter id="filter1_d_419_1479" x="560.917" y="89.8894" width="174.769" height="194.162" filterUnits="userSpaceOnUse" color-interpolation-filters="sRGB">
<feFlood flood-opacity="0" result="BackgroundImageFix"/>
<feColorMatrix in="SourceAlpha" type="matrix" values="0 0 0 0 0 0 0 0 0 0 0 0 0 0 0 0 0 0 127 0" result="hardAlpha"/>
<feOffset dx="-4.56" dy="6"/>
<feGaussianBlur stdDeviation="5"/>
<feColorMatrix type="matrix" values="0 0 0 0 0.12549 0 0 0 0 0.117647 0 0 0 0 0.313726 0 0 0 0.2 0"/>
<feBlend mode="normal" in2="BackgroundImageFix" result="effect1_dropShadow_419_1479"/>
<feBlend mode="normal" in="SourceGraphic" in2="effect1_dropShadow_419_1479" result="shape"/>
</filter>
<filter id="filter2_d_419_1479" x="65.5587" y="-58.3707" width="416.715" height="460.763" filterUnits="userSpaceOnUse" color-interpolation-filters="sRGB">
<feFlood flood-opacity="0" result="BackgroundImageFix"/>
<feColorMatrix in="SourceAlpha" type="matrix" values="0 0 0 0 0 0 0 0 0 0 0 0 0 0 0 0 0 0 127 0" result="hardAlpha"/>
<feOffset dx="-10.23" dy="10.23"/>
<feGaussianBlur stdDeviation="16.37"/>
<feColorMatrix type="matrix" values="0 0 0 0 0.12549 0 0 0 0 0.117647 0 0 0 0 0.313726 0 0 0 0.4 0"/>
<feBlend mode="normal" in2="BackgroundImageFix" result="effect1_dropShadow_419_1479"/>
<feBlend mode="normal" in="SourceGraphic" in2="effect1_dropShadow_419_1479" result="shape"/>
</filter>
<filter id="filter3_d_419_1479" x="97.1692" y="41.8002" width="305.706" height="335.794" filterUnits="userSpaceOnUse" color-interpolation-filters="sRGB">
<feFlood flood-opacity="0" result="BackgroundImageFix"/>
<feColorMatrix in="SourceAlpha" type="matrix" values="0 0 0 0 0 0 0 0 0 0 0 0 0 0 0 0 0 0 127 0" result="hardAlpha"/>
<feOffset dx="-10.23" dy="20"/>
<feGaussianBlur stdDeviation="16.37"/>
<feColorMatrix type="matrix" values="0 0 0 0 0.12549 0 0 0 0 0.117647 0 0 0 0 0.313726 0 0 0 0.6 0"/>
<feBlend mode="normal" in2="BackgroundImageFix" result="effect1_dropShadow_419_1479"/>
<feBlend mode="normal" in="SourceGraphic" in2="effect1_dropShadow_419_1479" result="shape"/>
</filter>
<filter id="filter4_d_419_1479" x="-1.43814" y="83.177" width="304.663" height="338.045" filterUnits="userSpaceOnUse" color-interpolation-filters="sRGB">
<feFlood flood-opacity="0" result="BackgroundImageFix"/>
<feColorMatrix in="SourceAlpha" type="matrix" values="0 0 0 0 0 0 0 0 0 0 0 0 0 0 0 0 0 0 127 0" result="hardAlpha"/>
<feOffset dx="-4.56" dy="6"/>
<feGaussianBlur stdDeviation="5"/>
<feColorMatrix type="matrix" values="0 0 0 0 0.12549 0 0 0 0 0.117647 0 0 0 0 0.313726 0 0 0 0.2 0"/>
<feBlend mode="normal" in2="BackgroundImageFix" result="effect1_dropShadow_419_1479"/>
<feBlend mode="normal" in="SourceGraphic" in2="effect1_dropShadow_419_1479" result="shape"/>
</filter>
<filter id="filter5_d_419_1479" x="-0.121887" y="-34.9139" width="220.25" height="239.653" filterUnits="userSpaceOnUse" color-interpolation-filters="sRGB">
<feFlood flood-opacity="0" result="BackgroundImageFix"/>
<feColorMatrix in="SourceAlpha" type="matrix" values="0 0 0 0 0 0 0 0 0 0 0 0 0 0 0 0 0 0 127 0" result="hardAlpha"/>
<feOffset dx="-10.23" dy="10.23"/>
<feGaussianBlur stdDeviation="16.37"/>
<feColorMatrix type="matrix" values="0 0 0 0 0.12549 0 0 0 0 0.117647 0 0 0 0 0.313726 0 0 0 0.4 0"/>
<feBlend mode="normal" in2="BackgroundImageFix" result="effect1_dropShadow_419_1479"/>
<feBlend mode="normal" in="SourceGraphic" in2="effect1_dropShadow_419_1479" result="shape"/>
</filter>
<filter id="filter6_d_419_1479" x="308.349" y="57.2664" width="122.243" height="135.076" filterUnits="userSpaceOnUse" color-interpolation-filters="sRGB">
<feFlood flood-opacity="0" result="BackgroundImageFix"/>
<feColorMatrix in="SourceAlpha" type="matrix" values="0 0 0 0 0 0 0 0 0 0 0 0 0 0 0 0 0 0 127 0" result="hardAlpha"/>
<feOffset dx="-4.56" dy="6"/>
<feGaussianBlur stdDeviation="5"/>
<feColorMatrix type="matrix" values="0 0 0 0 0.12549 0 0 0 0 0.117647 0 0 0 0 0.313726 0 0 0 0.2 0"/>
<feBlend mode="normal" in2="BackgroundImageFix" result="effect1_dropShadow_419_1479"/>
<feBlend mode="normal" in="SourceGraphic" in2="effect1_dropShadow_419_1479" result="shape"/>
</filter>
<filter id="filter7_d_419_1479" x="344.726" y="-12.6471" width="65.0113" height="71.656" filterUnits="userSpaceOnUse" color-interpolation-filters="sRGB">
<feFlood flood-opacity="0" result="BackgroundImageFix"/>
<feColorMatrix in="SourceAlpha" type="matrix" values="0 0 0 0 0 0 0 0 0 0 0 0 0 0 0 0 0 0 127 0" result="hardAlpha"/>
<feOffset dx="-2" dy="2"/>
<feGaussianBlur stdDeviation="3"/>
<feColorMatrix type="matrix" values="0 0 0 0 0.12549 0 0 0 0 0.117647 0 0 0 0 0.313726 0 0 0 0.1 0"/>
<feBlend mode="normal" in2="BackgroundImageFix" result="effect1_dropShadow_419_1479"/>
<feBlend mode="normal" in="SourceGraphic" in2="effect1_dropShadow_419_1479" result="shape"/>
</filter>
<filter id="filter8_d_419_1479" x="1155.78" y="4.60754" width="304.663" height="338.045" filterUnits="userSpaceOnUse" color-interpolation-filters="sRGB">
<feFlood flood-opacity="0" result="BackgroundImageFix"/>
<feColorMatrix in="SourceAlpha" type="matrix" values="0 0 0 0 0 0 0 0 0 0 0 0 0 0 0 0 0 0 127 0" result="hardAlpha"/>
<feOffset dx="-4.56" dy="6"/>
<feGaussianBlur stdDeviation="5"/>
<feColorMatrix type="matrix" values="0 0 0 0 0.12549 0 0 0 0 0.117647 0 0 0 0 0.313726 0 0 0 0.2 0"/>
<feBlend mode="normal" in2="BackgroundImageFix" result="effect1_dropShadow_419_1479"/>
<feBlend mode="normal" in="SourceGraphic" in2="effect1_dropShadow_419_1479" result="shape"/>
</filter>
<filter id="filter9_d_419_1479" x="884.482" y="-242.207" width="304.663" height="338.045" filterUnits="userSpaceOnUse" color-interpolation-filters="sRGB">
<feFlood flood-opacity="0" result="BackgroundImageFix"/>
<feColorMatrix in="SourceAlpha" type="matrix" values="0 0 0 0 0 0 0 0 0 0 0 0 0 0 0 0 0 0 127 0" result="hardAlpha"/>
<feOffset dx="-4.56" dy="6"/>
<feGaussianBlur stdDeviation="5"/>
<feColorMatrix type="matrix" values="0 0 0 0 0.12549 0 0 0 0 0.117647 0 0 0 0 0.313726 0 0 0 0.2 0"/>
<feBlend mode="normal" in2="BackgroundImageFix" result="effect1_dropShadow_419_1479"/>
<feBlend mode="normal" in="SourceGraphic" in2="effect1_dropShadow_419_1479" result="shape"/>
</filter>
<filter id="filter10_d_419_1479" x="968.788" y="-98.6371" width="122.243" height="135.065" filterUnits="userSpaceOnUse" color-interpolation-filters="sRGB">
<feFlood flood-opacity="0" result="BackgroundImageFix"/>
<feColorMatrix in="SourceAlpha" type="matrix" values="0 0 0 0 0 0 0 0 0 0 0 0 0 0 0 0 0 0 127 0" result="hardAlpha"/>
<feOffset dx="-4.56" dy="6"/>
<feGaussianBlur stdDeviation="5"/>
<feColorMatrix type="matrix" values="0 0 0 0 0.12549 0 0 0 0 0.117647 0 0 0 0 0.313726 0 0 0 0.2 0"/>
<feBlend mode="normal" in2="BackgroundImageFix" result="effect1_dropShadow_419_1479"/>
<feBlend mode="normal" in="SourceGraphic" in2="effect1_dropShadow_419_1479" result="shape"/>
</filter>
<filter id="filter11_d_419_1479" x="819.664" y="-15.7441" width="65.0112" height="71.6476" filterUnits="userSpaceOnUse" color-interpolation-filters="sRGB">
<feFlood flood-opacity="0" result="BackgroundImageFix"/>
<feColorMatrix in="SourceAlpha" type="matrix" values="0 0 0 0 0 0 0 0 0 0 0 0 0 0 0 0 0 0 127 0" result="hardAlpha"/>
<feOffset dx="-2" dy="2"/>
<feGaussianBlur stdDeviation="3"/>
<feColorMatrix type="matrix" values="0 0 0 0 0.12549 0 0 0 0 0.117647 0 0 0 0 0.313726 0 0 0 0.1 0"/>
<feBlend mode="normal" in2="BackgroundImageFix" result="effect1_dropShadow_419_1479"/>
<feBlend mode="normal" in="SourceGraphic" in2="effect1_dropShadow_419_1479" result="shape"/>
</filter>
<filter id="filter12_d_419_1479" x="1050.32" y="-16.8948" width="174.781" height="194.162" filterUnits="userSpaceOnUse" color-interpolation-filters="sRGB">
<feFlood flood-opacity="0" result="BackgroundImageFix"/>
<feColorMatrix in="SourceAlpha" type="matrix" values="0 0 0 0 0 0 0 0 0 0 0 0 0 0 0 0 0 0 127 0" result="hardAlpha"/>
<feOffset dx="-4.56" dy="6"/>
<feGaussianBlur stdDeviation="5"/>
<feColorMatrix type="matrix" values="0 0 0 0 0.12549 0 0 0 0 0.117647 0 0 0 0 0.313726 0 0 0 0.2 0"/>
<feBlend mode="normal" in2="BackgroundImageFix" result="effect1_dropShadow_419_1479"/>
<feBlend mode="normal" in="SourceGraphic" in2="effect1_dropShadow_419_1479" result="shape"/>
</filter>
<filter id="filter13_d_419_1479" x="1142.15" y="-76.7061" width="122.243" height="135.076" filterUnits="userSpaceOnUse" color-interpolation-filters="sRGB">
<feFlood flood-opacity="0" result="BackgroundImageFix"/>
<feColorMatrix in="SourceAlpha" type="matrix" values="0 0 0 0 0 0 0 0 0 0 0 0 0 0 0 0 0 0 127 0" result="hardAlpha"/>
<feOffset dx="-4.56" dy="6"/>
<feGaussianBlur stdDeviation="5"/>
<feColorMatrix type="matrix" values="0 0 0 0 0.12549 0 0 0 0 0.117647 0 0 0 0 0.313726 0 0 0 0.2 0"/>
<feBlend mode="normal" in2="BackgroundImageFix" result="effect1_dropShadow_419_1479"/>
<feBlend mode="normal" in="SourceGraphic" in2="effect1_dropShadow_419_1479" result="shape"/>
</filter>
<filter id="filter14_d_419_1479" x="881.278" y="-9.84119" width="122.243" height="135.065" filterUnits="userSpaceOnUse" color-interpolation-filters="sRGB">
<feFlood flood-opacity="0" result="BackgroundImageFix"/>
<feColorMatrix in="SourceAlpha" type="matrix" values="0 0 0 0 0 0 0 0 0 0 0 0 0 0 0 0 0 0 127 0" result="hardAlpha"/>
<feOffset dx="-4.56" dy="6"/>
<feGaussianBlur stdDeviation="5"/>
<feColorMatrix type="matrix" values="0 0 0 0 0.12549 0 0 0 0 0.117647 0 0 0 0 0.313726 0 0 0 0.2 0"/>
<feBlend mode="normal" in2="BackgroundImageFix" result="effect1_dropShadow_419_1479"/>
<feBlend mode="normal" in="SourceGraphic" in2="effect1_dropShadow_419_1479" result="shape"/>
</filter>
<linearGradient id="paint0_linear_419_1479" x1="987" y1="-379.5" x2="1195" y2="118.5" gradientUnits="userSpaceOnUse">
<stop stop-color="#FCEE21"/>
<stop offset="1" stop-color="#FFC700"/>
</linearGradient>
<clipPath id="clip0_419_1479">
<rect width="1410" height="105" fill="white" transform="translate(0 0.5)"/>
</clipPath>
</defs>
</svg>
