<svg width="341" height="105" viewBox="0 0 341 105" fill="none" xmlns="http://www.w3.org/2000/svg">
<g clip-path="url(#clip0_486_2782)">
<g clip-path="url(#clip1_486_2782)">
<rect width="340" height="105" transform="translate(0.5)" fill="url(#paint0_linear_486_2782)"/>
<g style="mix-blend-mode:color-burn">
<g filter="url(#filter0_d_486_2782)">
<path d="M-43.1883 71.8181C-45.2711 71.8181 -47.3499 71.2826 -49.2065 70.2114L-87.22 48.265C-90.9332 46.1227 -93.2382 42.1278 -93.2382 37.8432V-6.04953C-93.2382 -10.3341 -90.9332 -14.329 -87.22 -16.4713L-49.2065 -38.4177C-45.4932 -40.56 -40.8834 -40.56 -37.1701 -38.4177L0.843338 -16.4713C4.55662 -14.329 6.86155 -10.3341 6.86155 -6.04953V37.8432C6.86155 42.1278 4.55662 46.1227 0.843338 48.265L-37.1701 70.2114C-39.0267 71.2826 -41.1055 71.8181 -43.1883 71.8181ZM-43.1883 -33.7285C-44.1801 -33.7285 -45.1719 -33.4746 -46.0526 -32.9628L-84.0661 -11.0164C-85.8314 -9.99688 -86.9304 -8.09263 -86.9304 -6.0535V37.8393C-86.9304 39.8784 -85.8314 41.7826 -84.0661 42.8022L-46.0526 64.7486C-44.2872 65.7682 -42.0894 65.7682 -40.32 64.7486L-2.30659 42.8022C-0.537239 41.7826 0.557701 39.8784 0.557701 37.8393V-6.0535C0.557701 -8.09263 -0.541206 -9.99688 -2.30659 -11.0164L-40.32 -32.9628C-41.2047 -33.4746 -42.1965 -33.7285 -43.1843 -33.7285H-43.1883Z" fill="#F9F9F9"/>
<g style="mix-blend-mode:screen" opacity="0.3">
<path d="M-2.11217 -11.3576L-40.1256 -33.304C-41.0539 -33.8396 -42.1132 -34.1213 -43.1883 -34.1213C-44.2634 -34.1213 -45.3226 -33.8396 -46.2509 -33.304L-84.2644 -11.3576C-86.1528 -10.2666 -87.327 -8.23148 -87.327 -6.04953V37.8432C-87.327 40.0252 -86.1528 42.0564 -84.2644 43.1513L-46.2509 65.0977C-45.3226 65.6333 -44.2634 65.915 -43.1883 65.915C-42.1132 65.915 -41.0539 65.6333 -40.1256 65.0977L-2.11217 43.1513C-0.223793 42.0604 0.950485 40.0292 0.950485 37.8432V-6.04953C0.950485 -8.23148 -0.223793 -10.2666 -2.11217 -11.3576ZM0.553764 37.8432C0.553764 39.8824 -0.545135 41.7866 -2.31052 42.8062L-40.324 64.7526C-42.0933 65.7721 -44.2872 65.7721 -46.0565 64.7526L-84.07 42.8062C-85.8394 41.7866 -86.9343 39.8824 -86.9343 37.8432V-6.04953C-86.9343 -8.08866 -85.8354 -9.99291 -84.07 -11.0125L-46.0565 -32.9589C-45.1719 -33.4706 -44.184 -33.7245 -43.1922 -33.7245C-42.2005 -33.7245 -41.2126 -33.4706 -40.3279 -32.9589L-2.3145 -11.0125C-0.545135 -9.99291 0.549812 -8.08866 0.549812 -6.04953V37.8432H0.553764ZM0.839401 -16.4713L-37.174 -38.4177C-40.8873 -40.56 -45.4972 -40.56 -49.2104 -38.4177L-87.2239 -16.4713C-90.9372 -14.329 -93.2421 -10.3341 -93.2421 -6.04953V37.8432C-93.2421 42.1278 -90.9372 46.1227 -87.2239 48.265L-49.2104 70.2114C-47.3538 71.2826 -45.275 71.8181 -43.1922 71.8181C-41.1095 71.8181 -39.0307 71.2826 -37.174 70.2114L0.839401 48.265C4.55268 46.1227 6.85761 42.1278 6.85761 37.8432V-6.04953C6.85761 -10.3341 4.55268 -14.329 0.839401 -16.4713ZM6.46089 37.8432C6.46089 41.9889 4.23134 45.853 0.641045 47.9238L-37.3724 69.8702C-39.1338 70.8858 -41.1452 71.4254 -43.1922 71.4254C-45.2393 71.4254 -47.2507 70.8898 -49.0121 69.8702L-87.0255 47.9238C-90.6158 45.853 -92.8454 41.9889 -92.8454 37.8432V-6.04953C-92.8454 -10.1952 -90.6158 -14.0553 -87.0255 -16.1301L-49.0121 -38.0765C-47.2507 -39.0921 -45.2393 -39.6317 -43.1922 -39.6317C-41.1452 -39.6317 -39.1338 -39.0961 -37.3724 -38.0765L0.641045 -16.1301C4.23134 -14.0593 6.46089 -10.1952 6.46089 -6.04953V37.8432Z" fill="white"/>
</g>
</g>
<g filter="url(#filter1_d_486_2782)">
<path d="M124.952 84.767V110.236C124.952 112.077 125.936 113.779 127.531 114.699L149.589 127.434C151.183 128.354 153.147 128.354 154.742 127.434L176.799 114.699C178.394 113.779 179.378 112.077 179.378 110.236V84.767C179.378 82.9262 178.394 81.2243 176.799 80.3039L154.742 67.5693C153.147 66.6489 151.183 66.6489 149.589 67.5693L127.531 80.3039C125.936 81.2243 124.952 82.9262 124.952 84.767Z" fill="white"/>
<path d="M176.799 80.3039L154.742 67.5693C153.147 66.6489 151.183 66.6489 149.589 67.5693L127.531 80.3039C125.936 81.2243 124.952 82.9262 124.952 84.767V110.236C124.952 112.077 125.936 113.779 127.531 114.699L149.589 127.434C151.183 128.354 153.147 128.354 154.742 127.434L176.799 114.699C178.394 113.779 179.378 112.077 179.378 110.236V84.767C179.378 82.9262 178.394 81.2243 176.799 80.3039ZM178.981 110.24C178.981 111.934 178.069 113.513 176.601 114.362L154.544 127.097C153.821 127.513 153 127.735 152.163 127.735C151.326 127.735 150.505 127.513 149.783 127.097L127.725 114.362C126.258 113.513 125.345 111.934 125.345 110.24V84.771C125.345 83.077 126.258 81.4981 127.725 80.6491L149.783 67.9145C150.505 67.4979 151.326 67.2757 152.163 67.2757C153 67.2757 153.821 67.4979 154.544 67.9145L176.601 80.6491C178.069 81.4981 178.981 83.077 178.981 84.771V110.24Z" fill="white"/>
</g>
<g filter="url(#filter2_d_486_2782)">
</g>
<g filter="url(#filter3_d_486_2782)">
<path d="M-39.2528 61.8526V119.654C-39.2528 123.836 -37.0232 127.696 -33.4052 129.787L16.6526 158.687C20.2707 160.778 24.7298 160.778 28.3518 158.687L78.4096 129.787C82.0276 127.696 84.2572 123.836 84.2572 119.654V61.8526C84.2572 57.6712 82.0276 53.8112 78.4096 51.7205L28.3518 22.8196C24.7337 20.7289 20.2746 20.7289 16.6526 22.8196L-33.4052 51.7205C-37.0232 53.8112 -39.2528 57.6712 -39.2528 61.8526Z" fill="#F3F3F3"/>
<path d="M78.4135 51.7205L28.3557 22.8196C24.7377 20.7289 20.2786 20.7289 16.6565 22.8196L-33.4012 51.7205C-37.0193 53.8112 -39.2489 57.6712 -39.2489 61.8526V119.654C-39.2489 123.836 -37.0193 127.696 -33.4012 129.787L16.6565 158.687C20.2746 160.778 24.7337 160.778 28.3557 158.687L78.4135 129.787C82.0316 127.696 84.2611 123.836 84.2611 119.654V61.8526C84.2611 57.6712 82.0316 53.8112 78.4135 51.7205ZM83.6819 119.654C83.6819 123.614 81.5516 127.303 78.1239 129.283L28.0661 158.184C26.3801 159.159 24.456 159.675 22.5081 159.675C20.5602 159.675 18.6362 159.159 16.9501 158.184L-33.1077 129.283C-36.5353 127.303 -38.6657 123.614 -38.6657 119.654V61.8526C-38.6657 57.8934 -36.5353 54.2039 -33.1077 52.2243L16.9501 23.3235C18.6362 22.3475 20.5602 21.8318 22.5081 21.8318C24.456 21.8318 26.3801 22.3475 28.0661 23.3235L78.1239 52.2243C81.5516 54.2039 83.6819 57.8934 83.6819 61.8526V119.654Z" fill="white"/>
</g>
<g filter="url(#filter4_d_486_2782)">
<path d="M-10.11 -9.5247V7.30405C-10.11 8.52197 -9.45937 9.64468 -8.40807 10.2517L6.16336 18.666C7.21863 19.273 8.51589 19.273 9.56719 18.666L24.1386 10.2517C25.1939 9.64468 25.8405 8.518 25.8405 7.30405V-9.5247C25.8405 -10.7426 25.1899 -11.8653 24.1386 -12.4723L9.56719 -20.8867C8.51192 -21.4937 7.21466 -21.4937 6.16336 -20.8867L-8.40807 -12.4723C-9.46334 -11.8653 -10.11 -10.7387 -10.11 -9.5247Z" fill="#F9F9F9"/>
<path d="M24.1464 -12.4722L9.57499 -20.8866C8.51972 -21.4935 7.22245 -21.4935 6.17115 -20.8866L-8.40027 -12.4722C-9.45554 -11.8652 -10.1022 -10.7385 -10.1022 -9.52457V7.30417C-10.1022 8.52209 -9.45157 9.6448 -8.40027 10.2518L6.17115 18.6662C7.22642 19.2731 8.52369 19.2731 9.57499 18.6662L24.1464 10.2518C25.2017 9.6448 25.8483 8.51812 25.8483 7.30417V-9.52457C25.8483 -10.7425 25.1977 -11.8652 24.1464 -12.4722ZM25.4516 7.30417C25.4516 8.37531 24.8764 9.37504 23.9481 9.9106L9.37663 18.325C8.92041 18.5908 8.40071 18.7296 7.87307 18.7296C7.34544 18.7296 6.82574 18.5908 6.36951 18.325L-8.20191 9.9106C-9.13023 9.37504 -9.70547 8.37531 -9.70547 7.30417V-9.52457C-9.70547 -10.5957 -9.13023 -11.5954 -8.20191 -12.131L6.36951 -20.5454C6.82574 -20.8112 7.34544 -20.95 7.87307 -20.95C8.40071 -20.95 8.92041 -20.8112 9.37663 -20.5454L23.9481 -12.131C24.8764 -11.5954 25.4516 -10.5957 25.4516 -9.52457V7.30417Z" fill="white"/>
</g>
<g filter="url(#filter5_d_486_2782)">
<path d="M-28.1329 80.8038V120.333C-28.1329 123.189 -26.6095 125.831 -24.134 127.259L10.1027 147.024C12.5782 148.452 15.629 148.452 18.1045 147.024L52.3412 127.259C54.8167 125.831 56.3401 123.189 56.3401 120.333V80.8038C56.3401 77.9474 54.8167 75.3053 52.3412 73.8771L18.1045 54.1126C15.629 52.6845 12.5782 52.6845 10.1027 54.1126L-24.134 73.8771C-26.6095 75.3053 -28.1329 77.9474 -28.1329 80.8038Z" fill="#F9F9F9"/>
<path d="M52.3373 73.8772L18.1006 54.1128C15.6251 52.6846 12.5743 52.6846 10.0988 54.1128L-24.1379 73.8772C-26.6134 75.3054 -28.1368 77.9475 -28.1368 80.8039V120.337C-28.1368 123.193 -26.6134 125.835 -24.1379 127.263L10.0988 147.028C12.5743 148.456 15.6251 148.456 18.1006 147.028L52.3373 127.263C54.8128 125.835 56.3362 123.193 56.3362 120.337V80.8039C56.3362 77.9475 54.8128 75.3054 52.3373 73.8772ZM55.9395 120.337C55.9395 123.046 54.4836 125.569 52.139 126.922L17.9062 146.687C16.7518 147.353 15.4386 147.706 14.1057 147.706C12.7727 147.706 11.4596 147.353 10.3051 146.687L-23.9316 126.922C-26.2762 125.569 -27.7321 123.046 -27.7321 120.337V80.8079C-27.7321 78.0983 -26.2762 75.5752 -23.9316 74.2224L10.3051 54.4579C11.4596 53.7914 12.7727 53.4383 14.1057 53.4383C15.4386 53.4383 16.7518 53.7914 17.9062 54.4579L52.139 74.2224C54.4836 75.5752 55.9395 78.0983 55.9395 80.8079V120.337Z" fill="white"/>
</g>
<g filter="url(#filter6_d_486_2782)">
<path d="M-22.7494 176.361C-24.8322 176.361 -26.911 175.825 -28.7676 174.754L-66.7811 152.808C-70.4943 150.666 -72.7993 146.671 -72.7993 142.386V98.4933C-72.7993 94.2087 -70.4943 90.2138 -66.7811 88.0715L-28.7676 66.1251C-25.0543 63.9829 -20.4445 63.9829 -16.7312 66.1251L21.2822 88.0715C24.9955 90.2138 27.3004 94.2087 27.3004 98.4933V142.386C27.3004 146.671 24.9955 150.666 21.2822 152.808L-16.7312 174.754C-18.5879 175.825 -20.6667 176.361 -22.7494 176.361ZM-22.7494 70.8143C-23.7412 70.8143 -24.733 71.0682 -25.6137 71.58L-63.6272 93.5264C-65.3926 94.546 -66.4915 96.4502 -66.4915 98.4893V142.382C-66.4915 144.421 -65.3926 146.325 -63.6272 147.345L-25.6137 169.291C-23.8483 170.311 -21.6505 170.311 -19.8812 169.291L18.1323 147.345C19.9016 146.325 20.9966 144.421 20.9966 142.382V98.4893C20.9966 96.4502 19.8977 94.546 18.1323 93.5264L-19.8812 71.58C-20.7658 71.0682 -21.7576 70.8143 -22.7455 70.8143H-22.7494Z" fill="#F9F9F9"/>
<g style="mix-blend-mode:screen" opacity="0.3">
<path d="M18.3268 93.1853L-19.6867 71.239C-20.615 70.7034 -21.6743 70.4217 -22.7494 70.4217C-23.8245 70.4217 -24.8837 70.7034 -25.812 71.239L-63.8255 93.1853C-65.7138 94.2763 -66.8881 96.3115 -66.8881 98.4934V142.386C-66.8881 144.568 -65.7138 146.599 -63.8255 147.694L-25.812 169.641C-24.8837 170.176 -23.8245 170.458 -22.7494 170.458C-21.6743 170.458 -20.615 170.176 -19.6867 169.641L18.3268 147.694C20.2151 146.603 21.3894 144.572 21.3894 142.386V98.4934C21.3894 96.3115 20.2151 94.2763 18.3268 93.1853ZM20.9927 142.386C20.9927 144.425 19.8938 146.33 18.1284 147.349L-19.8851 169.296C-21.6544 170.315 -23.8483 170.315 -25.6176 169.296L-63.6311 147.349C-65.4004 146.33 -66.4954 144.425 -66.4954 142.386V98.4934C-66.4954 96.4543 -65.3965 94.55 -63.6311 93.5305L-25.6176 71.5841C-24.7329 71.0723 -23.7451 70.8184 -22.7533 70.8184C-21.7615 70.8184 -20.7737 71.0723 -19.889 71.5841L18.1244 93.5305C19.8938 94.55 20.9887 96.4543 20.9887 98.4934V142.386H20.9927ZM21.2783 88.0717L-16.7351 66.1253C-20.4484 63.983 -25.0582 63.983 -28.7715 66.1253L-66.785 88.0717C-70.4983 90.2139 -72.8032 94.2089 -72.8032 98.4934V142.386C-72.8032 146.671 -70.4983 150.666 -66.785 152.808L-28.7715 174.754C-26.9149 175.826 -24.8361 176.361 -22.7533 176.361C-20.6706 176.361 -18.5918 175.826 -16.7351 174.754L21.2783 152.808C24.9916 150.666 27.2965 146.671 27.2965 142.386V98.4934C27.2965 94.2089 24.9916 90.2139 21.2783 88.0717ZM26.8998 142.386C26.8998 146.532 24.6703 150.396 21.08 152.467L-16.9335 174.413C-18.6949 175.429 -20.7063 175.968 -22.7533 175.968C-24.8004 175.968 -26.8117 175.433 -28.5732 174.413L-66.5866 152.467C-70.1769 150.396 -72.4065 146.532 -72.4065 142.386V98.4934C-72.4065 94.3477 -70.1769 90.4877 -66.5866 88.4128L-28.5732 66.4664C-26.8117 65.4508 -24.8004 64.9113 -22.7533 64.9113C-20.7063 64.9113 -18.6949 65.4469 -16.9335 66.4664L21.08 88.4128C24.6703 90.4837 26.8998 94.3477 26.8998 98.4934V142.386Z" fill="white"/>
</g>
</g>
<g filter="url(#filter7_d_486_2782)">
</g>
<g filter="url(#filter8_d_486_2782)">
<path d="M75.0453 100.901V117.73C75.0453 118.948 75.6959 120.071 76.7472 120.678L91.3186 129.092C92.3739 129.699 93.6712 129.699 94.7225 129.092L109.294 120.678C110.349 120.071 110.996 118.944 110.996 117.73V100.901C110.996 99.6834 110.345 98.5607 109.294 97.9537L94.7225 89.5393C93.6672 88.9324 92.3699 88.9324 91.3186 89.5393L76.7472 97.9537C75.6919 98.5607 75.0453 99.6874 75.0453 100.901Z" fill="#F9F9F9"/>
<path d="M109.298 97.9499L94.7265 89.5356C93.6712 88.9286 92.374 88.9286 91.3227 89.5356L76.7512 97.9499C75.696 98.5569 75.0493 99.6836 75.0493 100.898V117.726C75.0493 118.944 75.6999 120.067 76.7512 120.674L91.3227 129.088C92.3779 129.695 93.6752 129.695 94.7265 129.088L109.298 120.674C110.353 120.067 111 118.94 111 117.726V100.898C111 99.6796 110.349 98.5569 109.298 97.9499ZM110.603 117.726C110.603 118.797 110.028 119.797 109.1 120.333L94.5281 128.747C94.0719 129.013 93.5522 129.152 93.0246 129.152C92.4969 129.152 91.9773 129.013 91.521 128.747L76.9496 120.333C76.0213 119.797 75.446 118.797 75.446 117.726V100.898C75.446 99.8264 76.0213 98.8267 76.9496 98.2911L91.521 89.8767C91.9773 89.6109 92.4969 89.4721 93.0246 89.4721C93.5522 89.4721 94.0719 89.6109 94.5281 89.8767L109.1 98.2911C110.028 98.8267 110.603 99.8264 110.603 100.898V117.726Z" fill="white"/>
</g>
<g filter="url(#filter9_d_486_2782)">
<path d="M36.1353 67.2281V84.0569C36.1353 85.2748 36.7859 86.3975 37.8372 87.0045L52.4086 95.4188C53.4639 96.0258 54.7611 96.0258 55.8124 95.4188L70.3839 87.0045C71.4391 86.3975 72.0858 85.2708 72.0858 84.0569V67.2281C72.0858 66.0102 71.4352 64.8875 70.3839 64.2805L55.8124 55.8661C54.7572 55.2591 53.4599 55.2591 52.4086 55.8661L37.8372 64.2805C36.7819 64.8875 36.1353 66.0141 36.1353 67.2281Z" fill="#F9F9F9"/>
<path d="M70.3878 64.2763L55.8164 55.862C54.7611 55.255 53.4638 55.255 52.4125 55.862L37.8411 64.2763C36.7858 64.8833 36.1392 66.01 36.1392 67.2239V84.0527C36.1392 85.2706 36.7898 86.3933 37.8411 87.0003L52.4125 95.4147C53.4678 96.0216 54.7651 96.0216 55.8164 95.4147L70.3878 87.0003C71.443 86.3933 72.0897 85.2667 72.0897 84.0527V67.2239C72.0897 66.006 71.4391 64.8833 70.3878 64.2763ZM71.693 84.0527C71.693 85.1238 71.1177 86.1236 70.1894 86.6591L55.618 95.0735C55.1618 95.3393 54.6421 95.4782 54.1144 95.4782C53.5868 95.4782 53.0671 95.3393 52.6109 95.0735L38.0395 86.6591C37.1111 86.1236 36.5359 85.1238 36.5359 84.0527V67.2239C36.5359 66.1528 37.1111 65.1531 38.0395 64.6175L52.6109 56.2031C53.0671 55.9413 53.5868 55.7985 54.1144 55.7985C54.6421 55.7985 55.1618 55.9373 55.618 56.2031L70.1894 64.6175C71.1177 65.1531 71.693 66.1528 71.693 67.2239V84.0527Z" fill="white"/>
</g>
<g filter="url(#filter10_d_486_2782)">
<path d="M46.6206 36.9505V45.6743C46.6206 46.3051 46.9578 46.8883 47.5053 47.2017L55.0588 51.5616C55.6063 51.875 56.2767 51.875 56.8242 51.5616L64.3777 47.2017C64.9251 46.8843 65.2624 46.3051 65.2624 45.6743V36.9505C65.2624 36.3197 64.9251 35.7366 64.3777 35.4231L56.8242 31.0632C56.2767 30.7459 55.6063 30.7459 55.0588 31.0632L47.5053 35.4231C46.9578 35.7366 46.6206 36.3197 46.6206 36.9505Z" fill="#F9F9F9"/>
<path d="M64.3777 35.4233L56.8242 31.0594C56.2767 30.7421 55.6063 30.7421 55.0588 31.0594L47.5053 35.4233C46.9578 35.7367 46.6206 36.3199 46.6206 36.9507V45.6745C46.6206 46.3053 46.9578 46.8885 47.5053 47.2019L55.0588 51.5618C55.6063 51.8792 56.2767 51.8792 56.8242 51.5618L64.3777 47.2019C64.9251 46.8845 65.2624 46.3053 65.2624 45.6745V36.9507C65.2624 36.3199 64.9251 35.7367 64.3777 35.4233ZM64.8656 45.6745C64.8656 46.1625 64.6038 46.6147 64.1793 46.8607L56.6258 51.2246C56.4195 51.3436 56.1815 51.4071 55.9395 51.4071C55.6975 51.4071 55.4634 51.3436 55.2532 51.2246L47.6997 46.8607C47.2792 46.6187 47.0134 46.1625 47.0134 45.6745V36.9507C47.0134 36.4627 47.2752 36.0105 47.6997 35.7645L55.2532 31.4006C55.4595 31.2816 55.6975 31.2181 55.9395 31.2181C56.1815 31.2181 56.4156 31.2816 56.6258 31.4006L64.1793 35.7645C64.5998 36.0065 64.8656 36.4627 64.8656 36.9507V45.6745Z" fill="white"/>
</g>
<g filter="url(#filter11_d_486_2782)">
<path d="M116.026 97.4105V106.134C116.026 106.765 116.363 107.348 116.911 107.662L124.464 112.022C125.012 112.339 125.682 112.339 126.23 112.022L133.783 107.662C134.331 107.348 134.668 106.765 134.668 106.134V97.4105C134.668 96.7797 134.331 96.1965 133.783 95.8831L126.23 91.5232C125.682 91.2058 125.012 91.2058 124.464 91.5232L116.911 95.8831C116.363 96.1965 116.026 96.7797 116.026 97.4105Z" fill="#F9F9F9"/>
<path d="M133.787 95.8831L126.234 91.5232C125.686 91.2058 125.016 91.2058 124.468 91.5232L116.915 95.8831C116.367 96.1965 116.03 96.7797 116.03 97.4105V106.134C116.03 106.765 116.367 107.348 116.915 107.662L124.468 112.022C125.016 112.339 125.686 112.339 126.234 112.022L133.787 107.662C134.335 107.344 134.672 106.765 134.672 106.134V97.4105C134.672 96.7797 134.335 96.1965 133.787 95.8831ZM134.275 106.134C134.275 106.622 134.013 107.075 133.589 107.32L126.035 111.684C125.829 111.803 125.591 111.867 125.349 111.867C125.107 111.867 124.873 111.803 124.663 111.684L117.109 107.32C116.689 107.078 116.423 106.622 116.423 106.134V97.4105C116.423 96.9225 116.685 96.4703 117.109 96.2243L124.663 91.8604C124.869 91.7414 125.107 91.6779 125.349 91.6779C125.591 91.6779 125.825 91.7414 126.035 91.8604L133.589 96.2243C134.01 96.4663 134.275 96.9225 134.275 97.4105V106.134Z" fill="white"/>
</g>
<g filter="url(#filter12_d_486_2782)">
<path d="M194.814 91.4794V100.203C194.814 100.834 195.151 101.417 195.699 101.731L203.252 106.091C203.8 106.408 204.47 106.408 205.018 106.091L212.571 101.731C213.119 101.413 213.456 100.834 213.456 100.203V91.4794C213.456 90.8486 213.119 90.2655 212.571 89.9521L205.018 85.5922C204.47 85.2748 203.8 85.2748 203.252 85.5922L195.699 89.9521C195.151 90.2694 194.814 90.8486 194.814 91.4794Z" fill="#F9F9F9"/>
<path d="M212.571 89.9521L205.018 85.5922C204.47 85.2748 203.8 85.2748 203.252 85.5922L195.699 89.9521C195.151 90.2694 194.814 90.8486 194.814 91.4794V100.203C194.814 100.834 195.151 101.417 195.699 101.731L203.252 106.091C203.8 106.408 204.47 106.408 205.018 106.091L212.571 101.731C213.119 101.413 213.456 100.834 213.456 100.203V91.4794C213.456 90.8486 213.119 90.2655 212.571 89.9521ZM213.059 100.203C213.059 100.691 212.797 101.143 212.373 101.389L204.819 105.753C204.613 105.872 204.375 105.936 204.133 105.936C203.891 105.936 203.657 105.872 203.447 105.753L195.893 101.389C195.473 101.147 195.207 100.691 195.207 100.203V91.4794C195.207 90.9915 195.469 90.5392 195.893 90.2932L203.447 85.9294C203.653 85.8103 203.891 85.7469 204.133 85.7469C204.375 85.7469 204.609 85.8103 204.819 85.9294L212.373 90.2932C212.794 90.5352 213.059 90.9915 213.059 91.4794V100.203Z" fill="white"/>
</g>
<g filter="url(#filter13_d_486_2782)">
<path d="M4.78284 80.7205V89.4443C4.78284 90.0751 5.12005 90.6583 5.66752 90.9717L13.221 95.3316C13.7685 95.649 14.4389 95.649 14.9864 95.3316L22.5399 90.9717C23.0874 90.6543 23.4246 90.0751 23.4246 89.4443V80.7205C23.4246 80.0897 23.0874 79.5066 22.5399 79.1932L14.9864 74.8332C14.4389 74.5159 13.7685 74.5159 13.221 74.8332L5.66752 79.1932C5.12005 79.5105 4.78284 80.0897 4.78284 80.7205Z" fill="#F9F9F9"/>
<path d="M22.5399 79.1891L14.9864 74.8292C14.4389 74.5118 13.7685 74.5118 13.221 74.8292L5.66752 79.1891C5.12005 79.5065 4.78284 80.0857 4.78284 80.7165V89.4403C4.78284 90.0711 5.12005 90.6543 5.66752 90.9677L13.221 95.3276C13.7685 95.645 14.4389 95.645 14.9864 95.3276L22.5399 90.9677C23.0874 90.6503 23.4246 90.0711 23.4246 89.4403V80.7165C23.4246 80.0857 23.0874 79.5025 22.5399 79.1891ZM23.0279 89.4403C23.0279 89.9283 22.766 90.3805 22.3415 90.6265L14.788 94.9904C14.5818 95.1094 14.3437 95.1729 14.1017 95.1729C13.8597 95.1729 13.6257 95.1094 13.4154 94.9904L5.86191 90.6265C5.44139 90.3845 5.1756 89.9283 5.1756 89.4403V80.7165C5.1756 80.2285 5.43742 79.7763 5.86191 79.5303L13.4154 75.1664C13.6217 75.0474 13.8597 74.9839 14.1017 74.9839C14.3437 74.9839 14.5778 75.0474 14.788 75.1664L22.3415 79.5303C22.7621 79.7723 23.0279 80.2285 23.0279 80.7165V89.4403Z" fill="white"/>
</g>
<g filter="url(#filter14_d_486_2782)">
</g>
<g filter="url(#filter15_d_486_2782)">
<path d="M384.192 148.732C382.109 148.732 380.031 148.196 378.174 147.125L340.161 125.179C336.447 123.036 334.142 119.041 334.142 114.757V70.8642C334.142 66.5796 336.447 62.5847 340.161 60.4424L378.174 38.496C381.887 36.3537 386.497 36.3537 390.21 38.496L428.224 60.4424C431.937 62.5847 434.242 66.5796 434.242 70.8642V114.757C434.242 119.041 431.937 123.036 428.224 125.179L390.21 147.125C388.354 148.196 386.275 148.732 384.192 148.732ZM384.192 43.1852C383.2 43.1852 382.209 43.4391 381.328 43.9508L343.315 65.8973C341.549 66.9168 340.45 68.8211 340.45 70.8602V114.753C340.45 116.792 341.549 118.696 343.315 119.716L381.328 141.662C383.093 142.682 385.291 142.682 387.061 141.662L425.074 119.716C426.843 118.696 427.938 116.792 427.938 114.753V70.8602C427.938 68.8211 426.839 66.9168 425.074 65.8973L387.061 43.9508C386.176 43.4391 385.184 43.1852 384.196 43.1852H384.192Z" fill="#F9F9F9"/>
<g style="mix-blend-mode:screen" opacity="0.3">
<path d="M425.268 65.5559L387.255 43.6096C386.327 43.074 385.267 42.7923 384.192 42.7923C383.117 42.7923 382.058 43.074 381.13 43.6096L343.116 65.5559C341.228 66.6469 340.054 68.6821 340.054 70.864V114.757C340.054 116.939 341.228 118.97 343.116 120.065L381.13 142.011C382.058 142.547 383.117 142.829 384.192 142.829C385.267 142.829 386.327 142.547 387.255 142.011L425.268 120.065C427.157 118.974 428.331 116.943 428.331 114.757V70.864C428.331 68.6821 427.157 66.6469 425.268 65.5559ZM427.934 114.757C427.934 116.796 426.836 118.7 425.07 119.72L387.057 141.666C385.287 142.686 383.093 142.686 381.324 141.666L343.311 119.72C341.541 118.7 340.446 116.796 340.446 114.757V70.864C340.446 68.8249 341.545 66.9207 343.311 65.9011L381.324 43.9547C382.209 43.4429 383.197 43.189 384.188 43.189C385.18 43.189 386.168 43.4429 387.053 43.9547L425.066 65.9011C426.836 66.9207 427.93 68.8249 427.93 70.864V114.757H427.934ZM428.22 60.4423L390.207 38.4959C386.493 36.3536 381.883 36.3536 378.17 38.4959L340.157 60.4423C336.443 62.5845 334.139 66.5795 334.139 70.864V114.757C334.139 119.041 336.443 123.036 340.157 125.179L378.17 147.125C380.027 148.196 382.106 148.732 384.188 148.732C386.271 148.732 388.35 148.196 390.207 147.125L428.22 125.179C431.933 123.036 434.238 119.041 434.238 114.757V70.864C434.238 66.5795 431.933 62.5845 428.22 60.4423ZM433.842 114.757C433.842 118.903 431.612 122.767 428.022 124.837L390.008 146.784C388.247 147.799 386.235 148.339 384.188 148.339C382.141 148.339 380.13 147.803 378.369 146.784L340.355 124.837C336.765 122.767 334.535 118.903 334.535 114.757V70.864C334.535 66.7183 336.765 62.8583 340.355 60.7834L378.369 38.837C380.13 37.8214 382.141 37.2819 384.188 37.2819C386.235 37.2819 388.247 37.8175 390.008 38.837L428.022 60.7834C431.612 62.8543 433.842 66.7183 433.842 70.864V114.757Z" fill="white"/>
</g>
</g>
<g filter="url(#filter16_d_486_2782)">
<path d="M288.79 61.9379C286.707 61.9379 284.628 61.4023 282.771 60.3312L244.758 38.3848C241.045 36.2425 238.74 32.2476 238.74 27.963V-15.9298C238.74 -20.2143 241.045 -24.2093 244.758 -26.3516L282.771 -48.298C286.485 -50.4402 291.095 -50.4402 294.808 -48.298L332.821 -26.3516C336.535 -24.2093 338.84 -20.2143 338.84 -15.9298V27.963C338.84 32.2476 336.535 36.2425 332.821 38.3848L294.808 60.3312C292.951 61.4023 290.872 61.9379 288.79 61.9379ZM288.79 -43.6088C287.798 -43.6088 286.806 -43.3549 285.925 -42.8431L247.912 -20.8967C246.147 -19.8771 245.048 -17.9729 245.048 -15.9338V27.959C245.048 29.9982 246.147 31.9024 247.912 32.922L285.925 54.8684C287.691 55.8879 289.889 55.8879 291.658 54.8684L329.671 32.922C331.441 31.9024 332.536 29.9982 332.536 27.959V-15.9338C332.536 -17.9729 331.437 -19.8771 329.671 -20.8967L291.658 -42.8431C290.773 -43.3549 289.781 -43.6088 288.794 -43.6088H288.79Z" fill="#F9F9F9"/>
<g style="mix-blend-mode:screen" opacity="0.3">
<path d="M329.866 -21.2379L291.852 -43.1843C290.924 -43.7198 289.865 -44.0015 288.79 -44.0015C287.715 -44.0015 286.655 -43.7198 285.727 -43.1843L247.714 -21.2379C245.825 -20.1469 244.651 -18.1117 244.651 -15.9298V27.963C244.651 30.145 245.825 32.1761 247.714 33.2711L285.727 55.2175C286.655 55.753 287.715 56.0347 288.79 56.0347C289.865 56.0347 290.924 55.753 291.852 55.2175L329.866 33.2711C331.754 32.1801 332.929 30.1489 332.929 27.963V-15.9298C332.929 -18.1117 331.754 -20.1469 329.866 -21.2379ZM332.532 27.963C332.532 30.0021 331.433 31.9064 329.668 32.9259L291.654 54.8723C289.885 55.8919 287.691 55.8919 285.922 54.8723L247.908 32.9259C246.139 31.9064 245.044 30.0021 245.044 27.963V-15.9298C245.044 -17.9689 246.143 -19.8732 247.908 -20.8927L285.922 -42.8391C286.806 -43.3509 287.794 -43.6048 288.786 -43.6048C289.778 -43.6048 290.765 -43.3509 291.65 -42.8391L329.664 -20.8927C331.433 -19.8732 332.528 -17.9689 332.528 -15.9298V27.963H332.532ZM332.817 -26.3516L294.804 -48.298C291.091 -50.4402 286.481 -50.4402 282.768 -48.298L244.754 -26.3516C241.041 -24.2093 238.736 -20.2143 238.736 -15.9298V27.963C238.736 32.2476 241.041 36.2425 244.754 38.3848L282.768 60.3312C284.624 61.4023 286.703 61.9379 288.786 61.9379C290.869 61.9379 292.947 61.4023 294.804 60.3312L332.817 38.3848C336.531 36.2425 338.836 32.2476 338.836 27.963V-15.9298C338.836 -20.2143 336.531 -24.2093 332.817 -26.3516ZM338.439 27.963C338.439 32.1087 336.209 35.9727 332.619 38.0436L294.606 59.99C292.844 61.0056 290.833 61.5451 288.786 61.5451C286.739 61.5451 284.727 61.0095 282.966 59.99L244.953 38.0436C241.362 35.9727 239.133 32.1087 239.133 27.963V-15.9298C239.133 -20.0755 241.362 -23.9356 244.953 -26.0104L282.966 -47.9568C284.727 -48.9724 286.739 -49.5119 288.786 -49.5119C290.833 -49.5119 292.844 -48.9763 294.606 -47.9568L332.619 -26.0104C336.209 -23.9395 338.439 -20.0755 338.439 -15.9298V27.963Z" fill="white"/>
</g>
</g>
<g filter="url(#filter17_d_486_2782)">
<path d="M268.383 12.3997V29.2285C268.383 30.4464 269.033 31.5691 270.085 32.1761L284.656 40.5905C285.711 41.1974 287.008 41.1974 288.06 40.5905L302.631 32.1761C303.686 31.5691 304.333 30.4424 304.333 29.2285V12.3997C304.333 11.1818 303.683 10.0591 302.631 9.45213L288.06 1.03775C287.005 0.430775 285.707 0.430775 284.656 1.03775L270.085 9.45213C269.029 10.0591 268.383 11.1858 268.383 12.3997Z" fill="#F9F9F9"/>
<path d="M302.635 9.45213L288.064 1.03775C287.008 0.430775 285.711 0.430775 284.66 1.03775L270.088 9.45213C269.033 10.0591 268.387 11.1858 268.387 12.3997V29.2285C268.387 30.4464 269.037 31.5691 270.088 32.1761L284.66 40.5905C285.715 41.1974 287.012 41.1974 288.064 40.5905L302.635 32.1761C303.69 31.5691 304.337 30.4424 304.337 29.2285V12.3997C304.337 11.1818 303.686 10.0591 302.635 9.45213ZM303.94 29.2285C303.94 30.2996 303.365 31.2993 302.437 31.8349L287.865 40.2493C287.409 40.5111 286.889 40.6539 286.362 40.6539C285.834 40.6539 285.314 40.5151 284.858 40.2493L270.287 31.8349C269.359 31.2993 268.783 30.2996 268.783 29.2285V12.3997C268.783 11.3286 269.359 10.3289 270.287 9.7933L284.858 1.37893C285.314 1.11313 285.834 0.974276 286.362 0.974276C286.889 0.974276 287.409 1.11313 287.865 1.37893L302.437 9.7933C303.365 10.3289 303.94 11.3286 303.94 12.3997V29.2285Z" fill="white"/>
</g>
<g filter="url(#filter18_d_486_2782)">
<path d="M213.636 35.8615V44.5853C213.636 45.2161 213.973 45.7993 214.52 46.1127L222.074 50.4726C222.621 50.786 223.292 50.786 223.839 50.4726L231.393 46.1127C231.94 45.7953 232.277 45.2161 232.277 44.5853V35.8615C232.277 35.2307 231.94 34.6476 231.393 34.3342L223.839 29.9742C223.292 29.6569 222.621 29.6569 222.074 29.9742L214.52 34.3342C213.973 34.6476 213.636 35.2307 213.636 35.8615Z" fill="#F9F9F9"/>
<path d="M231.393 34.3302L223.839 29.9703C223.292 29.653 222.621 29.653 222.074 29.9703L214.52 34.3302C213.973 34.6437 213.636 35.2268 213.636 35.8576V44.5814C213.636 45.2122 213.973 45.7954 214.52 46.1088L222.074 50.4687C222.621 50.7861 223.292 50.7861 223.839 50.4687L231.393 46.1088C231.94 45.7914 232.277 45.2122 232.277 44.5814V35.8576C232.277 35.2268 231.94 34.6437 231.393 34.3302ZM231.881 44.5814C231.881 45.0694 231.619 45.5216 231.194 45.7676L223.641 50.1315C223.435 50.2505 223.197 50.314 222.955 50.314C222.713 50.314 222.478 50.2505 222.268 50.1315L214.715 45.7676C214.294 45.5256 214.028 45.0694 214.028 44.5814V35.8576C214.028 35.3697 214.29 34.9174 214.715 34.6714L222.268 30.3075C222.474 30.1885 222.713 30.125 222.955 30.125C223.197 30.125 223.431 30.1885 223.641 30.3075L231.194 34.6714C231.615 34.9134 231.881 35.3697 231.881 35.8576V44.5814Z" fill="white"/>
</g>
<g filter="url(#filter19_d_486_2782)">
<path d="M297.053 47.2156V72.6849C297.053 74.5256 298.037 76.2276 299.632 77.1479L321.69 89.8826C323.284 90.803 325.248 90.803 326.843 89.8826L348.9 77.1479C350.495 76.2276 351.479 74.5256 351.479 72.6849V47.2156C351.479 45.3749 350.495 43.6729 348.9 42.7526L326.843 30.0179C325.248 29.0975 323.284 29.0975 321.69 30.0179L299.632 42.7526C298.037 43.6729 297.053 45.3749 297.053 47.2156Z" fill="#E6E6E6"/>
<path d="M348.904 42.7526L326.847 30.0179C325.252 29.0975 323.288 29.0975 321.693 30.0179L299.636 42.7526C298.041 43.6729 297.057 45.3749 297.057 47.2156V72.6849C297.057 74.5256 298.041 76.2276 299.636 77.1479L321.693 89.8826C323.288 90.803 325.252 90.803 326.847 89.8826L348.904 77.1479C350.499 76.2276 351.483 74.5256 351.483 72.6849V47.2156C351.483 45.3749 350.499 43.6729 348.904 42.7526ZM351.086 72.6888C351.086 74.3828 350.174 75.9618 348.706 76.8107L326.648 89.5454C325.926 89.9619 325.105 90.1841 324.268 90.1841C323.431 90.1841 322.61 89.9619 321.888 89.5454L299.83 76.8107C298.363 75.9618 297.45 74.3828 297.45 72.6888V47.2196C297.45 45.5256 298.363 43.9467 299.83 43.0977L321.888 30.3631C322.61 29.9465 323.431 29.7244 324.268 29.7244C325.105 29.7244 325.926 29.9465 326.648 30.3631L348.706 43.0977C350.174 43.9467 351.086 45.5256 351.086 47.2196V72.6888Z" fill="white"/>
</g>
<g filter="url(#filter20_d_486_2782)">
<path d="M329.346 20.1157V36.9444C329.346 38.1623 329.997 39.2851 331.048 39.892L345.62 48.3064C346.675 48.9134 347.972 48.9134 349.023 48.3064L363.595 39.892C364.65 39.2851 365.297 38.1584 365.297 36.9444V20.1157C365.297 18.8978 364.646 17.775 363.595 17.1681L349.023 8.7537C347.968 8.14672 346.671 8.14672 345.62 8.7537L331.048 17.1681C329.993 17.775 329.346 18.9017 329.346 20.1157Z" fill="#F9F9F9"/>
<path d="M363.599 17.1643L349.027 8.74991C347.972 8.14293 346.675 8.14293 345.623 8.74991L331.052 17.1643C329.997 17.7713 329.35 18.8979 329.35 20.1119V36.9406C329.35 38.1586 330.001 39.2813 331.052 39.8883L345.623 48.3026C346.679 48.9096 347.976 48.9096 349.027 48.3026L363.599 39.8883C364.654 39.2813 365.3 38.1546 365.3 36.9406V20.1119C365.3 18.894 364.65 17.7713 363.599 17.1643ZM364.904 36.9406C364.904 38.0118 364.329 39.0115 363.4 39.5471L348.829 47.9615C348.373 48.2273 347.853 48.3661 347.325 48.3661C346.798 48.3661 346.278 48.2273 345.822 47.9615L331.25 39.5471C330.322 39.0115 329.747 38.0118 329.747 36.9406V20.1119C329.747 19.0408 330.322 18.041 331.25 17.5055L345.822 9.09109C346.278 8.82529 346.798 8.68643 347.325 8.68643C347.853 8.68643 348.373 8.82529 348.829 9.09109L363.4 17.5055C364.329 18.041 364.904 19.0408 364.904 20.1119V36.9406Z" fill="white"/>
</g>
<g filter="url(#filter21_d_486_2782)">
<path d="M237.609 43.6253V60.4541C237.609 61.672 238.26 62.7947 239.311 63.4017L253.883 71.816C254.938 72.423 256.235 72.423 257.286 71.816L271.858 63.4017C272.913 62.7947 273.56 61.668 273.56 60.4541V43.6253C273.56 42.4074 272.909 41.2847 271.858 40.6777L257.286 32.2633C256.231 31.6564 254.934 31.6564 253.883 32.2633L239.311 40.6777C238.256 41.2847 237.609 42.4114 237.609 43.6253Z" fill="#F9F9F9"/>
<path d="M271.862 40.6777L257.29 32.2633C256.235 31.6564 254.938 31.6564 253.887 32.2633L239.315 40.6777C238.26 41.2847 237.613 42.4114 237.613 43.6253V60.4541C237.613 61.672 238.264 62.7947 239.315 63.4017L253.887 71.816C254.942 72.423 256.239 72.423 257.29 71.816L271.862 63.4017C272.917 62.7947 273.564 61.668 273.564 60.4541V43.6253C273.564 42.4074 272.913 41.2847 271.862 40.6777ZM273.167 60.4541C273.167 61.5252 272.592 62.5249 271.663 63.0605L257.092 71.4749C256.636 71.7367 256.116 71.8795 255.588 71.8795C255.061 71.8795 254.541 71.7407 254.085 71.4749L239.513 63.0605C238.585 62.5249 238.01 61.5252 238.01 60.4541V43.6253C238.01 42.5542 238.585 41.5544 239.513 41.0189L254.085 32.6045C254.541 32.3427 255.061 32.1999 255.588 32.1999C256.116 32.1999 256.636 32.3387 257.092 32.6045L271.663 41.0189C272.592 41.5544 273.167 42.5542 273.167 43.6253V60.4541Z" fill="white"/>
</g>
</g>
</g>
</g>
<defs>
<filter id="filter0_d_486_2782" x="-107.802" y="-44.0244" width="120.104" height="131.843" filterUnits="userSpaceOnUse" color-interpolation-filters="sRGB">
<feFlood flood-opacity="0" result="BackgroundImageFix"/>
<feColorMatrix in="SourceAlpha" type="matrix" values="0 0 0 0 0 0 0 0 0 0 0 0 0 0 0 0 0 0 127 0" result="hardAlpha"/>
<feOffset dx="-4.56" dy="6"/>
<feGaussianBlur stdDeviation="5"/>
<feColorMatrix type="matrix" values="0 0 0 0 0.12549 0 0 0 0 0.117647 0 0 0 0 0.313726 0 0 0 0.2 0"/>
<feBlend mode="normal" in2="BackgroundImageFix" result="effect1_dropShadow_486_2782"/>
<feBlend mode="normal" in="SourceGraphic" in2="effect1_dropShadow_486_2782" result="shape"/>
</filter>
<filter id="filter1_d_486_2782" x="110.392" y="62.879" width="74.4256" height="81.2452" filterUnits="userSpaceOnUse" color-interpolation-filters="sRGB">
<feFlood flood-opacity="0" result="BackgroundImageFix"/>
<feColorMatrix in="SourceAlpha" type="matrix" values="0 0 0 0 0 0 0 0 0 0 0 0 0 0 0 0 0 0 127 0" result="hardAlpha"/>
<feOffset dx="-4.56" dy="6"/>
<feGaussianBlur stdDeviation="5"/>
<feColorMatrix type="matrix" values="0 0 0 0 0.12549 0 0 0 0 0.117647 0 0 0 0 0.313726 0 0 0 0.2 0"/>
<feBlend mode="normal" in2="BackgroundImageFix" result="effect1_dropShadow_486_2782"/>
<feBlend mode="normal" in="SourceGraphic" in2="effect1_dropShadow_486_2782" result="shape"/>
</filter>
<filter id="filter2_d_486_2782" x="-71.0463" y="-75.3611" width="74.4294" height="81.2491" filterUnits="userSpaceOnUse" color-interpolation-filters="sRGB">
<feFlood flood-opacity="0" result="BackgroundImageFix"/>
<feColorMatrix in="SourceAlpha" type="matrix" values="0 0 0 0 0 0 0 0 0 0 0 0 0 0 0 0 0 0 127 0" result="hardAlpha"/>
<feOffset dx="-4.56" dy="6"/>
<feGaussianBlur stdDeviation="5"/>
<feColorMatrix type="matrix" values="0 0 0 0 0.12549 0 0 0 0 0.117647 0 0 0 0 0.313726 0 0 0 0.2 0"/>
<feBlend mode="normal" in2="BackgroundImageFix" result="effect1_dropShadow_486_2782"/>
<feBlend mode="normal" in="SourceGraphic" in2="effect1_dropShadow_486_2782" result="shape"/>
</filter>
<filter id="filter3_d_486_2782" x="-82.2228" y="-1.25842" width="188.994" height="204.484" filterUnits="userSpaceOnUse" color-interpolation-filters="sRGB">
<feFlood flood-opacity="0" result="BackgroundImageFix"/>
<feColorMatrix in="SourceAlpha" type="matrix" values="0 0 0 0 0 0 0 0 0 0 0 0 0 0 0 0 0 0 127 0" result="hardAlpha"/>
<feOffset dx="-10.23" dy="10.23"/>
<feGaussianBlur stdDeviation="16.37"/>
<feColorMatrix type="matrix" values="0 0 0 0 0.12549 0 0 0 0 0.117647 0 0 0 0 0.313726 0 0 0 0.4 0"/>
<feBlend mode="normal" in2="BackgroundImageFix" result="effect1_dropShadow_486_2782"/>
<feBlend mode="normal" in="SourceGraphic" in2="effect1_dropShadow_486_2782" result="shape"/>
</filter>
<filter id="filter4_d_486_2782" x="-24.67" y="-25.3419" width="55.9583" height="60.4633" filterUnits="userSpaceOnUse" color-interpolation-filters="sRGB">
<feFlood flood-opacity="0" result="BackgroundImageFix"/>
<feColorMatrix in="SourceAlpha" type="matrix" values="0 0 0 0 0 0 0 0 0 0 0 0 0 0 0 0 0 0 127 0" result="hardAlpha"/>
<feOffset dx="-4.56" dy="6"/>
<feGaussianBlur stdDeviation="5"/>
<feColorMatrix type="matrix" values="0 0 0 0 0.12549 0 0 0 0 0.117647 0 0 0 0 0.313726 0 0 0 0.2 0"/>
<feBlend mode="normal" in2="BackgroundImageFix" result="effect1_dropShadow_486_2782"/>
<feBlend mode="normal" in="SourceGraphic" in2="effect1_dropShadow_486_2782" result="shape"/>
</filter>
<filter id="filter5_d_486_2782" x="-71.1068" y="40.3015" width="149.957" height="160.538" filterUnits="userSpaceOnUse" color-interpolation-filters="sRGB">
<feFlood flood-opacity="0" result="BackgroundImageFix"/>
<feColorMatrix in="SourceAlpha" type="matrix" values="0 0 0 0 0 0 0 0 0 0 0 0 0 0 0 0 0 0 127 0" result="hardAlpha"/>
<feOffset dx="-10.23" dy="20"/>
<feGaussianBlur stdDeviation="16.37"/>
<feColorMatrix type="matrix" values="0 0 0 0 0.12549 0 0 0 0 0.117647 0 0 0 0 0.313726 0 0 0 0.6 0"/>
<feBlend mode="normal" in2="BackgroundImageFix" result="effect1_dropShadow_486_2782"/>
<feBlend mode="normal" in="SourceGraphic" in2="effect1_dropShadow_486_2782" result="shape"/>
</filter>
<filter id="filter6_d_486_2782" x="-87.3632" y="60.5184" width="120.104" height="131.843" filterUnits="userSpaceOnUse" color-interpolation-filters="sRGB">
<feFlood flood-opacity="0" result="BackgroundImageFix"/>
<feColorMatrix in="SourceAlpha" type="matrix" values="0 0 0 0 0 0 0 0 0 0 0 0 0 0 0 0 0 0 127 0" result="hardAlpha"/>
<feOffset dx="-4.56" dy="6"/>
<feGaussianBlur stdDeviation="5"/>
<feColorMatrix type="matrix" values="0 0 0 0 0.12549 0 0 0 0 0.117647 0 0 0 0 0.313726 0 0 0 0.2 0"/>
<feBlend mode="normal" in2="BackgroundImageFix" result="effect1_dropShadow_486_2782"/>
<feBlend mode="normal" in="SourceGraphic" in2="effect1_dropShadow_486_2782" result="shape"/>
</filter>
<filter id="filter7_d_486_2782" x="-105.32" y="6.99024" width="119.906" height="126.729" filterUnits="userSpaceOnUse" color-interpolation-filters="sRGB">
<feFlood flood-opacity="0" result="BackgroundImageFix"/>
<feColorMatrix in="SourceAlpha" type="matrix" values="0 0 0 0 0 0 0 0 0 0 0 0 0 0 0 0 0 0 127 0" result="hardAlpha"/>
<feOffset dx="-10.23" dy="10.23"/>
<feGaussianBlur stdDeviation="16.37"/>
<feColorMatrix type="matrix" values="0 0 0 0 0.12549 0 0 0 0 0.117647 0 0 0 0 0.313726 0 0 0 0.4 0"/>
<feBlend mode="normal" in2="BackgroundImageFix" result="effect1_dropShadow_486_2782"/>
<feBlend mode="normal" in="SourceGraphic" in2="effect1_dropShadow_486_2782" result="shape"/>
</filter>
<filter id="filter8_d_486_2782" x="60.4853" y="85.0803" width="55.9545" height="60.4669" filterUnits="userSpaceOnUse" color-interpolation-filters="sRGB">
<feFlood flood-opacity="0" result="BackgroundImageFix"/>
<feColorMatrix in="SourceAlpha" type="matrix" values="0 0 0 0 0 0 0 0 0 0 0 0 0 0 0 0 0 0 127 0" result="hardAlpha"/>
<feOffset dx="-4.56" dy="6"/>
<feGaussianBlur stdDeviation="5"/>
<feColorMatrix type="matrix" values="0 0 0 0 0.12549 0 0 0 0 0.117647 0 0 0 0 0.313726 0 0 0 0.2 0"/>
<feBlend mode="normal" in2="BackgroundImageFix" result="effect1_dropShadow_486_2782"/>
<feBlend mode="normal" in="SourceGraphic" in2="effect1_dropShadow_486_2782" result="shape"/>
</filter>
<filter id="filter9_d_486_2782" x="21.5753" y="51.4067" width="55.9544" height="60.4673" filterUnits="userSpaceOnUse" color-interpolation-filters="sRGB">
<feFlood flood-opacity="0" result="BackgroundImageFix"/>
<feColorMatrix in="SourceAlpha" type="matrix" values="0 0 0 0 0 0 0 0 0 0 0 0 0 0 0 0 0 0 127 0" result="hardAlpha"/>
<feOffset dx="-4.56" dy="6"/>
<feGaussianBlur stdDeviation="5"/>
<feColorMatrix type="matrix" values="0 0 0 0 0.12549 0 0 0 0 0.117647 0 0 0 0 0.313726 0 0 0 0.2 0"/>
<feBlend mode="normal" in2="BackgroundImageFix" result="effect1_dropShadow_486_2782"/>
<feBlend mode="normal" in="SourceGraphic" in2="effect1_dropShadow_486_2782" result="shape"/>
</filter>
<filter id="filter10_d_486_2782" x="38.6206" y="26.8214" width="30.6417" height="32.9784" filterUnits="userSpaceOnUse" color-interpolation-filters="sRGB">
<feFlood flood-opacity="0" result="BackgroundImageFix"/>
<feColorMatrix in="SourceAlpha" type="matrix" values="0 0 0 0 0 0 0 0 0 0 0 0 0 0 0 0 0 0 127 0" result="hardAlpha"/>
<feOffset dx="-2" dy="2"/>
<feGaussianBlur stdDeviation="3"/>
<feColorMatrix type="matrix" values="0 0 0 0 0.12549 0 0 0 0 0.117647 0 0 0 0 0.313726 0 0 0 0.1 0"/>
<feBlend mode="normal" in2="BackgroundImageFix" result="effect1_dropShadow_486_2782"/>
<feBlend mode="normal" in="SourceGraphic" in2="effect1_dropShadow_486_2782" result="shape"/>
</filter>
<filter id="filter11_d_486_2782" x="109.026" y="90.2852" width="26.6458" height="28.9745" filterUnits="userSpaceOnUse" color-interpolation-filters="sRGB">
<feFlood flood-opacity="0" result="BackgroundImageFix"/>
<feColorMatrix in="SourceAlpha" type="matrix" values="0 0 0 0 0 0 0 0 0 0 0 0 0 0 0 0 0 0 127 0" result="hardAlpha"/>
<feOffset dx="-3" dy="3"/>
<feGaussianBlur stdDeviation="2"/>
<feColorMatrix type="matrix" values="0 0 0 0 0.12549 0 0 0 0 0.117647 0 0 0 0 0.313726 0 0 0 0.2 0"/>
<feBlend mode="normal" in2="BackgroundImageFix" result="effect1_dropShadow_486_2782"/>
<feBlend mode="normal" in="SourceGraphic" in2="effect1_dropShadow_486_2782" result="shape"/>
</filter>
<filter id="filter12_d_486_2782" x="186.814" y="81.3541" width="30.6417" height="32.9745" filterUnits="userSpaceOnUse" color-interpolation-filters="sRGB">
<feFlood flood-opacity="0" result="BackgroundImageFix"/>
<feColorMatrix in="SourceAlpha" type="matrix" values="0 0 0 0 0 0 0 0 0 0 0 0 0 0 0 0 0 0 127 0" result="hardAlpha"/>
<feOffset dx="-2" dy="2"/>
<feGaussianBlur stdDeviation="3"/>
<feColorMatrix type="matrix" values="0 0 0 0 0.12549 0 0 0 0 0.117647 0 0 0 0 0.313726 0 0 0 0.1 0"/>
<feBlend mode="normal" in2="BackgroundImageFix" result="effect1_dropShadow_486_2782"/>
<feBlend mode="normal" in="SourceGraphic" in2="effect1_dropShadow_486_2782" result="shape"/>
</filter>
<filter id="filter13_d_486_2782" x="-3.21716" y="70.5912" width="30.6418" height="32.9785" filterUnits="userSpaceOnUse" color-interpolation-filters="sRGB">
<feFlood flood-opacity="0" result="BackgroundImageFix"/>
<feColorMatrix in="SourceAlpha" type="matrix" values="0 0 0 0 0 0 0 0 0 0 0 0 0 0 0 0 0 0 127 0" result="hardAlpha"/>
<feOffset dx="-2" dy="2"/>
<feGaussianBlur stdDeviation="3"/>
<feColorMatrix type="matrix" values="0 0 0 0 0.12549 0 0 0 0 0.117647 0 0 0 0 0.313726 0 0 0 0.1 0"/>
<feBlend mode="normal" in2="BackgroundImageFix" result="effect1_dropShadow_486_2782"/>
<feBlend mode="normal" in="SourceGraphic" in2="effect1_dropShadow_486_2782" result="shape"/>
</filter>
<filter id="filter14_d_486_2782" x="335.158" y="74.0535" width="55.9545" height="60.4631" filterUnits="userSpaceOnUse" color-interpolation-filters="sRGB">
<feFlood flood-opacity="0" result="BackgroundImageFix"/>
<feColorMatrix in="SourceAlpha" type="matrix" values="0 0 0 0 0 0 0 0 0 0 0 0 0 0 0 0 0 0 127 0" result="hardAlpha"/>
<feOffset dx="-4.56" dy="6"/>
<feGaussianBlur stdDeviation="5"/>
<feColorMatrix type="matrix" values="0 0 0 0 0.12549 0 0 0 0 0.117647 0 0 0 0 0.313726 0 0 0 0.2 0"/>
<feBlend mode="normal" in2="BackgroundImageFix" result="effect1_dropShadow_486_2782"/>
<feBlend mode="normal" in="SourceGraphic" in2="effect1_dropShadow_486_2782" result="shape"/>
</filter>
<filter id="filter15_d_486_2782" x="319.579" y="32.8892" width="120.104" height="131.843" filterUnits="userSpaceOnUse" color-interpolation-filters="sRGB">
<feFlood flood-opacity="0" result="BackgroundImageFix"/>
<feColorMatrix in="SourceAlpha" type="matrix" values="0 0 0 0 0 0 0 0 0 0 0 0 0 0 0 0 0 0 127 0" result="hardAlpha"/>
<feOffset dx="-4.56" dy="6"/>
<feGaussianBlur stdDeviation="5"/>
<feColorMatrix type="matrix" values="0 0 0 0 0.12549 0 0 0 0 0.117647 0 0 0 0 0.313726 0 0 0 0.2 0"/>
<feBlend mode="normal" in2="BackgroundImageFix" result="effect1_dropShadow_486_2782"/>
<feBlend mode="normal" in="SourceGraphic" in2="effect1_dropShadow_486_2782" result="shape"/>
</filter>
<filter id="filter16_d_486_2782" x="224.176" y="-53.9047" width="120.104" height="131.843" filterUnits="userSpaceOnUse" color-interpolation-filters="sRGB">
<feFlood flood-opacity="0" result="BackgroundImageFix"/>
<feColorMatrix in="SourceAlpha" type="matrix" values="0 0 0 0 0 0 0 0 0 0 0 0 0 0 0 0 0 0 127 0" result="hardAlpha"/>
<feOffset dx="-4.56" dy="6"/>
<feGaussianBlur stdDeviation="5"/>
<feColorMatrix type="matrix" values="0 0 0 0 0.12549 0 0 0 0 0.117647 0 0 0 0 0.313726 0 0 0 0.2 0"/>
<feBlend mode="normal" in2="BackgroundImageFix" result="effect1_dropShadow_486_2782"/>
<feBlend mode="normal" in="SourceGraphic" in2="effect1_dropShadow_486_2782" result="shape"/>
</filter>
<filter id="filter17_d_486_2782" x="253.823" y="-3.41748" width="55.9545" height="60.4631" filterUnits="userSpaceOnUse" color-interpolation-filters="sRGB">
<feFlood flood-opacity="0" result="BackgroundImageFix"/>
<feColorMatrix in="SourceAlpha" type="matrix" values="0 0 0 0 0 0 0 0 0 0 0 0 0 0 0 0 0 0 127 0" result="hardAlpha"/>
<feOffset dx="-4.56" dy="6"/>
<feGaussianBlur stdDeviation="5"/>
<feColorMatrix type="matrix" values="0 0 0 0 0.12549 0 0 0 0 0.117647 0 0 0 0 0.313726 0 0 0 0.2 0"/>
<feBlend mode="normal" in2="BackgroundImageFix" result="effect1_dropShadow_486_2782"/>
<feBlend mode="normal" in="SourceGraphic" in2="effect1_dropShadow_486_2782" result="shape"/>
</filter>
<filter id="filter18_d_486_2782" x="205.636" y="25.7323" width="30.6418" height="32.9753" filterUnits="userSpaceOnUse" color-interpolation-filters="sRGB">
<feFlood flood-opacity="0" result="BackgroundImageFix"/>
<feColorMatrix in="SourceAlpha" type="matrix" values="0 0 0 0 0 0 0 0 0 0 0 0 0 0 0 0 0 0 127 0" result="hardAlpha"/>
<feOffset dx="-2" dy="2"/>
<feGaussianBlur stdDeviation="3"/>
<feColorMatrix type="matrix" values="0 0 0 0 0.12549 0 0 0 0 0.117647 0 0 0 0 0.313726 0 0 0 0.1 0"/>
<feBlend mode="normal" in2="BackgroundImageFix" result="effect1_dropShadow_486_2782"/>
<feBlend mode="normal" in="SourceGraphic" in2="effect1_dropShadow_486_2782" result="shape"/>
</filter>
<filter id="filter19_d_486_2782" x="282.493" y="25.3276" width="74.4296" height="81.2452" filterUnits="userSpaceOnUse" color-interpolation-filters="sRGB">
<feFlood flood-opacity="0" result="BackgroundImageFix"/>
<feColorMatrix in="SourceAlpha" type="matrix" values="0 0 0 0 0 0 0 0 0 0 0 0 0 0 0 0 0 0 127 0" result="hardAlpha"/>
<feOffset dx="-4.56" dy="6"/>
<feGaussianBlur stdDeviation="5"/>
<feColorMatrix type="matrix" values="0 0 0 0 0.12549 0 0 0 0 0.117647 0 0 0 0 0.313726 0 0 0 0.2 0"/>
<feBlend mode="normal" in2="BackgroundImageFix" result="effect1_dropShadow_486_2782"/>
<feBlend mode="normal" in="SourceGraphic" in2="effect1_dropShadow_486_2782" result="shape"/>
</filter>
<filter id="filter20_d_486_2782" x="314.786" y="4.29468" width="55.9543" height="60.4669" filterUnits="userSpaceOnUse" color-interpolation-filters="sRGB">
<feFlood flood-opacity="0" result="BackgroundImageFix"/>
<feColorMatrix in="SourceAlpha" type="matrix" values="0 0 0 0 0 0 0 0 0 0 0 0 0 0 0 0 0 0 127 0" result="hardAlpha"/>
<feOffset dx="-4.56" dy="6"/>
<feGaussianBlur stdDeviation="5"/>
<feColorMatrix type="matrix" values="0 0 0 0 0.12549 0 0 0 0 0.117647 0 0 0 0 0.313726 0 0 0 0.2 0"/>
<feBlend mode="normal" in2="BackgroundImageFix" result="effect1_dropShadow_486_2782"/>
<feBlend mode="normal" in="SourceGraphic" in2="effect1_dropShadow_486_2782" result="shape"/>
</filter>
<filter id="filter21_d_486_2782" x="223.049" y="27.8081" width="55.9544" height="60.4631" filterUnits="userSpaceOnUse" color-interpolation-filters="sRGB">
<feFlood flood-opacity="0" result="BackgroundImageFix"/>
<feColorMatrix in="SourceAlpha" type="matrix" values="0 0 0 0 0 0 0 0 0 0 0 0 0 0 0 0 0 0 127 0" result="hardAlpha"/>
<feOffset dx="-4.56" dy="6"/>
<feGaussianBlur stdDeviation="5"/>
<feColorMatrix type="matrix" values="0 0 0 0 0.12549 0 0 0 0 0.117647 0 0 0 0 0.313726 0 0 0 0.2 0"/>
<feBlend mode="normal" in2="BackgroundImageFix" result="effect1_dropShadow_486_2782"/>
<feBlend mode="normal" in="SourceGraphic" in2="effect1_dropShadow_486_2782" result="shape"/>
</filter>
<linearGradient id="paint0_linear_486_2782" x1="238" y1="-379.5" x2="491.255" y2="-233.288" gradientUnits="userSpaceOnUse">
<stop stop-color="#FCEE21"/>
<stop offset="1" stop-color="#FFC700"/>
</linearGradient>
<clipPath id="clip0_486_2782">
<rect width="340" height="105" fill="white" transform="translate(0.5)"/>
</clipPath>
<clipPath id="clip1_486_2782">
<rect width="340" height="105" fill="white" transform="translate(0.5)"/>
</clipPath>
</defs>
</svg>
